<svg version="1.1" xmlns="http://www.w3.org/2000/svg" style="display: block;" viewBox="0 0 2048 2048" width="1024" height="1024" preserveAspectRatio="none">
<path transform="translate(0,0)" fill="rgb(254,254,254)" d="M 994.537 104.408 C 1002.51 103.474 1012.14 104.028 1020.23 103.87 C 1282.39 98.9221 1597.72 278.875 1593.88 570.495 C 1593.36 609.525 1592.2 649.361 1592.06 688.16 C 1614.67 715.061 1624.32 749.372 1625.69 784.034 C 1627.95 840.831 1618.87 915.304 1580.06 959.174 C 1550.31 992.8 1514.93 1000.94 1472.68 1003.44 C 1489.17 1012 1504.35 1021.05 1518.09 1033.68 C 1602.65 1111.38 1658.4 1329.25 1677.24 1438.43 C 1684.1 1478.21 1688.77 1519.62 1690.38 1559.91 C 1692.5 1613.05 1687.53 1671.07 1649.45 1711.75 C 1623.48 1739.49 1582.89 1755.02 1545.31 1755.99 C 1445.19 1758.57 1397.74 1673.28 1345.11 1604.18 C 1323.51 1575.81 1300.56 1550.32 1274.61 1525.88 C 1273.43 1527.04 1272.23 1528.16 1270.99 1529.25 C 1242.44 1554.41 1208.79 1568.43 1170.42 1565.87 C 1136.49 1563.58 1104.87 1547.85 1082.58 1522.16 C 1074.48 1522.74 1066.37 1522.75 1058.25 1522.86 C 1025.82 1522.91 981.579 1524.2 950.295 1522.21 C 944.755 1527.4 939.043 1533.02 933.037 1537.62 C 878.5 1579.46 807.367 1575.35 759.175 1525.52 C 740.635 1546.87 724.038 1562.86 705.619 1585.91 C 658.883 1644.42 620.892 1719.71 547.343 1746.82 C 510.528 1760.55 469.771 1759.12 434.012 1742.84 C 401.221 1727.58 377.632 1699.93 365.34 1666.13 C 322.968 1549.64 405.27 1242.92 457.739 1130.87 C 482.604 1077.76 516.009 1023.23 573.904 1002.25 C 545.483 1006.78 509.161 996.521 485.857 979.5 C 432.396 940.452 423.441 863.41 421.836 802.153 C 420.617 755.616 427.724 725.491 455.143 687.946 C 452.762 575.395 444.352 485.666 499.267 382.762 C 514.462 354.245 532.625 327.411 553.454 302.707 C 639.891 200.342 777.836 133.472 908.459 113.314 C 939.673 108.496 963.73 107.038 994.537 104.408 z M 734.397 1482.33 C 710.931 1414.78 742.551 1336.1 811.768 1312.35 C 846.761 1300.68 884.944 1303.25 918.052 1319.52 C 948.117 1334.41 971.002 1360.68 981.632 1392.51 C 989.829 1417.81 988.812 1449.4 980.77 1474.62 C 1005.27 1473.77 1033.89 1474.52 1058.57 1474.71 C 1027.47 1366.27 1126.54 1274.49 1233.31 1315.27 C 1301.62 1346.77 1328.6 1415.86 1303.78 1486.3 C 1331.63 1511.5 1354.52 1535.4 1378.73 1564.21 C 1425.55 1619.91 1460.64 1707.86 1546.33 1703.57 C 1636.15 1699.08 1643.74 1623 1639.25 1550.44 C 1637.27 1518.02 1633.73 1485.73 1628.64 1453.65 C 1612.9 1358.55 1567.89 1190.89 1517.36 1110.38 C 1507 1093.68 1494.31 1078.53 1479.68 1065.41 C 1442.61 1032.52 1395.67 1025.09 1347.78 1028.35 C 1329.06 1029.52 1310.66 1033.76 1293.31 1040.88 C 1260.49 1054.43 1244.14 1069.94 1205.27 1074.37 C 1182.17 1077 1167.38 1076.74 1144.16 1076.74 L 1071.24 1076.7 L 843.853 1076.73 C 803.655 1076.45 798.566 1072.46 767.335 1050.29 C 746.279 1035.35 689.575 1025.28 663.997 1028.5 C 614.998 1032.41 578.876 1043.48 545.752 1082.26 C 532.306 1098.01 521.028 1115.79 511.541 1134.17 C 455.484 1242.82 394.331 1491.08 404.461 1610.57 C 406.815 1638.34 414.488 1665 436.489 1683.54 C 456.281 1700.22 482.616 1706.01 507.997 1703.62 C 546.428 1699.99 569.756 1681.8 593.474 1652.74 C 614.045 1627.53 631.862 1600.22 651.688 1574.44 C 677.14 1541.9 704.773 1511.12 734.397 1482.33 z M 506.09 543.225 C 505.949 557.707 500.543 655.53 507.066 663.66 L 508.813 663.224 C 520.858 660.291 528.679 659.772 541.155 659.571 C 537.993 640.649 542.621 614.086 556.875 601.561 C 613.944 551.415 734.065 571.427 757.848 648.812 C 769.282 686.019 773.074 730.535 778.236 768.182 L 802.629 944.853 C 804.777 960.817 809.418 1005.19 815.137 1018.71 C 832.888 1034.58 850.7 1030.11 873.338 1030.09 L 949.823 1030.09 L 1095.63 1030.06 C 1121.49 1030.06 1147.82 1029.91 1173.42 1029.66 C 1220.27 1029.22 1250.17 1004.65 1291.5 989.744 C 1326.28 977.2 1374.33 978.712 1411.82 979.129 C 1412.83 967.443 1413.56 955.734 1414.01 944.013 L 1355.06 943.998 L 1222.56 943.769 C 1211.02 943.72 1172.42 944.134 1163.91 942.491 C 1141.54 988.506 1108.48 979.487 1064.7 980.139 C 1032.3 980.046 995.124 985.068 982.632 946.173 C 975.141 922.848 975.641 886.581 994.524 868.725 C 1017.41 847.085 1068.75 855.291 1098.2 853.929 C 1128.2 852.541 1154.85 865.914 1164.15 895.988 C 1189.01 896.253 1223.95 898.261 1248.09 893.584 C 1251.16 892.99 1254.78 861.18 1255.45 856.138 L 1271.01 739.376 C 1278.37 683.249 1275.91 643.206 1321.46 600.987 C 1372.42 553.763 1518.55 568.183 1501.92 657.626 L 1503.2 657.742 C 1510.37 658.437 1536.02 663.547 1541.26 663.1 C 1545.82 648.246 1543.55 561.22 1540.94 542.376 C 1510.53 550.029 1477.6 547.357 1450.66 530.746 C 1422.12 513.152 1403.9 473.84 1381.05 446.027 C 1287.47 332.108 1155.79 273.967 1009.11 278.471 C 888.93 281.843 777.589 320.537 693.691 409.547 C 677.854 426.099 663.259 443.796 650.023 462.493 C 630.378 490.279 614.643 521.616 582.179 536.256 C 557.08 547.574 532.878 549.422 506.09 543.225 z M 1351.5 897.717 C 1372.11 897.609 1398 896.369 1417.95 897.276 C 1425.56 843.564 1432.88 789.811 1439.89 736.019 C 1442.98 712.229 1451.85 664.68 1447.94 641.09 C 1445.92 628.905 1412.69 623.169 1399.56 624.444 C 1325.9 629.476 1327.22 679.485 1319.77 738.561 L 1306.87 838.075 C 1304.61 855.739 1302.16 880.85 1298.73 897.789 C 1316.32 897.486 1333.91 897.463 1351.5 897.717 z M 1185.48 1517.33 C 1230.73 1515.32 1265.87 1477.14 1264.12 1431.87 C 1262.37 1386.6 1224.38 1351.24 1179.11 1352.74 C 1133.46 1354.24 1097.76 1392.6 1099.52 1438.24 C 1101.29 1483.87 1139.85 1519.36 1185.48 1517.33 z M 1058.82 226.397 C 1099.22 230.319 1125.7 233.249 1165.6 243.312 C 1259.05 266.882 1350.02 323.471 1411.43 397.932 C 1419.98 408.142 1428.01 418.774 1435.49 429.788 C 1448.89 449.66 1462.03 476.66 1480.72 491.544 C 1490.02 498.951 1522.4 503.437 1532.87 496.804 C 1535.69 490.976 1528.5 471.913 1526.12 465.111 C 1486.69 352.056 1380.81 264.201 1275.79 213.558 C 1196.51 176.207 1109.83 157.198 1022.19 157.943 C 1011.36 157.961 995.142 157.648 984.873 158.5 C 889.528 165.291 802.11 186.995 718.912 235.888 C 622.33 292.646 535.382 383.821 511.003 496.23 C 570.751 514.101 581.513 468.826 609.997 429.208 C 619.235 416.36 629.23 402.314 639.338 390.155 C 665.558 359.112 695.987 331.886 729.743 309.265 C 803.824 259.339 879.824 234.923 968.541 227.401 C 985.853 225.933 1042.67 223.578 1058.82 226.397 z M 853.818 1352.4 C 808.02 1353.96 772.243 1392.5 774.09 1438.29 C 775.937 1484.07 814.704 1519.61 860.478 1517.47 C 905.844 1515.35 940.991 1477 939.16 1431.63 C 937.329 1386.25 899.207 1350.86 853.818 1352.4 z M 1463.54 955.96 C 1485.85 955.833 1506.02 952.342 1525.52 941.388 C 1554.21 920.911 1563.18 895.316 1568.6 860.565 C 1574.57 822.21 1581.93 760.732 1559.29 727.637 C 1544.67 706.257 1521.52 704.889 1498.66 700.661 C 1493.5 727.449 1489.72 760.89 1486.22 788.281 L 1471.89 896.377 C 1469.47 914.523 1467 938.304 1463.54 955.96 z M 523.078 943.94 C 540.412 952.841 564.058 956.374 583.299 956.072 C 581.505 948.836 580.504 938.679 579.374 931.055 L 572.064 882.788 L 545.867 702.99 C 544.602 702.427 545.131 702.435 544.353 702.51 C 525.379 704.264 503.45 708.848 491.011 724.616 C 467.222 754.77 471.571 806.22 475.44 841.988 C 478.748 872.579 486.846 915.702 511.984 935.921 C 515.568 938.748 519.27 941.423 523.078 943.94 z M 633.579 624.398 C 621.377 625.834 604.002 627.591 595.804 637.798 C 591.59 643.045 593.179 655.926 594.118 662.592 C 603.641 730.189 613.301 797.908 623.322 865.433 L 633.871 934.968 C 635.76 947.736 637.938 966.393 640.741 978.599 C 653.371 978.287 717.643 980.439 727.766 983.349 L 733.379 984.258 C 741.225 985.526 751.068 988.315 758.749 990.655 C 744.048 890.645 732.533 789.941 717.319 689.962 C 710.214 643.27 679.965 621.309 633.579 624.398 z"/>
<path transform="translate(0,0)" fill="rgb(254,254,254)" d="M 669.679 1080.16 C 672.618 1079.99 675.562 1079.89 678.506 1079.87 C 718.481 1079.28 714.583 1114.71 714.198 1143 C 714.05 1153.92 713.968 1164.96 713.83 1175.87 C 730.794 1176.05 748.684 1175.85 765.675 1175.62 C 790.663 1174.69 808.16 1183.65 808.555 1210.56 C 809.133 1249.92 780.673 1251.44 749.772 1250.15 C 738.705 1249.68 725.164 1250.03 713.99 1250.02 C 714.122 1271.11 715.571 1295.99 713.061 1316.86 C 711.39 1330.75 699.625 1336.84 687.189 1340.04 L 686.355 1340.07 C 674.548 1340.41 663.162 1340.58 653.98 1331.44 C 650.69 1328.15 648.318 1324.04 647.099 1319.55 C 643.998 1308.51 645.014 1263.72 645.048 1249.95 C 622.361 1250.08 571.169 1255.35 554.171 1240.56 C 538.328 1226.78 541.852 1178.84 569.656 1176.63 C 594.15 1174.68 620.114 1175.89 645.154 1175.81 C 644.378 1157.69 642.087 1111.17 649.076 1094.99 C 652.993 1085.93 660.968 1082.8 669.679 1080.16 z"/>
<path transform="translate(0,0)" fill="rgb(254,254,254)" d="M 1351.86 1256.27 C 1367.72 1252.2 1384.54 1256.97 1395.91 1268.76 C 1407.28 1280.54 1411.44 1297.53 1406.8 1313.23 C 1402.16 1328.94 1389.44 1340.94 1373.49 1344.65 C 1349.21 1350.31 1324.9 1335.37 1318.97 1311.16 C 1313.04 1286.94 1327.71 1262.47 1351.86 1256.27 z"/>
<path transform="translate(0,0)" fill="rgb(254,254,254)" d="M 1361.4 1074.64 C 1386.41 1074.67 1406.68 1094.94 1406.7 1119.95 C 1406.73 1144.97 1386.51 1165.28 1361.5 1165.37 C 1336.4 1165.46 1316 1145.15 1315.97 1120.05 C 1315.94 1094.95 1336.3 1074.6 1361.4 1074.64 z"/>
<path transform="translate(0,0)" fill="rgb(254,254,254)" d="M 1256.75 1172.21 C 1272.42 1168.66 1288.78 1173.8 1299.6 1185.66 C 1310.42 1197.53 1314.04 1214.29 1309.07 1229.56 C 1304.09 1244.83 1291.3 1256.26 1275.57 1259.48 C 1251.6 1264.38 1228.14 1249.08 1222.98 1225.15 C 1217.82 1201.23 1232.89 1177.62 1256.75 1172.21 z"/>
<path transform="translate(0,0)" fill="rgb(254,254,254)" d="M 1448.71 1172.27 C 1464.44 1168.8 1480.82 1174.08 1491.56 1186.07 C 1502.3 1198.07 1505.74 1214.93 1500.57 1230.17 C 1495.39 1245.42 1482.4 1256.7 1466.57 1259.68 C 1442.62 1264.18 1419.49 1248.64 1414.61 1224.76 C 1409.73 1200.89 1424.92 1177.51 1448.71 1172.27 z"/>
<path transform="translate(0,0)" fill="rgb(254,254,254)" d="M 887.469 1174.33 C 903.054 1172.76 948.92 1173.76 965.767 1175.8 C 973.705 1176.76 978.132 1184.2 981.941 1190.55 C 982.657 1208.47 978.383 1218.48 959.235 1221.74 C 942.357 1223.65 921.224 1221.18 903.897 1222.19 C 889.053 1223.06 866.13 1220.81 863.611 1202.19 C 862.712 1195.49 864.554 1188.71 868.718 1183.39 C 874.471 1176.02 878.853 1175.34 887.469 1174.33 z"/>
<path transform="translate(0,0)" fill="rgb(254,254,254)" d="M 1080.69 1174.25 C 1097.86 1173.71 1150.13 1171.76 1162.82 1177.92 C 1168.27 1180.56 1173.14 1184.92 1174.85 1190.9 C 1176.72 1197.43 1174.35 1205.21 1170.91 1210.83 C 1166.62 1217.86 1160.56 1219.98 1152.85 1221.75 C 1134.75 1223.67 1110.43 1220.6 1093.2 1222.16 C 1053.44 1225.74 1041.91 1180.87 1080.69 1174.25 z"/>
</svg>