<svg version="1.1" xmlns="http://www.w3.org/2000/svg" style="display: block;" viewBox="0 0 2048 2048" width="1024" height="1024" preserveAspectRatio="none">
<path transform="translate(0,0)" fill="rgb(254,254,254)" d="M 680.217 859.44 C 684.009 858.86 686.965 859.039 690.758 858.963 C 746.072 857.848 804.084 890 842.165 928.841 C 895.201 982.933 929.384 1053.83 948.613 1126.65 C 952.886 1142.83 959.583 1174.62 958.848 1190.96 C 957.899 1221.03 949.497 1250.23 946.523 1280.14 C 945.474 1290.69 944.61 1300.69 943.987 1311.29 C 943.002 1328.05 943.728 1345.02 942.527 1361.68 C 939.077 1409.52 919.912 1455.04 885.042 1488.42 C 849.974 1521.97 809.108 1538.63 760.751 1538.01 C 711.838 1536.8 662.42 1511.31 626.008 1479.46 C 536.063 1400.72 492.307 1284.18 482.374 1167.58 C 471.588 1040.98 532.223 867.889 680.217 859.44 z M 785.762 1384.36 C 813.756 1377.98 833.223 1361.88 848.436 1337.6 C 878.783 1289.18 878.076 1231.43 865.493 1177.08 C 851.087 1114.87 815.639 1044.43 761.169 1008.18 C 743.399 996.356 726.856 993.145 706.066 994.352 C 626.674 1005.73 607.748 1117.23 617.921 1182.62 C 629.391 1256.34 687.735 1399.91 781.258 1385.18 C 782.767 1384.95 784.269 1384.68 785.762 1384.36 z"/>
<path transform="translate(0,0)" fill="rgb(254,254,254)" d="M 662.899 1042.51 C 699.672 1047.13 735.702 1101.38 751.645 1132.02 C 780.973 1188.39 795.789 1260.38 774.49 1321.91 C 768.686 1338.68 759.061 1361.41 742.516 1369.93 C 741.327 1370.9 740.137 1371.02 738.476 1371.53 C 730.938 1370.22 715.362 1360.04 709.703 1354.98 C 664.123 1314.23 631.482 1232.53 624.292 1172.4 C 619.643 1133.51 623.717 1076.08 648.811 1045.81 C 654.902 1043.7 656.289 1043.22 662.899 1042.51 z"/>
<path transform="translate(0,0)" fill="rgb(254,254,254)" d="M 707.824 1002.37 C 710.619 1002.2 713.416 1002.1 716.216 1002.06 C 739.815 1001.85 766.327 1018.07 782.441 1034.78 C 836.19 1091.12 864.128 1172.12 865.48 1249.2 C 866.438 1303.8 833.74 1378.59 770.514 1378.35 C 765.149 1378.07 754.403 1377.85 750.546 1374.14 C 758.628 1365.58 766.356 1357.58 771.741 1346.79 C 819.798 1250.51 776.484 1117.56 697.451 1050.47 C 687.744 1042.23 670.445 1033.56 657.799 1036.21 C 655.368 1036.72 655.758 1036.21 653.557 1035.07 L 653.98 1033.26 C 670.427 1014.29 683.097 1005.48 707.824 1002.37 z"/>
<path transform="translate(0,0)" fill="rgb(254,254,254)" d="M 1073.24 117.479 C 1100.35 117.575 1127.28 118.5 1154.18 122.134 C 1304.4 142.432 1436.79 198.293 1530.08 321.601 C 1580.66 388.452 1622.47 488.098 1635.85 570.87 C 1638.51 587.327 1641.55 604.459 1639.13 621.112 C 1637.39 633.01 1633.1 643.898 1622.94 651.031 C 1592.1 672.685 1485.48 650.964 1444.68 650.321 C 1428.84 650.072 1398.98 656.161 1385.83 653.365 C 1376.63 651.408 1371.67 646.984 1367.05 639.185 C 1352.41 614.494 1345.49 583.953 1335.64 557.092 C 1319.04 510.767 1296.23 466.907 1267.84 426.713 C 1204.07 335.346 1090.54 232.773 977.65 213.631 C 849.905 193.076 724.369 265.098 642.319 358.514 C 579.838 429.65 533.606 522.864 509.727 614.356 C 508.895 617.541 507.695 618.972 505.177 620.735 C 500.908 621.487 498.784 620.999 494.531 620.082 C 452.814 611.087 462.895 579.074 470.961 546.438 C 512.127 401.967 601.933 270.642 732.926 193.991 C 838.512 130.93 965.062 113.099 1083.96 144.532 C 1127 155.684 1167.59 174.717 1203.69 200.666 C 1338.15 295.776 1377.67 450.386 1427.43 597.968 C 1428.14 600.086 1432.46 602.046 1434.57 602.371 C 1492.24 611.243 1550.64 619.409 1608.53 626.665 C 1599.13 613.802 1461 601.787 1436.66 594.634 L 1435.29 594.221 C 1428.42 583.293 1414.73 536.162 1410.28 520.91 C 1359.54 347.255 1267.23 175.946 1076.4 132.267 C 1051.94 126.668 1026.33 127.415 1002.49 122.928 L 1002.72 122.35 C 1030.19 119.353 1045.54 118.001 1073.24 117.479 z"/>
<path transform="translate(0,0)" fill="rgb(254,254,254)" d="M 1551.72 1045.47 C 1586.6 1042 1623.64 1061.11 1644.46 1088.43 C 1684.72 1141.24 1692.96 1217.2 1685.2 1281.39 C 1676.23 1355.5 1645.02 1428.64 1599.6 1487.61 C 1593.49 1495.47 1579.27 1511.43 1571.46 1517.44 C 1622.49 1442.66 1662.58 1345.65 1647.58 1253.89 C 1639.66 1205.43 1604.44 1165.15 1552 1175.4 C 1503.02 1184.97 1465.5 1220.03 1437.8 1259.83 C 1435.66 1262.57 1433.63 1265.39 1431.7 1268.28 C 1397.88 1318.1 1357.25 1413.23 1368.47 1472.52 C 1348.04 1487.73 1331.44 1502.58 1321.9 1526.67 C 1318.63 1533.76 1315.81 1544.25 1310.83 1550.11 C 1298.16 1565.05 1278.61 1573.38 1264.6 1586.57 C 1209.3 1541.22 1203.56 1420.3 1224.95 1356.17 C 1233.45 1330.71 1227.54 1330.74 1254.78 1323.51 C 1295.17 1312.79 1304.44 1272.58 1321.15 1240.22 C 1367.56 1150.39 1440.3 1048.23 1551.72 1045.47 z"/>
<path transform="translate(0,0)" fill="rgb(254,254,254)" d="M 923.038 220.421 C 1044.07 218.307 1140.23 289.39 1218.32 375.697 C 1261.12 422.998 1292.66 472.498 1317.36 531.31 C 1303.86 513.641 1292.09 494.099 1278.88 476.107 C 1220.56 396.679 1147.15 325.59 1057.81 282.16 C 1033.2 270.193 1004.93 258.827 977.578 256.607 C 898.742 250.207 821.306 288.397 761.93 337.577 C 744.82 351.732 722.928 374.924 708.38 390.044 C 687.217 412.039 611.581 516.723 609.261 542.698 L 610.311 543.883 C 616.711 541.085 624.772 522.357 629.234 514.55 C 649.155 479.575 671.856 446.26 697.12 414.926 C 701.238 408.586 710.186 399.004 715.484 393.14 C 782.478 318.985 880.31 255.964 984.022 264.846 C 993.251 265.636 1023.19 271.767 1029.53 277.44 C 1026.24 279.867 1011.14 284.221 1005.2 286.791 C 994.424 291.453 987.741 294.32 977.204 300.271 C 918.161 333.861 864.712 376.447 818.783 426.497 C 783.618 464.615 755.622 505.959 729.989 551.302 C 719.089 567.627 705.116 611.774 690.213 622.39 C 653.929 648.236 559.316 629.712 519.558 624.257 C 512.98 617.578 522.513 593.871 525.218 585.133 C 550.012 506.471 590.02 433.446 642.97 370.21 C 700.382 302.397 779.979 247.482 867.497 227.867 C 886.43 223.624 903.827 222.008 923.038 220.421 z"/>
<path transform="translate(0,0)" fill="rgb(254,254,254)" d="M 1320.27 868.413 C 1332.9 865.97 1391.32 868.724 1397.6 879.848 C 1397.56 880.814 1397.51 881.78 1397.47 882.746 C 1388.26 886.638 1377.85 889.987 1368.22 893.205 C 1173.59 958.274 1037.05 1163.8 1032.08 1365.91 C 1030.08 1447.14 1059.29 1544.36 1117.35 1603.95 L 1116.65 1605.36 C 1087.75 1595.6 1071.07 1589.18 1046.74 1569.02 C 989.079 1521.22 960.635 1449.72 952.298 1376.94 C 947.749 1337.22 950.349 1310.89 954.831 1272.01 C 966.255 1172.92 1006 1092.02 1068 1014.93 C 1118.67 951.933 1180.79 900.823 1260.14 878.494 C 1281.68 872.433 1298.07 870.627 1320.27 868.413 z"/>
<path transform="translate(0,0)" fill="rgb(254,254,254)" d="M 1454.11 770.931 L 1455.43 770.921 C 1474.43 770.854 1504.28 772.558 1523.02 774.384 C 1551.52 777.159 1628.61 776.971 1646.41 797.91 C 1675.17 831.77 1659.19 918.669 1656.34 959.694 C 1654.54 985.51 1647.14 1010.79 1650.57 1037.23 C 1658.8 1088.08 1687.87 1104.5 1685.89 1161.41 C 1673.48 1122.14 1661.6 1087.64 1627.59 1060.73 C 1601.59 1040.15 1566.07 1033.56 1533.54 1037.67 C 1462.77 1046.61 1411.55 1093.81 1369.82 1148.12 C 1351 1171.22 1329.37 1206.26 1315.93 1233.38 C 1294.49 1276.67 1286.49 1319.52 1227.99 1320.38 C 1219.99 1320.5 1204.78 1318.49 1199.19 1312.85 C 1198.1 1309.51 1198.08 1311.1 1198.95 1307.94 C 1201.68 1309.02 1205.72 1310.78 1208.57 1310.66 C 1253.35 1308.68 1273.69 1252.92 1290.91 1220.01 C 1300 1202.94 1309.62 1186.16 1319.75 1169.69 C 1340.26 1136.49 1367.74 1098.03 1395.47 1071.09 C 1433.72 1033.93 1461.23 1018.96 1468.14 961.503 C 1474.75 914.472 1467.41 867.72 1461.58 821.078 C 1459.78 806.7 1454.1 784.677 1454.11 770.931 z"/>
<path transform="translate(0,0)" fill="rgb(254,254,254)" d="M 1356.78 1525.99 C 1360.23 1525.74 1365.84 1525.7 1367.74 1528.64 C 1384.3 1554.21 1324.32 1601.7 1309.92 1612.83 C 1186.53 1708.29 1027.23 1759.88 872.602 1769.92 C 835.493 1772.34 800.354 1768.53 763.911 1763.96 C 753.551 1770.14 740.955 1777.17 728.508 1775.58 C 721.3 1774.72 714.772 1770.91 710.489 1765.05 C 696.24 1745.55 702.858 1698.06 725.198 1685.04 C 728.201 1683.29 735.037 1683.91 738.149 1681.62 C 735.684 1679.42 732.84 1677.78 729.41 1678.53 C 707.167 1683.55 697.071 1710.49 695.937 1731.04 C 694.658 1754.24 700.539 1766 719.865 1777.93 C 659.5 1779.46 576.526 1769.15 522.778 1740.12 C 496.005 1725.97 481.876 1704 489.057 1672.91 C 505.929 1599.86 587.035 1630.6 635.811 1645.07 C 677.704 1657.5 737.94 1655.42 761.384 1697.15 C 763.361 1700.65 765.296 1702.48 764.322 1706.71 C 759.47 1709.19 755.727 1704.37 743.535 1708.44 L 742.202 1708.89 C 729.783 1721.94 725.856 1739.51 742.952 1752.72 C 744.047 1753.57 747.801 1754.16 749.339 1753.38 C 742.551 1745.24 734.008 1732.54 738.783 1721.44 C 739.065 1720.78 739.408 1720.15 739.807 1719.56 C 747.526 1708.03 763.624 1714.62 775.593 1716.39 C 836.531 1725.41 906.332 1719.9 966.338 1708.34 C 1043.65 1693.26 1118.79 1668.62 1190.02 1634.98 C 1215.1 1623.29 1243.83 1608.78 1266.69 1593.39 C 1280.56 1584.05 1294.03 1574.15 1307.08 1563.69 C 1320.65 1552.81 1341.35 1531.73 1355.52 1526.45 L 1356.78 1525.99 z"/>
<path transform="translate(0,0)" fill="rgb(254,254,254)" d="M 1397.22 891.391 L 1398.22 891.906 C 1404.96 903.995 1399.93 942.729 1397.3 956.938 C 1379.22 966.25 1362.97 971.509 1343.29 982.526 C 1233.91 1043.77 1161.65 1163.23 1126.83 1280.57 C 1101.16 1367.06 1102.17 1491.47 1146.6 1571.59 C 1153.67 1584.5 1162.4 1596.43 1172.58 1607.07 C 1177.03 1611.67 1187.25 1618.12 1188.64 1620.67 C 1169.32 1624.21 1154.07 1617.95 1137.09 1608.97 C 1101.03 1587.59 1074.02 1530.91 1060.44 1491.9 C 1020.17 1376.22 1043.09 1260.9 1094.51 1153.06 C 1145.36 1046.4 1229.72 960.894 1337.96 913.068 C 1363.01 902.003 1373.02 899.633 1397.22 891.391 z"/>
<path transform="translate(0,0)" fill="rgb(254,254,254)" d="M 1569.62 1182.24 C 1625.23 1178.76 1645.32 1251.53 1644.1 1294.77 C 1641.21 1397.67 1587.22 1497.77 1517.79 1571.46 C 1447.17 1646.39 1368.6 1646.03 1275.2 1645.98 C 1307.83 1623.33 1326 1609.29 1355.32 1582.18 C 1402.09 1580.41 1436.09 1535.74 1464.64 1505.86 C 1472.79 1497.54 1481.62 1488.84 1492.27 1483.97 C 1528.86 1467.24 1553.4 1484.05 1583.1 1447.36 C 1601.77 1423.98 1613.66 1393.28 1611.38 1363.43 C 1605.9 1291.62 1514.63 1278.34 1477.04 1333.93 C 1462.51 1355.42 1451.77 1377.93 1455.29 1404.4 L 1455.5 1405.91 C 1441.07 1416.39 1389.7 1463.48 1375.74 1466.31 C 1374.22 1464.8 1373.85 1463.14 1373.94 1460.87 C 1377.65 1365.18 1428.08 1256.15 1507.89 1200.69 C 1526.29 1187.91 1548.01 1183.79 1569.62 1182.24 z"/>
<path transform="translate(0,0)" fill="rgb(254,254,254)" d="M 610.312 866.279 C 611.237 866.091 611.95 866.268 612.952 866.359 C 610.682 869.958 593.242 879.208 588.313 882.943 C 385.724 1035.92 468.932 1408.48 673.473 1522.01 C 688.608 1530.41 706.351 1537.09 723.277 1540.44 C 729.462 1541.66 737.553 1543.25 743.047 1546.23 L 743.02 1547.44 C 727.346 1551.23 705.769 1553.85 689.552 1554.36 C 621.492 1553.77 561.718 1513.41 518.663 1463.59 C 465.322 1401.86 434.33 1326.2 420.846 1246.11 C 403.359 1142.25 415.69 1026.16 475.392 937.054 C 508.197 888.661 555.732 875.703 610.312 866.279 z"/>
<path transform="translate(0,0)" fill="rgb(254,254,254)" d="M 1393.58 965.952 L 1394.54 966.901 C 1388.29 1001.78 1331.16 1040.91 1306.64 1069.4 C 1267.68 1113.6 1236.91 1163.24 1211.75 1216.59 C 1199.18 1243.23 1174.4 1288.23 1193.01 1317.39 C 1199.16 1327.02 1213.89 1328.11 1224.48 1330.01 C 1194.58 1403.79 1195.12 1534.3 1257.78 1590.63 C 1242.96 1600.07 1223.6 1610.24 1207.18 1616.16 C 1185.93 1623.77 1153.91 1571.35 1147.2 1555.63 C 1105.01 1456.8 1110.45 1340.4 1148.34 1241.21 C 1185.54 1143.84 1245.37 1051.13 1335.53 995.548 C 1354.91 983.55 1373.07 975.38 1393.58 965.952 z"/>
<path transform="translate(0,0)" fill="rgb(254,254,254)" d="M 507.541 892.032 L 508.286 892.477 C 507.085 895.591 507.224 894.397 503.958 896.818 C 465.923 925.018 439.81 976.714 425.138 1020.66 C 385.503 1139.39 400.671 1274.16 455.203 1385.58 C 484.298 1445.03 535.257 1505.3 593.749 1536.38 C 608.551 1544.24 625.546 1550.54 641.422 1555.94 C 618.199 1556.29 608.449 1555.46 585.28 1550.38 C 579.688 1549.24 574.141 1547.89 568.653 1546.33 C 320.523 1473.62 265.06 1065.49 466.032 914.127 C 478.242 904.932 493.371 899.859 506.663 892.523 L 507.541 892.032 z"/>
<path transform="translate(0,0)" fill="rgb(254,254,254)" d="M 1437.56 768.454 C 1439.83 768.19 1441.73 767.838 1443.63 769.422 C 1452.42 776.768 1462.49 900.739 1462.83 916.874 C 1463.42 945.188 1461.22 978.205 1447.75 1003.67 C 1434.52 1028.71 1413.91 1043.26 1394.39 1062.81 C 1375.26 1081.65 1357.66 1101.96 1341.74 1123.57 C 1323.83 1148.03 1307.54 1173.61 1292.96 1200.18 C 1284.58 1215.31 1277.42 1230.99 1269.36 1246.25 C 1255.74 1272.02 1241.44 1302.01 1208.15 1302.22 C 1203.95 1302.15 1199.88 1302.43 1196.31 1300.46 C 1194.66 1298.35 1193.92 1296.78 1193.63 1294.15 C 1190.04 1261.92 1246.51 1164.24 1265.82 1134.93 C 1278.58 1115.56 1293.13 1096.11 1308.47 1078.72 C 1320.3 1065.33 1333.15 1052.55 1346.29 1040.44 C 1358.72 1028.98 1371.9 1018.08 1382.54 1004.86 C 1425.44 951.603 1404.35 881.013 1398.19 819.702 C 1396.97 807.535 1395.54 790.315 1404.17 780.46 C 1412.37 771.106 1425.93 769.497 1437.56 768.454 z"/>
<path transform="translate(0,0)" fill="rgb(254,254,254)" d="M 513.188 722.095 C 516.599 722.009 520.012 722.013 523.423 722.109 C 554.938 723.112 586.007 728.08 617.214 731.386 C 650.49 734.912 660.594 740.902 657.544 776.522 C 655.351 802.126 651.867 828.236 649.821 853.791 C 633.334 854.188 618.066 856.408 601.777 858.113 C 558.155 864.097 527.456 872.548 487.927 891.592 C 488.277 873.342 489.135 851.381 490.258 833.213 C 492.352 803.082 497.325 773.22 505.111 744.036 C 506.78 737.911 509.555 726.64 513.188 722.095 z M 570.393 825.495 C 573.079 823.305 577.759 819.676 579.448 816.775 C 586.418 804.806 590.715 776.558 571.295 773.903 C 569.296 773.63 565.864 773.876 563.819 774.042 C 545.616 788.25 541.548 832.038 570.393 825.495 z"/>
<path transform="translate(0,0)" fill="rgb(254,254,254)" d="M 1460.29 659.947 C 1470.61 659.957 1490.84 663.299 1502.3 664.285 C 1533.45 666.963 1565.32 671.002 1596.59 671.991 C 1603.68 684.703 1616.71 756.146 1613.56 770.269 C 1602.96 772.816 1498.86 762.959 1480.55 761.665 C 1477.76 743.151 1473.37 725.133 1469.68 706.951 C 1467.73 697.367 1459.55 668.165 1460.29 659.947 z"/>
<path transform="translate(0,0)" fill="rgb(254,254,254)" d="M 1468.22 1407.12 C 1486.34 1405.77 1489.24 1425.24 1496.12 1438.41 C 1503.97 1453.43 1508.31 1459.88 1523.93 1466.85 C 1451.35 1479.58 1455.28 1524.61 1396.55 1560.47 C 1384.05 1568.1 1372.99 1571.41 1359.28 1576 C 1364.18 1570.63 1366.9 1567.79 1370.84 1561.66 C 1378.53 1548.03 1379.01 1540.7 1375.58 1526.22 C 1372.09 1522.36 1370.16 1520.99 1366.11 1517.84 C 1344.6 1518.35 1334.64 1529.4 1321 1544.04 C 1327.05 1531.86 1337.09 1510.52 1346.04 1500.96 C 1357.47 1488.75 1375.76 1476.59 1389.63 1467.4 C 1399.27 1461.48 1408.8 1452.35 1418.13 1446.36 C 1433.37 1436.58 1452.3 1413.12 1468.22 1407.12 z"/>
<path transform="translate(0,0)" fill="rgb(254,254,254)" d="M 502.17 723.334 L 503.705 723.444 C 504.006 725.57 493.043 764.059 491.859 769.96 C 483.901 809.608 480.367 854.903 482.903 895.081 C 474.355 901.116 464.741 906.481 456.25 912.912 C 446.057 920.633 436.644 928.909 426.4 936.57 C 425.966 937.165 426.362 936.757 424.577 937.869 C 424.333 937.263 424.088 936.658 423.843 936.053 C 426.374 883.478 421.844 812.351 434.787 762.487 C 444.949 723.339 474.24 728.294 502.17 723.334 z"/>
<path transform="translate(0,0)" fill="rgb(254,254,254)" d="M 1563.64 1324.16 C 1576.85 1323.06 1590.56 1324.05 1597.07 1337.78 C 1616.76 1379.34 1593.26 1450.33 1546.22 1462.05 C 1492.69 1464.89 1496.79 1400.63 1514.73 1367.85 C 1526.86 1345.69 1538.97 1331.73 1563.64 1324.16 z"/>
<path transform="translate(0,0)" fill="rgb(254,254,254)" d="M 530.656 637.474 C 566.949 643.592 602.144 647.758 638.579 651.504 C 646.344 652.303 633.533 710.72 634.175 719.113 C 634.365 721.603 630.007 722.283 628.399 722.678 C 603.775 721.501 578.346 717.853 553.714 715.525 C 545.165 714.717 524.459 714.071 518.022 711.965 C 516.123 702.969 527.216 647.342 530.656 637.474 z"/>
<path transform="translate(0,0)" fill="rgb(254,254,254)" d="M 1531.9 1307.35 C 1541.69 1305.9 1566.5 1308.47 1574.14 1314.97 C 1573.1 1316.25 1556.84 1318.15 1553.73 1319.1 C 1544.74 1321.82 1536.25 1327.78 1529.73 1334.24 C 1508.04 1355.61 1495.86 1384.8 1495.91 1415.25 C 1496.18 1417.87 1496.31 1416.94 1495.32 1419.44 C 1485 1403.56 1479.46 1396.93 1460.06 1402.12 C 1464.28 1375.19 1466.61 1359.98 1483.41 1336.89 C 1496.06 1319.51 1510.76 1310.69 1531.9 1307.35 z"/>
<path transform="translate(0,0)" fill="rgb(254,254,254)" d="M 1432.46 660.298 C 1438.57 659.471 1446.09 659.909 1452.35 660.059 C 1454.88 669.532 1473.47 756.955 1471.35 760.793 C 1468.08 762.215 1465.76 761.434 1462.17 760.899 C 1451.89 761.537 1448.51 761.145 1438.69 759.503 C 1435.01 722.846 1432.12 697.041 1418.33 661.785 C 1424.32 661.598 1426.43 661.493 1432.46 660.298 z"/>
<path transform="translate(0,0)" fill="rgb(254,254,254)" d="M 495.338 629.869 C 501.854 630.15 518.304 631.97 523.373 635.272 C 523.382 640.309 518.74 659.497 517.436 665.387 C 515.032 676.249 512.895 706.473 507.39 714.144 C 501.08 715.401 488.782 718.351 482.711 717.111 C 480.564 709.835 491.683 639.015 495.338 629.869 z"/>
</svg>