<svg id="visual" viewBox="0 0 2800 200" width="2800" height="200" xmlns="http://www.w3.org/2000/svg" xmlns:xlink="http://www.w3.org/1999/xlink" version="1.1"><rect x="0" y="0" width="2800" height="200" fill="#000000"></rect><path d="M0 194L58.3 184.5C116.7 175 233.3 156 350 152.5C466.7 149 583.3 161 700 169.8C816.7 178.7 933.3 184.3 1050 163C1166.7 141.7 1283.3 93.3 1400 83.3C1516.7 73.3 1633.3 101.7 1750 105C1866.7 108.3 1983.3 86.7 2100 76.3C2216.7 66 2333.3 67 2450 78C2566.7 89 2683.3 110 2741.7 120.5L2800 131L2800 201L2741.7 201C2683.3 201 2566.7 201 2450 201C2333.3 201 2216.7 201 2100 201C1983.3 201 1866.7 201 1750 201C1633.3 201 1516.7 201 1400 201C1283.3 201 1166.7 201 1050 201C933.3 201 816.7 201 700 201C583.3 201 466.7 201 350 201C233.3 201 116.7 201 58.3 201L0 201Z" fill="#3b3939"></path></svg>