<svg version="1.1" xmlns="http://www.w3.org/2000/svg" style="display: block;" viewBox="0 0 2048 2048" width="1024" height="1024" preserveAspectRatio="none">
<defs>
	<linearGradient id="Gradient1" gradientUnits="userSpaceOnUse" x1="1784.76" y1="414.329" x2="1324.48" y2="929.436">
		<stop class="stop0" offset="0" stop-opacity="1" stop-color="rgb(254,232,228)"/>
		<stop class="stop1" offset="1" stop-opacity="1" stop-color="rgb(255,253,255)"/>
	</linearGradient>
	<linearGradient id="Gradient2" gradientUnits="userSpaceOnUse" x1="1610.36" y1="520.26" x2="1274.99" y2="626.815">
		<stop class="stop0" offset="0" stop-opacity="1" stop-color="rgb(254,228,233)"/>
		<stop class="stop1" offset="1" stop-opacity="1" stop-color="rgb(255,251,250)"/>
	</linearGradient>
</defs>
<path transform="translate(0,0)" fill="#FFFF" d="M 852.066 103.938 C 857.883 95.3366 875.805 82.9448 886.197 79.8932 C 890.923 78.5053 902.179 80.1533 907.308 81.0136 C 934.564 85.5852 961.871 90.8343 989.041 95.9077 C 1027.41 103.109 1065.82 110.046 1104.28 116.717 L 1219.18 137.185 C 1235.83 140.223 1256.64 143.27 1272.77 147.108 C 1280.52 148.915 1287.92 151.97 1294.68 156.155 C 1319.06 171.336 1328.71 205.479 1337.22 231.481 C 1345.48 257.133 1353.48 282.868 1361.22 308.68 C 1377.66 362.41 1399.71 429.056 1412.52 483.008 C 1425.61 471.911 1446.92 449.423 1459.6 436.846 C 1490.55 406.011 1521.74 375.407 1553.15 345.037 C 1562.58 335.984 1584.44 312.943 1594.65 306.183 C 1609.08 295.815 1620.08 291.662 1638.57 294.626 C 1647.42 296.044 1669.44 302.608 1676.84 307.158 L 1678.58 308.208 C 1699.38 314.423 1703.54 346.685 1708.37 365.597 L 1723.44 425.643 C 1739.89 491.581 1784.42 671.413 1807.62 746.658 C 1808.35 747.274 1809.08 747.891 1809.81 748.507 L 1812.03 748.273 C 1815.65 738.804 1783.62 652.683 1787.68 640.922 C 1806.34 636.954 1846.21 715.234 1853.47 732.449 C 1865.15 760.164 1871.96 791.365 1878.96 820.547 C 1890.9 872.06 1902.23 923.711 1912.95 975.489 C 1915.77 988.503 1918.25 1003.25 1921.27 1015.88 C 1957.71 1049.05 1982.87 1094.99 1985.02 1145 C 1988.02 1214.51 1954.15 1271.76 1908.92 1321.52 C 1900.34 1330.96 1873.02 1358.32 1863.18 1365.1 C 1845.97 1356.5 1826.83 1351.11 1810.5 1343 C 1806.04 1345.99 1795.3 1358.84 1791.12 1363.47 C 1783.59 1371.84 1775.72 1379.89 1767.53 1387.62 C 1729.56 1422.94 1687.71 1453.85 1642.79 1479.76 C 1631.16 1486.61 1615.64 1495.75 1603.5 1501.32 C 1600.59 1503.2 1597.13 1505.31 1594.46 1507.4 C 1514.33 1552.86 1407.78 1581.91 1317.05 1597.24 C 1312.43 1598.02 1296.78 1599.74 1293.35 1601.27 C 1288.12 1599.5 1283.7 1600.27 1278.63 1602.25 L 1277.96 1603.21 C 1147.14 1618.42 1017 1609.29 890.673 1569.57 C 879.042 1565.91 843.958 1554.3 834.418 1548.03 L 825.97 1544.68 C 790.279 1526.17 757.126 1510.06 724.017 1486.51 C 715.194 1480.23 705.02 1474.13 696.996 1466.92 C 673.934 1495.42 646.819 1519.31 620.955 1544.56 C 608.656 1557.29 545.895 1617.04 534.183 1623.05 C 512.123 1617.06 478.938 1603.47 456.149 1595.7 C 384.061 1571.09 312.243 1545.69 240.706 1519.51 C 236.31 1517.92 225.003 1514.37 223.172 1510.45 C 228.476 1501.78 291.336 1450.29 303.209 1439.56 C 295.12 1408.98 282.586 1359.25 271.912 1330.52 C 260.05 1337.09 250.191 1344.92 236.945 1349.59 C 209.432 1359.28 185.34 1341.56 173.502 1317.74 C 171.255 1313.22 169.426 1307.33 167.887 1302.38 C 136.934 1202.88 107.468 1102.86 76.7186 1003.31 L 44.4242 897.948 C 15.8513 804.974 10.1925 805.696 84.6372 739.211 C 107.968 718.437 131.435 697.818 155.038 677.354 C 182.9 652.955 210.649 627.518 239.501 604.362 C 263.797 584.862 297.329 603.081 308.353 628.469 C 314.763 643.232 318.721 659.022 323.106 674.671 C 328.912 695.705 334.868 716.698 340.975 737.647 C 368.384 832.822 395.17 928.175 421.332 1023.7 C 435.624 1029.53 471.102 1038.75 487.272 1042.7 C 515.783 1049.66 550.99 1059.97 579.435 1065.02 C 594.559 1057.95 603.244 1045.09 616.061 1038.73 C 599.222 1033.09 581.344 1027.87 564.302 1022.46 C 538.445 1014.04 512.467 1005.54 486.538 997.318 C 473.823 993.286 462.999 982.652 458.153 970.156 C 449.544 947.96 443.921 924.277 437.02 901.369 C 420.592 847.362 404.486 793.257 388.704 739.057 L 338.942 574.352 L 318.957 509.411 C 315.263 497.251 310.975 484.92 308.235 472.509 C 306.204 463.306 307.463 453.527 310.881 444.817 C 314.106 436.599 319.203 428.856 325.216 422.414 C 348.11 397.891 547.953 218.647 559.176 214.205 C 572.857 208.79 588.553 210.8 601.567 217.057 C 614.969 223.501 623.245 233.069 630.155 246.093 C 637.288 259.535 641.483 274.65 646.288 289.039 L 666.114 348.569 L 715.296 497.019 C 725.103 527.542 735.082 558.009 745.234 588.419 C 748.008 596.83 750.276 605.8 753.109 613.894 C 767.191 617.424 788.668 620.063 803.941 622.762 C 840.512 629.413 877.13 635.799 913.794 641.919 C 926.442 644.023 961.352 649.129 972.512 652.624 C 964.577 635.674 956.76 602.923 950.995 584.091 L 905.287 434.167 L 845.972 240.836 C 837.755 213.601 828.626 186.632 821.355 159.02 C 813.04 127.439 831.65 109.409 863.196 114.504 C 892.64 119.259 921.822 124.921 951.172 130.094 L 1120.57 159.613 L 1210.99 174.989 C 1231.5 178.45 1260.82 181.904 1279.29 189.842 C 1260.6 173.766 1240.78 172.943 1217.29 168.579 L 1152.73 156.851 L 975.494 124.864 L 904.632 111.955 C 887.848 108.802 868.863 103.963 852.066 103.938 z M 236.719 1508.4 C 297.136 1530.54 357.752 1552.14 418.56 1573.19 C 454.481 1585.69 499.26 1599.98 533.933 1614.17 C 549.927 1598.31 566.545 1583.49 583.015 1568.18 C 591.818 1559.99 601.876 1551.34 609.798 1542.43 C 606.541 1540.61 570.875 1531.83 563.945 1529.69 C 504.57 1511.35 444.322 1493.99 385.29 1474.61 C 368.155 1468.99 322.272 1455.04 308.105 1447.02 C 284.546 1466.33 260.713 1488.4 236.719 1508.4 z M 1816.13 1336.11 C 1831.01 1342.36 1847.27 1348.2 1862.45 1354.4 C 1927.15 1296.68 1990.02 1216.87 1973.4 1124.31 C 1966.19 1084.15 1948.08 1059.33 1922.73 1029.05 C 1925.81 1055.11 1930.28 1074.22 1930.91 1101.8 C 1932.54 1173.62 1894.42 1240.51 1850.99 1295.63 C 1843.74 1304.77 1836.2 1313.66 1828.38 1322.3 C 1825.92 1325.05 1817.87 1333.59 1816.13 1336.11 z M 1275.2 718.423 C 1283.56 718.431 1307.06 687.685 1314.78 685.033 C 1311.48 664.843 1302.02 645.139 1302.42 622.967 C 1302.98 591.715 1315.87 576.908 1336.33 556.295 C 1351.56 543.196 1368.38 527.929 1381.54 512.876 C 1373.82 493.345 1364.14 455.891 1357.96 434.758 L 1313.71 283.118 C 1306.8 259.38 1299.83 231.888 1290.72 209.024 C 1288.49 203.434 1278.4 192.131 1274.03 186.762 C 1284.49 193.675 1293.96 201.227 1298.63 213.35 C 1306.05 232.606 1311.46 252.999 1317.23 272.796 L 1348.35 380.239 L 1373.36 464.926 C 1376.36 475.071 1384.24 499.697 1385.47 509.23 C 1394.73 501.002 1403.75 491.78 1412.52 483.008 C 1399.71 429.056 1377.66 362.41 1361.22 308.68 C 1353.48 282.868 1345.48 257.133 1337.22 231.481 C 1328.71 205.479 1319.06 171.336 1294.68 156.155 C 1287.92 151.97 1280.52 148.915 1272.77 147.108 C 1256.64 143.27 1235.83 140.223 1219.18 137.185 L 1104.28 116.717 C 1065.82 110.046 1027.41 103.109 989.041 95.9077 C 961.871 90.8343 934.564 85.5852 907.308 81.0136 C 902.179 80.1533 890.923 78.5053 886.197 79.8932 C 875.805 82.9448 857.883 95.3366 852.066 103.938 C 868.863 103.963 887.848 108.802 904.632 111.955 L 975.494 124.864 L 1152.73 156.851 L 1217.29 168.579 C 1240.78 172.943 1260.6 173.766 1279.29 189.842 C 1260.82 181.904 1231.5 178.45 1210.99 174.989 L 1120.57 159.613 L 951.172 130.094 C 921.822 124.921 892.64 119.259 863.196 114.504 C 831.65 109.409 813.04 127.439 821.355 159.02 C 828.626 186.632 837.755 213.601 845.972 240.836 L 905.287 434.167 L 950.995 584.091 C 956.76 602.923 964.577 635.674 972.512 652.624 C 981.981 655.408 990.928 657.853 999.702 662.565 C 1025.08 681.295 1039.53 694.938 1049.84 726.29 C 1057.75 750.315 1063.67 774.968 1071.05 799.166 C 1078.72 827.889 1090.6 861.617 1096.85 889.914 C 1105.37 877.647 1152.36 836.793 1165.17 824.543 C 1193.55 797.389 1223.39 769.275 1252.07 742.202 C 1256.42 738.089 1275.23 722.235 1276.61 719.134 L 1275.2 718.423 z M 616.061 1038.73 C 630.641 1030.24 643.736 1012.69 656.426 1005.8 C 655.482 999.576 650.581 982.806 648.83 976.168 L 632.981 915.93 L 576.438 703.711 C 574.817 696.295 573.866 687.292 574.667 679.732 C 575.189 674.346 576.715 669.105 579.165 664.28 C 584.672 653.4 611.895 619.602 621.933 611.897 C 646.513 593.033 669.721 599.416 697.334 604.237 C 714.547 607.243 735.115 611.851 751.902 613.764 L 753.109 613.894 C 750.276 605.8 748.008 596.83 745.234 588.419 C 735.082 558.009 725.103 527.542 715.296 497.019 L 666.114 348.569 L 646.288 289.039 C 641.483 274.65 637.288 259.535 630.155 246.093 C 623.245 233.069 614.969 223.501 601.567 217.057 C 588.553 210.8 572.857 208.79 559.176 214.205 C 547.953 218.647 348.11 397.891 325.216 422.414 C 319.203 428.856 314.106 436.599 310.881 444.817 C 307.463 453.527 306.204 463.306 308.235 472.509 C 310.975 484.92 315.263 497.251 318.957 509.411 L 338.942 574.352 L 388.704 739.057 C 404.486 793.257 420.592 847.362 437.02 901.369 C 443.921 924.277 449.544 947.96 458.153 970.156 C 462.999 982.652 473.823 993.286 486.538 997.318 C 512.467 1005.54 538.445 1014.04 564.302 1022.46 C 581.344 1027.87 599.222 1033.09 616.061 1038.73 z M 650.585 790.992 C 655.482 802.735 662.934 832.671 666.791 846.551 L 696.841 955.556 C 702.601 976.911 707.267 1006.51 722.773 1022.46 C 738.217 1033.16 780.921 1038.9 801.221 1042.78 C 841.519 1050.58 881.891 1057.98 922.332 1065 L 991.762 1077.8 C 1002.38 1079.66 1013.07 1081.73 1023.77 1082.94 C 1046.76 1085.53 1045.42 1074.66 1040.64 1057.47 C 1027.79 1011.31 1013.41 965.573 999.465 919.755 L 979.269 852.975 C 974.025 835.559 967.202 806.258 955.311 793.382 C 940.027 776.833 897.128 772.233 874.761 767.982 L 789.602 751.134 L 688.341 731.126 C 673.744 728.235 656.948 724.563 642.12 722.571 C 638.277 722.054 634.937 724.324 632.195 726.811 C 638.12 746.176 646.061 771.654 650.585 790.992 z M 215.644 1333.24 C 220.429 1322.54 208.835 1292.07 205.225 1280 C 197.711 1254.65 190.005 1229.35 182.107 1204.11 L 104.594 947.155 C 97.5084 923.364 90.2897 899.614 82.9384 875.904 C 78.991 863.053 74.4371 850.052 71.4056 836.978 C 67.9238 821.962 69.7687 812.478 80.7041 801.473 C 98.6933 783.369 117.825 766.514 136.615 749.296 C 171.038 717.301 205.783 685.655 240.845 654.363 C 246.293 649.465 278.591 620.924 281.731 616.206 L 280.896 614.568 L 277.434 613.552 C 265.526 622.677 248.949 638.852 237 649.523 C 207.805 675.454 178.843 701.645 150.115 728.094 C 136.188 740.872 122.16 753.54 108.032 766.096 C 87.5716 784.41 55.8554 805.96 62.4916 837.468 C 67.0665 859.19 74.2248 880.995 80.6241 902.301 L 113.821 1011.76 L 190.208 1263.74 C 193.664 1274.87 207.352 1324.35 212.238 1331.31 L 215.644 1333.24 z M 195.276 1019.54 C 195.213 1003.33 200.969 907.143 209.171 900.397 C 211.011 898.883 212.692 898.896 214.91 899.463 C 228.448 902.928 238.083 930.358 253.789 925.376 C 257.958 924.054 261.075 919.287 262.598 915.461 C 267.523 903.084 269.326 888.684 271.894 875.615 C 275.95 854.544 280.136 833.497 284.454 812.478 C 286.189 804.208 289.054 788.965 292.324 781.786 L 293.453 781.54 C 293.18 783.678 293.132 783.754 292.352 785.776 C 295.128 788.132 295.231 788.584 298.832 789.422 C 300.009 789.048 301.578 788.958 301.928 787.695 C 305.234 775.769 301.146 745.269 289.419 739.299 C 278.193 749.668 267.519 768.289 266.796 783.557 L 268.251 784.543 C 271.828 783.803 273.736 783.437 277.357 783.134 L 278.745 784.266 C 279.126 789.019 269.581 833.267 267.45 841.467 C 264.302 853.581 256.917 905.939 253.604 911.281 C 251.188 912.4 250.265 912.679 247.708 911.682 C 235.886 907.074 218.667 883.808 204.462 888.379 C 200.997 889.494 199.481 892.447 198.296 895.588 C 195.229 903.722 193.552 912.745 192.414 921.333 C 190.382 936.667 184.635 1014.47 190.062 1024.36 C 190.262 1024.72 190.528 1025.05 190.762 1025.39 L 192.423 1025.66 C 194.634 1023.48 194.51 1022.59 195.276 1019.54 z M 215.623 1110.72 C 230.414 1097.17 348.315 984.771 350.476 978.596 C 349.104 976.256 348.643 976.337 346.224 974.908 C 335.169 982.037 213.91 1096.93 212.103 1103.82 C 211.465 1106.25 211.595 1108.36 212.698 1110.62 C 215.012 1111.13 214.049 1111.29 215.623 1110.72 z M 1518.48 949.436 C 1532.21 939.72 1556.16 916.401 1568.62 904.606 L 1630.9 846.383 L 1699.74 781.448 C 1707.05 774.511 1740.62 744.853 1741.16 738.264 C 1740.1 737.631 1739.52 737.153 1738.37 736.782 C 1721.43 754.294 1696.99 775.923 1678.55 793.377 C 1635.62 833.721 1592.91 874.293 1550.42 915.092 C 1544.57 920.717 1516.81 943.942 1516.05 949.461 C 1518.07 949.67 1517.28 949.837 1518.48 949.436 z M 1496.77 842.842 C 1517.04 825.259 1701.32 650.245 1705.64 637.964 C 1705.38 635.29 1706 636.215 1704.45 634.697 C 1647.1 687.138 1594.42 745.912 1537.59 799.048 C 1529.83 806.298 1498.95 832.259 1495.31 839.835 C 1495.87 841.914 1495.46 841.238 1496.77 842.842 z M 1528.63 1002.63 C 1531.65 1001.62 1533.5 1000.49 1535.94 998.462 C 1556.68 981.323 1575.91 961.893 1595.75 943.696 C 1610.15 930.489 1721.87 829.774 1726.42 821.071 C 1727.16 819.657 1726.7 819.12 1726.38 817.669 L 1725.27 816.766 C 1684.14 852.326 1642.25 894.252 1601.74 931.432 L 1550.09 979.308 C 1544.3 984.677 1532.27 994.557 1527.93 1000.08 C 1527.92 1002.08 1527.6 1001.25 1528.63 1002.63 z M 1116.48 1557.56 C 1122.76 1546.06 1095.67 1460.91 1093.34 1444.92 C 1092.99 1442.57 1091.15 1438.57 1089.44 1436.6 C 1086.88 1435.29 1086.43 1434.89 1083.56 1434.32 C 1082.79 1436.45 1081.91 1439.22 1082.39 1441.51 C 1089.64 1476.65 1098.75 1511.52 1107.23 1546.4 C 1108.8 1552.87 1109.48 1556.75 1116.48 1557.56 z M 1068.64 1555.57 C 1070.17 1551.29 1069.79 1546.48 1068.63 1542.22 C 1064.57 1527.3 1046.93 1439.52 1038.94 1434.81 L 1034.36 1434.29 C 1033.25 1444.72 1056.17 1544.59 1062.41 1554.12 C 1065.26 1556 1065.17 1555.74 1068.64 1555.57 z M 1544.99 1351.76 C 1540.4 1359.64 1547.04 1377 1549.4 1385.99 L 1562.42 1435.63 C 1564.22 1442.43 1566.99 1457.64 1573.84 1459.86 C 1578.55 1451.73 1571.32 1431.25 1569.07 1421.78 C 1565.24 1405.68 1560.54 1389.51 1556.6 1373.42 C 1554.49 1365.53 1552.81 1355.58 1544.99 1351.76 z M 1614.41 1440.64 C 1615.32 1438.92 1617.05 1435.57 1616.72 1433.58 C 1611.86 1404.33 1602.96 1374.12 1595.29 1345.42 C 1593.67 1339.35 1592.04 1334.25 1586.95 1331.55 C 1585.94 1333.31 1584.07 1336.61 1584.55 1338.56 C 1588.68 1355.1 1603.43 1432.03 1614.41 1440.64 z M 1654.85 1420.8 C 1655.5 1419.47 1656.87 1416.74 1656.59 1415.04 C 1651.26 1382.71 1642.07 1348.47 1633.53 1316.76 C 1632.69 1313.64 1629.89 1311.22 1627.64 1309.54 C 1621.86 1325.15 1644.19 1396.67 1649.51 1415.95 C 1650.23 1418.56 1652.52 1419.86 1654.85 1420.8 z M 1692.99 1392.55 C 1694.32 1390.31 1695.43 1387.98 1695.02 1385.27 C 1690.79 1357.42 1682.84 1329.77 1676.67 1302.26 C 1675.39 1296.57 1673.15 1287.41 1669.04 1283.52 C 1664.48 1290.02 1666.12 1298.7 1667.79 1306.21 C 1673.82 1333.42 1679.47 1361.51 1688.12 1387.96 C 1688.65 1389.61 1691.58 1391.62 1692.99 1392.55 z M 1765.26 1334.33 C 1768.55 1330.52 1769.39 1329.58 1768.72 1323.59 C 1767.15 1309.51 1751.32 1231.48 1747.07 1224.43 L 1745.23 1223.39 C 1741.81 1228.05 1740.62 1230.48 1741.8 1236.46 C 1744.73 1251.35 1759.3 1325.74 1765.26 1334.33 z M 1731.8 1363.67 C 1733 1361.11 1734.16 1358.36 1733.6 1355.14 C 1728.15 1324.19 1720.79 1292.2 1713.56 1261.57 C 1712.95 1258.99 1711.14 1258.41 1709.32 1257.46 C 1704.77 1263.68 1706.62 1270.22 1707.74 1277.34 C 1709.59 1289.04 1723.15 1357.35 1728.72 1361.61 C 1729.71 1362.37 1730.75 1363.02 1731.8 1363.67 z M 1801.89 1297.35 C 1804.95 1293.24 1804.22 1288.63 1803.39 1283.76 C 1797.92 1251.89 1790.73 1220.23 1783.94 1188.63 C 1783.44 1186.3 1781.93 1184.73 1780.12 1183.31 C 1772.37 1202.44 1792.7 1268.89 1797.49 1291.35 C 1797.91 1293.33 1800.37 1296.02 1801.89 1297.35 z M 1836.32 1259.9 C 1838.77 1250.47 1818.45 1158.09 1813.83 1148.02 C 1812.84 1147.2 1812.61 1146.85 1811.47 1146.35 C 1810.34 1148.71 1808.83 1151.9 1809.15 1154.8 C 1812.79 1187.46 1822.97 1221.85 1830.77 1253.9 C 1831.58 1257.2 1833.68 1258.58 1836.32 1259.9 z M 1882.88 1013.35 C 1881.97 1015.12 1880.62 1017.58 1881.07 1019.65 C 1885.14 1038.27 1890.61 1056.72 1895.65 1075.11 C 1896.97 1079.93 1900.56 1089.43 1903.97 1092.78 C 1905.51 1088.32 1905.5 1083.98 1904.18 1079.49 C 1900.84 1068.16 1890.11 1018.5 1882.88 1013.35 z M 1667.81 597.665 C 1659.13 604.74 1606.6 658.442 1606.12 665.08 L 1607.29 666.114 L 1608.94 665.279 L 1609.81 664.297 C 1623.31 649.248 1640.01 634.908 1653.3 619.26 C 1658.98 612.565 1666.44 607.247 1671.39 599.708 L 1670.96 598.254 L 1667.81 597.665 z M 812.454 1495.99 C 813.253 1494.42 814.951 1491.01 814.734 1489.25 C 810.894 1458.22 804.29 1426.74 797.041 1396.32 C 795.681 1390.61 793.585 1387.22 788.003 1385.36 C 787.163 1387.71 786.136 1390.82 786.621 1393.32 C 792.884 1425.68 798.563 1458.34 806.014 1490.43 C 806.619 1493.04 810.172 1494.96 812.454 1495.99 z M 742.38 1376.44 C 738.178 1387.43 750.681 1447.23 754.336 1461.73 C 755.167 1465.02 758.896 1465.77 761.809 1466.4 C 765.69 1456.6 751.912 1395.71 749.734 1382.1 C 749.275 1379.23 745 1377.31 742.38 1376.44 z M 1572.81 539.086 C 1582.19 527.503 1661.44 455.163 1661.13 449.505 C 1659.56 448.548 1659.17 448.135 1657.46 447.564 C 1629.17 476.21 1598.69 503.455 1571.28 533.032 C 1569.74 534.693 1570 535.998 1569.8 538.119 L 1570.99 539.69 L 1572.81 539.086 z M 1679.67 502.66 C 1668.04 513.826 1584.93 594.834 1582.59 599.942 L 1583.09 601.659 L 1584.66 602.494 C 1595.52 593.327 1678.28 512.189 1681.58 505.346 L 1681.38 503.183 L 1679.67 502.66 z M 1460.03 1384.43 C 1454.56 1396.97 1468.4 1434.88 1471.2 1449.21 C 1473.8 1462.46 1479.2 1479.26 1483.15 1492.53 C 1484.52 1496.62 1486.5 1498.78 1490.69 1500.05 C 1494.97 1483.32 1472.79 1419 1468.63 1399 C 1467.68 1394.44 1464.51 1386.66 1460.03 1384.43 z M 1534.62 1481.91 C 1538.54 1465.86 1514.71 1394.15 1510.02 1374.11 C 1509.48 1371.77 1505.14 1371.77 1503.16 1371.62 C 1499.91 1389.7 1519.69 1444.5 1523.23 1465.05 C 1524.5 1472.47 1526.14 1481.01 1534.62 1481.91 z M 1863.58 1213.37 C 1870.53 1203 1850.33 1142.59 1848.76 1127.77 C 1848.31 1123.5 1843.42 1102.27 1841.22 1099.68 C 1836.14 1107.1 1838.58 1116.6 1840.13 1124.92 C 1842.31 1136.61 1856.99 1208.33 1862.86 1212.89 C 1863.09 1213.07 1863.34 1213.21 1863.58 1213.37 z M 837.627 1397.27 C 832.748 1411.33 851.977 1475.01 853.838 1493.48 C 854.496 1500.01 857.808 1514.59 865.311 1516.58 C 866.659 1514.1 867.532 1511.73 867.108 1508.81 C 862.35 1475.99 854.844 1443.01 847.045 1410.77 C 845.428 1404.08 844.083 1399.77 837.627 1397.27 z M 1863.05 1053.75 C 1861.62 1056.29 1860.28 1057.6 1860.88 1060.73 C 1866.61 1090.77 1875.44 1120.55 1882.83 1150.25 C 1884.15 1155.53 1886.17 1163.9 1890.67 1166.8 C 1891.3 1165.67 1891.92 1164.54 1892.54 1163.42 C 1886.34 1129.87 1877.07 1095.61 1868.34 1062.57 C 1867.08 1057.82 1865.97 1055.71 1863.05 1053.75 z M 1416.24 1397.44 C 1414.73 1400.48 1413.41 1403.48 1413.96 1406.94 C 1416.62 1423.44 1421.53 1440.68 1425.56 1456.95 C 1429.74 1473.82 1433.9 1490.66 1438.54 1507.37 C 1439.69 1511.52 1441.18 1512.3 1444.81 1514 C 1445.56 1514.35 1446.32 1514.68 1447.08 1515 C 1448.28 1511.23 1448.37 1505.87 1447.38 1502.16 C 1442.86 1485.25 1427.69 1405.42 1416.24 1397.44 z M 1371.57 1412.52 C 1370.24 1414.97 1369.09 1417.32 1369.6 1420.22 C 1375.21 1451.69 1384.2 1482.77 1391.6 1513.89 C 1393.12 1520.27 1395.16 1523.63 1400.14 1527.57 C 1404.35 1519.32 1402.41 1513.11 1400.36 1504.28 C 1394.11 1477.34 1387.35 1450.39 1380.08 1423.71 C 1378.59 1418.28 1377.04 1414.54 1371.57 1412.52 z M 1325.96 1423.14 C 1320.6 1441.02 1344.84 1513.53 1349.79 1534.95 C 1350.26 1536.95 1354.29 1538.36 1356.1 1538.9 C 1361.72 1521.64 1337.87 1449.44 1332.03 1428.57 C 1331.33 1426.06 1328.32 1424.05 1325.96 1423.14 z M 1279.27 1431.57 C 1278.15 1434.65 1277.48 1437.79 1278.25 1441.43 C 1285.29 1474.81 1293.57 1509.39 1303.32 1542.08 C 1304.03 1544.48 1306.35 1545.16 1308.42 1545.87 C 1309.12 1546.1 1309.83 1546.32 1310.54 1546.53 C 1311.51 1544.09 1312.41 1541.52 1311.92 1538.82 C 1307.13 1512.04 1299.54 1485.61 1292.9 1459.23 C 1290.94 1451.44 1288.87 1443.44 1286.02 1435.95 C 1284.53 1432.05 1283.08 1431.95 1279.27 1431.57 z M 886.367 1409.51 C 885.401 1411.91 884.508 1414.48 885.018 1417.13 C 891.467 1450.66 899.53 1484.01 907.189 1517.29 C 908.93 1524.86 909.576 1525.39 916.231 1528.68 C 920.643 1516.46 907.722 1473.93 904.951 1458.55 C 903.081 1448.17 896.994 1411.7 886.367 1409.51 z M 934.281 1418.32 C 933.942 1420.38 933.699 1423.19 934.149 1425.21 C 942.237 1461.5 949.196 1498.74 959.586 1534.37 C 960.426 1537.25 964.32 1537.78 966.745 1537.75 C 970.052 1525.71 945.783 1423.15 939.003 1419.1 L 934.281 1418.32 z M 1182.6 1435.4 C 1178.21 1448.06 1203.64 1531.93 1208.05 1550.6 C 1208.79 1553.75 1212.97 1554.8 1215.83 1555.44 C 1216.84 1553.15 1217.17 1551.49 1216.77 1548.92 C 1212.07 1519.05 1203.08 1489.7 1196.14 1460.27 C 1194.64 1453.89 1192.94 1447.72 1190.76 1441.57 C 1189.02 1436.77 1187.23 1436.27 1182.6 1435.4 z M 1229.74 1432.7 C 1228.87 1434.9 1228.01 1437.05 1228.56 1439.49 C 1236.67 1475.63 1245.2 1511.99 1255.34 1547.6 C 1256.15 1550.42 1259.9 1551.7 1262.39 1552.67 C 1263.76 1549.32 1264.68 1545.77 1263.93 1542.06 C 1256.89 1507.28 1247.95 1472.25 1237.62 1438.29 C 1236.53 1434.7 1233.04 1433.58 1229.74 1432.7 z M 1132.54 1435.29 C 1132.1 1437.93 1131.68 1442.24 1132.54 1446 C 1140.58 1481.43 1148.32 1521.31 1160.03 1555.41 C 1160.66 1557.23 1164.85 1557.65 1166.6 1557.74 C 1170.53 1538.39 1145.66 1462.93 1140.18 1439.88 C 1139.56 1437.25 1134.95 1435.88 1132.54 1435.29 z M 985.685 1427.32 C 982.032 1435.45 987.743 1452.59 989.875 1461.66 L 1001.44 1510.33 C 1003.91 1520.66 1006.2 1531.17 1008.77 1541.48 C 1009.91 1546.06 1013.44 1548.3 1017.46 1550.21 C 1020.18 1544.69 1018.97 1536.77 1017.41 1531.17 C 1012.69 1514.26 998.669 1436.39 989.042 1428.27 L 985.685 1427.32 z"/>
<path transform="translate(0,0)" fill="#FFFF" d="M 852.066 103.938 C 857.883 95.3366 875.805 82.9448 886.197 79.8932 C 890.923 78.5053 902.179 80.1533 907.308 81.0136 C 934.564 85.5852 961.871 90.8343 989.041 95.9077 C 1027.41 103.109 1065.82 110.046 1104.28 116.717 L 1219.18 137.185 C 1235.83 140.223 1256.64 143.27 1272.77 147.108 C 1280.52 148.915 1287.92 151.97 1294.68 156.155 C 1319.06 171.336 1328.71 205.479 1337.22 231.481 C 1345.48 257.133 1353.48 282.868 1361.22 308.68 C 1377.66 362.41 1399.71 429.056 1412.52 483.008 C 1403.75 491.78 1394.73 501.002 1385.47 509.23 C 1384.24 499.697 1376.36 475.071 1373.36 464.926 L 1348.35 380.239 L 1317.23 272.796 C 1311.46 252.999 1306.05 232.606 1298.63 213.35 C 1293.96 201.227 1284.49 193.675 1274.03 186.762 C 1278.4 192.131 1288.49 203.434 1290.72 209.024 C 1299.83 231.888 1306.8 259.38 1313.71 283.118 L 1357.96 434.758 C 1364.14 455.891 1373.82 493.345 1381.54 512.876 C 1368.38 527.929 1351.56 543.196 1336.33 556.295 C 1315.87 576.908 1302.98 591.715 1302.42 622.967 C 1302.02 645.139 1311.48 664.843 1314.78 685.033 C 1307.06 687.685 1283.56 718.431 1275.2 718.423 C 1267.65 717.38 1254.53 714.097 1246.72 712.409 C 1231.12 709.04 1215.5 705.79 1199.86 702.659 C 1143.99 690.862 1088.02 679.575 1031.95 668.8 C 1023.73 666.898 1007.58 662.894 999.702 662.565 C 990.928 657.853 981.981 655.408 972.512 652.624 C 964.577 635.674 956.76 602.923 950.995 584.091 L 905.287 434.167 L 845.972 240.836 C 837.755 213.601 828.626 186.632 821.355 159.02 C 813.04 127.439 831.65 109.409 863.196 114.504 C 892.64 119.259 921.822 124.921 951.172 130.094 L 1120.57 159.613 L 1210.99 174.989 C 1231.5 178.45 1260.82 181.904 1279.29 189.842 C 1260.6 173.766 1240.78 172.943 1217.29 168.579 L 1152.73 156.851 L 975.494 124.864 L 904.632 111.955 C 887.848 108.802 868.863 103.963 852.066 103.938 z M 1259.7 370.377 L 1259.4 368.131 C 1251.89 363.102 1177.34 349.829 1163.78 347.128 C 1111.49 336.359 1059.07 326.177 1006.55 316.584 C 989.431 313.421 933.144 301.337 919.562 302.018 C 921.014 304.544 922.275 307.288 925.127 307.941 C 946.005 312.719 967.96 317.261 988.91 321.139 L 1095.2 340.973 L 1205.94 362.292 C 1221.65 365.299 1237.8 368.406 1253.54 371.457 C 1255.38 371.814 1257.97 371.05 1259.7 370.377 z M 1175.18 273.612 L 1176.48 270.388 C 1172.36 263.447 1160.91 265.106 1153.76 263.085 C 1140.35 259.298 1126.32 257.184 1112.61 254.563 C 1077.4 247.65 1042.15 240.984 1006.85 234.565 C 984.111 230.31 961.337 226.26 938.527 222.415 C 931.456 221.22 916.084 218.125 909.398 217.795 L 907.337 221.107 C 910.609 228.713 934.969 230.038 943.664 231.687 C 975.051 237.964 1006.52 243.807 1038.07 249.214 L 1129.53 265.935 C 1144.23 268.585 1160.49 272.375 1175.18 273.612 z M 1224.96 446.795 C 1223.28 443.69 1222.91 443.573 1218.68 442.349 C 1200.59 437.114 1181.6 434.4 1163.12 430.865 L 1074.52 413.745 L 992.92 398.129 C 982.22 396.188 961.824 391.981 951.645 392.163 C 951.699 393.425 951.425 395.822 952.366 396.133 C 968.151 401.355 1001.16 406.578 1016.62 409.513 C 1055.54 417.075 1094.51 424.411 1133.53 431.519 C 1147.13 434.037 1215.99 448.428 1224.96 446.795 z"/>
<path transform="translate(0,0)" fill="#FFFF" d="M 973.688 489.544 C 986.976 490.321 1006.4 494.472 1020.03 496.888 L 1096.56 510.398 L 1249.09 538.793 C 1261.12 541.03 1329.96 552.197 1336.33 556.295 C 1315.87 576.908 1302.98 591.715 1302.42 622.967 C 1302.02 645.139 1311.48 664.843 1314.78 685.033 C 1307.06 687.685 1283.56 718.431 1275.2 718.423 C 1267.65 717.38 1254.53 714.097 1246.72 712.409 C 1231.12 709.04 1215.5 705.79 1199.86 702.659 C 1143.99 690.862 1088.02 679.575 1031.95 668.8 C 1028.2 652.223 1017.3 621.938 1011.76 605.28 C 998.762 566.802 986.072 528.222 973.688 489.544 z"/>
<path transform="translate(0,0)" fill="#FFFF" d="M 564.302 1022.46 C 538.445 1014.04 512.467 1005.54 486.538 997.318 C 473.823 993.286 462.999 982.652 458.153 970.156 C 449.544 947.96 443.921 924.277 437.02 901.369 C 420.592 847.362 404.486 793.257 388.704 739.057 L 338.942 574.352 L 318.957 509.411 C 315.263 497.251 310.975 484.92 308.235 472.509 C 306.204 463.306 307.463 453.527 310.881 444.817 C 314.106 436.599 319.203 428.856 325.216 422.414 C 348.11 397.891 547.953 218.647 559.176 214.205 C 572.857 208.79 588.553 210.8 601.567 217.057 C 614.969 223.501 623.245 233.069 630.155 246.093 C 637.288 259.535 641.483 274.65 646.288 289.039 L 666.114 348.569 L 715.296 497.019 C 725.103 527.542 735.082 558.009 745.234 588.419 C 748.008 596.83 750.276 605.8 753.109 613.894 L 751.902 613.764 C 735.115 611.851 714.547 607.243 697.334 604.237 C 669.721 599.416 646.513 593.033 621.933 611.897 C 611.895 619.602 584.672 653.4 579.165 664.28 C 576.715 669.105 575.189 674.346 574.667 679.732 C 573.866 687.292 574.817 696.295 576.438 703.711 L 632.981 915.93 L 648.83 976.168 C 650.581 982.806 655.482 999.576 656.426 1005.8 C 643.736 1012.69 630.641 1030.24 616.061 1038.73 C 599.222 1033.09 581.344 1027.87 564.302 1022.46 z M 467.354 881.627 L 462.459 865.629 L 389.274 612.081 L 362.712 523.135 C 358.62 509.318 354.171 494.817 350.601 480.852 C 349.655 477.153 351.723 467.095 353.717 464.225 C 364.71 448.4 393.431 425.605 405.476 413.843 C 431.029 388.891 594.793 246.649 600.982 231.464 L 600.201 230.327 C 591.331 232.797 573.258 252.382 565.53 259.432 L 507.987 311.481 L 436.429 375.918 C 419.778 390.708 353.989 445.439 345.675 461.128 C 341.126 469.714 341.386 477.834 343.035 487.093 C 346.161 504.646 352.642 522.478 357.722 539.597 C 367.11 570.664 376.264 601.801 385.182 633.006 L 438.534 815.289 C 450.523 856.218 462.959 897.591 475.563 938.375 C 476.629 941.824 477.31 944.587 480.373 946.102 C 487.823 938.641 477.889 921.997 476.027 913.462 C 473.706 902.824 469.696 892.236 467.354 881.627 z M 477.678 683.087 C 494.479 669.898 640.455 533.831 643.999 525.441 C 642.741 523.426 643.638 524.11 641.243 523.476 C 634.36 529.045 627.648 535.309 621.226 541.417 C 602.323 559.39 582.879 576.719 563.73 594.423 C 544.642 612.102 525.645 629.879 506.74 647.753 C 501.083 653.057 475.154 675.352 474.846 681.001 C 476.332 682.365 475.929 682.213 477.678 683.087 z M 433.446 513.799 C 447.098 503.251 601.451 362.448 603.54 357.918 L 602.49 356.313 L 599.272 355.74 C 587.831 365.179 576.01 376.672 564.878 386.757 L 496.678 448.668 C 485.867 458.511 436.217 501.804 430.217 511.079 L 430.06 513.34 C 432.392 514.137 431.257 514.041 433.446 513.799 z M 448.757 599.255 L 522.506 530.819 C 534.747 519.553 604.452 457.007 609.208 447.905 L 609.206 445.509 C 607.991 444.592 607.574 444.085 606.211 443.542 C 566.1 482.289 524.397 519.602 484.509 558.566 C 476.709 566.186 448.34 589.796 445.151 597.087 L 445.382 599.33 C 447.772 599.761 446.71 599.99 448.757 599.255 z"/>
<path transform="translate(0,0)" fill="#FFFF" d="M 576.438 703.711 L 632.981 915.93 L 648.83 976.168 C 650.581 982.806 655.482 999.576 656.426 1005.8 C 643.736 1012.69 630.641 1030.24 616.061 1038.73 C 599.222 1033.09 581.344 1027.87 564.302 1022.46 C 559.795 1015.2 538.657 944.489 535.058 933.292 C 526.063 905.55 516.923 877.856 507.638 850.21 C 500.732 829.511 492.81 807.982 488.753 786.637 C 493.154 780.582 518.924 756.784 525.964 750.464 C 540.032 737.833 562.278 714.125 576.438 703.711 z"/>
<path transform="translate(0,0)" fill="#FFFF" d="M 576.438 703.711 C 574.817 696.295 573.866 687.292 574.667 679.732 C 575.189 674.346 576.715 669.105 579.165 664.28 C 584.672 653.4 611.895 619.602 621.933 611.897 C 646.513 593.033 669.721 599.416 697.334 604.237 C 714.547 607.243 735.115 611.851 751.902 613.764 L 753.109 613.894 C 767.191 617.424 788.668 620.063 803.941 622.762 C 840.512 629.413 877.13 635.799 913.794 641.919 C 926.442 644.023 961.352 649.129 972.512 652.624 C 981.981 655.408 990.928 657.853 999.702 662.565 C 1025.08 681.295 1039.53 694.938 1049.84 726.29 C 1057.75 750.315 1063.67 774.968 1071.05 799.166 C 1078.72 827.889 1090.6 861.617 1096.85 889.914 C 1099.85 898.819 1104.27 916.875 1107.07 926.694 C 1117.49 963.852 1127.6 1001.1 1137.4 1038.42 C 1144.64 1065.56 1153.55 1091.32 1158.82 1119.39 C 1169.49 1165.53 1116 1178.57 1100 1137.71 C 1091.1 1114.97 1086.66 1082.51 1080.51 1058.15 C 1066.15 1001.31 1051.47 944.536 1036.48 887.849 C 1030.32 864.297 1020.78 822.479 1013.15 800.03 L 1012.53 798.266 C 996.346 712.076 976.122 710.01 896.159 694.962 L 770.947 672.241 L 673.675 654.606 C 662.353 652.578 636.588 647.218 626.925 646.839 C 595.764 642.337 573.88 667.678 581.519 697.891 C 586.739 718.536 592.498 738.951 597.927 759.533 L 656.016 979.156 C 659.758 993.298 686.158 1086.25 684.484 1094.82 L 683.315 1094.81 C 675.877 1085.45 661.318 1022.24 656.426 1005.8 C 655.482 999.576 650.581 982.806 648.83 976.168 L 632.981 915.93 L 576.438 703.711 z"/>
<path transform="translate(0,0)" fill="#FFFF" d="M 646.946 606.124 C 676.002 604.502 696.85 610.355 725.231 615.198 C 758.049 620.55 790.817 626.202 823.532 632.154 L 917.835 648.451 C 935.65 651.53 953.009 654.091 970.697 657.968 C 1035.4 672.148 1044.73 726.493 1060.36 781.021 L 1096.41 910.224 L 1134.11 1048.53 C 1140.81 1073.12 1149.47 1098.81 1153.38 1123.83 C 1157.47 1149.99 1139.59 1164.44 1116.02 1149.48 C 1111.36 1144.88 1106.01 1138.74 1104.22 1132.42 C 1096.62 1105.61 1091.95 1077.47 1084.89 1050.43 L 1024.62 819.337 C 1018.04 794.245 1011.76 764.594 1002.33 740.47 C 998.723 731.247 982.236 714.281 973.583 709.179 C 951.354 696.072 918.961 692.809 893.35 688.139 L 786.546 668.892 C 752.567 662.445 718.548 656.208 684.492 650.182 C 657.189 645.223 629.448 637.036 602.003 642.714 C 618.787 624.757 620.274 613.677 646.946 606.124 z"/>
<path transform="translate(0,0)" fill="#FFFF" d="M 1274.03 186.762 C 1284.49 193.675 1293.96 201.227 1298.63 213.35 C 1306.05 232.606 1311.46 252.999 1317.23 272.796 L 1348.35 380.239 L 1373.36 464.926 C 1376.36 475.071 1384.24 499.697 1385.47 509.23 C 1394.73 501.002 1403.75 491.78 1412.52 483.008 C 1425.61 471.911 1446.92 449.423 1459.6 436.846 C 1490.55 406.011 1521.74 375.407 1553.15 345.037 C 1562.58 335.984 1584.44 312.943 1594.65 306.183 C 1592.33 312.134 1556.36 346.348 1549.76 352.907 L 1395.46 507.824 C 1382.45 520.731 1369.29 533.707 1356.13 546.457 C 1344.85 557.385 1333.84 565.43 1324.18 578.074 C 1315.42 589.331 1309.95 602.794 1308.38 616.969 C 1306.03 637.159 1324.47 698.832 1330.42 722.886 L 1381.23 927.547 L 1396.92 991.918 C 1398.45 998.191 1406.05 1018.64 1402.06 1023.32 C 1399.27 1021.1 1396.85 1015.55 1396.01 1012.15 C 1368.89 903.173 1341.74 794.048 1314.78 685.033 C 1311.48 664.843 1302.02 645.139 1302.42 622.967 C 1302.98 591.715 1315.87 576.908 1336.33 556.295 C 1351.56 543.196 1368.38 527.929 1381.54 512.876 C 1373.82 493.345 1364.14 455.891 1357.96 434.758 L 1313.71 283.118 C 1306.8 259.38 1299.83 231.888 1290.72 209.024 C 1288.49 203.434 1278.4 192.131 1274.03 186.762 z"/>
<path transform="translate(0,0)" fill="#FFFF" d="M 1670.82 311.26 C 1657.17 316.894 1594.3 380.561 1579.91 394.783 L 1469.93 502.706 C 1451.05 521.455 1381.19 585.711 1372.66 603.26 C 1367.32 614.095 1364.94 626.152 1365.76 638.205 C 1366.86 652.654 1381.47 704.55 1385.77 721.981 L 1438.22 930.744 C 1442.17 946.405 1469.1 1048.66 1468.15 1055.45 C 1467.86 1057.48 1468.14 1056.71 1466.38 1058.17 C 1464.31 1057.12 1463.4 1055.44 1462.77 1053.02 C 1456.8 1030.07 1450.89 1006.41 1445.19 983.458 L 1409.75 841.373 L 1375.86 707.659 C 1371.99 692.365 1361.76 655.962 1360.2 642.245 C 1358.48 627.594 1361.14 612.762 1367.83 599.618 C 1378.99 577.777 1403.95 559.09 1421.71 541.518 L 1527.84 437.002 L 1606.68 360.254 C 1621.28 346.037 1635.95 331.341 1651.07 317.682 C 1656.65 312.632 1659.73 311.328 1666.85 309.053 L 1670.82 311.26 z"/>
<path transform="translate(0,0)" fill="#FFFF" d="M 303.209 1439.56 C 304.747 1442.05 306.277 1444.74 308.105 1447.02 C 284.546 1466.33 260.713 1488.4 236.719 1508.4 C 297.136 1530.54 357.752 1552.14 418.56 1573.19 C 454.481 1585.69 499.26 1599.98 533.933 1614.17 C 549.927 1598.31 566.545 1583.49 583.015 1568.18 C 591.818 1559.99 601.876 1551.34 609.798 1542.43 C 613.501 1543.09 617.304 1543.71 620.955 1544.56 C 608.656 1557.29 545.895 1617.04 534.183 1623.05 C 512.123 1617.06 478.938 1603.47 456.149 1595.7 C 384.061 1571.09 312.243 1545.69 240.706 1519.51 C 236.31 1517.92 225.003 1514.37 223.172 1510.45 C 228.476 1501.78 291.336 1450.29 303.209 1439.56 z"/>
<path transform="translate(0,0)" fill="#FFFF" d="M 1921.27 1015.88 C 1957.71 1049.05 1982.87 1094.99 1985.02 1145 C 1988.02 1214.51 1954.15 1271.76 1908.92 1321.52 C 1900.34 1330.96 1873.02 1358.32 1863.18 1365.1 C 1845.97 1356.5 1826.83 1351.11 1810.5 1343 C 1810.68 1341.27 1814.58 1337.76 1816.13 1336.11 C 1831.01 1342.36 1847.27 1348.2 1862.45 1354.4 C 1927.15 1296.68 1990.02 1216.87 1973.4 1124.31 C 1966.19 1084.15 1948.08 1059.33 1922.73 1029.05 C 1921.21 1025.55 1921.27 1019.69 1921.27 1015.88 z"/>
<path transform="translate(0,0)" fill="#FFFF" d="M 626.925 646.839 C 636.588 647.218 662.353 652.578 673.675 654.606 L 770.947 672.241 L 896.159 694.962 C 976.122 710.01 996.346 712.076 1012.53 798.266 C 1000.62 787.517 1008.07 748.366 975.818 721.42 C 969.246 715.929 955.842 707.506 947.124 708.445 C 945.533 708.617 944.389 708.415 942.846 708.025 C 943.511 707.627 944.176 707.23 944.842 706.832 C 930.804 704.144 916.566 701.753 902.48 699.271 C 827.248 686.012 752.23 671.475 677.037 657.734 C 667.673 656.023 659.21 655.14 649.909 652.749 L 650.485 653.108 C 642.93 651.868 636.153 649.402 627.934 648.507 L 626.692 648.383 L 626.925 646.839 z"/>
<path transform="translate(0,0)" fill="#FFFF" d="M 1676.84 307.158 L 1678.58 308.208 C 1675.27 310.287 1674.7 310.291 1670.82 311.26 L 1666.85 309.053 C 1669.55 309.106 1674.02 307.832 1676.84 307.158 z"/>
<path transform="translate(0,0)" fill="#FFFF" d="M 736.998 883.702 C 757.587 886.012 945.439 923.7 950.891 927.477 C 952.109 928.32 951.934 929.073 952.241 930.415 C 951.014 934 950.527 934.014 947.703 936.471 C 929.932 937.525 764.157 900.038 736.221 895.486 C 733.885 895.105 733.619 893.317 732.984 891.506 C 733.737 887.469 734.37 887.077 736.998 883.702 z"/>
<path transform="translate(0,0)" fill="#FFFF" d="M 724.437 824.008 C 733.533 823.585 780.309 833.485 792.055 835.753 C 819.09 840.892 846.082 846.254 873.028 851.841 C 887.761 854.754 903.413 857.261 917.885 860.842 C 920.695 863.527 919.873 861.966 920.678 865.557 C 919.773 869.572 919.861 869.362 916.861 872.21 C 906.765 872.302 737.497 839.788 725.537 835.289 C 723.058 834.357 722.444 833.03 721.274 830.787 C 721.578 826.922 721.987 826.937 724.437 824.008 z"/>
<path transform="translate(0,0)" fill="#FFFF" d="M 751.878 941.843 C 771.587 945.967 904.694 969.977 913.341 975.991 C 916.36 982.101 912.219 983.507 907.462 984.928 C 897.392 984.131 883.47 981.14 873.221 979.174 L 816.701 968.073 C 804.005 965.54 757.141 956.74 747.797 952.924 C 745.314 949.936 745.933 951.582 745.63 947.911 C 747.461 944.281 748.271 944.123 751.878 941.843 z"/>
<path transform="translate(0,0)" fill="#FFFF" d="M 1500.4 601.264 C 1577.47 593.436 1579.66 752.777 1509.84 775.917 C 1483.75 782.696 1463.26 758.908 1456.03 736.45 C 1442.18 693.48 1451.2 618.145 1500.4 601.264 z"/>
<path transform="translate(0,0)" fill="#000" d="M 1504.93 607.15 C 1566.32 603.149 1573.96 747.425 1505.93 770.432 C 1438.43 775.195 1441.11 621.132 1504.93 607.15 z"/>
<path transform="translate(0,0)" fill="#FFFF" d="M 287.394 759.583 C 289.68 765.357 285.927 770.724 283.141 775.582 C 280.978 769.175 284.358 765.166 287.394 759.583 z"/>
<path transform="translate(0,0)" fill="#FFFF" d="M 632.195 726.811 C 638.12 746.176 646.061 771.654 650.585 790.992 C 655.482 802.735 662.934 832.671 666.791 846.551 L 696.841 955.556 C 702.601 976.911 707.267 1006.51 722.773 1022.46 C 715.639 1019.12 709.317 1013.03 706.846 1005.48 C 691.265 957.875 679.182 908.44 665.528 860.242 C 659.408 838.638 652.814 816.713 647.759 795.277 C 641.884 780.33 634.592 749.734 630.848 733.244 C 630.415 731.333 631.48 728.611 632.195 726.811 z"/>
<path transform="translate(0,0)" fill="#FFFF" d="M 1277.96 1603.21 L 1278.63 1602.25 C 1283.7 1600.27 1288.12 1599.5 1293.35 1601.27 C 1274.2 1618.34 1253.53 1636.55 1235.08 1654.3 C 1280.37 1667.67 1330.11 1686.96 1374.97 1702.67 L 1448.48 1728.02 C 1455.45 1730.43 1481.77 1737.85 1484.92 1742.78 C 1485.06 1746.2 1485.53 1744.69 1483.35 1747.43 C 1476.44 1750.14 1448.75 1737.61 1440.27 1734.68 L 1332.99 1697.23 L 1269.12 1674.88 C 1261.16 1672.15 1226.35 1661.44 1222.13 1656.27 C 1223.5 1650.31 1270.14 1609.39 1277.96 1603.21 z"/>
<path transform="translate(0,0)" fill="#FFFF" d="M 825.97 1544.68 L 834.418 1548.03 C 788.911 1596.26 739.702 1642.34 693.248 1689.74 C 691.082 1691.95 689.563 1692.21 686.717 1692.42 C 683.747 1690.33 684.659 1691.68 683.656 1688.41 C 686.964 1680.23 807.822 1562.04 825.97 1544.68 z"/>
<path transform="translate(0,0)" fill="#FFFF" d="M 1603.5 1501.32 C 1612.41 1504.7 1630.79 1510.43 1636.41 1516.77 L 1636.55 1518.57 C 1628.91 1523.38 1603.21 1511 1594.46 1507.4 C 1597.13 1505.31 1600.59 1503.2 1603.5 1501.32 z"/>
</svg>