<?xml version="1.0" standalone="no"?>
<!DOCTYPE svg PUBLIC "-//W3C//DTD SVG 20010904//EN"
 "http://www.w3.org/TR/2001/REC-SVG-20010904/DTD/svg10.dtd">
<svg version="1.0" xmlns="http://www.w3.org/2000/svg"
 width="512.000000pt" height="512.000000pt" viewBox="0 0 512.000000 512.000000"
 preserveAspectRatio="xMidYMid meet">
<metadata>
Created by potrace 1.16, written by Peter Selinger 2001-2019
</metadata>
<g transform="translate(0.000000,512.000000) scale(0.100000,-0.100000)"
fill="#FFFF" stroke="none">
<path d="M4880 4725 c13 -14 26 -25 28 -25 3 0 -5 11 -18 25 -13 14 -26 25
-28 25 -3 0 5 -11 18 -25z"/>
<path d="M4350 4555 c35 -36 67 -65 69 -65 3 0 -24 29 -59 65 -35 36 -67 65
-69 65 -3 0 24 -29 59 -65z"/>
<path d="M2438 4593 c34 -2 90 -2 125 0 34 2 6 3 -63 3 -69 0 -97 -1 -62 -3z"/>
<path d="M2263 4583 c9 -2 25 -2 35 0 9 3 1 5 -18 5 -19 0 -27 -2 -17 -5z"/>
<path d="M2693 4583 c9 -2 23 -2 30 0 6 3 -1 5 -18 5 -16 0 -22 -2 -12 -5z"/>
<path d="M2188 4573 c6 -2 18 -2 25 0 6 3 1 5 -13 5 -14 0 -19 -2 -12 -5z"/>
<path d="M2778 4573 c7 -3 16 -2 19 1 4 3 -2 6 -13 5 -11 0 -14 -3 -6 -6z"/>
<path d="M2128 4563 c6 -2 18 -2 25 0 6 3 1 5 -13 5 -14 0 -19 -2 -12 -5z"/>
<path d="M2078 4553 c7 -3 16 -2 19 1 4 3 -2 6 -13 5 -11 0 -14 -3 -6 -6z"/>
<path d="M2038 4543 c7 -3 16 -2 19 1 4 3 -2 6 -13 5 -11 0 -14 -3 -6 -6z"/>
<path d="M4250 4438 c41 -45 50 -53 50 -45 0 2 -21 23 -47 47 l-48 45 45 -47z"/>
<path d="M1646 4401 c-222 -114 -433 -269 -612 -453 -97 -100 -191 -214 -183
-223 3 -2 36 35 74 81 74 90 256 272 315 315 19 14 76 55 125 91 108 79 273
179 370 224 38 18 65 33 58 33 -6 1 -72 -30 -147 -68z"/>
<path d="M4475 4420 c10 -11 20 -20 23 -20 3 0 -3 9 -13 20 -10 11 -20 20 -23
20 -3 0 3 -9 13 -20z"/>
<path d="M890 4203 l-95 -98 98 95 c53 52 97 96 97 97 0 8 -12 -4 -100 -94z"/>
<path d="M2313 4243 c9 -2 23 -2 30 0 6 3 -1 5 -18 5 -16 0 -22 -2 -12 -5z"/>
<path d="M2628 4243 c7 -3 16 -2 19 1 4 3 -2 6 -13 5 -11 0 -14 -3 -6 -6z"/>
<path d="M2238 4233 c7 -3 16 -2 19 1 4 3 -2 6 -13 5 -11 0 -14 -3 -6 -6z"/>
<path d="M1750 4080 c-9 -6 -10 -10 -3 -10 6 0 15 5 18 10 8 12 4 12 -15 0z"/>
<path d="M729 4033 l-24 -28 28 24 c25 23 32 31 24 31 -2 0 -14 -12 -28 -27z"/>
<path d="M661 3951 c-18 -25 -19 -30 -6 -41 13 -11 15 -8 15 17 0 16 5 34 12
41 7 7 9 12 6 12 -4 0 -16 -13 -27 -29z"/>
<path d="M2465 3950 c287 -17 446 -70 685 -228 111 -74 299 -261 372 -372 146
-222 238 -493 238 -702 0 -74 -16 -124 -51 -160 l-22 -23 7 25 c4 14 9 86 13
160 6 152 -9 257 -54 383 -28 78 -90 207 -99 207 -3 0 -2 -30 2 -67 15 -117 8
-291 -15 -355 -10 -31 -17 -59 -14 -61 3 -3 1 -12 -3 -19 -5 -7 -10 -22 -11
-33 -2 -11 -10 -41 -19 -67 -8 -26 -16 -56 -17 -67 -1 -12 -5 -21 -9 -21 -4 0
-8 -8 -8 -17 0 -10 -7 -27 -15 -37 -8 -11 -15 -28 -15 -39 0 -10 -4 -15 -10
-12 -6 3 -7 -1 -4 -10 4 -8 2 -21 -4 -28 -6 -6 -10 -14 -10 -17 4 -32 -70
-129 -135 -177 -17 -13 -27 -23 -23 -23 8 0 -41 -43 -103 -90 -18 -14 -38 -30
-45 -37 -31 -28 -459 -317 -508 -342 -16 -8 -26 -16 -25 -18 7 -6 213 84 347
152 417 209 657 381 840 602 99 119 135 190 134 262 0 35 3 47 8 35 6 -16 7
-14 5 6 -1 14 -6 25 -12 26 -5 0 -18 4 -29 9 -12 5 -21 3 -27 -6 -7 -11 -9 -9
-9 8 0 12 -2 27 -5 35 -4 10 11 14 62 15 138 6 182 -27 184 -136 1 -79 16 -48
18 37 2 94 -34 140 -119 156 -46 8 -140 -8 -151 -25 -7 -11 -9 -10 -10 6 -1
11 -2 26 -2 33 1 6 -3 12 -7 12 -4 0 -10 9 -13 20 -3 11 -2 18 3 15 4 -3 41 4
82 14 119 31 224 36 312 17 42 -10 78 -21 81 -27 4 -5 15 -9 26 -9 30 0 41
-43 43 -163 1 -83 3 -99 9 -70 9 38 3 157 -9 201 l-7 23 54 -21 c30 -12 58
-29 63 -37 7 -13 10 -13 17 -2 6 11 9 9 15 -5 4 -10 2 -26 -4 -35 -32 -43 -24
-72 9 -32 46 57 17 91 -124 145 -128 49 -200 66 -282 66 -60 0 -197 -23 -272
-45 -19 -6 -27 3 -71 97 -164 346 -418 612 -727 758 -177 83 -294 110 -510
115 l-160 3 140 -8z m1372 -1217 c-3 -10 -5 -4 -5 12 0 17 2 24 5 18 2 -7 2
-21 0 -30z m10 -110 c-2 -16 -4 -3 -4 27 0 30 2 43 4 28 2 -16 2 -40 0 -55z"/>
<path d="M2176 3930 c-198 -42 -373 -115 -542 -229 -107 -71 -263 -215 -334
-309 -60 -78 -197 -352 -233 -467 -33 -100 -57 -197 -57 -221 1 -11 14 31 29
91 36 137 64 211 131 345 85 170 152 265 269 380 236 234 574 396 833 401 35
1 55 3 45 6 -9 2 -15 9 -12 14 9 13 -27 10 -129 -11z"/>
<path d="M765 3848 c-44 -52 -52 -76 -30 -96 10 -9 15 -12 11 -5 -4 7 -3 20 2
30 5 10 18 37 29 61 12 23 20 42 18 42 -2 0 -15 -15 -30 -32z"/>
<path d="M500 3740 c-6 -11 -8 -20 -6 -20 3 0 10 9 16 20 6 11 8 20 6 20 -3 0
-10 -9 -16 -20z"/>
<path d="M962 3708 c-5 -7 -45 -69 -87 -138 -226 -362 -308 -655 -308 -1105 0
-355 49 -628 150 -829 35 -71 140 -226 153 -226 4 0 7 -6 7 -14 0 -15 61 -116
70 -116 3 0 -2 11 -11 25 -9 14 -23 36 -32 50 -26 41 -10 39 26 -2 18 -21 40
-42 48 -47 23 -14 -18 40 -85 112 -109 114 -198 290 -248 487 -36 142 -69 490
-62 665 13 361 103 664 287 965 110 181 112 185 107 185 -2 0 -9 -6 -15 -12z"/>
<path d="M751 3694 c-1 -6 -17 -32 -36 -57 -31 -41 -33 -46 -13 -38 25 9 63
74 55 93 -3 8 -6 8 -6 2z"/>
<path d="M496 3572 c-36 -71 -86 -199 -86 -220 0 -9 18 26 39 79 21 53 49 115
61 138 12 24 19 45 16 48 -2 3 -16 -18 -30 -45z"/>
<path d="M1103 3498 c-15 -20 -25 -38 -20 -38 3 0 12 11 21 25 17 26 16 35 -1
13z"/>
<path d="M561 3378 c-45 -101 -44 -98 -32 -98 6 0 11 5 11 11 0 6 14 42 31 81
17 38 29 72 26 74 -2 2 -19 -28 -36 -68z"/>
<path d="M481 3178 c-50 -156 -69 -228 -60 -228 5 0 9 6 9 14 0 7 22 79 49
160 27 80 46 146 41 146 -5 0 -22 -42 -39 -92z"/>
<path d="M277 3123 c-10 -32 -36 -186 -42 -248 -3 -33 -9 -77 -12 -99 -3 -24
-2 -36 5 -32 5 3 13 45 17 93 4 49 15 135 26 192 10 58 17 106 15 108 -2 3 -7
-4 -9 -14z"/>
<path d="M1153 2973 c-114 -257 -121 -723 -17 -1015 53 -146 171 -350 223
-385 19 -13 28 -23 22 -23 -20 0 -54 20 -90 54 -26 24 -31 26 -22 9 13 -25 62
-57 121 -78 79 -28 170 -37 290 -29 l115 8 -106 8 c-116 8 -233 29 -276 50
-70 34 -205 260 -261 439 -94 294 -91 641 7 937 15 45 26 82 24 82 -2 0 -16
-26 -30 -57z"/>
<path d="M4882 3010 c0 -14 2 -19 5 -12 2 6 2 18 0 25 -3 6 -5 1 -5 -13z"/>
<path d="M4891 2954 c0 -11 3 -14 6 -6 3 7 2 16 -1 19 -3 4 -6 -2 -5 -13z"/>
<path d="M4270 2943 c0 -6 9 -21 21 -34 l20 -24 -17 30 c-24 39 -24 40 -24 28z"/>
<path d="M4900 2890 c0 -11 4 -20 9 -20 5 0 7 9 4 20 -3 11 -7 20 -9 20 -2 0
-4 -9 -4 -20z"/>
<path d="M385 2829 c-16 -73 -15 -87 5 -74 7 4 9 18 6 31 -4 13 -3 24 2 24 5
0 9 20 10 45 0 25 -1 45 -3 45 -2 0 -11 -32 -20 -71z"/>
<path d="M4128 2884 c13 -9 27 -26 32 -38 l9 -21 0 22 c1 21 -32 53 -53 53 -6
0 0 -7 12 -16z"/>
<path d="M4918 2660 c2 -96 5 -179 7 -185 7 -20 2 301 -4 330 -4 17 -6 -49 -3
-145z"/>
<path d="M4167 2753 c-4 -32 -9 -74 -12 -93 -5 -30 -4 -32 5 -12 11 26 26 162
18 162 -3 0 -8 -26 -11 -57z"/>
<path d="M821 2764 c0 -11 3 -14 6 -6 3 7 2 16 -1 19 -3 4 -6 -2 -5 -13z"/>
<path d="M130 2733 c0 -20 4 -32 10 -28 6 3 10 13 10 21 0 8 5 14 10 14 18 0
10 18 -10 23 -17 4 -20 0 -20 -30z"/>
<path d="M365 2721 c-8 -27 11 -54 21 -28 3 9 1 24 -4 33 -9 16 -10 15 -17 -5z"/>
<path d="M812 2690 c0 -14 2 -19 5 -12 2 6 2 18 0 25 -3 6 -5 1 -5 -13z"/>
<path d="M1000 2664 c0 -10 -5 -62 -10 -114 -5 -52 -6 -131 -2 -175 6 -70 8
-57 13 110 3 105 4 192 3 194 -2 2 -4 -4 -4 -15z"/>
<path d="M4311 2664 c0 -11 3 -14 6 -6 3 7 2 16 -1 19 -3 4 -6 -2 -5 -13z"/>
<path d="M351 2624 c0 -11 3 -14 6 -6 3 7 2 16 -1 19 -3 4 -6 -2 -5 -13z"/>
<path d="M802 2450 c0 -96 3 -197 7 -225 4 -27 5 45 3 160 -4 262 -10 297 -10
65z"/>
<path d="M4059 2495 c-1 -3 -2 -9 -3 -15 0 -5 -9 -18 -18 -30 -10 -11 -15 -20
-11 -20 4 0 0 -6 -9 -12 -8 -7 -37 -40 -63 -73 -165 -208 -265 -304 -490 -471
-244 -182 -474 -315 -740 -429 -148 -64 -434 -157 -575 -188 -121 -27 -288
-52 -296 -45 -2 3 35 10 83 17 131 19 528 127 475 130 -7 1 -10 6 -7 11 3 6
-1 17 -9 26 -10 10 -16 11 -16 4 0 -7 -7 -10 -15 -7 -8 4 -17 2 -20 -3 -3 -5
-12 -7 -20 -3 -8 3 -15 0 -15 -7 0 -6 -4 -8 -10 -5 -5 3 -16 3 -22 -1 -7 -5
-19 -9 -28 -10 -8 -1 -54 -11 -101 -23 -125 -31 -266 -50 -416 -58 -73 -3
-130 -9 -128 -13 2 -3 22 -12 44 -20 29 -9 38 -16 31 -25 -12 -14 0 -16 85
-16 33 0 52 -3 43 -6 -19 -5 -24 -18 -10 -26 4 -2 0 -2 -8 1 -46 14 -50 10
-10 -9 25 -12 53 -26 62 -30 59 -30 233 -93 311 -113 266 -69 554 -57 827 35
50 16 96 27 102 23 6 -4 8 -3 5 2 -7 13 201 117 215 108 6 -4 8 -3 5 3 -4 6
19 27 51 48 31 21 76 53 99 71 48 39 65 44 37 12 l-19 -23 22 19 c13 10 21 22
18 26 -5 9 179 192 187 185 3 -3 11 3 19 12 13 16 12 17 -3 4 -10 -7 -18 -11
-18 -7 0 13 93 125 101 121 4 -3 11 0 15 6 4 8 3 9 -4 5 -20 -12 -14 1 42 94
54 89 108 222 122 296 3 21 11 48 16 59 6 11 -5 2 -23 -20 -275 -327 -591
-581 -946 -759 -116 -57 -432 -183 -413 -163 3 2 64 28 135 57 405 164 685
345 994 645 126 122 221 228 221 246 0 6 -56 -42 -125 -107 -424 -398 -885
-671 -1348 -798 -173 -48 -303 -67 -482 -71 -148 -4 -148 -4 -45 5 386 33 595
84 902 221 359 160 660 375 1008 720 114 113 115 115 153 215 36 94 57 184 43
184 -3 0 -7 -2 -7 -5z m-459 -549 c0 -2 -8 -10 -17 -17 -16 -13 -17 -12 -4 4
13 16 21 21 21 13z"/>
<path d="M5012 2410 c0 -19 2 -27 5 -17 2 9 2 25 0 35 -3 9 -5 1 -5 -18z"/>
<path d="M4912 2380 c0 -14 2 -19 5 -12 2 6 2 18 0 25 -3 6 -5 1 -5 -13z"/>
<path d="M4901 2294 c0 -11 3 -14 6 -6 3 7 2 16 -1 19 -3 4 -6 -2 -5 -13z"/>
<path d="M5002 2280 c0 -14 2 -19 5 -12 2 6 2 18 0 25 -3 6 -5 1 -5 -13z"/>
<path d="M1001 2254 c0 -11 3 -14 6 -6 3 7 2 16 -1 19 -3 4 -6 -2 -5 -13z"/>
<path d="M4075 2240 c-3 -5 -1 -10 4 -10 6 0 11 5 11 10 0 6 -2 10 -4 10 -3 0
-8 -4 -11 -10z"/>
<path d="M363 2198 c0 -13 1 -17 4 -10 3 6 9 10 14 7 5 -4 6 1 3 9 -9 23 -20
19 -21 -6z"/>
<path d="M4035 2190 c-10 -11 -13 -20 -7 -20 6 0 9 -8 6 -17 -5 -17 -5 -17 6
0 11 17 22 57 16 57 -2 0 -11 -9 -21 -20z"/>
<path d="M374 2140 c6 -60 28 -160 38 -166 17 -11 19 4 7 47 -7 24 -12 49 -10
56 1 6 -3 14 -9 18 -5 3 -10 16 -10 28 0 12 -4 29 -9 37 -7 10 -9 3 -7 -20z"/>
<path d="M821 2144 c0 -11 3 -14 6 -6 3 7 2 16 -1 19 -3 4 -6 -2 -5 -13z"/>
<path d="M831 2104 c0 -11 3 -14 6 -6 3 7 2 16 -1 19 -3 4 -6 -2 -5 -13z"/>
<path d="M841 2064 c0 -11 3 -14 6 -6 3 7 2 16 -1 19 -3 4 -6 -2 -5 -13z"/>
<path d="M1083 1760 c-85 -60 -156 -137 -148 -159 3 -8 3 -12 -1 -8 -8 8 -34
-11 -34 -25 0 -6 7 -5 15 2 13 11 15 8 15 -16 0 -16 -4 -24 -8 -19 -4 6 -20
19 -37 29 -16 10 -24 13 -17 5 6 -7 12 -21 12 -30 0 -10 9 -20 20 -24 10 -3
34 -31 51 -62 33 -57 88 -117 143 -156 18 -12 0 12 -39 54 -73 79 -115 149
-115 190 1 62 79 160 182 229 21 14 38 28 38 33 0 11 -2 10 -77 -43z"/>
<path d="M470 1791 c0 -6 4 -13 10 -16 6 -3 7 1 4 9 -7 18 -14 21 -14 7z"/>
<path d="M1091 1703 c-114 -111 -117 -182 -10 -286 68 -67 163 -116 281 -146
99 -26 234 -39 224 -23 -4 7 -24 12 -44 12 -115 0 -293 53 -386 114 -81 55
-126 116 -126 174 0 70 47 138 128 186 8 5 -2 -13 -22 -38 -89 -117 -46 -217
129 -301 110 -53 331 -89 430 -71 62 12 31 20 -108 27 -155 8 -206 19 -304 65
-91 43 -123 80 -123 141 0 47 27 105 57 122 14 7 13 13 -7 50 -13 22 -29 41
-36 41 -8 0 -45 -30 -83 -67z"/>
<path d="M2520 1690 c-8 -5 -10 -10 -5 -10 6 0 17 5 25 10 8 5 11 10 5 10 -5
0 -17 -5 -25 -10z"/>
<path d="M3600 1423 l-65 -68 68 65 c62 60 72 70 64 70 -1 0 -32 -30 -67 -67z"/>
<path d="M790 1203 c1 -15 57 -83 63 -76 4 3 -6 23 -21 44 -25 36 -42 49 -42
32z"/>
<path d="M2248 673 c7 -3 16 -2 19 1 4 3 -2 6 -13 5 -11 0 -14 -3 -6 -6z"/>
<path d="M2758 673 c7 -3 16 -2 19 1 4 3 -2 6 -13 5 -11 0 -14 -3 -6 -6z"/>
<path d="M2333 663 c9 -2 23 -2 30 0 6 3 -1 5 -18 5 -16 0 -22 -2 -12 -5z"/>
<path d="M2658 663 c6 -2 18 -2 25 0 6 3 1 5 -13 5 -14 0 -19 -2 -12 -5z"/>
<path d="M4419 223 c-13 -16 -12 -17 4 -4 9 7 17 15 17 17 0 8 -8 3 -21 -13z"/>
</g>
</svg>