<?xml version="1.0" standalone="no"?>
<!DOCTYPE svg PUBLIC "-//W3C//DTD SVG 20010904//EN"
 "http://www.w3.org/TR/2001/REC-SVG-20010904/DTD/svg10.dtd">
<svg version="1.0" xmlns="http://www.w3.org/2000/svg"
 width="512.000000pt" height="512.000000pt" viewBox="0 0 512.000000 512.000000"
 preserveAspectRatio="xMidYMid meet">
<metadata>
Created by potrace 1.16, written by Peter Selinger 2001-2019
</metadata>
<g transform="translate(0.000000,512.000000) scale(0.100000,-0.100000)"
fill="#FFFF" stroke="none">
<path d="M3129 4313 c-53 -36 -194 -170 -248 -237 -66 -81 -156 -216 -195
-293 -16 -32 -33 -53 -43 -53 -25 0 -101 -85 -113 -127 -17 -61 -146 -605
-180 -763 -18 -80 -37 -150 -44 -156 -6 -7 -96 -59 -201 -117 -217 -120 -251
-145 -277 -204 -34 -77 -64 -603 -36 -631 26 -26 47 -11 109 83 65 99 119 144
248 210 58 29 73 26 51 -8 -8 -12 -36 -62 -63 -112 -43 -78 -48 -94 -39 -117
8 -22 6 -30 -9 -44 -22 -20 -46 -82 -54 -144 -6 -43 -11 -48 -88 -105 -144
-105 -174 -124 -249 -154 l-73 -30 103 -2 c56 -1 107 -2 114 -3 26 -2 17 24
-13 36 l-32 14 44 28 c24 16 78 55 120 87 l76 57 -4 -106 c-6 -162 15 -105 31
81 10 121 17 163 35 200 15 32 29 47 42 47 24 0 24 -3 -1 -75 -11 -33 -19 -64
-16 -70 4 -10 56 97 56 115 0 13 6 12 53 -1 38 -10 39 -11 32 -47 -3 -20 -17
-61 -31 -91 -13 -29 -24 -56 -24 -58 0 -3 16 9 35 26 20 17 38 31 40 31 20 0
-8 -43 -88 -136 -97 -113 -174 -188 -245 -238 -52 -37 -110 -96 -94 -96 7 0
53 29 102 65 l89 66 107 9 c59 5 109 8 111 7 1 -2 -1 -18 -7 -35 -15 -54 6
-26 35 45 30 75 58 133 127 270 l47 91 73 -28 c56 -22 74 -33 76 -50 3 -20 5
-20 16 -4 25 33 36 6 36 -84 l-1 -87 -25 30 c-19 21 -24 24 -19 10 27 -81 28
-100 8 -165 l-20 -65 -16 35 -16 35 -1 -38 c0 -55 -33 -143 -101 -275 -59
-114 -60 -116 -24 -77 60 66 197 308 220 390 10 33 21 64 26 69 5 6 9 17 9 26
0 12 26 21 121 38 67 13 124 21 126 18 3 -2 16 -52 30 -110 17 -71 30 -106 39
-106 18 0 42 49 74 150 l26 85 74 23 c634 196 1031 375 1559 701 260 160 225
147 -89 -34 -408 -236 -678 -364 -1077 -511 -182 -67 -442 -149 -449 -141 -3
2 0 15 5 28 7 20 30 30 152 67 181 55 377 130 639 245 203 89 560 262 560 272
0 3 -68 -29 -152 -71 -179 -90 -475 -223 -655 -295 -114 -46 -503 -179 -522
-179 -4 0 6 51 22 113 l29 112 -23 80 c-12 44 -49 154 -81 243 -32 90 -58 178
-58 196 0 17 29 159 65 316 184 798 195 867 156 977 -14 42 -17 73 -13 156 8
174 -24 422 -69 543 -23 60 -37 69 -70 47z m40 -60 c28 -70 61 -303 44 -303
-6 0 -13 30 -17 66 -12 115 -31 143 -119 169 l-38 11 52 42 c28 23 55 42 59
42 4 0 13 -12 19 -27z m-180 -139 c-18 -20 -50 -52 -69 -71 l-35 -35 50 6 c56
7 144 -12 214 -46 79 -38 81 -43 81 -177 0 -116 -11 -160 -25 -103 -21 86
-107 146 -178 123 -20 -7 -40 -18 -46 -25 -10 -11 -19 -11 -54 1 -23 8 -57 13
-75 11 -18 -2 -31 -2 -30 2 33 68 79 137 106 161 31 28 40 30 81 25 40 -5 42
-4 16 5 -32 10 -121 4 -164 -12 -18 -7 3 20 64 80 88 89 133 127 64 55z m-194
-246 c-30 -44 -55 -86 -55 -91 0 -6 -3 -7 -7 -4 -10 10 96 177 113 177 2 0
-21 -37 -51 -82z m148 -96 c15 -7 16 -10 4 -26 -12 -17 -18 -17 -52 -6 -38 13
-140 9 -180 -5 -18 -7 -18 -6 -5 8 8 8 31 20 50 25 41 12 157 14 183 4z m203
-26 c33 -33 45 -66 23 -66 -6 0 -26 -7 -45 -16 -58 -27 -78 -77 -129 -319 -26
-121 -58 -267 -72 -325 -72 -305 -85 -390 -78 -500 6 -102 5 -111 -43 -308
-27 -111 -52 -205 -55 -208 -11 -11 -107 27 -107 43 0 27 41 176 57 207 15 28
15 30 0 18 -26 -22 -79 -111 -99 -166 -20 -57 -21 -59 12 130 22 129 94 434
186 794 36 140 85 332 109 425 65 257 102 325 173 325 25 0 43 -9 68 -34z
m-253 -37 c20 -5 37 -15 37 -21 0 -5 -7 -7 -16 -4 -48 18 -108 28 -140 22 -32
-7 -39 -14 -65 -69 -16 -34 -27 -51 -23 -37 11 42 43 98 61 109 23 13 98 14
146 0z m-264 -80 c-18 -50 -19 -51 -14 -14 7 40 23 80 31 73 2 -3 -5 -29 -17
-59z m-70 -119 c-16 -63 -42 -173 -59 -245 -78 -344 -121 -522 -130 -540 l-10
-20 5 20 c2 11 16 70 29 130 42 189 156 667 172 724 27 96 23 49 -7 -69z m660
94 c28 -35 45 -126 37 -203 -3 -35 -8 -66 -11 -69 -13 -14 -19 16 -20 97 0 74
-3 92 -20 111 -16 18 -27 21 -60 17 -21 -3 -45 -14 -52 -23 -20 -27 -15 -9 8
33 37 69 82 83 118 37z m-346 -58 c21 -8 36 -20 32 -26 -4 -7 -12 -7 -25 0
-36 19 -117 29 -169 21 -37 -6 -51 -5 -48 3 9 28 144 30 210 2z m-33 -26 c19
-6 41 -14 47 -18 13 -8 -8 -96 -131 -557 -27 -99 -157 -630 -168 -682 -1 -4
-4 21 -7 57 -5 51 -10 66 -23 68 -20 4 -78 -81 -114 -167 -13 -31 -23 -53 -24
-49 0 4 14 64 30 135 17 70 47 202 66 293 37 172 194 800 220 883 17 52 32 57
104 37z m-186 -55 c-8 -28 -39 -140 -69 -250 -51 -190 -83 -292 -84 -270 -1
31 139 559 150 566 20 12 20 8 3 -46z m518 -108 c37 -19 64 -40 66 -51 3 -15
-4 -13 -41 13 -24 18 -71 41 -103 51 -56 18 -57 19 -22 19 22 1 60 -11 100
-32z m-8 -35 c27 -15 54 -34 60 -44 7 -12 1 -58 -24 -170 -18 -84 -35 -155
-37 -157 -2 -3 -16 7 -31 21 -36 34 -105 68 -137 68 -21 0 -25 4 -20 23 3 12
16 74 30 137 14 63 28 126 31 139 4 21 9 22 42 16 20 -4 59 -19 86 -33z m-68
-343 c60 -41 65 -54 48 -125 -103 -426 -136 -564 -145 -596 l-10 -37 -44 34
c-25 18 -54 36 -65 40 -20 6 -29 35 -11 35 5 0 33 -16 62 -36 46 -31 50 -32
29 -9 -14 14 -42 36 -62 48 l-38 21 0 104 c0 88 7 134 46 300 25 108 49 213
55 233 l9 37 41 -9 c23 -5 61 -23 85 -40z m-926 -512 c-9 -60 -31 -83 -135
-142 -46 -26 -91 -58 -100 -72 -10 -14 -30 -97 -45 -184 -25 -141 -66 -296
-76 -287 -4 5 14 301 27 427 11 111 25 156 55 182 11 10 75 46 144 83 87 45
127 61 131 53 4 -7 4 -33 -1 -60z m169 -154 c-12 -65 -24 -113 -26 -106 -3 7
5 59 16 117 12 57 21 107 21 112 0 4 3 5 6 2 3 -4 -4 -60 -17 -125z m-79 77
c-14 -11 -75 -51 -137 -90 -61 -39 -118 -79 -127 -89 -17 -19 -65 -236 -54
-246 3 -3 67 34 142 84 148 98 187 111 277 94 41 -9 49 -8 49 5 0 8 3 13 6 10
3 -3 1 -21 -5 -39 -5 -19 -10 -26 -10 -17 -1 13 -15 18 -68 24 -84 9 -116 -4
-277 -111 -105 -70 -123 -86 -164 -149 -26 -39 -48 -73 -49 -75 -2 -2 -5 -2
-7 0 -2 2 16 34 40 72 25 38 44 79 44 95 0 56 41 238 58 262 10 13 48 42 83
64 173 107 205 126 214 126 6 0 -1 -9 -15 -20z m271 -202 c-18 -78 -18 -84 -3
-102 12 -13 17 -35 16 -80 0 -49 -12 -90 -56 -206 -30 -80 -76 -188 -101 -240
-45 -94 -45 -94 -46 -54 -3 115 117 626 183 779 21 49 21 50 24 18 2 -17 -6
-69 -17 -115z m436 30 c16 -18 16 -23 -1 -91 -10 -40 -22 -82 -27 -95 l-9 -22
-40 25 c-23 14 -52 30 -66 35 -18 7 -24 15 -20 28 3 9 10 40 16 67 6 28 15 67
21 88 l10 38 49 -27 c27 -15 57 -36 67 -46z m-412 -35 c-4 -32 -11 -62 -17
-68 -7 -7 -8 -1 -4 20 3 17 9 47 13 68 9 59 16 43 8 -20z m559 -204 c36 -108
66 -207 66 -221 0 -37 -97 -370 -136 -468 -7 -17 -32 42 -32 75 0 13 5 7 13
-15 l13 -35 1 29 c1 16 24 115 52 220 l51 191 -31 110 c-42 151 -81 306 -81
325 1 28 16 -9 84 -211z m-729 12 c-10 -45 -20 -79 -22 -77 -3 3 3 41 13 86 9
44 19 78 21 76 3 -3 -3 -41 -12 -85z m481 38 c51 -31 58 -44 44 -78 l-12 -29
-60 36 c-49 29 -59 39 -54 56 3 12 6 27 6 34 0 16 31 8 76 -19z m-587 -6 c-7
-10 -21 -28 -32 -39 l-19 -22 49 -7 c44 -6 94 -24 67 -25 -18 0 -117 20 -122
24 -6 7 51 86 62 86 5 0 2 -8 -5 -17z m492 -90 c40 -21 75 -43 77 -50 2 -6
-30 5 -70 25 -40 21 -86 43 -103 49 l-30 11 26 1 c15 1 59 -16 100 -36z m-222
-47 c-28 -77 -33 -67 -6 12 12 34 23 58 25 53 1 -4 -7 -34 -19 -65z m-224 20
c36 -15 39 -24 24 -66 -7 -20 -8 -18 -4 11 l5 36 -46 7 c-26 3 -62 6 -81 6
-20 0 -32 4 -28 10 9 15 91 12 130 -4z m394 -47 c30 -11 31 -13 31 -70 0 -32
-2 -59 -5 -59 -2 0 -25 13 -51 29 -25 17 -59 33 -75 36 -33 7 -36 20 -13 53
17 25 61 29 113 11z m-416 -40 c37 -10 42 -15 31 -42 -5 -13 -18 -12 -97 10
-110 30 -119 35 -87 44 28 9 95 3 153 -12z m208 -26 c-12 -20 -14 -14 -5 12 4
9 9 14 11 11 3 -2 0 -13 -6 -23z m356 -59 c46 -84 77 -160 86 -210 l6 -30
-113 -22 c-62 -12 -118 -22 -124 -22 -8 0 -12 19 -12 55 0 47 3 55 18 55 33 0
50 32 56 110 11 119 17 151 29 147 7 -2 31 -39 54 -83z m-217 25 c71 -33 100
-55 100 -75 0 -8 -19 -2 -52 17 -29 16 -74 36 -100 45 -46 15 -55 23 -41 37
11 12 26 8 93 -24z m387 -11 c-3 -8 -6 -5 -6 6 -1 11 2 17 5 13 3 -3 4 -12 1
-19z m10 -50 c-3 -7 -5 -2 -5 12 0 14 2 19 5 13 2 -7 2 -19 0 -25z m-728 -25
c0 -16 -4 -37 -8 -47 -12 -31 -23 -2 -15 39 7 41 24 47 23 8z m267 12 c59 -17
147 -71 139 -85 -4 -6 -30 2 -63 19 -31 15 -81 36 -109 45 -52 17 -70 36 -35
36 10 0 41 -7 68 -15z m-300 -291 c-5 -13 -92 -31 -103 -21 -3 3 19 34 48 69
l54 64 3 -49 c2 -28 1 -55 -2 -63z m711 64 c-3 -7 -5 -2 -5 12 0 14 2 19 5 13
2 -7 2 -19 0 -25z m-37 -1 c0 -22 -7 -25 -117 -45 -65 -12 -121 -22 -125 -22
-5 0 -8 10 -8 23 0 21 8 24 113 44 144 27 137 27 137 0z m47 -59 c-3 -7 -5 -2
-5 12 0 14 2 19 5 13 2 -7 2 -19 0 -25z m-722 -75 c-3 -21 -10 -41 -13 -45 -4
-4 -52 -10 -106 -14 l-99 -7 49 52 48 51 64 0 64 0 -7 -37z"/>
<path d="M1580 3680 c-28 -28 -26 -75 5 -105 31 -32 69 -32 102 1 20 20 24 31
19 57 -12 62 -84 89 -126 47z m106 -46 c10 -41 -41 -79 -71 -54 -21 18 -18 37
9 65 29 29 53 24 62 -11z"/>
<path d="M1981 2946 c-15 -18 -4 -46 19 -46 23 0 44 26 36 45 -7 19 -40 20
-55 1z"/>
<path d="M4123 2810 c-1 -212 -79 -373 -282 -584 -47 -49 -72 -80 -56 -69 49
34 197 193 239 257 83 126 128 304 109 431 -9 60 -9 60 -10 -35z"/>
<path d="M500 2730 c-6 -11 -8 -20 -6 -20 3 0 10 9 16 20 6 11 8 20 6 20 -3 0
-10 -9 -16 -20z"/>
<path d="M475 2689 c-4 -6 -5 -12 -2 -15 2 -3 7 2 10 11 7 17 1 20 -8 4z"/>
<path d="M446 2625 c-9 -26 -7 -32 5 -12 6 10 9 21 6 23 -2 3 -7 -2 -11 -11z"/>
<path d="M3890 2621 c0 -6 -7 -11 -15 -11 -19 0 -19 -20 -2 -44 26 -36 84 4
61 42 -13 19 -44 29 -44 13z"/>
<path d="M431 2574 c0 -11 3 -14 6 -6 3 7 2 16 -1 19 -3 4 -6 -2 -5 -13z"/>
<path d="M412 2513 c-17 -63 -34 -154 -29 -160 3 -3 9 12 12 33 4 22 13 66 21
98 16 66 13 87 -4 29z"/>
<path d="M4705 2415 c-259 -60 -673 -170 -683 -180 -9 -8 6 -6 80 15 39 11 74
18 76 15 3 -3 10 -1 16 4 6 4 110 32 231 61 255 60 568 140 574 146 10 9 -38
0 -294 -61z"/>
<path d="M443 2443 c-38 -54 -56 -151 -50 -270 3 -59 9 -121 12 -138 5 -28 5
-29 -5 -5 -5 14 -16 68 -24 120 l-15 95 5 -75 c7 -111 22 -174 66 -285 52
-132 77 -173 155 -256 176 -187 546 -344 927 -393 161 -21 286 -29 286 -18 0
6 -42 13 -92 17 -267 19 -569 97 -795 206 -82 39 -125 69 -223 154 -66 58
-119 105 -116 105 3 0 -12 24 -34 53 -48 63 -103 195 -124 300 -20 96 -21 228
-1 293 8 27 15 54 15 59 1 6 11 20 22 32 12 13 19 25 16 29 -3 3 -15 -7 -25
-23z m187 -808 c19 -19 32 -35 29 -35 -3 0 -20 16 -39 35 -19 19 -32 35 -29
35 3 0 20 -16 39 -35z m71 -62 c13 -16 12 -17 -3 -4 -10 7 -18 15 -18 17 0 8
8 3 21 -13z"/>
<path d="M3740 2455 c0 -8 7 -15 15 -15 8 0 15 7 15 15 0 8 -7 15 -15 15 -8 0
-15 -7 -15 -15z"/>
<path d="M3749 2336 c9 -11 9 -16 0 -21 -6 -4 -15 -1 -20 6 -5 8 -9 9 -9 3 0
-6 7 -17 16 -24 12 -11 18 -11 30 2 17 17 9 48 -13 48 -12 0 -13 -3 -4 -14z"/>
<path d="M372 2300 c0 -19 2 -27 5 -17 2 9 2 25 0 35 -3 9 -5 1 -5 -18z"/>
<path d="M4283 2263 c15 -2 37 -2 50 0 12 2 0 4 -28 4 -27 0 -38 -2 -22 -4z"/>
<path d="M4375 2248 c79 -45 27 -116 -170 -233 -126 -75 -154 -99 -47 -39 164
91 253 158 273 206 12 29 11 32 -15 54 -15 13 -35 24 -44 24 -14 -1 -14 -2 3
-12z"/>
<path d="M3988 2223 c7 -3 16 -2 19 1 4 3 -2 6 -13 5 -11 0 -14 -3 -6 -6z"/>
<path d="M3589 2131 c12 -21 0 -38 -19 -26 -5 3 -10 2 -10 -4 0 -14 23 -19 43
-9 23 12 22 35 -4 48 -19 10 -20 10 -10 -9z"/>
<path d="M3850 2086 c-52 -18 -136 -51 -185 -73 -187 -84 -460 -229 -365 -194
14 5 108 48 210 96 219 103 315 142 370 151 36 6 40 4 40 -14 0 -46 -214 -197
-440 -309 -80 -40 -142 -73 -138 -73 21 0 261 101 393 165 160 77 298 172 328
223 17 30 17 31 -5 46 -35 25 -104 18 -208 -18z"/>
<path d="M4048 1924 c-38 -20 -36 -28 2 -9 17 9 30 18 30 20 0 7 -1 6 -32 -11z"/>
<path d="M1212 1761 c-21 -13 -10 -46 16 -49 27 -4 40 22 22 43 -14 17 -20 18
-38 6z m38 -22 c0 -5 -7 -9 -15 -9 -15 0 -20 12 -9 23 8 8 24 -1 24 -14z"/>
<path d="M1317 1670 c-14 -11 -31 -36 -37 -56 -31 -92 50 -169 135 -128 102
48 76 204 -34 204 -23 0 -48 -8 -64 -20z m123 -85 c28 -34 -44 -105 -90 -90
-30 10 -24 29 20 69 45 40 52 43 70 21z"/>
<path d="M2142 1568 c-36 -76 -34 -95 2 -33 38 63 42 75 27 75 -5 0 -18 -19
-29 -42z"/>
<path d="M2367 1357 c-4 -15 -5 -33 -1 -39 4 -7 3 -8 -4 -4 -7 4 -12 1 -12 -6
0 -7 -20 -61 -44 -120 -24 -60 -40 -105 -35 -102 5 3 25 29 44 57 44 65 44 37
0 -148 -12 -47 10 -18 33 45 26 72 44 230 34 295 -7 46 -9 48 -15 22z"/>
<path d="M1877 1260 c-94 -78 -181 -170 -171 -179 2 -3 42 31 87 75 45 44 97
93 116 108 32 26 77 76 68 76 -2 0 -47 -36 -100 -80z"/>
<path d="M1526 1029 c-71 -20 -118 -108 -97 -179 45 -152 265 -117 265 42 0
91 -86 161 -168 137z m103 -45 c53 -44 54 -123 1 -175 -39 -40 -99 -41 -138
-2 l-26 26 29 21 c93 65 131 130 83 140 -13 3 -32 7 -43 9 -11 3 -1 5 22 6 31
1 49 -5 72 -25z"/>
</g>
</svg>