<?xml version="1.0" standalone="no"?>
<!DOCTYPE svg PUBLIC "-//W3C//DTD SVG 20010904//EN"
 "http://www.w3.org/TR/2001/REC-SVG-20010904/DTD/svg10.dtd">
<svg version="1.0" xmlns="http://www.w3.org/2000/svg"
 width="512.000000pt" height="512.000000pt" viewBox="0 0 512.000000 512.000000"
 preserveAspectRatio="xMidYMid meet">
<metadata>
Created by potrace 1.16, written by Peter Selinger 2001-2019
</metadata>
<g transform="translate(0.000000,512.000000) scale(0.100000,-0.100000)"
fill="#FFFF" stroke="none">
<path d="M3143 4759 c-208 -158 -326 -297 -500 -589 -67 -112 -102 -185 -148
-302 -20 -54 -42 -98 -49 -98 -7 0 -12 39 -13 128 -2 154 -12 217 -35 217 -20
0 -115 -116 -168 -205 -22 -37 -55 -121 -78 -195 -125 -408 -144 -459 -177
-495 -38 -41 -55 -71 -55 -98 0 -13 -26 -39 -72 -74 -136 -102 -313 -255 -325
-279 -30 -58 -110 -309 -100 -309 7 0 80 13 162 30 83 16 163 30 178 30 25 0
27 -2 17 -21 -18 -32 -130 -373 -125 -378 3 -2 84 -3 180 -2 96 1 175 0 175
-4 0 -3 -12 -28 -26 -56 -15 -31 -23 -57 -18 -68 10 -24 5 -50 -23 -104 -29
-59 -39 -57 -18 4 26 80 -12 12 -90 -159 -138 -304 -282 -566 -527 -957 -139
-222 -237 -393 -303 -527 -56 -113 -61 -128 -35 -98 114 129 610 920 610 973
0 27 48 123 57 113 2 -2 -5 -22 -17 -45 -11 -23 -18 -41 -16 -41 5 0 44 72
246 460 140 270 171 322 255 436 l53 71 57 -8 c31 -4 59 -10 61 -12 3 -3 -2
-33 -11 -68 -28 -105 -105 -503 -99 -509 7 -7 125 116 240 251 l90 106 35 -19
c40 -22 40 -27 -6 -118 -119 -237 -402 -957 -383 -975 2 -2 42 73 88 168 47
94 104 204 128 244 42 70 92 185 92 207 -1 6 -7 0 -15 -14 -21 -36 -18 -22 11
66 48 141 80 209 103 212 11 2 29 14 39 27 l19 24 144 -138 c79 -76 150 -136
157 -133 7 2 49 -23 93 -57 43 -34 85 -64 92 -67 10 -3 36 54 94 203 44 114
86 233 93 263 6 30 14 63 17 74 9 32 -14 9 -35 -36 -11 -24 -52 -131 -92 -238
-40 -107 -75 -198 -79 -202 -3 -3 -31 16 -61 42 l-55 49 74 223 c66 198 74
230 71 288 -1 36 -3 81 -3 100 -1 19 34 168 78 330 59 222 78 310 77 355 0 44
20 142 78 370 85 333 101 429 91 570 -5 75 -9 90 -23 90 -20 0 -126 -135 -175
-223 -19 -35 -37 -62 -39 -60 -1 2 10 69 26 148 15 80 31 177 35 215 4 39 15
126 25 195 28 187 33 293 20 409 -16 147 -68 341 -91 341 -4 0 -38 -23 -76
-51z m-78 -159 c-4 -6 8 -34 26 -62 31 -47 33 -57 33 -132 -1 -45 -6 -91 -12
-103 -11 -21 -13 -21 -69 -6 -39 10 -81 13 -125 10 l-68 -6 27 52 c34 67 90
150 143 210 39 44 60 61 45 37z m212 -152 c-2 -13 -4 -3 -4 22 0 25 2 35 4 23
2 -13 2 -33 0 -45z m4 -183 c-6 -65 -13 -120 -17 -124 -6 -6 -1 79 12 197 12
100 15 44 5 -73z m-194 -24 c61 -29 145 -97 165 -135 6 -11 -16 3 -48 31 -91
78 -153 106 -252 111 -71 4 -93 1 -160 -23 -42 -15 -84 -32 -92 -38 -8 -7 -7
-2 4 10 19 23 102 58 171 73 62 14 144 2 212 -29z m-52 -40 c67 -31 88 -62 93
-135 4 -60 3 -63 -28 -89 -38 -33 -54 -33 -122 -5 -37 14 -85 23 -156 27
l-104 6 37 72 c21 39 52 88 70 107 31 35 35 36 101 36 46 0 83 -7 109 -19z
m-649 -188 c-3 -3 -13 -3 -22 1 -15 6 -15 8 2 27 l19 21 3 -22 c2 -12 1 -24
-2 -27z m846 -81 c-1 -48 -6 -103 -10 -122 -8 -33 -9 -34 -19 -14 -8 14 -9 33
-3 60 5 21 10 73 10 114 0 59 2 71 13 61 8 -8 11 -40 9 -99z m-851 48 c17 -9
19 -22 19 -98 0 -83 -1 -85 -16 -63 -19 26 -71 51 -109 51 -14 0 -25 3 -25 8
0 4 16 31 35 60 37 53 57 62 96 42z m560 -30 c74 -22 146 -69 212 -134 51 -52
61 -73 49 -105 -8 -22 -9 -21 -36 17 -35 50 -128 125 -198 157 -95 44 -268 32
-390 -28 l-66 -32 14 27 c50 97 260 146 415 98z m30 -86 c69 -35 189 -155 189
-189 0 -33 -20 -72 -85 -165 -104 -147 -107 -158 -267 -775 -44 -170 -81 -311
-82 -313 -2 -1 -34 16 -72 38 -37 22 -72 41 -77 43 -5 1 -15 38 -24 82 -18
100 -26 116 -42 87 -9 -17 -21 -22 -51 -22 -22 0 -40 2 -40 5 0 9 94 400 189
788 50 202 91 381 91 397 0 25 4 30 33 35 31 5 86 10 155 13 18 1 55 -9 83
-24z m-301 -29 c0 -13 -39 -181 -86 -372 -47 -191 -110 -451 -139 -577 -30
-125 -55 -229 -57 -231 -9 -7 -128 -13 -128 -7 0 5 18 86 41 181 22 94 37 181
34 191 -3 11 25 158 64 327 38 170 75 333 81 364 12 63 21 73 100 118 68 38
90 40 90 6z m-309 -21 c28 -27 28 -28 9 -41 -11 -8 -27 -38 -36 -68 l-15 -55
-29 15 c-16 8 -47 15 -70 15 -26 0 -40 4 -40 13 0 23 43 142 54 150 23 17 97
0 127 -29z m69 -83 c0 -11 -15 -84 -34 -163 -19 -79 -53 -222 -76 -319 l-41
-175 -30 4 c-25 4 -30 8 -25 26 3 11 35 151 72 311 36 159 70 299 75 312 11
30 59 33 59 4z m980 -17 c0 -8 -5 -12 -10 -9 -6 4 -8 11 -5 16 9 14 15 11 15
-7z m-15 -46 c29 -13 29 -15 14 -124 l-12 -82 -31 18 c-17 10 -48 22 -68 25
l-37 7 25 52 c25 49 70 116 79 116 2 0 16 -5 30 -12z m-1115 -23 c17 -9 30
-21 30 -28 0 -6 -10 -53 -22 -104 l-21 -91 -36 19 c-20 10 -55 19 -78 19 -24
0 -43 4 -43 9 0 19 43 147 56 169 17 27 70 30 114 7z m898 -36 c-6 -16 -12
-28 -14 -26 -5 5 13 57 20 57 3 0 0 -14 -6 -31z m-11 -169 c-3 -14 -16 -55
-30 -91 -14 -36 -51 -157 -82 -270 -90 -326 -83 -308 -105 -302 -25 7 -26 -5
-3 -22 16 -12 16 -21 5 -97 -18 -123 -15 -189 13 -339 14 -74 35 -185 47 -247
l21 -113 -27 -114 c-15 -63 -32 -117 -37 -120 -8 -6 -236 172 -272 212 -17 20
-17 25 17 159 19 77 42 177 51 224 34 182 236 943 269 1015 13 27 43 76 67
108 40 54 44 57 57 40 7 -10 11 -29 9 -43z m191 20 c41 -25 41 -26 -4 -187
l-14 -52 -37 25 c-20 13 -53 27 -75 30 -21 4 -38 11 -38 16 0 19 33 154 42
171 12 24 84 23 126 -3z m-1144 -34 c19 -8 37 -19 40 -25 6 -9 -21 -148 -39
-198 -3 -9 -19 -5 -57 12 -29 14 -68 25 -85 25 -38 0 -38 -1 -18 65 9 28 20
67 25 87 6 20 18 39 28 41 35 9 73 7 106 -7z m1061 -189 c31 -15 55 -39 55
-54 0 -10 -13 -7 -50 12 -27 14 -61 25 -75 25 -23 0 -34 18 -19 33 8 7 61 -2
89 -16z m-1112 -48 c23 -12 44 -23 45 -25 6 -5 -50 -187 -69 -224 -9 -19 -88
-105 -173 -190 l-156 -154 -152 -28 c-84 -15 -154 -25 -156 -23 -2 2 17 46 43
99 50 103 30 82 346 367 84 75 94 90 123 162 14 35 17 37 61 37 27 0 63 -9 88
-21z m1112 -5 c20 -9 39 -23 42 -30 2 -6 -16 -91 -41 -187 -36 -135 -45 -184
-40 -219 4 -30 -1 -70 -16 -128 -13 -47 -24 -86 -25 -88 -1 -1 -33 13 -71 33
-38 19 -77 35 -86 35 -10 0 -18 5 -18 11 0 33 56 219 65 219 7 0 38 -9 70 -20
32 -11 60 -18 63 -16 8 9 -63 46 -101 52 -28 5 -36 11 -33 23 3 9 21 84 41
166 19 83 38 156 40 164 7 17 58 10 110 -15z m-1015 -166 c0 -7 -45 -199 -101
-425 l-101 -413 -163 0 -163 0 44 133 c25 72 53 161 64 197 18 60 32 78 165
225 141 157 159 181 189 258 12 29 20 37 40 37 15 0 26 -6 26 -12z m787 -120
c-3 -8 -6 -5 -6 6 -1 11 2 17 5 13 3 -3 4 -12 1 -19z m-10 -40 c-3 -8 -6 -5
-6 6 -1 11 2 17 5 13 3 -3 4 -12 1 -19z m-10 -40 c-3 -8 -6 -5 -6 6 -1 11 2
17 5 13 3 -3 4 -12 1 -19z m-10 -40 c-3 -8 -6 -5 -6 6 -1 11 2 17 5 13 3 -3 4
-12 1 -19z m-537 -165 c-2 -30 -29 -38 -135 -41 -101 -3 -109 -2 -94 12 8 9
35 20 60 25 56 11 169 13 169 4z m640 -73 c47 -24 60 -35 60 -53 0 -12 -20
-98 -44 -191 l-43 -169 -37 151 c-21 83 -40 183 -43 222 l-6 70 27 0 c15 0 53
-14 86 -30z m-702 -37 c-11 -27 -40 -100 -64 -163 l-43 -115 -68 3 c-37 2 -72
8 -77 12 -8 8 54 222 80 272 13 25 19 27 87 31 39 1 80 4 89 5 16 2 15 -2 -4
-45z m99 -40 c-6 -99 -39 -220 -98 -366 -42 -104 -108 -239 -109 -222 -1 35
195 675 207 675 3 0 3 -39 0 -87z m182 -62 l24 -18 -37 -134 c-21 -74 -45
-158 -54 -187 l-17 -52 -52 35 -51 34 14 48 c20 65 44 225 44 295 l0 56 53
-29 c28 -16 63 -37 76 -48z m-152 37 c-3 -8 -6 -5 -6 6 -1 11 2 17 5 13 3 -3
4 -12 1 -19z m-21 -175 c-9 -64 -34 -139 -50 -152 -8 -7 -1 30 18 94 17 58 33
105 35 105 2 0 0 -21 -3 -47z m-232 -83 c18 -18 0 -21 -83 -14 -62 5 -81 10
-81 22 0 13 12 14 77 8 42 -3 81 -10 87 -16z m253 -185 c45 -27 53 -48 30 -79
-13 -17 -16 -17 -68 9 -30 15 -56 29 -57 31 -7 5 32 64 42 64 5 0 29 -11 53
-25z m273 -209 c77 -59 140 -113 140 -120 0 -12 -48 -177 -53 -182 -1 -1 -67
62 -147 141 l-144 143 13 43 c21 71 31 91 41 87 5 -2 73 -52 150 -112z m-924
7 c-8 -15 -15 -25 -16 -21 0 12 23 58 27 54 3 -2 -2 -17 -11 -33z m441 -609
c-37 -71 -63 -100 -35 -39 13 28 25 52 28 55 3 3 5 11 6 18 3 34 4 36 15 25 7
-7 3 -24 -14 -59z"/>
<path d="M2855 3870 c-91 -37 -97 -176 -10 -230 89 -55 185 13 185 130 0 45
-37 83 -98 100 -43 12 -50 12 -77 0z m121 -178 c-17 -34 -34 -42 -79 -41 -32
1 -32 1 5 8 43 9 65 24 74 53 3 11 8 17 11 15 2 -3 -2 -19 -11 -35z"/>
<path d="M2921 2344 c0 -11 3 -14 6 -6 3 7 2 16 -1 19 -3 4 -6 -2 -5 -13z"/>
<path d="M2931 2305 c0 -24 37 -177 38 -155 0 8 -8 51 -18 95 -11 44 -19 71
-20 60z"/>
<path d="M2972 2110 c0 -14 2 -19 5 -12 2 6 2 18 0 25 -3 6 -5 1 -5 -13z"/>
<path d="M2982 2060 c0 -14 2 -19 5 -12 2 6 2 18 0 25 -3 6 -5 1 -5 -13z"/>
<path d="M2991 2014 c0 -11 3 -14 6 -6 3 7 2 16 -1 19 -3 4 -6 -2 -5 -13z"/>
<path d="M1870 2844 c-30 -25 -117 -92 -193 -151 -129 -99 -187 -151 -122
-109 92 59 397 309 373 306 -2 -1 -28 -21 -58 -46z"/>
<path d="M2000 2638 c-90 -102 -150 -183 -75 -103 61 67 168 195 161 195 -3 0
-41 -41 -86 -92z"/>
<path d="M1666 2034 c-15 -37 -25 -68 -23 -71 3 -2 17 26 31 63 15 36 25 68
23 70 -2 2 -16 -26 -31 -62z"/>
<path d="M1428 1927 c-5 -46 -146 -387 -253 -612 -36 -77 -62 -135 -56 -130
21 21 139 240 253 468 65 130 124 237 131 237 7 0 20 -7 30 -14 21 -16 13 -44
-31 -109 -16 -23 -64 -107 -107 -187 -42 -80 -91 -169 -107 -197 -16 -29 -28
-53 -25 -53 2 0 61 94 132 210 74 122 135 212 146 215 10 4 27 4 37 1 15 -5
20 2 28 44 l11 50 -89 60 c-48 33 -90 60 -92 60 -2 0 -6 -19 -8 -43z"/>
<path d="M1767 1733 c-45 -97 -65 -153 -53 -153 16 0 115 234 104 245 -3 3
-26 -39 -51 -92z"/>
<path d="M1647 1614 c-3 -3 -3 -13 0 -22 4 -10 2 -13 -5 -8 -7 4 -23 -16 -42
-55 -17 -33 -30 -63 -27 -65 2 -2 18 24 35 57 18 34 32 56 32 49 0 -22 13 -2
15 25 3 26 2 29 -8 19z"/>
<path d="M2296 1499 c-11 -22 -48 -73 -82 -115 -64 -77 -187 -303 -258 -476
-41 -99 -48 -142 -15 -91 12 18 26 30 32 26 6 -3 7 -1 3 5 -7 11 56 118 79
134 5 4 6 8 1 8 -5 0 -2 8 6 18 46 52 173 293 227 429 35 87 39 129 7 62z"/>
<path d="M1562 1343 c-24 -47 -41 -88 -38 -91 3 -3 24 34 47 82 22 48 39 89
37 91 -2 3 -23 -34 -46 -82z"/>
<path d="M2507 1373 c-30 -35 -90 -150 -153 -296 -35 -82 -64 -152 -64 -155 0
-4 18 25 39 63 21 39 54 95 73 125 40 62 138 254 138 270 0 15 -15 12 -33 -7z"/>
<path d="M1388 1313 c-42 -64 -236 -381 -253 -413 -9 -16 -12 -30 -8 -30 19 1
143 197 242 383 54 100 62 125 19 60z"/>
<path d="M2745 1145 c-55 -7 -103 -14 -107 -14 -5 -1 -68 -126 -68 -136 0 -2
16 -6 35 -9 20 -4 35 -13 35 -21 0 -7 -25 -68 -55 -136 -30 -67 -54 -124 -52
-126 2 -1 34 59 71 135 62 128 66 140 55 166 -11 23 -10 32 5 61 17 31 23 34
72 37 45 2 53 0 49 -12 -10 -25 -275 -528 -333 -630 -29 -52 -49 -90 -43 -85
27 28 285 455 468 778 5 9 -4 8 -132 -8z"/>
<path d="M2411 1051 c-11 -21 -38 -83 -60 -137 -60 -147 -170 -408 -251 -594
-144 -328 -140 -320 -124 -320 18 0 64 97 134 287 28 76 86 206 127 288 42 83
91 179 110 215 21 43 34 85 38 123 2 32 15 85 29 118 27 68 26 77 -3 20z"/>
<path d="M2122 976 c-17 -20 -43 -58 -56 -84 -43 -86 -191 -462 -181 -462 4 0
74 123 143 250 68 126 133 281 130 308 -3 26 -3 26 -36 -12z"/>
<path d="M1820 670 c-49 -98 -124 -277 -141 -335 -8 -29 -8 -29 8 -10 21 27
94 183 128 275 15 41 36 96 46 123 10 26 16 47 14 47 -3 0 -27 -45 -55 -100z"/>
<path d="M1927 733 c-2 -10 -8 -27 -12 -38 -12 -30 9 -6 23 28 6 15 8 27 3 27
-5 0 -11 -8 -14 -17z"/>
</g>
</svg>