<?xml version="1.0" encoding="UTF-8" standalone="no" ?>
<!DOCTYPE svg PUBLIC "-//W3C//DTD SVG 1.1//EN" "http://www.w3.org/Graphics/SVG/1.1/DTD/svg11.dtd">
<!-- Generated by SVGMaker - https://svgmaker.io -->
<!-- Prompt: image has been manually edited -->
<!-- Quality: medium -->
<!-- Type: crafted -->
<!-- Created: 2025-11-26T19:39:01.797Z -->
<svg xmlns="http://www.w3.org/2000/svg" xmlns:xlink="http://www.w3.org/1999/xlink" version="1.1" width="1536" height="1024" viewBox="128 -70.5 1536 1024" xml:space="preserve">
<desc>Created with Fabric.js 4.6.0</desc>
<defs>
</defs>
<g transform="matrix(0.75 0 0 0.75 896 634.93)"  >
<linearGradient id="SVGID_Gradient17_1" gradientUnits="userSpaceOnUse" gradientTransform="matrix(1 0 0 1 0 0)"  x1="738.697" y1="1304.55" x2="797.156" y2="506.125">
<stop offset="0%" style="stop-color:rgb(41,105,192);stop-opacity: 1"/>
<stop offset="100%" style="stop-color:rgb(78,173,238);stop-opacity: 1"/>
</linearGradient>
<path style="stroke: none; stroke-width: 1; stroke-dasharray: none; stroke-linecap: butt; stroke-dashoffset: 0; stroke-linejoin: miter; stroke-miterlimit: 4; fill: url(#SVGID_Gradient17_1); fill-rule: nonzero; opacity: 1;"  transform=" translate(-1024, -940.35)" d="M 972.661 515.694 C 975.611 519.261 979.889 524.159 982.283 527.898 C 987.356 532.846 991.856 538.266 996.474 543.639 C 1000.09 547.623 1004.61 552.322 1007.97 556.406 C 1001.14 566.32 962.83 617.379 998.706 617.599 C 1000.94 617.612 1006.6 615.435 1008.98 614.493 C 1014.68 613.828 1014.31 613.344 1018.56 615.993 C 1019.87 618.458 1022.37 622.086 1022.01 624.499 L 1022.7 625.169 L 1050.44 590.213 C 1055.47 594.934 1060.51 599.63 1065.58 604.3 C 1073.77 610.936 1082.02 617.487 1090.35 623.952 C 1096.33 628.829 1105.8 637.374 1112.9 639.618 C 1077.89 701.193 1051.82 768.335 1043.61 839.064 C 1043.12 843.255 1042.85 848.257 1042.13 852.289 L 1041.98 848.31 L 1042.16 848.917 L 1041.38 844.672 C 1040.22 850.915 1041.84 856.92 1040.27 862.54 C 1038.74 867.997 1040.17 876.496 1040.67 882.139 C 1043.79 917.288 1052.96 944.058 1069.73 974.957 C 1075.31 985.245 1080.46 990.356 1086.78 999.312 C 1116.22 1041.01 1160.92 1065.04 1208.81 1080.8 C 1257.89 1096.96 1296.66 1099.13 1339.55 1131.25 C 1351.29 1140.97 1360.86 1148.62 1369.4 1161.52 C 1373.79 1169.68 1380 1181.09 1381.15 1190.28 C 1398.16 1184.14 1418.56 1181.8 1436.17 1186.5 C 1456.86 1191.2 1471.25 1201.65 1485.84 1216.36 C 1489.64 1220.39 1493.39 1224.48 1497.09 1228.6 C 1518.38 1223.81 1541.02 1216.05 1563.49 1211.8 C 1623.15 1200.52 1702.31 1195.01 1759.75 1216.73 L 1767.93 1209.49 C 1786.78 1191.05 1829.54 1167.63 1854.08 1158.98 C 1915.57 1137.31 1987.75 1132.07 2048 1160.25 L 2048 1292.5 L 2048 1365 L 1189.44 1365 L 788.273 1365 L 0 1365 L 0 1217.57 L 0 1192.34 L 0 1126.8 C 8.69621 1125.03 12.2184 1125.68 20.8866 1127.8 C 39.9094 1076.17 99.5843 1064.85 138.938 1101.36 C 140.794 1068.53 151.798 1044.96 175.897 1022.66 C 214.496 986.943 281.275 980.309 318.457 1021.65 C 320.182 1007.48 323.861 993.607 329.39 980.439 C 365.141 893.413 460.507 837.899 551.706 875.687 C 602.57 844.177 654.195 809.637 701.351 772.867 C 761.909 725.646 818.607 671.028 873.117 616.913 C 906.781 583.652 939.966 549.908 972.661 515.694 z" stroke-linecap="round" />
</g>
<g transform="matrix(0.75 0 0 0.75 896 869.44)"  >
<path style="stroke: none; stroke-width: 1; stroke-dasharray: none; stroke-linecap: butt; stroke-dashoffset: 0; stroke-linejoin: miter; stroke-miterlimit: 4; fill: rgb(22,47,123); fill-rule: nonzero; opacity: 1;"  transform=" translate(-1024, -1252.95)" d="M 1767.93 1209.49 C 1786.78 1191.05 1829.54 1167.63 1854.08 1158.98 C 1915.57 1137.31 1987.75 1132.07 2048 1160.25 L 2048 1292.5 L 2048 1365 L 1189.44 1365 L 788.273 1365 L 0 1365 L 0 1217.57 L 0 1192.34 C 29.1409 1197.27 65.5262 1200.59 95.3735 1204.27 C 143.65 1210.14 191.837 1216.72 239.92 1224.01 C 319.516 1235.6 398.403 1248.63 478.286 1259.14 C 602.189 1276.31 726.96 1286.49 852.007 1289.63 C 927.619 1290.97 1003.25 1289.78 1078.79 1286.06 C 1096.25 1285.34 1113.69 1284.25 1131.1 1282.8 C 1140.55 1281.99 1157.35 1279.92 1166.27 1279.84 C 1154.62 1295.69 952.096 1314.18 920.112 1314.36 C 915.318 1314.39 901.312 1314.85 897.836 1316.55 C 901.003 1319.03 905.801 1318.73 909.466 1317.42 C 941.761 1323.1 1002.07 1323.95 1034.66 1323.34 C 1141.75 1321.28 1248.1 1305.04 1350.92 1275.05 C 1399.55 1261.06 1448.3 1243.28 1497.09 1228.6 C 1518.38 1223.81 1541.02 1216.05 1563.49 1211.8 C 1623.15 1200.52 1702.31 1195.01 1759.75 1216.73 L 1767.93 1209.49 z" stroke-linecap="round" />
</g>
<g transform="matrix(0.75 0 0 0.75 1342.04 916.82)"  >
<path style="stroke: none; stroke-width: 1; stroke-dasharray: none; stroke-linecap: butt; stroke-dashoffset: 0; stroke-linejoin: miter; stroke-miterlimit: 4; fill: rgb(255,255,255); fill-rule: nonzero; opacity: 1;"  transform=" translate(-1618.72, -1316.1)" d="M 1189.44 1365 C 1206.82 1361.22 1239.33 1358.51 1258.78 1355.57 C 1297.64 1349.4 1336.34 1342.21 1374.82 1333.99 C 1441.35 1320.35 1506.89 1303.98 1573.81 1291.13 C 1692.8 1268.29 1820.06 1260.76 1940.82 1273.07 C 1973.46 1276.39 2015.24 1286.15 2048 1292.5 L 2048 1365 L 1189.44 1365 z" stroke-linecap="round" />
</g>
<g transform="matrix(0.75 0 0 0.75 423.6 898.2)"  >
<path style="stroke: none; stroke-width: 1; stroke-dasharray: none; stroke-linecap: butt; stroke-dashoffset: 0; stroke-linejoin: miter; stroke-miterlimit: 4; fill: rgb(255,255,255); fill-rule: nonzero; opacity: 1;"  transform=" translate(-394.14, -1291.28)" d="M -4.54747e-13 1217.57 C 56.7721 1228.62 113.463 1240.07 170.069 1251.94 C 300.187 1280.81 430.701 1307.86 561.573 1333.09 C 612.002 1342.64 662.696 1350.75 713.59 1357.4 C 735.404 1360.12 757.343 1361.56 779.202 1363.85 C 782.218 1364.17 785.316 1364.3 788.273 1365 L 0 1365 L 0 1217.57 z" stroke-linecap="round" />
</g>
<g transform="matrix(0.75 0 0 0.75 812.77 578.9)"  >
<linearGradient id="SVGID_Gradient16_2" gradientUnits="userSpaceOnUse" gradientTransform="matrix(1 0 0 1 0 0)"  x1="873.076" y1="1169.3" x2="1081.49" y2="576.713">
<stop offset="0%" style="stop-color:rgb(80,173,232);stop-opacity: 1"/>
<stop offset="100%" style="stop-color:rgb(197,255,255);stop-opacity: 1"/>
</linearGradient>
<path style="stroke: none; stroke-width: 1; stroke-dasharray: none; stroke-linecap: butt; stroke-dashoffset: 0; stroke-linejoin: miter; stroke-miterlimit: 4; fill: url(#SVGID_Gradient16_2); fill-rule: nonzero; opacity: 1;"  transform=" translate(-913.02, -865.65)" d="M 996.474 543.639 C 1000.09 547.623 1004.61 552.322 1007.97 556.406 C 1001.14 566.32 962.83 617.379 998.706 617.599 C 1000.94 617.612 1006.6 615.435 1008.98 614.493 C 1014.68 613.828 1014.31 613.344 1018.56 615.993 C 1019.87 618.458 1022.37 622.086 1022.01 624.499 L 1022.7 625.169 L 1050.44 590.213 C 1055.47 594.934 1060.51 599.63 1065.58 604.3 C 1073.77 610.936 1082.02 617.487 1090.35 623.952 C 1028.12 731.836 960.605 846.467 993.975 977.326 C 1009.85 1039.57 1049.17 1087.54 1104.22 1119.85 C 1122.39 1130.51 1142.6 1137.51 1162.85 1143.62 C 1159.85 1148.43 1154.89 1155.7 1153.61 1161 L 1153.12 1161.03 L 1151.53 1161.58 C 1147.95 1165 1150.78 1173.35 1140.14 1171.88 C 1125.77 1169.9 1087.87 1158.88 1075.61 1169.31 C 1074.42 1170.02 1067.82 1171.76 1065.82 1172.41 C 1054.2 1176.23 1045.38 1180.66 1035.47 1187.67 C 1026.01 1173.69 1006.5 1157.13 991.947 1148.43 C 956.971 1127.53 918.625 1135.67 884.644 1153.6 C 878.505 1156.84 861.87 1167.02 856.541 1168.41 C 851.038 1165.36 859.607 1143.27 859.412 1137.04 C 858.75 1115.89 846.803 1093.7 827.856 1083.5 C 806.46 1071.99 789.395 1078.61 768.063 1085.03 C 768.386 1020.62 724.751 981.409 663.19 975.476 C 698.94 927.486 738.43 881.747 774.743 834.174 C 786.399 818.904 797.713 803.414 809.526 788.253 C 812.034 786.43 860.372 722.843 865.57 715.956 C 899.923 670.435 936.634 625.633 970.262 579.522 C 978.838 567.764 988.433 555.693 996.474 543.639 z" stroke-linecap="round" />
</g>
<g transform="matrix(0.75 0 0 0.75 903.99 591.66)"  >
<linearGradient id="SVGID_Gradient15_3" gradientUnits="userSpaceOnUse" gradientTransform="matrix(1 0 0 1 0 0)"  x1="1029.38" y1="1152.69" x2="1053.04" y2="606.439">
<stop offset="0%" style="stop-color:rgb(58,140,217);stop-opacity: 1"/>
<stop offset="100%" style="stop-color:rgb(91,185,237);stop-opacity: 1"/>
</linearGradient>
<path style="stroke: none; stroke-width: 1; stroke-dasharray: none; stroke-linecap: butt; stroke-dashoffset: 0; stroke-linejoin: miter; stroke-miterlimit: 4; fill: url(#SVGID_Gradient15_3); fill-rule: nonzero; opacity: 1;"  transform=" translate(-1034.65, -882.66)" d="M 1065.58 604.3 C 1073.77 610.936 1082.02 617.487 1090.35 623.952 C 1028.12 731.836 960.605 846.467 993.975 977.326 C 1009.85 1039.57 1049.17 1087.54 1104.22 1119.85 C 1122.39 1130.51 1142.6 1137.51 1162.85 1143.62 C 1159.85 1148.43 1154.89 1155.7 1153.61 1161 L 1153.12 1161.03 C 1138.89 1149.47 1099.89 1139.68 1082.52 1143.8 C 1078.32 1144.8 1053.3 1150.36 1051.96 1150.03 C 1051.02 1115.71 1035.81 1088.65 1003.93 1073.43 C 976.741 1060.46 948.095 1064.69 920.793 1074.65 C 918.153 1062.75 915.641 1050.82 913.258 1038.86 C 900.539 974.197 905.728 907.289 928.264 845.361 C 940.884 811.281 958.939 778.599 975.984 746.612 C 1002.43 696.992 1034.34 650.928 1065.58 604.3 z" stroke-linecap="round" />
</g>
<g transform="matrix(0.75 0 0 0.75 833.41 556.43)"  >
<linearGradient id="SVGID_Gradient14_4" gradientUnits="userSpaceOnUse" gradientTransform="matrix(1 0 0 1 0 0)"  x1="843.095" y1="1038.47" x2="1104.3" y2="627.517">
<stop offset="0%" style="stop-color:rgb(93,182,234);stop-opacity: 1"/>
<stop offset="100%" style="stop-color:rgb(155,229,250);stop-opacity: 1"/>
</linearGradient>
<path style="stroke: none; stroke-width: 1; stroke-dasharray: none; stroke-linecap: butt; stroke-dashoffset: 0; stroke-linejoin: miter; stroke-miterlimit: 4; fill: url(#SVGID_Gradient14_4); fill-rule: nonzero; opacity: 1;"  transform=" translate(-940.55, -835.7)" d="M 1050.44 590.213 C 1055.47 594.934 1060.51 599.63 1065.58 604.3 C 1034.34 650.928 1002.43 696.992 975.984 746.612 C 958.939 778.599 940.884 811.281 928.264 845.361 C 905.728 907.289 900.539 974.197 913.258 1038.86 C 915.641 1050.82 918.153 1062.75 920.793 1074.65 C 917.894 1077.29 914.111 1078.7 911.087 1081.18 C 908.602 1076.53 907.692 1067.57 906.654 1062.47 C 901.982 1035.3 886.853 1002.95 856.776 997.648 C 853.494 997.07 846.308 994.243 843.326 994.155 C 835.144 993.912 824.366 995.971 816.346 997.238 L 815.548 996.624 C 814.941 983.624 823.469 957.397 827.37 944.514 C 864.564 821.677 948.177 726.785 1022.7 625.169 L 1050.44 590.213 z" stroke-linecap="round" />
</g>
<g transform="matrix(0.75 0 0 0.75 954.78 793.87)"  >
<path style="stroke: none; stroke-width: 1; stroke-dasharray: none; stroke-linecap: butt; stroke-dashoffset: 0; stroke-linejoin: miter; stroke-miterlimit: 4; fill: rgb(107,168,221); fill-rule: nonzero; opacity: 1;"  transform=" translate(-1102.38, -1152.21)" d="M 1051.96 1150.03 C 1053.3 1150.36 1078.32 1144.8 1082.52 1143.8 C 1099.89 1139.68 1138.89 1149.47 1153.12 1161.03 L 1151.53 1161.58 C 1126.11 1151.04 1094.43 1135.48 1066.53 1150.79 C 1062.6 1152.95 1057.04 1159.21 1052.78 1159.12 C 1051.03 1156.52 1051.74 1153.39 1051.96 1150.03 z" stroke-linecap="round" />
</g>
<g transform="matrix(0.75 0 0 0.75 1048.04 800.32)"  >
<path style="stroke: none; stroke-width: 1; stroke-dasharray: none; stroke-linecap: butt; stroke-dashoffset: 0; stroke-linejoin: miter; stroke-miterlimit: 4; fill: rgb(107,168,221); fill-rule: nonzero; opacity: 1;"  transform=" translate(-1226.71, -1160.81)" d="M 1153.61 1161 C 1154.84 1162.71 1155.05 1163.25 1156.76 1164.51 C 1160.04 1161.71 1161.88 1158.45 1164.63 1155.2 C 1214.6 1096.21 1310.35 1108.14 1358.71 1162.42 C 1369.6 1174.64 1376.04 1189.35 1377.82 1205.58 C 1322.88 1141.01 1225.49 1112.3 1173.47 1199.13 C 1139.65 1168.99 1119.62 1164.86 1075.61 1169.31 C 1087.87 1158.88 1125.77 1169.9 1140.14 1171.88 C 1150.78 1173.35 1147.95 1165 1151.53 1161.58 L 1153.12 1161.03 L 1153.61 1161 z" stroke-linecap="round" />
</g>
<g transform="matrix(0.75 0 0 0.75 1198.35 828.74)"  >
<path style="stroke: none; stroke-width: 1; stroke-dasharray: none; stroke-linecap: butt; stroke-dashoffset: 0; stroke-linejoin: miter; stroke-miterlimit: 4; fill: rgb(107,168,221); fill-rule: nonzero; opacity: 1;"  transform=" translate(-1427.13, -1198.69)" d="M 1381.15 1190.28 C 1398.16 1184.14 1418.56 1181.8 1436.17 1186.5 C 1443.07 1193.14 1471.44 1201.68 1473.47 1212.72 C 1469.1 1216.32 1432.4 1203.96 1423.47 1202.77 C 1414.83 1201.62 1387 1200.71 1382.24 1198.47 C 1380.53 1195.73 1380.56 1193.86 1381.15 1190.28 z" stroke-linecap="round" />
</g>
<g transform="matrix(0.75 0 0 0.75 805.25 423.18)"  >
<path style="stroke: none; stroke-width: 1; stroke-dasharray: none; stroke-linecap: butt; stroke-dashoffset: 0; stroke-linejoin: miter; stroke-miterlimit: 4; fill: rgb(107,168,221); fill-rule: nonzero; opacity: 1;"  transform=" translate(-903, -658.08)" d="M 982.283 527.898 C 987.356 532.846 991.856 538.266 996.474 543.639 C 988.433 555.693 978.838 567.764 970.262 579.522 C 936.634 625.633 899.923 670.435 865.57 715.956 C 860.372 722.843 812.034 786.43 809.526 788.253 C 809.27 780.758 942.543 615.118 955.181 596.985 C 962.604 586.337 967.912 576.102 972.304 561.586 C 974.106 555.633 987.548 556.795 993.65 544.083 C 992.51 541.052 984.727 532.709 981.988 530.762 L 982.283 527.898 z" stroke-linecap="round" />
</g>
<g transform="matrix(0.75 0 0 0.75 908.28 903.44)"  >
<path style="stroke: none; stroke-width: 1; stroke-dasharray: none; stroke-linecap: butt; stroke-dashoffset: 0; stroke-linejoin: miter; stroke-miterlimit: 4; fill: rgb(22,67,158); fill-rule: nonzero; opacity: 1;"  transform=" translate(-1040.37, -1298.27)" d="M 1166.27 1279.84 C 1168.68 1279.22 1180.96 1277.44 1182.91 1278.4 C 1115.83 1298.82 1046.33 1307.28 976.347 1312.94 C 970.148 1313.44 910.446 1316.87 909.466 1317.42 C 905.801 1318.73 901.003 1319.03 897.836 1316.55 C 901.312 1314.85 915.318 1314.39 920.112 1314.36 C 952.096 1314.18 1154.62 1295.69 1166.27 1279.84 z" stroke-linecap="round" />
</g>
<g transform="matrix(0.75 0 0 0.75 611.96 687.66)"  >
<path style="stroke: none; stroke-width: 1; stroke-dasharray: none; stroke-linecap: butt; stroke-dashoffset: 0; stroke-linejoin: miter; stroke-miterlimit: 4; fill: rgb(107,168,221); fill-rule: nonzero; opacity: 1;"  transform=" translate(-645.28, -1010.64)" d="M 494.131 897.428 C 494.737 897.354 495.344 897.28 495.95 897.206 C 546.626 894.348 596.732 908.812 615.445 961.128 C 620.55 975.4 621.085 984.518 622.429 998.781 C 639.273 994.282 646.399 986.765 665.501 987.761 C 725.93 990.91 759.883 1039.1 759.106 1095.62 C 782.732 1087.58 818.459 1085.08 835.607 1106.27 C 839.133 1110.63 844.534 1118.14 845.727 1123.61 L 844.986 1124.41 C 835.432 1115.41 810.412 1109.27 796.839 1109.31 C 781.839 1105.67 750.514 1115.17 747.312 1113.04 C 749.981 1106.35 749.281 1099.19 746.85 1092.49 C 734.708 1059.01 712.299 1020.11 674.243 1013.07 C 652.658 1009.07 623.201 1014.98 605.082 1028.24 C 617.524 945.784 522.751 894.885 453.665 912.104 C 450.623 912.863 447.444 912.8 444.825 911.183 L 445.066 909.775 C 456.134 901.391 480.399 898.135 494.131 897.428 z" stroke-linecap="round" />
</g>
<g transform="matrix(0.75 0 0 0.75 1002.76 240.92)"  >
<linearGradient id="SVGID_Gradient13_5" gradientUnits="userSpaceOnUse" gradientTransform="matrix(1 0 0 1 0 0)"  x1="1134.18" y1="782.683" x2="1184.82" y2="21.7597">
<stop offset="0%" style="stop-color:rgb(20,30,78);stop-opacity: 1"/>
<stop offset="100%" style="stop-color:rgb(34,61,130);stop-opacity: 1"/>
</linearGradient>
<path style="stroke: none; stroke-width: 1; stroke-dasharray: none; stroke-linecap: butt; stroke-dashoffset: 0; stroke-linejoin: miter; stroke-miterlimit: 4; fill: url(#SVGID_Gradient13_5); fill-rule: nonzero; opacity: 1;"  transform=" translate(-1166.35, -415.12)" d="M 1323.99 87.7251 C 1337.13 80.7637 1354.01 74.0866 1370.18 68.3934 C 1410.09 54.3394 1470.18 37.313 1512.47 43.5286 C 1533.8 46.6644 1537.47 82.8486 1536.16 98.2037 C 1537.4 154.504 1524.36 209.083 1506.42 262.008 C 1475.27 353.952 1414.74 424.347 1344.9 489.281 C 1343.71 513.802 1345.57 627.699 1338.66 643.013 C 1332.89 655.792 1318.87 666.551 1308.59 675.874 C 1281.59 700.278 1254.39 724.453 1226.99 748.394 C 1213.59 759.952 1198.3 773.65 1183.79 783.466 C 1166.29 795.31 1158.25 782.314 1161.48 764.83 C 1169.86 719.591 1195.54 659.649 1177.02 614.108 C 1160.14 624.41 1133.19 642.161 1112.9 639.618 C 1105.8 637.374 1096.33 628.829 1090.35 623.952 C 1082.02 617.487 1073.77 610.936 1065.58 604.3 C 1060.51 599.63 1055.47 594.934 1050.44 590.213 L 1022.7 625.169 L 1022.01 624.499 C 1022.37 622.086 1019.87 618.458 1018.56 615.993 C 1014.31 613.344 1014.68 613.828 1008.98 614.493 C 1006.6 615.435 1000.94 617.612 998.706 617.599 C 962.83 617.379 1001.14 566.32 1007.97 556.406 C 1004.61 552.322 1000.09 547.623 996.474 543.639 C 991.856 538.266 987.356 532.846 982.283 527.898 C 979.889 524.159 975.611 519.261 972.661 515.694 C 962.892 499.503 972.46 488.338 979.697 472.631 C 922.662 455.194 876.287 490.006 823.018 504.281 C 809.765 507.833 790.657 504.627 797.892 485.978 C 802.205 474.862 813.655 459.656 820.604 449.476 C 835.649 427.459 851 405.652 866.651 384.062 C 878.503 367.779 898.563 337.067 914.361 325.557 C 929.63 314.432 1057.47 294.777 1084.33 290.54 C 1141.07 207.208 1218.37 139.942 1308.75 95.2598 C 1313.76 92.6162 1318.85 90.1037 1323.99 87.7251 z" stroke-linecap="round" />
</g>
<g transform="matrix(0.75 0 0 0.75 1061.17 190.46)"  >
<linearGradient id="SVGID_Gradient12_6" gradientUnits="userSpaceOnUse" gradientTransform="matrix(1 0 0 1 0 0)"  x1="1303.9" y1="453.247" x2="1198.54" y2="262.649">
<stop offset="0%" style="stop-color:rgb(179,204,232);stop-opacity: 1"/>
<stop offset="100%" style="stop-color:rgb(243,248,250);stop-opacity: 1"/>
</linearGradient>
<path style="stroke: none; stroke-width: 1; stroke-dasharray: none; stroke-linecap: butt; stroke-dashoffset: 0; stroke-linejoin: miter; stroke-miterlimit: 4; fill: url(#SVGID_Gradient12_6); fill-rule: nonzero; opacity: 1;"  transform=" translate(-1244.22, -347.87)" d="M 1376.11 158.224 C 1384.94 164.812 1396.49 175.979 1404.93 183.777 C 1423.49 201.116 1441.84 218.684 1459.97 236.477 C 1450.8 257.596 1441.41 279.116 1428.76 298.413 C 1368.44 390.398 1281.33 466.458 1186.22 520.85 C 1173.89 527.897 1162.71 532.479 1149.61 537.511 C 1169.04 510.808 1231.74 424.371 1204.21 392.015 C 1200.89 378.007 1190.82 377.148 1178.83 381.196 C 1146.21 392.207 1122.91 420.526 1099.91 444.609 C 1086.18 459.073 1073.34 473.287 1060.61 488.323 C 1050.44 478.775 1040.47 469.006 1030.73 459.022 L 1028.48 455.955 C 1030.53 457.032 1031.11 457.478 1033.45 457.831 C 1039.27 448.938 1047.05 428.672 1051.26 420.332 C 1059.31 404.418 1107.23 320.268 1118.89 310.996 L 1119.38 312.294 L 1117.96 314.122 C 1119.96 314.532 1131.91 316.887 1132.77 316.604 C 1145.47 312.433 1184.98 289.41 1192.99 282.236 L 1194.11 282.653 L 1194.49 289.05 C 1196.33 282.841 1193.19 264.966 1198.57 261.621 C 1204.18 228.869 1225.45 200.928 1255.52 186.796 C 1285.6 172.665 1320.68 174.126 1349.47 190.711 C 1353.11 189.193 1356.21 192.15 1359.45 194.022 C 1358.45 179.223 1373.36 174.022 1378.64 163.843 L 1376.11 158.224 z" stroke-linecap="round" />
</g>
<g transform="matrix(0.75 0 0 0.75 1102.06 138.64)"  >
<linearGradient id="SVGID_Gradient11_7" gradientUnits="userSpaceOnUse" gradientTransform="matrix(1 0 0 1 0 0)"  x1="1354.59" y1="358.791" x2="1242.09" y2="198.035">
<stop offset="0%" style="stop-color:rgb(19,33,92);stop-opacity: 1"/>
<stop offset="100%" style="stop-color:rgb(35,60,127);stop-opacity: 1"/>
</linearGradient>
<path style="stroke: none; stroke-width: 1; stroke-dasharray: none; stroke-linecap: butt; stroke-dashoffset: 0; stroke-linejoin: miter; stroke-miterlimit: 4; fill: url(#SVGID_Gradient11_7); fill-rule: nonzero; opacity: 1;"  transform=" translate(-1298.75, -278.78)" d="M 1198.57 261.621 C 1204.18 228.869 1225.45 200.928 1255.52 186.796 C 1285.6 172.665 1320.68 174.126 1349.47 190.711 C 1369.13 202.035 1384.44 219.611 1392.96 240.642 C 1408.98 280.223 1398.55 325.6 1366.86 354.217 C 1335.17 382.835 1288.96 388.589 1251.22 368.619 C 1212.39 348.077 1191.15 304.916 1198.57 261.621 z" stroke-linecap="round" />
</g>
<g transform="matrix(0.75 0 0 0.75 1102.2 139.03)"  >
<linearGradient id="SVGID_Gradient10_8" gradientUnits="userSpaceOnUse" gradientTransform="matrix(1 0 0 1 0 0)"  x1="1362.47" y1="328.003" x2="1229.62" y2="218.601">
<stop offset="0%" style="stop-color:rgb(36,109,201);stop-opacity: 1"/>
<stop offset="100%" style="stop-color:rgb(48,136,222);stop-opacity: 1"/>
</linearGradient>
<path style="stroke: none; stroke-width: 1; stroke-dasharray: none; stroke-linecap: butt; stroke-dashoffset: 0; stroke-linejoin: miter; stroke-miterlimit: 4; fill: url(#SVGID_Gradient10_8); fill-rule: nonzero; opacity: 1;"  transform=" translate(-1298.94, -279.3)" d="M 1218.36 332.482 C 1216.05 329.68 1213.56 324.505 1212.12 321.184 C 1195.46 282.801 1204.84 241.056 1234.35 211.902 C 1253.86 192.99 1280.05 182.557 1307.22 182.878 C 1331.02 183.103 1350.83 192.09 1367.43 208.981 C 1379.07 220.382 1385.24 233.298 1389.95 248.695 C 1408.74 310.169 1358.82 375.995 1294.98 375.736 C 1271.46 375.64 1246.46 364.693 1230.14 347.839 C 1228.37 345.987 1226.67 344.081 1225.02 342.124 C 1222.15 338.501 1220.76 336.436 1218.36 332.482 z" stroke-linecap="round" />
</g>
<g transform="matrix(0.75 0 0 0.75 1102.5 137.79)"  >
<path style="stroke: none; stroke-width: 1; stroke-dasharray: none; stroke-linecap: butt; stroke-dashoffset: 0; stroke-linejoin: miter; stroke-miterlimit: 4; fill: rgb(24,51,129); fill-rule: nonzero; opacity: 1;"  transform=" translate(-1299.33, -277.65)" d="M 1242.45 232.509 C 1261.41 208.609 1293.3 199.112 1322.25 208.739 C 1351.2 218.367 1371.05 245.065 1371.93 275.564 C 1372.81 306.063 1354.53 333.858 1326.18 345.135 C 1297.82 356.412 1265.45 348.766 1245.14 325.996 C 1223.33 301.548 1220.59 265.527 1238.45 238.063 C 1239.69 236.15 1241.03 234.297 1242.45 232.509 z" stroke-linecap="round" />
</g>
<g transform="matrix(0.75 0 0 0.75 1096.64 114.08)"  >
<path style="stroke: none; stroke-width: 1; stroke-dasharray: none; stroke-linecap: butt; stroke-dashoffset: 0; stroke-linejoin: miter; stroke-miterlimit: 4; fill: rgb(42,102,192); fill-rule: nonzero; opacity: 1;"  transform=" translate(-1291.52, -246.04)" d="M 1292.36 228.097 C 1300.69 226.967 1332.1 228.874 1329.51 241.166 C 1322.85 250.388 1300.85 257.825 1289.77 260.919 C 1231.95 275.888 1250.84 236.325 1292.36 228.097 z" stroke-linecap="round" />
</g>
<g transform="matrix(0.75 0 0 0.75 1110.12 148.82)"  >
<linearGradient id="SVGID_Gradient9_9" gradientUnits="userSpaceOnUse" gradientTransform="matrix(1 0 0 1 0 0)"  x1="1346.72" y1="357.574" x2="1287.39" y2="257.693">
<stop offset="0%" style="stop-color:rgb(21,71,167);stop-opacity: 1"/>
<stop offset="100%" style="stop-color:rgb(31,98,193);stop-opacity: 1"/>
</linearGradient>
<path style="stroke: none; stroke-width: 1; stroke-dasharray: none; stroke-linecap: butt; stroke-dashoffset: 0; stroke-linejoin: miter; stroke-miterlimit: 4; fill: url(#SVGID_Gradient9_9); fill-rule: nonzero; opacity: 1;"  transform=" translate(-1309.49, -292.36)" d="M 1367.43 208.981 C 1379.07 220.382 1385.24 233.298 1389.95 248.695 C 1408.74 310.169 1358.82 375.995 1294.98 375.736 C 1271.46 375.64 1246.46 364.693 1230.14 347.839 C 1228.37 345.987 1226.67 344.081 1225.02 342.124 C 1226.89 339.622 1227.98 337.259 1229.4 334.493 L 1231.14 335.031 C 1244.98 347.192 1257.31 355.812 1275.76 360.43 C 1299.37 366.34 1318.45 361.859 1339.24 350.013 C 1379.27 327.2 1391.08 284.832 1378.45 242.463 C 1375.3 232.924 1370.18 224.163 1366.47 214.859 C 1365.98 213.608 1367.06 210.314 1367.43 208.981 z" stroke-linecap="round" />
</g>
<g transform="matrix(0.75 0 0 0.75 1049.98 144.75)"  >
<path style="stroke: none; stroke-width: 1; stroke-dasharray: none; stroke-linecap: butt; stroke-dashoffset: 0; stroke-linejoin: miter; stroke-miterlimit: 4; fill: rgb(60,118,210); fill-rule: nonzero; opacity: 1;"  transform=" translate(-1229.31, -286.94)" d="M 1218.36 332.482 L 1220.9 333.119 C 1221.56 332.326 1222.2 331.514 1222.82 330.684 C 1225.09 327.609 1225.62 326.482 1225.09 322.804 C 1212.3 303.21 1210.9 273.539 1216.92 251.381 C 1218.36 246.067 1223.46 237.29 1225.78 231.748 C 1229.44 234.785 1234.01 236.271 1238.45 238.063 C 1220.59 265.527 1223.33 301.548 1245.14 325.996 C 1241.04 329.851 1236.06 332.303 1231.14 335.031 L 1229.4 334.493 C 1227.98 337.259 1226.89 339.622 1225.02 342.124 C 1222.15 338.501 1220.76 336.436 1218.36 332.482 z" stroke-linecap="round" />
</g>
<g transform="matrix(0.75 0 0 0.75 1053.59 103.83)"  >
<path style="stroke: none; stroke-width: 1; stroke-dasharray: none; stroke-linecap: butt; stroke-dashoffset: 0; stroke-linejoin: miter; stroke-miterlimit: 4; fill: rgb(22,67,158); fill-rule: nonzero; opacity: 1;"  transform=" translate(-1234.12, -232.39)" d="M 1225.78 231.748 C 1228.17 228.345 1227.5 228.174 1231.03 226.713 C 1236.85 227.485 1239.92 232.042 1242.45 232.509 C 1241.03 234.297 1239.69 236.15 1238.45 238.063 C 1234.01 236.271 1229.44 234.785 1225.78 231.748 z" stroke-linecap="round" />
</g>
<g transform="matrix(0.75 0 0 0.75 1124.4 165.43)"  >
<path style="stroke: none; stroke-width: 1; stroke-dasharray: none; stroke-linecap: butt; stroke-dashoffset: 0; stroke-linejoin: miter; stroke-miterlimit: 4; fill: rgb(168,189,217); fill-rule: nonzero; opacity: 1;"  transform=" translate(-1328.53, -314.49)" d="M 1392.96 240.642 C 1400.59 246.566 1403.95 260.765 1405.17 269.916 C 1409.01 298.676 1395.72 329.089 1378.21 351.394 C 1362.46 371.469 1340.61 385.303 1314.74 387.752 C 1292.44 389.863 1272.28 386.682 1254.15 372.345 C 1252.64 371.155 1252.12 370.274 1251.22 368.619 C 1288.96 388.589 1335.17 382.835 1366.86 354.217 C 1398.55 325.6 1408.98 280.223 1392.96 240.642 z" stroke-linecap="round" />
</g>
<g transform="matrix(0.75 0 0 0.75 1100.91 235.47)"  >
<path style="stroke: none; stroke-width: 1; stroke-dasharray: none; stroke-linecap: butt; stroke-dashoffset: 0; stroke-linejoin: miter; stroke-miterlimit: 4; fill: rgb(107,168,221); fill-rule: nonzero; opacity: 1;"  transform=" translate(-1297.21, -407.86)" d="M 1459.97 236.477 C 1468.25 244.747 1477.02 254.381 1485.19 262.257 C 1473.1 287.561 1461.82 312.497 1447.21 336.592 C 1397.97 417.815 1319.2 492.646 1238.46 542.447 C 1230.42 547.404 1172.87 578.07 1172.1 579.244 C 1168.72 577.218 1152.63 563.503 1149.01 560.502 C 1136.01 549.644 1122.74 539.101 1109.23 528.883 C 1138.06 499.439 1179.89 460.555 1197.77 423.621 C 1202.25 414.351 1203.54 402.271 1204.21 392.015 C 1231.74 424.371 1169.04 510.808 1149.61 537.511 C 1162.71 532.479 1173.89 527.897 1186.22 520.85 C 1281.33 466.458 1368.44 390.398 1428.76 298.413 C 1441.41 279.116 1450.8 257.596 1459.97 236.477 z" stroke-linecap="round" />
</g>
<g transform="matrix(0.75 0 0 0.75 1029.59 143.92)"  >
<path style="stroke: none; stroke-width: 1; stroke-dasharray: none; stroke-linecap: butt; stroke-dashoffset: 0; stroke-linejoin: miter; stroke-miterlimit: 4; fill: rgb(255,255,255); fill-rule: nonzero; opacity: 1;"  transform=" translate(-1202.12, -285.83)" d="M 1319.89 113.828 C 1330.31 120.779 1347.32 135.849 1355.85 140.833 C 1359.88 145.19 1374.44 155.408 1376.11 158.224 L 1378.64 163.843 C 1373.36 174.022 1358.45 179.223 1359.45 194.022 C 1356.21 192.15 1353.11 189.193 1349.47 190.711 C 1320.68 174.126 1285.6 172.665 1255.52 186.796 C 1225.45 200.928 1204.18 228.869 1198.57 261.621 C 1193.19 264.966 1196.33 282.841 1194.49 289.05 L 1194.11 282.653 L 1192.99 282.236 C 1184.98 289.41 1145.47 312.433 1132.77 316.604 C 1131.91 316.887 1119.96 314.532 1117.96 314.122 L 1119.38 312.294 L 1118.89 310.996 C 1107.23 320.268 1059.31 404.418 1051.26 420.332 C 1047.05 428.672 1039.27 448.938 1033.45 457.831 C 1031.11 457.478 1030.53 457.032 1028.48 455.955 L 1025.59 453.249 C 1043.35 403.921 1063.74 363.684 1091.46 318.934 C 1136.79 245.731 1200.55 182.436 1274.09 137.563 C 1289.21 128.336 1304.51 122.061 1319.89 113.828 z" stroke-linecap="round" />
</g>
<g transform="matrix(0.75 0 0 0.75 1229.73 46.67)"  >
<linearGradient id="SVGID_Gradient8_10" gradientUnits="userSpaceOnUse" gradientTransform="matrix(1 0 0 1 0 0)"  x1="1466.09" y1="151.779" x2="1523.14" y2="156.163">
<stop offset="0%" style="stop-color:rgb(11,44,134);stop-opacity: 1"/>
<stop offset="100%" style="stop-color:rgb(27,82,176);stop-opacity: 1"/>
</linearGradient>
<path style="stroke: none; stroke-width: 1; stroke-dasharray: none; stroke-linecap: butt; stroke-dashoffset: 0; stroke-linejoin: miter; stroke-miterlimit: 4; fill: url(#SVGID_Gradient8_10); fill-rule: nonzero; opacity: 1;"  transform=" translate(-1468.98, -156.19)" d="M 1507.27 52.3483 C 1512.32 53.0026 1516.14 56.2058 1520.01 59.364 C 1533.01 92.7158 1526.63 155.386 1519.56 189.673 C 1515.34 210.163 1505.84 239.731 1499.45 260.033 C 1494.69 256.013 1462.81 225.934 1458.83 220.948 C 1443.1 205.464 1426.97 190.403 1410.44 175.779 C 1445.72 150.601 1474.44 106.161 1490.22 66.2076 C 1495.39 65.7975 1500.09 66.1664 1503.77 62.9602 C 1504.95 59.207 1504.14 57.5855 1503.15 53.7404 L 1500.72 54.2628 C 1502.71 52.7613 1504.76 52.7423 1507.27 52.3483 z" stroke-linecap="round" />
</g>
<g transform="matrix(0.75 0 0 0.75 1222.86 32.53)"  >
<path style="stroke: none; stroke-width: 1; stroke-dasharray: none; stroke-linecap: butt; stroke-dashoffset: 0; stroke-linejoin: miter; stroke-miterlimit: 4; fill: rgb(29,86,179); fill-rule: nonzero; opacity: 1;"  transform=" translate(-1459.82, -137.34)" d="M 1503.15 53.7404 C 1506.28 56.5131 1505.81 57.3843 1507.91 60.5048 C 1511.14 64.6102 1507.36 70.9298 1506.53 76.5808 C 1505.39 84.2777 1504.67 92.3591 1503.37 100.129 C 1498.75 127.764 1489.33 155.289 1478.24 180.976 C 1472.59 194.074 1464.35 206.098 1459.48 219.576 C 1459.16 220.413 1459.28 220.129 1458.83 220.948 C 1443.1 205.464 1426.97 190.403 1410.44 175.779 C 1445.72 150.601 1474.44 106.161 1490.22 66.2076 C 1495.39 65.7975 1500.09 66.1664 1503.77 62.9602 C 1504.95 59.207 1504.14 57.5855 1503.15 53.7404 z" stroke-linecap="round" />
</g>
<g transform="matrix(0.75 0 0 0.75 1193.81 20.27)"  >
<path style="stroke: none; stroke-width: 1; stroke-dasharray: none; stroke-linecap: butt; stroke-dashoffset: 0; stroke-linejoin: miter; stroke-miterlimit: 4; fill: rgb(60,118,210); fill-rule: nonzero; opacity: 1;"  transform=" translate(-1421.08, -120.99)" d="M 1478.31 67.6527 C 1481.87 67.6874 1486.61 66.7645 1490.22 66.2076 C 1474.44 106.161 1445.72 150.601 1410.44 175.779 C 1401.11 166.352 1368.19 136.801 1357.29 130.818 C 1356.6 128.759 1353.72 126.797 1351.94 125.293 C 1380.5 103.785 1415.01 87.9678 1449.03 77.3172 C 1458.95 74.2121 1468.6 71.4226 1478.31 67.6527 z" stroke-linecap="round" />
</g>
<g transform="matrix(0.75 0 0 0.75 1002.5 139.09)"  >
<path style="stroke: none; stroke-width: 1; stroke-dasharray: none; stroke-linecap: butt; stroke-dashoffset: 0; stroke-linejoin: miter; stroke-miterlimit: 4; fill: rgb(237,239,242); fill-rule: nonzero; opacity: 1;"  transform=" translate(-1166, -279.38)" d="M 1308.46 105.511 L 1319.83 113.295 L 1319.89 113.828 C 1304.51 122.061 1289.21 128.336 1274.09 137.563 C 1200.55 182.436 1136.79 245.731 1091.46 318.934 C 1063.74 363.684 1043.35 403.921 1025.59 453.249 L 1015.57 441.443 C 1014.4 440.124 1013.27 438.74 1012.14 437.383 C 1011.55 431.642 1020.18 417.617 1023.4 410.804 C 1026.79 404.671 1029.98 397.887 1033.2 391.584 C 1074.86 309.97 1129.25 233.949 1199.67 174.702 C 1230.78 148.527 1270.71 120.696 1308.46 105.511 z" stroke-linecap="round" />
</g>
<g transform="matrix(0.75 0 0 0.75 1128.1 249.1)"  >
<path style="stroke: none; stroke-width: 1; stroke-dasharray: none; stroke-linecap: butt; stroke-dashoffset: 0; stroke-linejoin: miter; stroke-miterlimit: 4; fill: rgb(168,189,217); fill-rule: nonzero; opacity: 1;"  transform=" translate(-1333.46, -426.02)" d="M 1172.1 579.244 C 1172.87 578.07 1230.42 547.404 1238.46 542.447 C 1319.2 492.646 1397.97 417.815 1447.21 336.592 C 1461.82 312.497 1473.1 287.561 1485.19 262.257 C 1488.29 265.405 1491.92 268.931 1494.83 272.169 C 1488.47 291.11 1479.1 308.608 1469.54 326.435 C 1413.86 430.304 1319.49 503.308 1223.2 567.231 C 1211.22 575.183 1199.12 582.867 1186.61 589.792 C 1181.95 586.517 1176.42 582.838 1172.1 579.244 z" stroke-linecap="round" />
</g>
<g transform="matrix(0.75 0 0 0.75 1181.99 -1.71)"  >
<path style="stroke: none; stroke-width: 1; stroke-dasharray: none; stroke-linecap: butt; stroke-dashoffset: 0; stroke-linejoin: miter; stroke-miterlimit: 4; fill: rgb(107,168,221); fill-rule: nonzero; opacity: 1;"  transform=" translate(-1405.32, -91.7)" d="M 1328.54 107.813 C 1368.09 85.6536 1410.87 69.8204 1455.32 60.8884 C 1462.99 59.4213 1477.27 54.8524 1482.11 62.0441 C 1481.19 65.5147 1481.16 64.6889 1478.31 67.6527 C 1468.6 71.4226 1458.95 74.2121 1449.03 77.3172 C 1415.01 87.9678 1380.5 103.785 1351.94 125.293 C 1344.43 119.943 1335.34 113.783 1328.54 107.813 z" stroke-linecap="round" />
</g>
<g transform="matrix(0.75 0 0 0.75 896.64 298.78)"  >
<path style="stroke: none; stroke-width: 1; stroke-dasharray: none; stroke-linecap: butt; stroke-dashoffset: 0; stroke-linejoin: miter; stroke-miterlimit: 4; fill: rgb(29,86,179); fill-rule: nonzero; opacity: 1;"  transform=" translate(-1024.86, -492.25)" d="M 1014.66 457.142 L 1018.79 461.538 L 1024.9 467.616 C 1032.85 476.038 1045.81 488.818 1054.74 496.401 C 1047.45 505.101 1035.43 518.556 1029.09 527.359 C 1023.08 521.431 1017.23 515.334 1011.56 509.076 C 1007.4 503.977 1004.08 499.884 999.409 495.179 L 999.548 493.953 C 998.059 491.248 996.875 489.862 994.978 487.46 C 999.015 484.113 1010.54 463.492 1014.66 457.142 z" stroke-linecap="round" />
</g>
<g transform="matrix(0.75 0 0 0.75 883.16 286.25)"  >
<path style="stroke: none; stroke-width: 1; stroke-dasharray: none; stroke-linecap: butt; stroke-dashoffset: 0; stroke-linejoin: miter; stroke-miterlimit: 4; fill: rgb(42,102,192); fill-rule: nonzero; opacity: 1;"  transform=" translate(-1006.88, -475.55)" d="M 1014.66 457.142 L 1018.79 461.538 C 1011.7 468.291 1005.32 485.267 999.548 493.953 C 998.059 491.248 996.875 489.862 994.978 487.46 C 999.015 484.113 1010.54 463.492 1014.66 457.142 z" stroke-linecap="round" />
</g>
<g transform="matrix(0.75 0 0 0.75 1187.81 -10.78)"  >
<path style="stroke: none; stroke-width: 1; stroke-dasharray: none; stroke-linecap: butt; stroke-dashoffset: 0; stroke-linejoin: miter; stroke-miterlimit: 4; fill: rgb(60,118,210); fill-rule: nonzero; opacity: 1;"  transform=" translate(-1413.08, -79.61)" d="M 1318.89 99.7924 C 1363.48 76.2308 1456.94 45.6007 1507.27 52.3483 C 1504.76 52.7423 1502.71 52.7613 1500.72 54.2628 L 1503.15 53.7404 C 1504.14 57.5855 1504.95 59.207 1503.77 62.9602 C 1500.09 66.1664 1495.39 65.7975 1490.22 66.2076 C 1486.61 66.7645 1481.87 67.6874 1478.31 67.6527 C 1481.16 64.6889 1481.19 65.5147 1482.11 62.0441 C 1477.27 54.8524 1462.99 59.4213 1455.32 60.8884 C 1410.87 69.8204 1368.09 85.6536 1328.54 107.813 L 1327.54 107.568 C 1324.27 105.182 1320.1 103.02 1318.89 99.7924 z" stroke-linecap="round" />
</g>
<g transform="matrix(0.75 0 0 0.75 879.33 274.76)"  >
<path style="stroke: none; stroke-width: 1; stroke-dasharray: none; stroke-linecap: butt; stroke-dashoffset: 0; stroke-linejoin: miter; stroke-miterlimit: 4; fill: rgb(22,47,123); fill-rule: nonzero; opacity: 1;"  transform=" translate(-1001.78, -460.24)" d="M 980.156 497.442 L 980.859 495.329 C 985.868 480.538 994.016 464.924 1000.8 450.744 C 1005.75 440.377 1013.81 415.534 1023.4 410.804 C 1020.18 417.617 1011.55 431.642 1012.14 437.383 C 1013.27 438.74 1014.4 440.124 1015.57 441.443 C 1014.25 444.387 1012.74 448.758 1010.46 450.709 L 1009.01 451.063 L 1014.66 457.142 C 1010.54 463.492 999.015 484.113 994.978 487.46 C 996.875 489.862 998.059 491.248 999.548 493.953 L 999.409 495.179 C 997.389 499.392 994.236 504.116 992.626 507.786 L 991.834 508.21 L 990.617 509.673 L 988.735 509.506 C 985.146 506.81 982.498 501.451 980.156 497.442 z" stroke-linecap="round" />
</g>
<g transform="matrix(0.75 0 0 0.75 880.68 281.02)"  >
<path style="stroke: none; stroke-width: 1; stroke-dasharray: none; stroke-linecap: butt; stroke-dashoffset: 0; stroke-linejoin: miter; stroke-miterlimit: 4; fill: rgb(60,118,210); fill-rule: nonzero; opacity: 1;"  transform=" translate(-1003.58, -468.58)" d="M 993.314 474.66 C 996.188 468.003 1001.29 453.369 1006.66 449.707 L 1009.01 451.063 L 1014.66 457.142 C 1010.54 463.492 999.015 484.113 994.978 487.46 C 991.576 482.537 992.36 480.408 993.314 474.66 z" stroke-linecap="round" />
</g>
<g transform="matrix(0.75 0 0 0.75 872.3 298.17)"  >
<path style="stroke: none; stroke-width: 1; stroke-dasharray: none; stroke-linecap: butt; stroke-dashoffset: 0; stroke-linejoin: miter; stroke-miterlimit: 4; fill: rgb(42,102,192); fill-rule: nonzero; opacity: 1;"  transform=" translate(-992.4, -491.44)" d="M 991.834 508.21 C 980.103 496.363 986.242 488.132 993.314 474.66 C 992.36 480.408 991.576 482.537 994.978 487.46 C 996.875 489.862 998.059 491.248 999.548 493.953 L 999.409 495.179 C 997.389 499.392 994.236 504.116 992.626 507.786 L 991.834 508.21 z" stroke-linecap="round" />
</g>
<g transform="matrix(0.75 0 0 0.75 900.28 384.17)"  >
<path style="stroke: none; stroke-width: 1; stroke-dasharray: none; stroke-linecap: butt; stroke-dashoffset: 0; stroke-linejoin: miter; stroke-miterlimit: 4; fill: rgb(214,253,254); fill-rule: nonzero; opacity: 1;"  transform=" translate(-1029.71, -606.08)" d="M 1008.98 614.493 C 1022.12 606.287 1033 596.861 1044.93 587.007 C 1048.02 586.924 1047.3 587.288 1050.44 590.213 L 1022.7 625.169 L 1022.01 624.499 C 1022.37 622.086 1019.87 618.458 1018.56 615.993 C 1014.31 613.344 1014.68 613.828 1008.98 614.493 z" stroke-linecap="round" />
</g>
<g transform="matrix(0.75 0 0 0.75 892.9 270.48)"  >
<path style="stroke: none; stroke-width: 1; stroke-dasharray: none; stroke-linecap: butt; stroke-dashoffset: 0; stroke-linejoin: miter; stroke-miterlimit: 4; fill: rgb(24,51,129); fill-rule: nonzero; opacity: 1;"  transform=" translate(-1019.87, -454.53)" d="M 1015.57 441.443 L 1025.59 453.249 L 1028.48 455.955 L 1030.73 459.022 C 1028.93 461.741 1026.86 465.08 1024.9 467.616 L 1018.79 461.538 L 1014.66 457.142 L 1009.01 451.063 L 1010.46 450.709 C 1012.74 448.758 1014.25 444.387 1015.57 441.443 z" stroke-linecap="round" />
</g>
<g transform="matrix(0.75 0 0 0.75 1131.92 22.67)"  >
<path style="stroke: none; stroke-width: 1; stroke-dasharray: none; stroke-linecap: butt; stroke-dashoffset: 0; stroke-linejoin: miter; stroke-miterlimit: 4; fill: rgb(29,86,179); fill-rule: nonzero; opacity: 1;"  transform=" translate(-1338.56, -124.2)" d="M 1327.54 107.568 L 1328.54 107.813 C 1335.34 113.783 1344.43 119.943 1351.94 125.293 C 1353.72 126.797 1356.6 128.759 1357.29 130.818 C 1350.75 130.098 1332.69 110.267 1325.17 110.392 L 1323.63 111.883 L 1323.66 113.944 C 1329.24 114.888 1354.4 136.182 1355.85 140.833 C 1347.32 135.849 1330.31 120.779 1319.89 113.828 L 1319.83 113.295 C 1322.84 111.611 1325.87 110.416 1327.54 107.568 z" stroke-linecap="round" />
</g>
<g transform="matrix(0.75 0 0 0.75 1116.5 4.9)"  >
<path style="stroke: none; stroke-width: 1; stroke-dasharray: none; stroke-linecap: butt; stroke-dashoffset: 0; stroke-linejoin: miter; stroke-miterlimit: 4; fill: rgb(24,51,129); fill-rule: nonzero; opacity: 1;"  transform=" translate(-1318, -100.51)" d="M 1308.75 95.2598 C 1313.76 92.6162 1318.85 90.1037 1323.99 87.7251 C 1320.98 94 1315.24 91.5657 1313.96 95.7452 C 1315.88 97.7738 1316.57 98.1894 1318.89 99.7924 C 1320.1 103.02 1324.27 105.182 1327.54 107.568 C 1325.87 110.416 1322.84 111.611 1319.83 113.295 L 1308.46 105.511 C 1310.01 103.981 1312.08 104.205 1314.84 100.827 C 1313.74 97.9759 1311.68 97.3278 1308.75 95.2598 z" stroke-linecap="round" />
</g>
<g transform="matrix(0.75 0 0 0.75 879.57 306.19)"  >
<path style="stroke: none; stroke-width: 1; stroke-dasharray: none; stroke-linecap: butt; stroke-dashoffset: 0; stroke-linejoin: miter; stroke-miterlimit: 4; fill: rgb(24,51,129); fill-rule: nonzero; opacity: 1;"  transform=" translate(-1002.09, -502.13)" d="M 999.409 495.179 C 1004.08 499.884 1007.4 503.977 1011.56 509.076 C 1007.46 506.506 997.822 507.596 992.626 507.786 C 994.236 504.116 997.389 499.392 999.409 495.179 z" stroke-linecap="round" />
</g>
<g transform="matrix(0.75 0 0 0.75 835.3 228.27)"  >
<linearGradient id="SVGID_Gradient7_11" gradientUnits="userSpaceOnUse" gradientTransform="matrix(1 0 0 1 0 0)"  x1="945.543" y1="448.593" x2="909.163" y2="348.004">
<stop offset="0%" style="stop-color:rgb(23,68,159);stop-opacity: 1"/>
<stop offset="100%" style="stop-color:rgb(45,105,187);stop-opacity: 1"/>
</linearGradient>
<path style="stroke: none; stroke-width: 1; stroke-dasharray: none; stroke-linecap: butt; stroke-dashoffset: 0; stroke-linejoin: miter; stroke-miterlimit: 4; fill: url(#SVGID_Gradient7_11); fill-rule: nonzero; opacity: 1;"  transform=" translate(-943.07, -398.27)" d="M 1056.23 303.52 C 1063.36 301.659 1072.21 301.166 1079.72 299.514 C 1077.03 303.716 1073.33 309.921 1070.16 313.534 C 1063.93 325.625 1053.86 339.946 1046.36 351.696 C 1023.72 387.138 1007.21 428.004 984.83 463.322 C 959.92 455.571 942.09 457.454 916.662 461.38 C 885.01 469.914 848.066 488.494 817.579 496.257 C 812.34 497.305 809.158 498.037 806.462 493.083 C 805.889 485.828 812.017 477.688 816.342 471.99 C 822.352 461.27 837.962 439.734 845.402 429.161 C 868.813 395.821 893.292 363.244 918.801 331.482 C 929.808 328.186 942.877 325.796 954.216 323.083 C 987.939 315.015 1022.06 309.466 1056.23 303.52 z" stroke-linecap="round" />
</g>
<g transform="matrix(0.75 0 0 0.75 876.64 215.63)"  >
<path style="stroke: none; stroke-width: 1; stroke-dasharray: none; stroke-linecap: butt; stroke-dashoffset: 0; stroke-linejoin: miter; stroke-miterlimit: 4; fill: rgb(22,67,158); fill-rule: nonzero; opacity: 1;"  transform=" translate(-998.19, -381.42)" d="M 1056.23 303.52 C 1063.36 301.659 1072.21 301.166 1079.72 299.514 C 1077.03 303.716 1073.33 309.921 1070.16 313.534 C 1063.93 325.625 1053.86 339.946 1046.36 351.696 C 1023.72 387.138 1007.21 428.004 984.83 463.322 C 959.92 455.571 942.09 457.454 916.662 461.38 C 921.152 456.274 951.332 439.881 957.966 436.91 C 986.406 424.173 1003.94 408.003 1015.27 378.813 C 1018.74 369.886 1020.01 359.718 1024.44 351.085 C 1030.27 339.238 1039.45 329.717 1044.92 318.126 L 1045.76 318.08 C 1048.75 313.943 1053.03 309.429 1056.5 305.57 L 1056.23 303.52 z" stroke-linecap="round" />
</g>
<g transform="matrix(0.75 0 0 0.75 925.06 161.15)"  >
<path style="stroke: none; stroke-width: 1; stroke-dasharray: none; stroke-linecap: butt; stroke-dashoffset: 0; stroke-linejoin: miter; stroke-miterlimit: 4; fill: rgb(42,102,192); fill-rule: nonzero; opacity: 1;"  transform=" translate(-1062.74, -308.8)" d="M 1056.23 303.52 C 1063.36 301.659 1072.21 301.166 1079.72 299.514 C 1077.03 303.716 1073.33 309.921 1070.16 313.534 C 1062 314.933 1053.87 316.449 1045.76 318.08 C 1048.75 313.943 1053.03 309.429 1056.5 305.57 L 1056.23 303.52 z" stroke-linecap="round" />
</g>
<g transform="matrix(0.75 0 0 0.75 830.32 220.39)"  >
<linearGradient id="SVGID_Gradient6_12" gradientUnits="userSpaceOnUse" gradientTransform="matrix(1 0 0 1 0 0)"  x1="948.07" y1="413.862" x2="913.733" y2="335.628">
<stop offset="0%" style="stop-color:rgb(39,100,191);stop-opacity: 1"/>
<stop offset="100%" style="stop-color:rgb(64,145,220);stop-opacity: 1"/>
</linearGradient>
<path style="stroke: none; stroke-width: 1; stroke-dasharray: none; stroke-linecap: butt; stroke-dashoffset: 0; stroke-linejoin: miter; stroke-miterlimit: 4; fill: url(#SVGID_Gradient6_12); fill-rule: nonzero; opacity: 1;"  transform=" translate(-936.42, -387.75)" d="M 918.801 331.482 C 929.808 328.186 942.877 325.796 954.216 323.083 C 987.939 315.015 1022.06 309.466 1056.23 303.52 L 1056.5 305.57 C 1053.03 309.429 1048.75 313.943 1045.76 318.08 L 1044.92 318.126 C 1024.57 322.776 931.279 337.483 920.538 343.768 C 909.607 350.165 853.542 437.201 844.244 452.027 C 842.012 455.586 838.414 460.448 837.475 464.508 C 829.475 469.104 825.465 470.558 816.342 471.99 C 822.352 461.27 837.962 439.734 845.402 429.161 C 868.813 395.821 893.292 363.244 918.801 331.482 z" stroke-linecap="round" />
</g>
<g transform="matrix(0.75 0 0 0.75 744.46 290.16)"  >
<path style="stroke: none; stroke-width: 1; stroke-dasharray: none; stroke-linecap: butt; stroke-dashoffset: 0; stroke-linejoin: miter; stroke-miterlimit: 4; fill: rgb(22,67,158); fill-rule: nonzero; opacity: 1;"  transform=" translate(-821.95, -480.76)" d="M 837.475 464.508 C 833.591 476.086 820.975 482.556 817.579 496.257 C 812.34 497.305 809.158 498.037 806.462 493.083 C 805.889 485.828 812.017 477.688 816.342 471.99 C 825.465 470.558 829.475 469.104 837.475 464.508 z" stroke-linecap="round" />
</g>
<g transform="matrix(0.75 0 0 0.75 1066.51 408.39)"  >
<path style="stroke: none; stroke-width: 1; stroke-dasharray: none; stroke-linecap: butt; stroke-dashoffset: 0; stroke-linejoin: miter; stroke-miterlimit: 4; fill: rgb(22,67,158); fill-rule: nonzero; opacity: 1;"  transform=" translate(-1251.35, -638.37)" d="M 1324.24 506.593 L 1333.89 498.059 C 1334.43 508.233 1335.22 526.343 1334.2 536.257 C 1334.13 559.063 1336.29 620.331 1329.85 638.34 C 1327.45 645.031 1321.86 650.857 1316.91 655.767 C 1297.41 674.83 1277.18 693.123 1256.25 710.605 C 1237.06 728.332 1216.74 745.071 1197.36 762.701 C 1193.88 765.864 1174.64 783.445 1169.48 777.441 C 1165.25 772.514 1171.39 759.477 1172.48 753.196 C 1185.41 705.074 1201.29 657.815 1183.73 609.596 C 1200.99 597.034 1221.07 585.868 1238.84 573.299 C 1268.3 552.457 1296.64 529.822 1324.24 506.593 z" stroke-linecap="round" />
</g>
<g transform="matrix(0.75 0 0 0.75 1068.19 398.84)"  >
<path style="stroke: none; stroke-width: 1; stroke-dasharray: none; stroke-linecap: butt; stroke-dashoffset: 0; stroke-linejoin: miter; stroke-miterlimit: 4; fill: rgb(24,51,129); fill-rule: nonzero; opacity: 1;"  transform=" translate(-1253.59, -625.63)" d="M 1324.24 506.593 L 1333.89 498.059 C 1334.43 508.233 1335.22 526.343 1334.2 536.257 L 1333.71 529.65 L 1332.14 528.39 C 1328.52 528.86 1324.42 533.168 1323.14 536.458 C 1311.68 544.48 1298.91 554.03 1287.78 562.86 C 1275.86 572.309 1250.34 587.507 1247.2 602.76 C 1236.43 655.025 1214.25 718.578 1172.48 753.196 C 1185.41 705.074 1201.29 657.815 1183.73 609.596 C 1200.99 597.034 1221.07 585.868 1238.84 573.299 C 1268.3 552.457 1296.64 529.822 1324.24 506.593 z" stroke-linecap="round" />
</g>
<g transform="matrix(0.75 0 0 0.75 1124.69 317.54)"  >
<path style="stroke: none; stroke-width: 1; stroke-dasharray: none; stroke-linecap: butt; stroke-dashoffset: 0; stroke-linejoin: miter; stroke-miterlimit: 4; fill: rgb(29,86,179); fill-rule: nonzero; opacity: 1;"  transform=" translate(-1328.92, -517.26)" d="M 1324.24 506.593 L 1333.89 498.059 C 1334.43 508.233 1335.22 526.343 1334.2 536.257 L 1333.71 529.65 L 1332.14 528.39 C 1328.52 528.86 1324.42 533.168 1323.14 536.458 C 1323.19 526.043 1323.12 516.939 1324.24 506.593 z" stroke-linecap="round" />
</g>
<g transform="matrix(0.75 0 0 0.75 1099.53 394.24)"  >
<path style="stroke: none; stroke-width: 1; stroke-dasharray: none; stroke-linecap: butt; stroke-dashoffset: 0; stroke-linejoin: miter; stroke-miterlimit: 4; fill: rgb(42,102,192); fill-rule: nonzero; opacity: 1;"  transform=" translate(-1295.37, -619.5)" d="M 1323.14 536.458 C 1324.42 533.168 1328.52 528.86 1332.14 528.39 L 1333.71 529.65 L 1334.2 536.257 C 1334.13 559.063 1336.29 620.331 1329.85 638.34 C 1327.45 645.031 1321.86 650.857 1316.91 655.767 C 1297.41 674.83 1277.18 693.123 1256.25 710.605 C 1256.88 701.218 1316.8 648.376 1320.27 628.144 C 1325.08 600.134 1323.18 564.572 1323.14 536.458 z" stroke-linecap="round" />
</g>
<g transform="matrix(0.75 0 0 0.75 948.95 303.07)"  >
<linearGradient id="SVGID_Gradient5_13" gradientUnits="userSpaceOnUse" gradientTransform="matrix(1 0 0 1 0 0)"  x1="1113.93" y1="524.533" x2="1071.48" y2="465.479">
<stop offset="0%" style="stop-color:rgb(23,53,144);stop-opacity: 1"/>
<stop offset="100%" style="stop-color:rgb(54,155,235);stop-opacity: 1"/>
</linearGradient>
<path style="stroke: none; stroke-width: 1; stroke-dasharray: none; stroke-linecap: butt; stroke-dashoffset: 0; stroke-linejoin: miter; stroke-miterlimit: 4; fill: url(#SVGID_Gradient5_13); fill-rule: nonzero; opacity: 1;"  transform=" translate(-1094.6, -497.97)" d="M 1013.11 601.53 C 1007.53 605.995 1000.92 610.192 994.644 604.842 C 988.37 593.533 1005.83 571.406 1012.53 561.976 C 1037.31 527.106 1151.94 378.154 1195.86 389.156 C 1196.02 394.618 1195.67 397.375 1194.97 402.841 C 1189.17 433.918 1158.66 462.945 1138.35 485.281 C 1100.9 526.47 1060.29 565.549 1016.27 599.679 C 1015.32 600.412 1014.16 600.997 1013.11 601.53 z" stroke-linecap="round" />
</g>
<g transform="matrix(0.75 0 0 0.75 954.1 306.53)"  >
<linearGradient id="SVGID_Gradient4_14" gradientUnits="userSpaceOnUse" gradientTransform="matrix(1 0 0 1 0 0)"  x1="1119.55" y1="537.881" x2="1079.39" y2="468.006">
<stop offset="0%" style="stop-color:rgb(16,46,129);stop-opacity: 1"/>
<stop offset="100%" style="stop-color:rgb(23,80,179);stop-opacity: 1"/>
</linearGradient>
<path style="stroke: none; stroke-width: 1; stroke-dasharray: none; stroke-linecap: butt; stroke-dashoffset: 0; stroke-linejoin: miter; stroke-miterlimit: 4; fill: url(#SVGID_Gradient4_14); fill-rule: nonzero; opacity: 1;"  transform=" translate(-1101.47, -502.58)" d="M 1105.31 481.49 C 1132.06 470.3 1156.52 452.766 1174.31 429.38 C 1179.21 422.948 1183.05 413.127 1187.54 406.351 C 1188.18 405.391 1193.56 403.387 1194.97 402.841 C 1189.17 433.918 1158.66 462.945 1138.35 485.281 C 1100.9 526.47 1060.29 565.549 1016.27 599.679 C 1015.32 600.412 1014.16 600.997 1013.11 601.53 C 1009.77 599.654 1012.69 601.591 1008.07 602.329 C 1005.15 587.773 1068.3 509.015 1081.96 494.618 L 1088.27 486.604 C 1092.54 485.951 1100.88 482.941 1105.31 481.49 z" stroke-linecap="round" />
</g>
<g transform="matrix(0.75 0 0 0.75 948.23 295.63)"  >
<path style="stroke: none; stroke-width: 1; stroke-dasharray: none; stroke-linecap: butt; stroke-dashoffset: 0; stroke-linejoin: miter; stroke-miterlimit: 4; fill: rgb(29,86,179); fill-rule: nonzero; opacity: 1;"  transform=" translate(-1093.63, -488.05)" d="M 1088.27 486.604 C 1092.54 485.951 1100.88 482.941 1105.31 481.49 C 1099.14 486.411 1089.87 494.163 1081.96 494.618 L 1088.27 486.604 z" stroke-linecap="round" />
</g>
<g transform="matrix(0.75 0 0 0.75 984.56 257.99)"  >
<path style="stroke: none; stroke-width: 1; stroke-dasharray: none; stroke-linecap: butt; stroke-dashoffset: 0; stroke-linejoin: miter; stroke-miterlimit: 4; fill: rgb(42,102,192); fill-rule: nonzero; opacity: 1;"  transform=" translate(-1142.08, -437.88)" d="M 1195.86 389.156 C 1196.02 394.618 1195.67 397.375 1194.97 402.841 C 1193.56 403.387 1188.18 405.391 1187.54 406.351 C 1183.05 413.127 1179.21 422.948 1174.31 429.38 C 1156.52 452.766 1132.06 470.3 1105.31 481.49 C 1100.88 482.941 1092.54 485.951 1088.27 486.604 C 1110.06 459.447 1137.03 428.579 1166.24 409.663 C 1175.03 403.974 1183.04 402.144 1191.92 396.932 C 1195.51 394.827 1195.02 393.294 1195.86 389.156 z" stroke-linecap="round" />
</g>
<g transform="matrix(0.75 0 0 0.75 972.16 364.63)"  >
<path style="stroke: none; stroke-width: 1; stroke-dasharray: none; stroke-linecap: butt; stroke-dashoffset: 0; stroke-linejoin: miter; stroke-miterlimit: 4; fill: rgb(22,67,158); fill-rule: nonzero; opacity: 1;"  transform=" translate(-1125.55, -580.03)" d="M 1101.5 536.387 C 1118.85 552.647 1153.55 576.609 1173.33 591.613 L 1181.79 598.034 C 1168.77 606.42 1152.36 617.658 1138.49 623.665 L 1131 617.617 C 1128.96 615.65 1125.69 613.207 1123.35 611.406 C 1104.76 597.031 1087.86 580.527 1069.3 566.145 C 1079.35 556.371 1091.11 545.974 1101.5 536.387 z" stroke-linecap="round" />
</g>
<g transform="matrix(0.75 0 0 0.75 995.3 385.34)"  >
<path style="stroke: none; stroke-width: 1; stroke-dasharray: none; stroke-linecap: butt; stroke-dashoffset: 0; stroke-linejoin: miter; stroke-miterlimit: 4; fill: rgb(29,86,179); fill-rule: nonzero; opacity: 1;"  transform=" translate(-1156.39, -607.64)" d="M 1173.33 591.613 L 1181.79 598.034 C 1168.77 606.42 1152.36 617.658 1138.49 623.665 L 1131 617.617 C 1141.81 609.104 1160.34 601.23 1173.33 591.613 z" stroke-linecap="round" />
</g>
<g transform="matrix(0.75 0 0 0.75 1285.84 688.28)"  >
<linearGradient id="SVGID_Gradient3_15" gradientUnits="userSpaceOnUse" gradientTransform="matrix(1 0 0 1 0 0)"  x1="1585.91" y1="1142.37" x2="1559.15" y2="832.13">
<stop offset="0%" style="stop-color:rgb(24,63,157);stop-opacity: 1"/>
<stop offset="100%" style="stop-color:rgb(54,136,218);stop-opacity: 1"/>
</linearGradient>
<path style="stroke: none; stroke-width: 1; stroke-dasharray: none; stroke-linecap: butt; stroke-dashoffset: 0; stroke-linejoin: miter; stroke-miterlimit: 4; fill: url(#SVGID_Gradient3_15); fill-rule: nonzero; opacity: 1;"  transform=" translate(-1543.79, -1011.46)" d="M 1809.17 915.708 C 1827.17 874.39 1863.5 835.399 1904.09 815.849 C 1937.15 799.928 1978.5 789.871 2015.22 796.295 C 2026.79 798.319 2036.95 801.872 2048 805.658 L 2048 1035.14 L 2048 1160.25 C 1987.75 1132.07 1915.57 1137.31 1854.08 1158.98 C 1829.54 1167.63 1786.78 1191.05 1767.93 1209.49 L 1759.75 1216.73 C 1702.31 1195.01 1623.15 1200.52 1563.49 1211.8 C 1541.02 1216.05 1518.38 1223.81 1497.09 1228.6 C 1493.39 1224.48 1489.64 1220.39 1485.84 1216.36 C 1471.25 1201.65 1456.86 1191.2 1436.17 1186.5 C 1418.56 1181.8 1398.16 1184.14 1381.15 1190.28 C 1380 1181.09 1373.79 1169.68 1369.4 1161.52 C 1360.86 1148.62 1351.29 1140.97 1339.55 1131.25 C 1296.66 1099.13 1257.89 1096.96 1208.81 1080.8 C 1160.92 1065.04 1116.22 1041.01 1086.78 999.312 C 1080.46 990.356 1075.31 985.245 1069.73 974.957 C 1052.96 944.058 1043.79 917.288 1040.67 882.139 C 1040.17 876.496 1038.74 867.997 1040.27 862.54 C 1041.84 856.92 1040.22 850.915 1041.38 844.672 L 1042.16 848.917 L 1041.98 848.31 L 1042.13 852.289 C 1041.24 907.206 1051.74 948.058 1084.4 993.421 C 1104.15 971.644 1122.98 952.676 1151.08 942.095 C 1203.65 922.305 1275.85 940.368 1297.39 996.234 C 1320.26 986.827 1341 993.078 1355.64 1012.84 C 1381.22 953.348 1448.2 922.797 1510.44 932.561 C 1532.58 936.034 1546.34 944.478 1563.86 957.14 C 1583.23 911.353 1636.24 875.987 1685.42 872.206 C 1733.09 868.539 1773.16 885.45 1809.17 915.708 z" stroke-linecap="round" />
</g>
<g transform="matrix(0.75 0 0 0.75 1409.53 770.31)"  >
<path style="stroke: none; stroke-width: 1; stroke-dasharray: none; stroke-linecap: butt; stroke-dashoffset: 0; stroke-linejoin: miter; stroke-miterlimit: 4; fill: rgb(24,51,129); fill-rule: nonzero; opacity: 1;"  transform=" translate(-1708.7, -1120.81)" d="M 1815.57 1122.13 C 1858.98 1035.69 1957.72 979.74 2048 1035.14 L 2048 1160.25 C 1987.75 1132.07 1915.57 1137.31 1854.08 1158.98 C 1829.54 1167.63 1786.78 1191.05 1767.93 1209.49 L 1759.75 1216.73 C 1702.31 1195.01 1623.15 1200.52 1563.49 1211.8 C 1541.02 1216.05 1518.38 1223.81 1497.09 1228.6 C 1493.39 1224.48 1489.64 1220.39 1485.84 1216.36 C 1471.25 1201.65 1456.86 1191.2 1436.17 1186.5 C 1418.56 1181.8 1398.16 1184.14 1381.15 1190.28 C 1380 1181.09 1373.79 1169.68 1369.4 1161.52 C 1374.26 1156.47 1379.18 1151.48 1384.17 1146.56 C 1385.76 1145.08 1387.38 1143.63 1389.03 1142.21 C 1418.41 1116.92 1455.6 1102.92 1494.52 1106.13 C 1528.34 1108.92 1548.03 1124.32 1568.78 1149.02 C 1598.62 1051.41 1761.04 1030.37 1815.57 1122.13 z" stroke-linecap="round" />
</g>
<g transform="matrix(0.75 0 0 0.75 1348.16 828.78)"  >
<path style="stroke: none; stroke-width: 1; stroke-dasharray: none; stroke-linecap: butt; stroke-dashoffset: 0; stroke-linejoin: miter; stroke-miterlimit: 4; fill: rgb(22,67,158); fill-rule: nonzero; opacity: 1;"  transform=" translate(-1626.88, -1198.75)" d="M 1485.84 1216.36 C 1561.89 1154.44 1688.55 1154.12 1767.93 1209.49 L 1759.75 1216.73 C 1702.31 1195.01 1623.15 1200.52 1563.49 1211.8 C 1541.02 1216.05 1518.38 1223.81 1497.09 1228.6 C 1493.39 1224.48 1489.64 1220.39 1485.84 1216.36 z" stroke-linecap="round" />
</g>
<g transform="matrix(0.75 0 0 0.75 1149.4 775.67)"  >
<path style="stroke: none; stroke-width: 1; stroke-dasharray: none; stroke-linecap: butt; stroke-dashoffset: 0; stroke-linejoin: miter; stroke-miterlimit: 4; fill: rgb(22,67,158); fill-rule: nonzero; opacity: 1;"  transform=" translate(-1361.86, -1127.95)" d="M 1359.72 1120.61 C 1356.54 1117.21 1353.48 1113.85 1350.45 1110.31 C 1346.39 1105.56 1350.11 1097.17 1354.74 1094.38 C 1357.12 1098.13 1354.55 1103.69 1354.72 1106.14 C 1354.83 1107.87 1363.91 1117.88 1365.49 1119.67 C 1365.52 1123.07 1365.01 1134.01 1366.45 1135.97 L 1368.29 1131.73 L 1369.66 1131.61 C 1373.93 1136.88 1373.22 1147.5 1377.14 1150.06 C 1380.07 1148.3 1380.81 1147.57 1383.37 1145.23 L 1384.17 1146.56 C 1379.18 1151.48 1374.26 1156.47 1369.4 1161.52 C 1360.86 1148.62 1351.29 1140.97 1339.55 1131.25 L 1340.17 1130.41 C 1347.96 1119.74 1339.78 1110.33 1359.83 1122.2 L 1359.88 1122.3 L 1360.59 1120.89 C 1359.85 1119.52 1360.29 1120.02 1359.46 1119.26 L 1359.72 1120.61 z" stroke-linecap="round" />
</g>
<g transform="matrix(0.75 0 0 0.75 1088.91 718.36)"  >
<path style="stroke: none; stroke-width: 1; stroke-dasharray: none; stroke-linecap: butt; stroke-dashoffset: 0; stroke-linejoin: miter; stroke-miterlimit: 4; fill: rgb(22,67,158); fill-rule: nonzero; opacity: 1;"  transform=" translate(-1281.21, -1051.56)" d="M 1299.68 1044.48 C 1303.64 1044.36 1318.46 1045.86 1321.86 1047.74 C 1317.3 1048.72 1314.16 1046.25 1309.69 1045.99 C 1302.01 1045.88 1285.77 1045.3 1278.66 1048.04 C 1271.05 1050.97 1270.44 1062.48 1256.38 1056.66 C 1250.99 1053.92 1250.73 1059.67 1244.62 1058.48 C 1242.23 1054.28 1241.91 1053.3 1240.57 1048.67 C 1242.62 1051.28 1243.95 1055.28 1245.23 1058.45 C 1267.65 1047.5 1275.33 1046.21 1299.68 1044.48 z" stroke-linecap="round" />
</g>
<g transform="matrix(0.75 0 0 0.75 1411.08 288.72)"  >
<linearGradient id="SVGID_Gradient2_16" gradientUnits="userSpaceOnUse" gradientTransform="matrix(1 0 0 1 0 0)"  x1="1733.32" y1="559.694" x2="1586.42" y2="363.596">
<stop offset="0%" style="stop-color:rgb(27,41,124);stop-opacity: 1"/>
<stop offset="100%" style="stop-color:rgb(106,115,217);stop-opacity: 1"/>
</linearGradient>
<path style="stroke: none; stroke-width: 1; stroke-dasharray: none; stroke-linecap: butt; stroke-dashoffset: 0; stroke-linejoin: miter; stroke-miterlimit: 4; fill: url(#SVGID_Gradient2_16); fill-rule: nonzero; opacity: 1;"  transform=" translate(-1710.77, -478.84)" d="M 1671.7 285.346 C 1699.3 277.579 1734.62 281.252 1761.62 289.715 C 1765.47 290.921 1774.26 293.583 1777.29 295.623 C 1795.97 302.183 1810.34 309.491 1826.36 321.466 C 1866.89 305.015 1978.07 266.828 2006.74 319.819 C 2020.28 344.844 1975.29 417.461 1955.69 433.311 C 1940.93 450.303 1921.3 468.133 1904.02 482.589 C 1902.53 496.533 1901.16 511.346 1897.75 524.864 C 1888.18 562.743 1865.25 600.037 1834.69 624.486 C 1793.52 657.426 1744.55 673.025 1692.01 666.933 C 1667.55 664.096 1648.44 658.419 1626.06 648.616 C 1604.5 660.669 1533.79 675.068 1507.36 675.158 C 1475.88 680.871 1404.43 670.708 1413.02 625.034 C 1422.85 572.711 1479.73 519.497 1519.96 487.104 C 1520.15 484.399 1520.1 480.632 1520.02 477.855 C 1519.19 449.58 1522.89 425.167 1533.64 398.865 C 1552.37 345.729 1615.31 292.005 1671.7 285.346 z" stroke-linecap="round" />
</g>
<g transform="matrix(0.75 0 0 0.75 1411.08 293.08)"  >
<linearGradient id="SVGID_Gradient1_17" gradientUnits="userSpaceOnUse" gradientTransform="matrix(1 0 0 1 0 0)"  x1="1761.61" y1="580.723" x2="1670.22" y2="404.256">
<stop offset="0%" style="stop-color:rgb(59,77,176);stop-opacity: 1"/>
<stop offset="100%" style="stop-color:rgb(84,100,201);stop-opacity: 1"/>
</linearGradient>
<path style="stroke: none; stroke-width: 1; stroke-dasharray: none; stroke-linecap: butt; stroke-dashoffset: 0; stroke-linejoin: miter; stroke-miterlimit: 4; fill: url(#SVGID_Gradient1_17); fill-rule: nonzero; opacity: 1;"  transform=" translate(-1710.77, -484.66)" d="M 1826.36 321.466 C 1866.89 305.015 1978.07 266.828 2006.74 319.819 C 2020.28 344.844 1975.29 417.461 1955.69 433.311 C 1940.93 450.303 1921.3 468.133 1904.02 482.589 C 1902.53 496.533 1901.16 511.346 1897.75 524.864 C 1888.18 562.743 1865.25 600.037 1834.69 624.486 C 1793.52 657.426 1744.55 673.025 1692.01 666.933 C 1667.55 664.096 1648.44 658.419 1626.06 648.616 C 1604.5 660.669 1533.79 675.068 1507.36 675.158 C 1475.88 680.871 1404.43 670.708 1413.02 625.034 C 1422.85 572.711 1479.73 519.497 1519.96 487.104 C 1521.4 492.426 1528.32 526.506 1524.62 529.728 C 1511.44 541.188 1471.08 585.096 1482.87 603.242 L 1484.26 603.159 C 1489.8 618.72 1504.17 619.545 1518.74 621.089 C 1542.86 621.193 1555.04 619.15 1578.76 614.305 C 1599.23 611.539 1658.48 590.093 1677.53 581.615 C 1747.27 550.578 1817.74 504.945 1873.67 452.822 C 1878.51 448.315 1893.53 433.667 1895.7 428.054 C 1898.71 427.027 1907.81 416.424 1910 413.453 C 1922.18 396.98 1933.5 380.518 1935.87 359.663 C 1933.35 350.606 1930.35 348.968 1922.31 345.477 C 1923.25 344.556 1922.96 344.722 1923.45 343.314 C 1911.27 332.11 1869.13 343.928 1854.07 347.817 C 1843.5 335.919 1838.98 330.815 1826.36 321.466 z" stroke-linecap="round" />
</g>
<g transform="matrix(0.75 0 0 0.75 1424.57 345.28)"  >
<path style="stroke: none; stroke-width: 1; stroke-dasharray: none; stroke-linecap: butt; stroke-dashoffset: 0; stroke-linejoin: miter; stroke-miterlimit: 4; fill: rgb(24,51,129); fill-rule: nonzero; opacity: 1;"  transform=" translate(-1728.76, -554.23)" d="M 1894.7 488.178 C 1896.15 486.236 1914.39 471.255 1916.83 469.419 C 1923.62 464.304 1950.81 434.409 1955.69 433.311 C 1940.93 450.303 1921.3 468.133 1904.02 482.589 C 1902.53 496.533 1901.16 511.346 1897.75 524.864 C 1888.18 562.743 1865.25 600.037 1834.69 624.486 C 1793.52 657.426 1744.55 673.025 1692.01 666.933 C 1667.55 664.096 1648.44 658.419 1626.06 648.616 C 1604.5 660.669 1533.79 675.068 1507.36 675.158 C 1505.27 674.991 1503.91 674.927 1501.83 674.44 C 1507.83 672.478 1530.23 671.648 1539.7 669.328 C 1569.65 661.987 1602.93 653.617 1632.11 643.762 C 1730.88 606.507 1812.75 554.792 1894.7 488.178 z" stroke-linecap="round" />
</g>
<g transform="matrix(0.75 0 0 0.75 1424.57 345.28)"  >
<path style="stroke: none; stroke-width: 1; stroke-dasharray: none; stroke-linecap: butt; stroke-dashoffset: 0; stroke-linejoin: miter; stroke-miterlimit: 4; fill: rgb(22,47,123); fill-rule: nonzero; opacity: 1;"  transform=" translate(-1728.76, -554.23)" d="M 1894.7 488.178 C 1896.15 486.236 1914.39 471.255 1916.83 469.419 C 1923.62 464.304 1950.81 434.409 1955.69 433.311 C 1940.93 450.303 1921.3 468.133 1904.02 482.589 C 1902.53 496.533 1901.16 511.346 1897.75 524.864 C 1888.18 562.743 1865.25 600.037 1834.69 624.486 C 1793.52 657.426 1744.55 673.025 1692.01 666.933 C 1667.55 664.096 1648.44 658.419 1626.06 648.616 C 1604.5 660.669 1533.79 675.068 1507.36 675.158 C 1505.27 674.991 1503.91 674.927 1501.83 674.44 C 1507.83 672.478 1530.23 671.648 1539.7 669.328 C 1569.65 661.987 1602.93 653.617 1632.11 643.762 C 1634.71 646.224 1635.93 646.172 1639.51 646.943 C 1646.32 646.487 1668 648.961 1677.48 649.004 C 1718.9 648.957 1759.47 637.216 1794.52 615.132 C 1836.3 588.633 1883.73 537.313 1894.7 488.178 z" stroke-linecap="round" />
</g>
<g transform="matrix(0.75 0 0 0.75 1425.06 299.18)"  >
<path style="stroke: none; stroke-width: 1; stroke-dasharray: none; stroke-linecap: butt; stroke-dashoffset: 0; stroke-linejoin: miter; stroke-miterlimit: 4; fill: rgb(60,118,210); fill-rule: nonzero; opacity: 1;"  transform=" translate(-1729.42, -492.79)" d="M 1935.87 359.663 C 1952.39 373.782 1915.86 421.406 1904.63 433.127 C 1827.44 513.683 1725.71 578.154 1619.05 611.25 C 1597.51 617.934 1545.75 631.917 1524.66 623.079 L 1527.86 623.007 C 1524.81 622.432 1521.77 621.793 1518.74 621.089 C 1542.86 621.193 1555.04 619.15 1578.76 614.305 C 1599.23 611.539 1658.48 590.093 1677.53 581.615 C 1747.27 550.578 1817.74 504.945 1873.67 452.822 C 1878.51 448.315 1893.53 433.667 1895.7 428.054 C 1898.71 427.027 1907.81 416.424 1910 413.453 C 1922.18 396.98 1933.5 380.518 1935.87 359.663 z" stroke-linecap="round" />
</g>
<g transform="matrix(0.75 0 0 0.75 1355.83 212.85)"  >
<path style="stroke: none; stroke-width: 1; stroke-dasharray: none; stroke-linecap: butt; stroke-dashoffset: 0; stroke-linejoin: miter; stroke-miterlimit: 4; fill: rgb(110,114,203); fill-rule: nonzero; opacity: 1;"  transform=" translate(-1637.11, -377.71)" d="M 1671.7 285.346 C 1680.52 289.012 1693.37 277.324 1700.75 289.148 C 1699.78 290.406 1700.04 290.324 1698.78 291.188 C 1707.04 291.253 1736.06 291.434 1743.22 296.683 C 1746.57 299.137 1745.84 311.799 1745.13 316.452 C 1738.11 362.071 1703.37 402 1667.13 428.201 C 1636.8 450.129 1605.11 463.616 1568.07 468.864 C 1558.29 470.25 1546.27 472.088 1536.45 471.644 C 1536.02 455.852 1535.69 445.592 1538.45 430.085 C 1539.25 425.626 1542.43 413.011 1542.73 410.339 C 1537.83 413.232 1539.94 430.301 1533.18 431.57 C 1521.53 422.572 1535.44 407.447 1533.64 398.865 C 1552.37 345.729 1615.31 292.005 1671.7 285.346 z" stroke-linecap="round" />
</g>
<g transform="matrix(0.75 0 0 0.75 1338.96 197.79)"  >
<path style="stroke: none; stroke-width: 1; stroke-dasharray: none; stroke-linecap: butt; stroke-dashoffset: 0; stroke-linejoin: miter; stroke-miterlimit: 4; fill: rgb(147,144,221); fill-rule: nonzero; opacity: 1;"  transform=" translate(-1614.62, -357.64)" d="M 1671.7 285.346 C 1680.52 289.012 1693.37 277.324 1700.75 289.148 C 1699.78 290.406 1700.04 290.324 1698.78 291.188 C 1691.3 290.882 1688.99 290.378 1682.06 293.304 C 1687.52 292.908 1691.98 292.531 1697.39 291.72 C 1668.28 325.682 1632.44 353.238 1592.14 372.651 C 1580.76 378.244 1568.42 384.974 1555.41 382.721 C 1549.79 392.951 1547.2 399.648 1542.73 410.339 C 1537.83 413.232 1539.94 430.301 1533.18 431.57 C 1521.53 422.572 1535.44 407.447 1533.64 398.865 C 1552.37 345.729 1615.31 292.005 1671.7 285.346 z" stroke-linecap="round" />
</g>
<g transform="matrix(0.75 0 0 0.75 1338.96 197.79)"  >
<path style="stroke: none; stroke-width: 1; stroke-dasharray: none; stroke-linecap: butt; stroke-dashoffset: 0; stroke-linejoin: miter; stroke-miterlimit: 4; fill: rgb(60,118,210); fill-rule: nonzero; opacity: 1;"  transform=" translate(-1614.62, -357.64)" d="M 1671.7 285.346 C 1680.52 289.012 1693.37 277.324 1700.75 289.148 C 1699.78 290.406 1700.04 290.324 1698.78 291.188 C 1691.3 290.882 1688.99 290.378 1682.06 293.304 L 1681.47 293.48 C 1671.36 296.412 1661.79 297.347 1650.85 301.035 C 1611.67 314.39 1578.66 341.511 1557.97 377.363 C 1556.98 379.08 1556.12 380.872 1555.41 382.721 C 1549.79 392.951 1547.2 399.648 1542.73 410.339 C 1537.83 413.232 1539.94 430.301 1533.18 431.57 C 1521.53 422.572 1535.44 407.447 1533.64 398.865 C 1552.37 345.729 1615.31 292.005 1671.7 285.346 z" stroke-linecap="round" />
</g>
<g transform="matrix(0.75 0 0 0.75 1276.63 361.68)"  >
<path style="stroke: none; stroke-width: 1; stroke-dasharray: none; stroke-linecap: butt; stroke-dashoffset: 0; stroke-linejoin: miter; stroke-miterlimit: 4; fill: rgb(255,255,255); fill-rule: nonzero; opacity: 1;"  transform=" translate(-1531.51, -576.1)" d="M 1484.26 603.159 C 1487.46 571.465 1509.75 553.21 1528.82 531.107 C 1539.92 564.162 1553.79 589.39 1578.76 614.305 C 1555.04 619.15 1542.86 621.193 1518.74 621.089 C 1504.17 619.545 1489.8 618.72 1484.26 603.159 z" stroke-linecap="round" />
</g>
<g transform="matrix(0.75 0 0 0.75 1550.36 219.06)"  >
<path style="stroke: none; stroke-width: 1; stroke-dasharray: none; stroke-linecap: butt; stroke-dashoffset: 0; stroke-linejoin: miter; stroke-miterlimit: 4; fill: rgb(255,255,255); fill-rule: nonzero; opacity: 1;"  transform=" translate(-1896.48, -385.99)" d="M 1857.09 351.806 C 1876.96 346.364 1901.97 341.265 1922.31 345.477 C 1930.35 348.968 1933.35 350.606 1935.87 359.663 C 1933.5 380.518 1922.18 396.98 1910 413.453 C 1907.81 416.424 1898.71 427.027 1895.7 428.054 C 1892.09 415.744 1889.51 406.469 1883.72 394.92 C 1876.07 378.212 1868.36 366.162 1857.09 351.806 z" stroke-linecap="round" />
</g>
<g transform="matrix(0.75 0 0 0.75 1515.76 188.59)"  >
<path style="stroke: none; stroke-width: 1; stroke-dasharray: none; stroke-linecap: butt; stroke-dashoffset: 0; stroke-linejoin: miter; stroke-miterlimit: 4; fill: rgb(22,47,123); fill-rule: nonzero; opacity: 1;"  transform=" translate(-1850.35, -345.36)" d="M 1777.29 295.623 C 1795.97 302.183 1810.34 309.491 1826.36 321.466 C 1838.98 330.815 1843.5 335.919 1854.07 347.817 C 1869.13 343.928 1911.27 332.11 1923.45 343.314 C 1922.96 344.722 1923.25 344.556 1922.31 345.477 C 1901.97 341.265 1876.96 346.364 1857.09 351.806 C 1868.36 366.162 1876.07 378.212 1883.72 394.92 C 1883.08 394.982 1882.43 395.044 1881.78 395.106 C 1880.48 392.295 1877.61 386.858 1876.3 384.447 C 1870.56 373.86 1864.01 363.733 1856.7 354.156 C 1838.58 330.301 1820.79 317.592 1793.94 303.789 C 1788.79 301.141 1782.82 299.771 1777.24 297.141 L 1777.29 295.623 z" stroke-linecap="round" />
</g>
<g transform="matrix(0.75 0 0 0.75 896.38 868.38)"  >
<path style="stroke: none; stroke-width: 1; stroke-dasharray: none; stroke-linecap: butt; stroke-dashoffset: 0; stroke-linejoin: miter; stroke-miterlimit: 4; fill: rgb(26,32,64); fill-rule: nonzero; opacity: 1;"  transform=" translate(-1024, -1252.95)" d="M 1767.93 1209.49 C 1786.78 1191.05 1829.54 1167.63 1854.08 1158.98 C 1915.57 1137.31 1987.75 1132.07 2048 1160.25 L 2048 1292.5 L 2048 1365 L 1189.44 1365 L 788.273 1365 L 0 1365 L 0 1217.57 L 0 1192.34 C 29.1409 1197.27 65.5262 1200.59 95.3735 1204.27 C 143.65 1210.14 191.837 1216.72 239.92 1224.01 C 319.516 1235.6 398.403 1248.63 478.286 1259.14 C 602.189 1276.31 726.96 1286.49 852.007 1289.63 C 927.619 1290.97 1003.25 1289.78 1078.79 1286.06 C 1096.25 1285.34 1113.69 1284.25 1131.1 1282.8 C 1140.55 1281.99 1157.35 1279.92 1166.27 1279.84 C 1154.62 1295.69 952.096 1314.18 920.112 1314.36 C 915.318 1314.39 901.312 1314.85 897.836 1316.55 C 901.003 1319.03 905.801 1318.73 909.466 1317.42 C 941.761 1323.1 1002.07 1323.95 1034.66 1323.34 C 1141.75 1321.28 1248.1 1305.04 1350.92 1275.05 C 1399.55 1261.06 1448.3 1243.28 1497.09 1228.6 C 1518.38 1223.81 1541.02 1216.05 1563.49 1211.8 C 1623.15 1200.52 1702.31 1195.01 1759.75 1216.73 L 1767.93 1209.49 z" stroke-linecap="round" />
</g>
</svg>