<!-- Generated by SVGMaker - https://svgmaker.io --><!-- Prompt: Use only white as color! No Background!

satellite --><!-- Quality: medium --><!-- Type: generate --><!-- Revised Prompt: in vector style, Use only white as color! No Background!

satellite --><!-- Created: 2025-11-12T18:13:07.241Z --><svg version="1.1" xmlns="http://www.w3.org/2000/svg" style="display: block;" viewBox="0 0 2048 2048" width="1024" height="1024" preserveAspectRatio="none">
<path transform="translate(0,0)" fill="rgb(254,254,254)" d="M 367.121 188.425 C 377.012 187.294 384.928 193.72 392.349 199.293 C 406.313 209.778 420.339 220.172 434.426 230.493 L 564.513 326.96 L 748.417 462.768 C 763.233 473.869 778.104 484.894 793.031 495.844 C 800.96 501.637 808.981 507.266 816.827 513.171 C 826.724 520.476 837.755 536.518 828.668 548.713 C 802.575 583.73 773.268 617.872 745.723 651.815 C 734.606 665.514 723.13 679.713 711.415 692.407 C 720.96 697.879 742.883 715.395 752.73 722.912 C 775.009 739.919 799.791 757.28 821.299 774.903 C 848.918 738.902 877.075 703.317 905.76 668.159 C 917.264 653.832 954.683 602.101 970.725 598.309 C 999.063 591.61 1043.4 611.318 1068.9 624.441 C 1082.16 619.762 1097.62 613.186 1110.77 609.186 C 1106.4 600.19 1101.03 584.756 1098.15 575.464 C 1083.53 528.267 1077.54 480.28 1078.57 430.969 C 1078.97 417.426 1077.19 392.538 1085.35 380.666 C 1107.84 347.988 1159.72 352.663 1191.64 361.542 C 1241.58 375.436 1282.38 398.953 1324.65 427.666 C 1340.14 438.186 1354.4 449.064 1369.78 458.928 C 1380.96 444.014 1396.02 418.629 1414.33 415.671 C 1423.67 414.192 1433.2 416.68 1440.63 422.536 C 1447.83 428.159 1453.08 437.423 1453.85 446.561 C 1455.74 469.086 1432.97 481.256 1420.6 496.186 C 1433.35 509.011 1448.27 521.103 1462.36 536.04 C 1503.49 579.626 1599.23 694.999 1543.2 754.144 C 1518.58 780.133 1428.26 788.497 1392.5 784.922 C 1378.03 783.475 1355.86 779.594 1339.48 778.853 L 1337.86 778.788 C 1327.68 786.921 1317.73 795.354 1308.04 804.074 C 1327.36 831.175 1348.31 866.987 1354.5 899.761 C 1358.23 919.469 1319.11 960.461 1306.3 976.415 L 1223.31 1080.43 C 1232.38 1086.81 1241.29 1095.46 1250.24 1102.02 C 1276.63 1121.37 1303.06 1143.96 1329.12 1163.26 C 1334.31 1155.5 1341.7 1147.25 1347.53 1139.62 C 1363.76 1118.59 1380.91 1098.48 1397.68 1077.88 C 1415.64 1055.82 1432.23 1031.41 1451.11 1010.17 C 1469.11 989.912 1490.61 1011.4 1505.88 1023.56 L 1538.54 1049.13 L 1669.42 1151.17 L 1835.8 1280.04 C 1866.49 1303.54 1897.66 1326.81 1927.8 1351.03 C 1934.33 1356.27 1936.6 1359.01 1939.12 1367.07 C 1940.78 1372.43 1938.83 1382.99 1935.73 1387.38 C 1925.62 1401.67 1912.56 1416.49 1901.5 1430.12 L 1837.29 1510.64 L 1721.61 1655.6 C 1700.68 1681.89 1679.82 1708.22 1658.48 1734.2 C 1645.88 1749.53 1629.92 1749.69 1614.46 1738.19 C 1595.83 1724.34 1577.76 1709.55 1559.49 1695.19 L 1434.96 1596.73 C 1369.96 1546.66 1305.55 1495.83 1241.74 1444.26 C 1219.69 1426.57 1196.93 1409.9 1175.04 1392.03 C 1167.23 1385.66 1162.72 1371.85 1168.15 1362.91 C 1177.02 1348.28 1189.55 1334.78 1200.07 1321.19 C 1224.98 1289.04 1252.97 1258.22 1277.42 1225.82 C 1289.54 1210.46 1302.71 1194.84 1315.19 1179.66 C 1280.4 1155 1241.96 1124.34 1207.88 1097.79 C 1201.83 1107.81 1187.91 1123.73 1180.08 1133.18 C 1190.95 1140.5 1203.32 1151.01 1214.24 1159.35 C 1231.39 1172.47 1250.11 1185.86 1265.78 1200.63 C 1267.5 1202.49 1268.88 1204.42 1269.23 1206.96 C 1270.92 1219.24 1262.04 1223.87 1252.12 1216.46 C 1238.44 1206.25 1224.57 1195.93 1211.33 1185.23 C 1196.81 1173.48 1180.01 1162.28 1166.41 1149.71 C 1165.95 1150.41 1165.48 1151.11 1165.01 1151.8 C 1153.12 1169.24 1136.22 1189.22 1122.5 1205.54 C 1089.69 1244.56 1065.34 1289.81 1011.07 1299.28 C 960.829 1308.05 929.705 1285.85 893.401 1254.96 C 886.542 1249.12 873.818 1241.48 866.124 1236.14 C 849.744 1262.35 828.038 1295.86 827.446 1328.76 C 828.814 1338.53 839.266 1349.04 843.752 1356.88 C 869.464 1401.81 891.138 1452.43 893.723 1504.7 C 895.43 1539.22 890.495 1592.57 866.373 1619.43 C 856.796 1630.31 843.208 1636.82 828.731 1637.48 C 816.491 1637.99 804.887 1635.81 792.457 1633.29 C 718.764 1618.35 653.618 1572.32 594.389 1528.11 C 591.156 1525.7 588.751 1521.21 588.7 1517.24 C 590.714 1512.47 596.027 1507.54 601.003 1508.14 C 614.495 1509.77 632.341 1526.35 642.988 1533.16 C 664.75 1547.53 687.862 1562.86 710.744 1575.09 C 738.045 1589.69 819.099 1626.64 845.068 1603.72 C 851.753 1597.87 855.761 1589.54 856.164 1580.66 C 856.946 1566.01 850.838 1551.53 845.278 1538.32 C 824.089 1487.96 791.515 1444.12 755.319 1403.59 C 688.351 1328.59 600.065 1260.89 505.067 1226.46 C 489.047 1220.66 471.027 1213.53 453.918 1212.89 C 444.907 1212.55 436.278 1214.97 429.651 1221.31 C 420.9 1229.69 421.645 1242.28 423.24 1253.31 C 430.177 1301.3 471.178 1356.81 501.82 1393.8 C 513.675 1408.12 526.993 1422.01 537.982 1436.91 C 540.114 1439.8 542.205 1442.57 541.731 1446.38 C 541.318 1449.69 538.232 1454.47 535.238 1456.01 C 533.054 1457.14 531.506 1456.99 529.216 1456.35 C 513.66 1452.03 464.727 1389.36 453.219 1373.48 C 441.191 1356.87 429.14 1338.93 419.567 1320.85 C 406.466 1296.09 388.272 1251.79 397.588 1223.87 C 402.983 1207.69 416.335 1196.54 431.021 1188.96 C 487.508 1159.81 560.925 1165.08 620.439 1180.95 C 636.434 1185.22 651.652 1191.35 667.39 1196.38 C 701.13 1181.06 714.844 1157.15 740.325 1136.44 C 709.298 1105.61 661.514 1078.23 657.922 1027.99 C 654.265 976.827 691.772 934.225 721.707 897.319 C 736.089 879.456 750.663 861.749 765.424 844.198 C 735.548 822.622 706.537 800.513 677.196 778.241 C 669.584 772.463 663.146 766.723 656.235 760.182 C 640.426 783.081 619.032 807.081 601.74 829.573 C 586.283 849.678 569.434 870.612 553.285 890.205 C 549.938 893.714 542.186 900.974 537.726 901.661 C 515.853 905.033 498.716 885.716 481.288 872.82 C 444.873 845.992 408.749 818.773 372.921 791.166 L 229.967 682.196 L 133.429 609.162 C 116.451 596.421 98.9472 583.588 82.3781 570.303 C 77.2458 566.188 71.9 560.77 70.6007 554.029 C 68.7885 544.626 78.2949 534.12 84.0326 526.396 C 100.25 504.567 118.658 483.805 135.6 462.684 L 254.605 313.654 C 275.513 287.257 296.566 260.976 317.764 234.812 C 328.267 221.695 338.713 207.404 350.019 195.043 C 354.565 190.072 360.772 189.302 367.121 188.425 z M 711.695 1019 C 733.648 1038.05 758.425 1057.15 781.125 1075.61 L 940.249 1204.25 L 942.262 1204.77 C 947.283 1200.23 961.236 1181.79 966.301 1175.26 L 1011.45 1116.96 L 1158 929.282 C 1176.25 906.338 1198.04 877.008 1216.79 855.554 C 1198.16 837.16 1169.4 813.432 1149.33 795.901 C 1106.42 757.847 1062.79 720.628 1018.44 684.266 C 1014.34 680.912 995.782 664.03 992.897 662.587 L 794.556 916.44 C 770.392 946.869 737.484 992.162 711.695 1019 z M 1532.24 725.38 C 1538.12 681.337 1509.99 636.666 1483.98 602.694 C 1460.79 572.523 1435.36 544.133 1407.93 517.763 C 1404.83 540.697 1375.51 648.286 1361.28 659.321 C 1359.26 660.888 1357.08 661.218 1354.61 660.694 C 1350.8 659.882 1347.5 657.11 1345.76 653.722 C 1345.44 653.086 1345.13 652.442 1344.84 651.791 C 1344.24 637.554 1359.17 615.076 1363.15 601.264 C 1370.29 576.5 1386.87 529.231 1388.91 504.309 L 1387.83 503.576 C 1372.05 510.647 1327.09 580.084 1313.53 595.561 C 1306.06 604.082 1295.33 629.31 1281.68 626.648 C 1265.75 615.941 1282.23 602.591 1289.19 591.148 C 1293.57 583.935 1300.3 576.889 1305.02 569.704 C 1325.31 545.097 1345.58 512.183 1367.1 489.014 L 1286.53 531.575 C 1274.2 538.187 1244.81 555.073 1232.93 558.611 C 1214.92 554.459 1221.19 539.751 1234.53 533.24 C 1273.07 514.431 1311.2 491.553 1350.01 473.556 C 1334.55 464.728 1319.96 454.586 1304.95 445.054 C 1256.92 414.562 1194.7 378.284 1136.05 381.321 C 1117.72 384.479 1102.79 390.392 1107.29 413.154 C 1110.28 428.304 1117.81 442.782 1123.96 456.881 C 1169.89 549.125 1247.48 625.04 1332.65 681.591 C 1373.03 708.402 1416.72 730.686 1464.06 741.928 C 1493.11 748.827 1511.31 750.148 1532.24 725.38 z M 960.772 1220.19 C 987.573 1239.27 1003.34 1250.92 1033.81 1265.03 C 1040.09 1262.35 1041.97 1261.62 1047.37 1257.01 C 1063.96 1241.15 1086.2 1211.2 1101.68 1192.24 C 1141.49 1143.41 1180.94 1094.29 1220.03 1044.89 L 1280.17 969.223 C 1293.96 952.181 1317.67 925.072 1327.15 907.133 C 1305.27 901.482 1289.36 898.131 1268.71 888.148 C 1260.97 884.405 1242.17 872.862 1235.29 870.487 C 1230.82 878.545 1213.27 899.068 1206.38 907.604 L 1149.39 978.9 L 1053.91 1101.86 C 1022.67 1142.58 993.866 1180.8 960.772 1220.19 z M 482.831 1195.92 C 623.04 1230.04 806.06 1383.71 861.702 1516.74 C 864.588 1524.02 867.336 1531.34 869.945 1538.72 C 875.407 1462.43 837.774 1381.78 788.879 1324.56 C 768.159 1300.31 751.081 1287.04 727.442 1267.32 C 670.322 1219.65 621.351 1197.23 546.233 1192.19 C 540.799 1191.83 526.034 1191.07 521.012 1192.39 L 482.831 1195.92 z M 1449.45 762.572 C 1432.9 755.442 1416.42 753.001 1399.13 745.102 C 1274.8 688.295 1181.23 604.113 1112.92 485.895 C 1108.78 476.838 1104.39 467.602 1100.76 458.352 C 1101.37 468.495 1101.94 477.797 1103.14 487.922 C 1110.8 568.936 1132.72 615.013 1191.23 671.591 C 1242.86 722.509 1310.35 754.233 1382.49 761.493 C 1403.61 763.582 1428.22 763.032 1449.45 762.572 z M 1324.77 883.28 C 1316.61 862.832 1298.7 826.745 1282.63 811.999 C 1241.02 805.825 1200.15 768.679 1169.87 742.169 C 1149.23 724.108 1128.84 705.766 1108.7 687.148 C 1071.91 653.753 1032.44 620.563 979.315 621.853 C 988.966 632.393 1011.49 648.738 1023.67 658.579 C 1048.46 678.689 1073.01 699.086 1097.33 719.768 C 1126.65 744.867 1155.82 770.151 1184.83 795.617 C 1232.93 838.52 1259.01 867.049 1324.77 883.28 z M 1407.5 1103.22 C 1432.79 1122.43 1459.89 1142.46 1484.54 1162.38 C 1503.85 1136.43 1525.95 1111.02 1544.91 1085.51 C 1534.99 1076.2 1522.58 1067.88 1511.77 1059.43 C 1497.76 1048.48 1483.74 1037.6 1469.51 1026.93 C 1450.37 1049.06 1425.52 1079.92 1407.5 1103.22 z M 1778.52 1387.49 C 1798.21 1402.02 1839.13 1432.03 1856.28 1447.56 C 1874.23 1426.13 1899.01 1395.25 1915.3 1372.73 C 1909.73 1367.27 1893.48 1355.07 1886.69 1350.06 C 1872.86 1339.83 1851.11 1320.02 1837.48 1311.53 C 1818.52 1335.81 1797.89 1363.94 1778.52 1387.49 z M 1637.13 1721.39 C 1645.81 1712.51 1652.55 1702.15 1660.37 1692.7 C 1672.71 1677.8 1684.65 1661.93 1696.95 1647.13 C 1674.49 1632.19 1641.23 1604.21 1619.58 1586.86 C 1609.86 1602.13 1593.35 1620.89 1582.18 1635.78 C 1577.64 1641.84 1564.29 1659.19 1559.75 1663.85 C 1570.48 1673.37 1626.87 1719.83 1637.13 1721.39 z M 1633.23 1571.49 C 1644.25 1577.69 1657.02 1588.15 1667.23 1596.06 L 1711.17 1630.21 C 1726.85 1608.7 1753.42 1575.81 1770.91 1555.33 C 1751.98 1537.6 1716.09 1513.3 1694.18 1494.98 C 1674.95 1520.86 1652.49 1545.63 1633.23 1571.49 z M 1268.22 1433.51 C 1287.96 1409.04 1307.44 1384.37 1326.67 1359.51 C 1306.82 1345.42 1266.37 1314.73 1248.59 1298.99 C 1239.79 1311.53 1194.99 1364.26 1192.34 1372.25 C 1197.2 1379.13 1222.05 1397.8 1229.63 1403.82 L 1266.68 1433.76 L 1268.22 1433.51 z M 1262.95 1282.75 C 1279.69 1296.84 1299.54 1309.19 1316.45 1323.39 C 1324.23 1329.94 1333.37 1335.68 1340.6 1342.85 C 1359.94 1317.64 1379.84 1292.85 1400.27 1268.52 C 1379.19 1250.15 1340.4 1226.37 1322.23 1207.82 C 1309.05 1225.15 1295.58 1242.26 1281.82 1259.14 C 1276.66 1265.56 1267.33 1276.4 1262.95 1282.75 z M 1540.36 1497.87 C 1544.95 1502.18 1614.07 1555.55 1616.15 1556.13 C 1623.08 1545.97 1634.8 1531.84 1642.86 1521.73 C 1651.73 1510.6 1666.49 1490.22 1675.86 1480.72 C 1668.8 1476.34 1662.45 1471.01 1656 1465.79 C 1637.77 1451.03 1618.98 1437 1600.46 1422.62 C 1584.71 1443.37 1557.66 1480.24 1540.36 1497.87 z M 1684.73 1316.71 C 1703.53 1329.35 1721.27 1343.97 1739.39 1357.54 C 1743.21 1360.41 1756.95 1372.1 1759.79 1373.29 C 1778.38 1347.53 1799.42 1322.26 1819.23 1297.19 C 1802.61 1285.21 1787.62 1273.77 1771.71 1260.9 C 1767.18 1257.24 1748.34 1242.02 1743.66 1239.44 C 1728.26 1263.96 1701.06 1291.5 1684.73 1316.71 z M 1706.53 1478.47 C 1731.64 1494.25 1760.2 1519.16 1784.39 1537.28 L 1843.11 1464.07 C 1827.96 1456.69 1794.75 1426.33 1779.02 1415.15 C 1775.92 1412.94 1767.47 1405.33 1764.91 1404.3 C 1747.36 1429.19 1724.8 1453.51 1706.53 1478.47 z M 1543 1649.45 C 1559.56 1627.25 1576.09 1605.24 1594.02 1584.11 C 1597.03 1580.56 1599.78 1577.18 1602.45 1573.35 C 1585.12 1560.59 1567.94 1547.65 1550.89 1534.52 C 1543.75 1529.08 1533.71 1522.06 1527.26 1516.52 C 1508.95 1541.86 1486.74 1566.9 1468.98 1591.86 C 1489.56 1608.06 1509.6 1624.94 1530.35 1640.94 C 1534.19 1643.9 1537.97 1646.89 1541.53 1650.18 L 1543 1649.45 z M 1335.69 1192.49 C 1352.87 1204.48 1399.92 1237.49 1411.94 1251.14 L 1413.69 1250.34 C 1427.19 1234.63 1440.19 1218.88 1452.7 1202.37 C 1457.67 1195.81 1466.7 1185.74 1470.79 1179.05 C 1447.83 1161.8 1414.62 1137.93 1393.13 1119.84 C 1374.39 1143.91 1353.85 1168.5 1335.69 1192.49 z M 1450.77 1578.41 C 1457.46 1567.5 1469.35 1553.35 1477.53 1542.97 C 1488.33 1529.07 1499.03 1515.1 1509.64 1501.06 C 1495.05 1491.9 1444.63 1448.68 1435.28 1445.6 C 1417.48 1469.98 1395.47 1496.57 1376.45 1520.31 C 1403.02 1539.04 1425.79 1559.49 1450.77 1578.41 z M 454.995 822.87 C 470.352 833.973 484.947 845.964 499.957 857.469 C 507.782 863.467 520.432 874.156 529.049 878.263 C 529.727 877.949 530.406 877.635 531.084 877.321 C 543.592 865.258 552.983 851.533 563.717 837.977 C 572.164 827.31 581.146 816.887 589.823 806.366 C 565.792 790.354 536.207 767.307 512.784 749.577 C 495.946 771.316 469.975 801.646 454.995 822.87 z M 672.775 555.386 C 685.972 565.794 699.317 576.012 712.806 586.038 C 722.753 593.487 738.964 604.58 746.582 613.425 C 758.798 597.731 771.174 582.162 783.71 566.721 C 790.227 558.573 801.624 544.933 806.328 536.165 C 789.407 524.09 773.687 512.393 757.631 499.244 C 750.882 493.717 740.031 487.421 733.957 481.811 C 724.608 494.284 713.081 507.075 703.138 519.251 C 693.346 531.244 683.371 544.318 672.775 555.386 z M 416.115 509.38 C 435.258 523.445 474.113 550.344 490.468 565.395 C 510.163 541.05 532.778 513.974 551.648 489.328 C 535.255 478.298 519.212 466.757 503.542 454.723 C 496.385 449.303 483.595 438.854 476.773 434.59 C 472.266 441.982 463.086 452.741 457.47 459.734 C 444.144 476.66 430.354 493.215 416.115 509.38 z M 1503.42 1175.63 C 1509.61 1180.27 1575.38 1231.38 1575.93 1231.48 C 1588.64 1214.1 1601.5 1197.35 1615.19 1180.71 C 1621.28 1173.32 1629.74 1161.61 1636.15 1155.11 C 1625.3 1147.99 1568.9 1101.46 1563.31 1099.71 C 1546.6 1119.23 1519 1154.23 1503.42 1175.63 z M 1593.61 1245.86 C 1609.91 1258.01 1626.08 1270.34 1642.11 1282.85 C 1646.19 1286.02 1662.76 1299.46 1666.36 1301.48 C 1680.45 1282.18 1710.14 1243.27 1726.14 1225.89 C 1714.39 1217.66 1702.15 1207.64 1690.72 1198.7 C 1679.26 1189.74 1663.73 1178.47 1653.15 1168.52 C 1646.49 1178.91 1636.65 1190.59 1628.89 1200.41 C 1616.96 1215.43 1605.2 1230.58 1593.61 1245.86 z M 403.539 526.467 C 389.392 546.775 371.192 565.69 356.396 585.69 C 353.382 589.764 349.676 594.612 346.285 598.335 C 370.533 614.494 398.077 638.706 420.824 653.231 C 438.429 629.165 458.396 604.803 477.584 581.804 C 458.975 568.285 440.469 554.625 422.068 540.825 C 419.102 538.611 404.981 527.28 403.539 526.467 z M 327.553 443.149 C 334.285 448.303 396.202 495.34 398.722 496.012 C 415.978 473.764 439.972 443.08 458.221 421.791 C 442.069 412.226 403.772 383.17 387.21 370.674 C 368.347 394.055 347.947 421.699 327.553 443.149 z M 225.936 534.846 C 210.429 524.512 164.819 492.012 152.259 479.922 C 140.633 497.126 110.589 532.882 96.5436 549.596 C 102.764 555.555 162.266 601.653 168.927 604.771 L 170.053 604.465 L 207.23 558.03 C 212.623 551.324 221.28 541.545 225.936 534.846 z M 690.362 1008.69 C 700.571 999.343 717.204 974.891 726.66 963.362 C 744.772 941.278 762.291 918.173 780.021 895.808 L 900.065 743.135 C 917.46 721.586 934.558 699.8 951.354 677.781 C 956.635 670.932 969.478 655.179 973.61 648.321 C 970.191 645.503 965.184 641.099 961.686 638.689 C 912.508 694.372 863.092 761.936 816.085 820.259 C 789.454 852.66 763.049 885.246 736.873 918.016 C 710.005 952.104 688.845 972.219 683.438 1017.31 L 690.362 1008.69 z M 471.253 405.727 C 490.316 381.055 510.276 356.902 529.265 332.181 C 514.046 320.45 498.711 308.871 483.262 297.446 C 477.141 292.913 465.703 283.951 459.408 280.585 C 441.338 303.827 417.416 330.744 400.82 353.812 C 418.699 366.548 456.361 392.032 471.253 405.727 z M 256.34 532.214 C 278.814 550.675 306.054 567.426 327.594 585.123 C 344.208 564.927 370.182 533.526 385.264 512.856 C 367.054 498.987 348.621 485.413 329.973 472.138 C 327.747 470.57 316.531 462.506 314.514 461.609 C 293.894 482.499 276.067 511.998 256.34 532.214 z M 1121.63 632.1 C 1112.47 634.904 1102.62 638.683 1093.49 640.703 C 1091.71 641.098 1093.29 640.498 1091.15 641.521 L 1091.06 642.017 C 1112.28 662.119 1136.24 681.536 1158.04 701.903 C 1181.43 723.766 1208.67 748.024 1234.23 767.029 C 1245.2 775.182 1271.21 785.605 1284.37 790.039 C 1286.78 790.584 1287.42 791.301 1289.37 789.744 C 1296.83 783.776 1303.33 776.523 1311.14 770.867 C 1302.06 768.061 1289.98 762.423 1281.23 758.445 C 1230.16 735.238 1184.46 700.926 1147.69 658.573 C 1140.84 650.682 1132.5 640.631 1125.52 632.51 C 1124.51 631.335 1122.87 631.808 1121.63 632.1 z M 436.951 808.49 C 450.085 790.905 463.658 774.829 477.36 757.805 C 481.446 752.727 491.321 740.982 494.455 736.135 C 485.134 728.964 430.712 687.313 423.314 684.64 C 404.098 708.714 385.87 732.32 366.205 756.277 C 379.283 764.022 428.894 806.164 436.951 808.49 z M 438.189 666.791 C 446.579 673.128 505.185 718.966 509.87 719.137 C 524.838 699.362 550.213 668.692 566.983 649.361 C 550.152 638.019 533.797 624.243 517.355 612.193 C 512.565 608.683 500.159 598.775 495.128 596.517 C 476.306 619.806 457.389 643.854 438.189 666.791 z M 188.721 619.852 C 208.18 635.746 240.487 656.763 257.036 672.178 C 258.656 670.822 258.183 671.54 258.804 670.302 C 276.688 647.321 297.191 623.699 314.444 600.856 C 305.957 596.01 247.64 555.016 242.896 549.8 C 226.457 572.27 203.113 598.153 188.721 619.852 z M 697.778 709.476 C 688.606 721.436 678.667 732.81 669.658 744.585 C 675.151 747.514 693.355 761.967 699.663 766.658 C 726.56 786.285 752.975 806.566 778.882 827.482 C 786.561 817.214 798.976 801.787 807.664 792.365 C 783.471 774.462 759.436 756.348 735.562 738.023 C 727.859 732.125 704.917 713.74 697.778 709.476 z M 800.519 1301.29 L 809.699 1311.01 C 810.432 1299.38 812.838 1291.1 816.02 1279.91 C 794.933 1262.38 774.05 1244.6 753.377 1226.57 C 746.46 1220.57 721.085 1198.09 715.01 1194.02 C 706.811 1200.48 697.924 1205.83 688.893 1211.05 C 725.911 1234.88 770.515 1269.69 800.519 1301.29 z M 823.079 1258.36 L 824.784 1259 C 828.106 1256.11 840.44 1231.83 846.839 1223.92 C 836.918 1217.29 827.518 1209.65 818.296 1202.08 C 797.686 1185.15 776.244 1168.71 756.419 1150.88 C 747.786 1160.34 738.908 1169.58 729.793 1178.57 C 746.978 1189.81 765.785 1208.05 781.902 1221.8 C 792.681 1231 815.004 1248.73 823.079 1258.36 z M 1417.39 1283.17 C 1403.35 1301.58 1389.06 1319.79 1374.52 1337.81 C 1369.92 1343.59 1362.79 1351.09 1358.92 1356.85 C 1382.11 1374.34 1410.57 1395.07 1432.34 1413.7 C 1439.35 1405.79 1445.72 1396.06 1452.36 1387.68 C 1465 1371.72 1477.84 1355.54 1489.8 1339.05 C 1472.41 1323.72 1450.74 1309.98 1432.7 1295.18 C 1429.28 1292.38 1420.57 1284.87 1417.39 1283.17 z M 916.036 1245.15 C 942.7 1262.59 948.864 1271.7 980.605 1277.99 C 990.267 1278.64 996.257 1278.67 1005.91 1276.78 C 983.293 1264.7 965.393 1251.17 945.662 1234.9 C 944.41 1233.87 945.019 1234.2 943.373 1233.86 C 932.071 1240.46 928.85 1243.01 916.036 1245.15 z M 308.447 285.666 C 322.67 296.812 337.14 307.641 351.846 318.143 C 361.841 325.323 372.419 332.019 381.554 340.196 L 382.609 340.026 C 392.452 326.205 403.73 312.663 414.54 299.491 C 423.079 289.087 432.412 276.483 441.27 266.596 C 419.524 252.135 394.525 230.042 371.872 216.349 C 370.271 215.381 366.726 215.628 364.72 215.756 C 346.537 238.256 327.128 264.238 308.447 285.666 z M 697.552 1038.12 C 691.87 1041.01 691.519 1041.39 687.163 1045.91 C 692.244 1055.26 698.768 1064.66 706.304 1072.33 C 755.635 1122.5 811.391 1167.65 866.984 1210.7 C 874.318 1216.38 889.684 1223.25 898.253 1227.98 C 903.201 1226.86 906.396 1226.14 911.248 1224.39 C 915.986 1222.71 919.962 1221.33 924.558 1219.2 C 906.247 1207.19 875.884 1181.02 858.215 1166.69 L 739.311 1070.49 C 732.668 1065.15 702.564 1039.87 697.552 1038.12 z M 1416.5 442.398 C 1407.25 446.54 1399.39 461.099 1390.81 470.177 C 1394.84 473.673 1398.71 476.471 1402.99 479.625 C 1411.6 474.08 1433.9 455.844 1426.62 444.477 C 1423.75 442.044 1420.43 442.571 1416.5 442.398 z M 297.169 445.976 C 274.781 428.245 247.18 410.553 223.43 392.48 C 203.841 416.027 185.105 440.125 165.847 463.963 C 182.042 475.293 223.808 505.75 237.664 517.964 L 239.975 518.103 C 256.827 494.639 278.924 468.69 297.169 445.976 z M 582.929 486.903 C 591.605 493.097 652.805 540.033 655.966 540.849 C 672.375 521.091 697.788 485.419 714.593 468.561 C 691.85 451.597 665.072 430.597 641.809 414.719 C 629.73 430.414 616.78 445.26 604.157 460.469 C 598.051 467.827 587.713 479.13 582.929 486.903 z M 332.378 614.026 C 328.214 620.909 319.446 631.586 314.278 638.18 C 301.737 654.317 288.842 670.176 275.603 685.746 C 278.952 689.183 343.514 738.963 348.478 741.088 L 349.595 740.5 C 356.102 731.925 400.603 675.007 406.991 669.65 C 385.929 655.104 352.15 630.138 332.378 614.026 z M 293.539 302.571 C 285.906 314.838 275.608 327.042 266.582 338.441 C 257.022 350.514 246.995 363.729 236.431 374.827 C 244.453 380.748 306.774 428.492 310.9 429.932 C 327.933 405.526 350.048 380.811 368.607 357.113 C 348.32 344.035 312.756 317.638 293.539 302.571 z M 548.504 345.322 C 538.329 362.054 503.963 403.481 489.588 418.068 C 500.015 424.789 512.893 434.584 523.1 442.085 C 534.877 450.74 554.137 463.187 563.858 473.065 C 582.717 451.207 604.235 423.578 621.92 400.634 C 608.354 391.038 594.16 379.536 580.75 369.41 C 572.584 363.243 555.341 351.589 548.504 345.322 z M 580.932 633.232 C 599.688 608.111 623.701 583.573 641.773 558.748 C 617.564 540.204 593.107 521.985 568.409 504.096 C 552.37 526.145 534.738 546.92 517.559 568.067 C 514.859 571.391 512.151 574.657 509.019 577.584 C 522.285 592.769 552.045 609.017 567.596 622.936 C 569.278 624.441 579.246 632.231 580.932 633.232 z M 585.116 662.704 C 568.642 685.135 545.128 710.45 527.251 732.593 C 549.752 750.633 582.634 772.289 602.809 790.304 C 619.28 766.025 642.722 742.669 659.322 719.172 C 636.978 699.948 608.463 682.184 585.116 662.704 z M 1490.14 1192.83 C 1479.19 1205.58 1467.74 1221.29 1457.13 1234.66 C 1450.42 1243.11 1436.62 1259.19 1431.3 1267.56 C 1452.07 1279.29 1483.12 1307.68 1504.25 1321.65 C 1523.84 1297.04 1543.21 1272.26 1562.36 1247.32 C 1551.71 1241.19 1536.28 1228.87 1526.25 1221.17 C 1515.16 1212.66 1500.33 1202.06 1490.14 1192.83 z M 1595.03 1392.8 C 1608.78 1374.78 1638.41 1335.05 1653 1319.27 C 1629.28 1300.14 1603.9 1282.34 1580.59 1262.71 C 1562.17 1285.54 1541.63 1313.33 1523.04 1334.99 C 1532.87 1344.98 1592.68 1387.27 1595.03 1392.8 z M 1671.38 1332.72 C 1651.49 1355.6 1632.98 1382.84 1613.38 1405.46 C 1635.01 1422.05 1656.67 1438.71 1678.12 1455.54 C 1681.4 1458.11 1685.3 1462.92 1688.82 1464.39 C 1701.83 1445.06 1730.42 1409.09 1746.49 1390.71 C 1722.39 1372.64 1694.12 1351.97 1671.38 1332.72 z M 1508.38 1353.03 C 1491.12 1375.01 1468.47 1407.8 1450.82 1427.84 C 1474.85 1446.08 1500.1 1467.61 1524.09 1485.01 C 1543.49 1455.88 1562.52 1435.86 1581.99 1408.74 L 1530.99 1369.99 C 1526.55 1366.59 1512.29 1355.13 1508.38 1353.03 z M 659.18 573.667 C 652.159 583.849 639.333 598.774 631.045 608.894 C 621.956 619.992 608.615 637.297 598.698 646.942 C 617.414 658.522 636.94 675.289 655.072 688.179 C 658.227 690.422 671.211 700.985 673.625 702.377 C 688.863 682.97 717.946 646.593 734.341 628.687 C 716.583 619.063 693.189 598.018 675.719 585.883 C 672.667 583.763 661.781 574.769 659.18 573.667 z M 1345.23 1373.66 C 1326.48 1398.16 1305.66 1425.76 1285.78 1449.13 C 1291.96 1454 1357.35 1505.31 1358.21 1505.56 C 1377.9 1482.09 1398.15 1454.32 1418.28 1429.89 C 1401.06 1418.1 1360.5 1387.21 1345.23 1373.66 z"></path>
<path transform="translate(0,0)" fill="rgb(254,254,254)" d="M 1008.88 763.46 C 1031.28 764.771 1103.1 831.535 1122.77 848.795 C 1155.61 877.605 1127.19 914.563 1104.63 938.982 C 1086.75 958.338 1063.91 994.672 1036.93 1002.8 C 1011.63 1004.75 985.534 974.261 966.598 960.052 C 895.565 906.616 884.271 884.788 949.581 816.452 C 967.8 797.389 980.764 769.091 1008.88 763.46 z M 1033.4 978.679 C 1048.69 972.125 1073.35 939.016 1084.63 925.551 C 1099.76 907.488 1127.27 880.458 1100.52 860.567 C 1086.96 850.478 1022.26 788.966 1009.33 789.156 C 997.995 794.894 981.12 814.399 973.643 825.407 C 963.856 839.816 920.429 877.689 932.702 895.15 C 953.64 924.938 989.402 945.753 1016.49 969.96 C 1021.52 974.455 1026.93 979.155 1033.4 978.679 z"></path>
<path transform="translate(0,0)" fill="rgb(254,254,254)" d="M 851.82 957.964 C 855.535 958.279 858.344 958.708 861.458 960.983 C 889.55 981.513 916.612 1003.62 944.457 1024.53 C 950.976 1029.86 958.839 1034.89 964.142 1041.54 C 969.57 1048.34 965.278 1054.22 959.56 1058.06 C 957.144 1057.95 954.136 1057.87 952.026 1056.48 C 929.959 1042.01 908.443 1024.27 887.65 1008 C 875.327 997.876 861.747 989.189 850.444 977.906 C 842.059 969.535 843.762 965.194 851.82 957.964 z"></path>
<path transform="translate(0,0)" fill="rgb(254,254,254)" d="M 819.474 1008.37 C 830.734 1009.74 896.481 1065.74 912.15 1074.39 C 914.91 1075.91 920.799 1081.45 923.484 1083.85 C 931.781 1091.24 928.814 1095.6 921.407 1101.54 C 918.695 1101.44 912.903 1101.03 910.674 1099.62 C 898.601 1091.95 886.303 1081.47 874.797 1072.85 C 859.541 1060.79 842.817 1050.06 827.84 1037.7 C 815.248 1027.3 804.715 1022.42 819.474 1008.37 z"></path>
<path transform="translate(0,0)" fill="rgb(254,254,254)" d="M 1143.97 423.587 C 1153.06 428.112 1195.29 503.128 1195.9 514.093 C 1190.8 514.063 1189.01 514.08 1186.36 509.22 C 1172.72 484.144 1156.54 459.972 1144.87 433.939 C 1143.26 430.334 1143.24 427.34 1143.97 423.587 z"></path>
<path transform="translate(0,0)" fill="rgb(254,254,254)" d="M 1243.05 924.947 C 1245.16 926.695 1244.46 925.91 1245.68 928.469 C 1246.07 935.91 1215.67 973.056 1209.45 981.212 L 1157.16 1050.2 L 1097.05 1128.93 C 1079.52 1151.93 1060.91 1176.87 1041.97 1198.5 C 1040.58 1197.9 1040.6 1197.6 1039.43 1196.41 C 1038.19 1191.27 1039.89 1187.97 1043.03 1183.91 C 1059.39 1162.74 1075.4 1141.17 1091.66 1119.91 L 1163.57 1025.58 L 1208.79 966.305 C 1216.6 955.948 1233.14 931.451 1243.05 924.947 z"></path>
<path transform="translate(0,0)" fill="rgb(0,0,0)" fill-opacity="0.0117647" d="M 1583.95 1565.8 C 1586.27 1566.75 1588.17 1567.56 1590.46 1568.63 L 1589.54 1571.17 C 1586.79 1571.9 1585.9 1570.68 1583.99 1568.85 L 1583.95 1565.8 z"></path>
<path transform="translate(0,0)" fill="rgb(0,0,0)" fill-opacity="0.0235294" d="M 688.834 482.497 C 690.852 483.287 693.554 484.934 695.525 486.029 L 695.32 487.159 L 694.512 488.268 C 691.362 486.791 691.119 485.558 688.834 482.497 z"></path>
<path transform="translate(0,0)" fill="rgb(0,0,0)" fill-opacity="0.0117647" d="M 1100.76 458.352 C 1104.39 467.602 1108.78 476.838 1112.92 485.895 C 1111.37 488.735 1110.89 490.354 1108.05 491.841 C 1104.58 491.19 1105.81 491.685 1103.14 487.922 C 1101.94 477.797 1101.37 468.495 1100.76 458.352 z"></path>
<path transform="translate(0,0)" fill="rgb(254,254,254)" d="M 616.957 1306.06 C 640.241 1307.88 622.303 1340.01 617.326 1353.82 C 605.556 1386.48 589.547 1421.08 573.741 1451.89 C 570.682 1457.85 552.971 1491.58 552.782 1492.56 L 555.169 1493.97 C 562.372 1493.96 670.843 1425.05 688.472 1416.74 C 706.381 1408.31 732.664 1378.43 739.62 1410.47 C 729.519 1420.29 672.409 1452.86 657.499 1461.72 C 629.387 1478.19 598.987 1496.29 570.491 1511.91 C 573.901 1523.84 576.136 1537.19 570.724 1548.82 C 565.164 1560.76 553.114 1571.5 540.732 1575.67 C 528.617 1579.84 515.314 1578.8 503.989 1572.81 C 492.63 1566.84 483.478 1556.32 479.797 1543.97 C 476.671 1533.61 477.932 1522.42 483.285 1513.02 C 492.808 1496.08 511.06 1489.12 528.558 1484.3 C 548.838 1459.14 578.721 1391.17 591.437 1359.76 C 597.136 1345.69 603.068 1327.83 608.914 1313.41 C 610.072 1310.56 614.369 1307.78 616.957 1306.06 z M 528.32 1552.77 C 535.374 1551.22 540.791 1548.68 544.764 1542.22 C 547.571 1537.72 548.398 1532.26 547.05 1527.13 C 544.581 1517.76 535.899 1511.35 526.306 1511.12 C 517.988 1513.6 511.619 1515.65 507.289 1524.12 C 504.916 1528.84 504.525 1534.31 506.203 1539.33 C 509.488 1549.22 518.718 1552.68 528.32 1552.77 z"></path>
<path transform="translate(0,0)" fill="rgb(254,254,254)" d="M 487.629 1281.31 C 488.346 1281.5 490.66 1282.1 491.151 1282.59 C 501.371 1292.71 540.992 1357.95 543.55 1366.85 C 544.075 1368.69 544.566 1370.54 545.022 1372.4 C 543.911 1372.31 540.06 1372.24 539.545 1371.44 C 527.631 1353.03 489.717 1300.61 487.629 1281.31 z"></path>
</svg>