<?xml version="1.0" standalone="no"?>
<!DOCTYPE svg PUBLIC "-//W3C//DTD SVG 20010904//EN"
 "http://www.w3.org/TR/2001/REC-SVG-20010904/DTD/svg10.dtd">
<svg version="1.0" xmlns="http://www.w3.org/2000/svg"
 width="512.000000pt" height="512.000000pt" viewBox="0 0 512.000000 512.000000"
 preserveAspectRatio="xMidYMid meet">
<metadata>
Created by potrace 1.16, written by Peter Selinger 2001-2019
</metadata>
<g transform="translate(0.000000,512.000000) scale(0.100000,-0.100000)"
fill="#FFFF" stroke="none">
<path d="M879 5103 c-13 -16 -12 -17 4 -4 9 7 17 15 17 17 0 8 -8 3 -21 -13z"/>
<path d="M2523 5096 c-34 -12 -75 -34 -91 -49 -15 -15 -32 -24 -37 -20 -4 5
-5 3 -1 -4 7 -12 -68 -57 -124 -74 -20 -6 -21 -7 -5 -8 33 -1 119 44 163 86
23 22 61 46 84 52 44 13 101 41 83 40 -5 -1 -38 -11 -72 -23z"/>
<path d="M3080 5036 c-85 -94 -109 -146 -110 -243 0 -50 -4 -67 -25 -91 -29
-34 -45 -74 -44 -105 1 -12 5 -4 10 18 5 22 21 52 36 67 22 23 27 40 34 117
10 104 28 148 89 206 50 48 105 115 93 114 -4 0 -42 -38 -83 -83z"/>
<path d="M3214 5098 l-19 -23 23 19 c21 18 27 26 19 26 -2 0 -12 -10 -23 -22z"/>
<path d="M3258 5113 c6 -2 18 -2 25 0 6 3 1 5 -13 5 -14 0 -19 -2 -12 -5z"/>
<path d="M3481 5045 c-74 -79 -83 -95 -52 -95 10 0 21 -7 25 -15 3 -8 1 -15
-4 -15 -4 0 -14 -15 -20 -34 -13 -39 -26 -48 -53 -34 -14 7 -25 4 -44 -14 -39
-35 -83 -99 -77 -110 3 -5 3 -26 -1 -46 -5 -28 -23 -52 -81 -106 -45 -42 -73
-75 -70 -83 3 -8 1 -11 -4 -8 -19 12 -23 -27 -6 -55 15 -27 15 -32 -3 -81
l-20 -52 25 24 c14 13 38 45 55 72 26 42 27 48 10 42 -48 -15 -62 57 -19 102
29 32 96 66 114 59 9 -3 14 1 14 12 0 9 12 31 26 47 18 21 24 24 19 10 -3 -11
-2 -16 2 -11 4 4 8 17 9 29 2 37 8 51 31 70 25 20 52 16 79 -11 16 -15 17 -14
12 15 -2 18 -1 30 2 28 11 -7 57 48 68 82 15 45 82 140 136 193 51 49 56 60
26 60 -30 0 -149 -144 -150 -180 -1 -25 -33 -77 -63 -100 -34 -27 -45 -21 -23
12 8 13 16 39 18 58 1 31 38 88 38 60 0 -5 5 -10 10 -10 6 0 10 10 10 23 0 12
18 46 40 75 22 29 40 55 40 57 0 3 -11 5 -24 5 -16 0 -45 -23 -95 -75z"/>
<path d="M3689 5063 l-24 -28 28 24 c25 23 32 31 24 31 -2 0 -14 -12 -28 -27z"/>
<path d="M4365 5028 l-60 -63 63 60 c58 55 67 65 59 65 -1 0 -29 -28 -62 -62z"/>
<path d="M4339 5043 l-24 -28 28 24 c25 23 32 31 24 31 -2 0 -14 -12 -28 -27z"/>
<path d="M819 5033 c-13 -16 -12 -17 4 -4 9 7 17 15 17 17 0 8 -8 3 -21 -13z"/>
<path d="M3115 4993 c-64 -66 -85 -115 -85 -196 0 -54 -5 -76 -27 -116 -25
-44 -26 -51 -14 -74 13 -24 12 -29 -15 -61 -59 -71 -74 -95 -74 -113 1 -13 5
-11 16 10 9 17 22 27 32 25 22 -5 20 -82 -2 -107 -8 -9 -20 -37 -26 -63 -12
-46 -106 -191 -185 -285 -36 -43 -51 -99 -19 -72 8 7 34 46 56 86 22 41 61
102 86 136 26 34 56 91 68 127 11 35 26 66 33 68 14 5 15 -42 1 -69 -18 -34
-4 -20 26 24 23 34 30 56 34 122 5 71 12 92 61 190 39 77 54 117 49 130 -5 13
1 37 16 67 13 26 29 71 35 100 6 29 18 61 27 71 18 21 12 21 -32 3 -18 -7 -45
-29 -59 -47 -17 -22 -27 -28 -27 -18 0 9 18 37 41 63 53 60 42 60 -16 -1z"/>
<path d="M745 5000 c-24 -26 -31 -57 -9 -39 8 6 12 14 9 17 -3 3 2 14 12 24 9
10 14 18 11 18 -3 0 -13 -9 -23 -20z"/>
<path d="M779 5003 c-13 -16 -12 -17 4 -4 9 7 17 15 17 17 0 8 -8 3 -21 -13z"/>
<path d="M4285 4990 c-3 -5 -1 -10 4 -10 6 0 11 5 11 10 0 6 -2 10 -4 10 -3 0
-8 -4 -11 -10z"/>
<path d="M2767 4973 c-12 -11 -8 -23 8 -23 8 0 15 7 15 15 0 16 -12 20 -23 8z"/>
<path d="M4459 4933 c-13 -16 -12 -17 4 -4 16 13 21 21 13 21 -2 0 -10 -8 -17
-17z"/>
<path d="M2140 4910 c0 -103 -117 -157 -193 -90 -65 56 -137 65 -247 27 -61
-21 -67 -26 -95 -77 -48 -86 -158 -140 -287 -140 -22 0 -37 -4 -34 -9 8 -12
90 -3 169 20 54 16 77 29 115 67 26 26 54 61 63 78 21 40 97 67 191 68 62 1
69 -1 100 -31 66 -63 125 -64 189 -3 31 30 39 44 39 73 0 36 0 36 48 40 l47 3
-52 2 c-53 2 -53 2 -53 -28z"/>
<path d="M3555 4869 c-9 -14 0 -22 18 -17 13 2 13 5 2 15 -10 9 -16 9 -20 2z"/>
<path d="M1110 4855 c-7 -8 -9 -15 -5 -15 4 0 1 -8 -6 -17 -13 -17 -13 -17 7
0 11 9 21 24 21 32 0 19 -2 19 -17 0z"/>
<path d="M1035 4790 c-10 -11 -14 -20 -10 -20 5 0 -9 -19 -30 -42 l-40 -43 42
39 c24 22 40 42 38 45 -3 2 2 13 12 23 9 10 14 18 11 18 -3 0 -13 -9 -23 -20z"/>
<path d="M1534 4728 l-19 -23 23 19 c21 18 27 26 19 26 -2 0 -12 -10 -23 -22z"/>
<path d="M3523 4662 c-68 -63 -88 -92 -63 -92 6 0 24 10 40 22 22 16 26 24 18
30 -9 5 2 22 37 58 70 71 53 62 -32 -18z"/>
<path d="M3426 4657 c-17 -34 -46 -87 -66 -117 -66 -100 -64 -108 3 -14 37 51
103 182 96 189 -2 2 -17 -24 -33 -58z"/>
<path d="M4185 4664 c-56 -52 -57 -53 -10 -17 28 22 61 47 75 56 15 10 19 17
10 17 -8 0 -42 -25 -75 -56z"/>
<path d="M3195 4680 c-9 -16 -13 -30 -11 -30 3 0 12 14 21 30 9 17 13 30 11
30 -3 0 -12 -13 -21 -30z"/>
<path d="M929 4683 c-13 -16 -12 -17 4 -4 9 7 17 15 17 17 0 8 -8 3 -21 -13z"/>
<path d="M1670 4685 c0 -8 -7 -15 -16 -15 -11 0 -14 -8 -12 -32 4 -40 42 -58
83 -40 19 9 25 19 25 45 0 18 -5 38 -12 45 -18 18 -68 15 -68 -3z"/>
<path d="M2717 4682 c-46 -50 13 -114 74 -82 22 12 27 68 7 88 -18 18 -63 14
-81 -6z m73 -7 c10 -12 10 -18 0 -30 -15 -19 -31 -19 -55 -1 -24 17 -13 46 18
46 14 0 30 -7 37 -15z"/>
<path d="M4970 4569 c-47 -44 -112 -98 -144 -121 -85 -59 -134 -105 -170 -163
-18 -27 -65 -76 -104 -108 -63 -52 -75 -68 -117 -154 -25 -53 -59 -112 -76
-130 -16 -19 -29 -45 -29 -59 0 -15 -18 -49 -45 -83 -25 -31 -45 -61 -45 -65
0 -4 16 14 37 41 20 26 48 62 62 78 14 17 51 88 81 158 54 127 56 129 143 209
49 45 97 98 107 118 22 43 73 91 161 151 55 37 243 209 229 208 -3 0 -43 -36
-90 -80z"/>
<path d="M3543 4623 c4 -3 -3 -18 -15 -32 l-23 -26 27 24 c24 21 29 41 11 41
-4 0 -3 -3 0 -7z"/>
<path d="M1215 4596 c-16 -13 -34 -22 -39 -19 -5 4 -6 1 -3 -4 4 -6 -12 -27
-36 -47 -90 -76 -90 -75 -80 -104 4 -15 8 -63 8 -107 0 -69 -5 -89 -32 -147
-53 -112 -171 -218 -225 -203 -18 5 -20 4 -8 -4 11 -8 1 -11 -41 -11 -70 0
-97 -19 -140 -100 -17 -33 -52 -79 -78 -103 -103 -96 -134 -136 -127 -165 3
-15 12 -59 21 -99 8 -40 22 -134 30 -209 9 -74 22 -148 30 -164 8 -16 36 -46
62 -67 106 -87 139 -126 168 -206 23 -64 31 -77 49 -76 16 1 17 2 4 6 -9 2
-22 21 -29 41 -15 47 -53 121 -76 147 -10 12 -43 40 -73 64 -81 63 -100 92
-110 163 -5 35 -16 115 -25 178 -9 63 -23 141 -31 173 -16 64 -13 76 34 121
l30 28 12 -38 c19 -68 23 -129 11 -184 -8 -35 -8 -57 -1 -65 5 -6 34 -82 64
-168 49 -142 53 -158 38 -167 -13 -9 -10 -10 14 -5 28 5 37 0 100 -67 53 -56
77 -91 99 -146 23 -54 37 -74 57 -83 41 -17 106 -92 139 -162 34 -72 38 -138
13 -211 -16 -47 -16 -48 7 -69 l23 -22 -18 22 c-17 21 -18 25 -2 63 22 54 20
139 -3 201 -25 65 -89 148 -139 178 -32 20 -46 39 -73 100 -26 60 -47 90 -100
141 -71 70 -105 131 -176 318 -32 87 -34 98 -28 168 6 57 3 90 -11 145 l-18
70 51 47 c28 26 62 70 76 97 36 72 58 88 130 96 139 14 243 107 298 266 20 60
25 165 9 207 -13 34 -6 48 33 71 18 10 55 40 82 65 28 26 59 52 70 58 14 8 15
11 5 12 -8 0 -28 -11 -45 -24z"/>
<path d="M819 4583 c-8 -9 -14 -24 -14 -33 0 -10 -9 -28 -20 -41 -11 -13 0 -6
23 16 23 21 42 45 42 51 0 21 -17 25 -31 7z m21 3 c0 -2 -8 -10 -17 -17 -16
-13 -17 -12 -4 4 13 16 21 21 21 13z"/>
<path d="M2788 4555 c-73 -49 -108 -150 -75 -215 7 -14 11 -49 9 -80 -4 -51
-7 -57 -45 -85 -22 -16 -50 -46 -61 -66 -12 -20 -36 -56 -53 -79 -18 -24 -33
-48 -33 -53 0 -6 14 11 31 36 17 26 35 47 40 47 5 0 17 18 26 41 17 44 94 110
102 88 2 -7 -3 -17 -11 -23 -21 -16 -52 -66 -45 -73 8 -8 35 14 50 41 6 12 12
55 13 96 2 104 17 186 39 210 10 12 40 32 66 47 31 17 50 34 54 51 12 48 -48
57 -107 17z m87 -15 c0 -19 -11 -31 -51 -53 -60 -34 -84 -70 -84 -124 -1 -36
-2 -37 -15 -19 -21 28 -19 93 6 132 50 81 144 123 144 64z"/>
<path d="M5059 4533 l-24 -28 28 24 c25 23 32 31 24 31 -2 0 -14 -12 -28 -27z"/>
<path d="M3472 4528 c-5 -7 -24 -38 -42 -68 l-32 -55 44 40 c31 28 42 44 35
53 -6 8 -5 17 3 27 7 8 10 15 7 15 -2 0 -9 -6 -15 -12z"/>
<path d="M799 4483 l-24 -28 28 24 c25 23 32 31 24 31 -2 0 -14 -12 -28 -27z"/>
<path d="M1020 4470 c-24 -22 -42 -41 -39 -44 3 -3 25 15 49 39 54 55 50 57
-10 5z"/>
<path d="M4930 4452 c-25 -20 -57 -45 -70 -55 -24 -17 -24 -17 7 0 31 16 124
92 113 92 -3 0 -25 -17 -50 -37z"/>
<path d="M734 4448 l-19 -23 23 19 c21 18 27 26 19 26 -2 0 -12 -10 -23 -22z"/>
<path d="M3469 4433 l-34 -38 38 34 c34 33 42 41 34 41 -2 0 -19 -17 -38 -37z"/>
<path d="M2860 4435 c0 -8 2 -15 4 -15 2 0 6 7 10 15 3 8 1 15 -4 15 -6 0 -10
-7 -10 -15z"/>
<path d="M739 4413 l-24 -28 28 24 c25 23 32 31 24 31 -2 0 -14 -12 -28 -27z"/>
<path d="M560 4411 c-8 -6 -18 -7 -24 -4 -5 3 -6 2 -3 -4 7 -10 -39 -60 -51
-55 -9 3 -9 -27 -1 -30 4 -2 28 21 54 50 48 53 51 59 25 43z m-65 -70 c3 -5 2
-12 -3 -15 -5 -3 -9 1 -9 9 0 17 3 19 12 6z"/>
<path d="M694 4398 l-19 -23 23 19 c21 18 27 26 19 26 -2 0 -12 -10 -23 -22z"/>
<path d="M3996 4403 c-6 -14 -5 -15 5 -6 7 7 10 15 7 18 -3 3 -9 -2 -12 -12z"/>
<path d="M1204 4396 c-15 -40 21 -80 54 -60 37 24 21 74 -25 74 -13 0 -26 -6
-29 -14z"/>
<path d="M2875 4371 c-9 -22 -15 -45 -12 -53 4 -8 6 -7 6 5 1 10 8 32 17 48 8
17 14 33 11 35 -2 2 -12 -13 -22 -35z"/>
<path d="M564 4378 l-19 -23 23 19 c21 18 27 26 19 26 -2 0 -12 -10 -23 -22z"/>
<path d="M967 4370 c16 -21 33 -108 28 -146 -7 -56 -38 -129 -73 -174 l-36
-45 37 35 c94 87 122 252 54 323 -12 13 -16 16 -10 7z"/>
<path d="M3292 4360 c0 -14 2 -19 5 -12 2 6 2 18 0 25 -3 6 -5 1 -5 -13z"/>
<path d="M659 4353 c-29 -35 -41 -53 -36 -53 2 0 17 16 31 35 28 36 31 49 5
18z"/>
<path d="M3399 4353 c-13 -16 -12 -17 4 -4 16 13 21 21 13 21 -2 0 -10 -8 -17
-17z"/>
<path d="M3156 4345 c-9 -26 -7 -32 5 -12 6 10 9 21 6 23 -2 3 -7 -2 -11 -11z"/>
<path d="M3605 4309 c-47 -36 -66 -59 -48 -59 10 1 107 90 102 94 -2 2 -26
-14 -54 -35z"/>
<path d="M519 4323 c-13 -16 -12 -17 4 -4 9 7 17 15 17 17 0 8 -8 3 -21 -13z"/>
<path d="M659 4313 c-13 -16 -12 -17 4 -4 9 7 17 15 17 17 0 8 -8 3 -21 -13z"/>
<path d="M4765 4285 c-19 -37 -149 -166 -159 -159 -3 2 -4 1 -1 -2 2 -4 -8
-23 -22 -43 -15 -20 18 11 72 68 96 100 142 157 133 166 -2 2 -12 -11 -23 -30z"/>
<path d="M479 4273 c-13 -16 -12 -17 4 -4 9 7 17 15 17 17 0 8 -8 3 -21 -13z"/>
<path d="M599 4273 c-13 -16 -12 -17 4 -4 9 7 17 15 17 17 0 8 -8 3 -21 -13z"/>
<path d="M629 4273 c-13 -16 -12 -17 4 -4 9 7 17 15 17 17 0 8 -8 3 -21 -13z"/>
<path d="M3073 4190 c-44 -76 -72 -112 -100 -130 -26 -17 -47 -43 -66 -84 -15
-32 -26 -60 -24 -62 2 -2 19 17 37 44 19 26 81 102 137 170 57 67 99 122 94
122 -5 0 -11 10 -13 23 -2 17 -18 -3 -65 -83z"/>
<path d="M573 4238 c-15 -20 -25 -38 -20 -38 3 0 12 11 21 25 17 26 16 35 -1
13z"/>
<path d="M3509 4233 c-13 -16 -12 -17 4 -4 16 13 21 21 13 21 -2 0 -10 -8 -17
-17z"/>
<path d="M3259 4213 l-24 -28 28 24 c25 23 32 31 24 31 -2 0 -14 -12 -28 -27z"/>
<path d="M3304 4208 l-19 -23 23 19 c21 18 27 26 19 26 -2 0 -12 -10 -23 -22z"/>
<path d="M3143 4198 c-4 -7 -8 -20 -8 -28 0 -8 -7 -14 -15 -12 -12 3 -13 1 -2
-9 10 -11 17 -8 40 16 15 16 20 23 11 17 -20 -15 -33 -4 -18 15 6 7 9 13 6 13
-3 0 -9 -6 -14 -12z"/>
<path d="M3425 4138 c-33 -34 -53 -57 -45 -52 61 34 96 61 92 72 -2 7 2 19 8
27 26 31 3 11 -55 -47z"/>
<path d="M3679 4183 c-13 -16 -12 -17 4 -4 16 13 21 21 13 21 -2 0 -10 -8 -17
-17z"/>
<path d="M3190 4180 c0 -5 6 -10 14 -10 8 0 18 5 21 10 3 6 -3 10 -14 10 -12
0 -21 -4 -21 -10z"/>
<path d="M3184 4102 c-40 -37 -87 -85 -105 -107 -30 -36 -28 -35 22 11 30 28
65 55 77 58 12 4 22 15 22 24 0 9 14 31 32 49 53 55 28 36 -48 -35z"/>
<path d="M3491 4114 c-1 -7 -22 -36 -48 -65 l-46 -54 52 51 c31 30 51 57 48
65 -3 8 -6 9 -6 3z"/>
<path d="M290 4100 c-9 -6 -10 -10 -3 -10 6 0 15 5 18 10 8 12 4 12 -15 0z"/>
<path d="M3339 4093 c-13 -16 -12 -17 4 -4 16 13 21 21 13 21 -2 0 -10 -8 -17
-17z"/>
<path d="M3196 4042 l-19 -27 24 22 c12 12 21 24 18 27 -2 2 -13 -8 -23 -22z"/>
<path d="M4533 4058 c-15 -20 -25 -38 -20 -38 3 0 12 11 21 25 17 26 16 35 -1
13z"/>
<path d="M3271 3986 c-70 -75 -64 -82 9 -10 33 32 60 60 60 61 0 13 -25 -6
-69 -51z"/>
<path d="M4527 4007 c-16 -17 -26 -24 -23 -14 9 28 -2 19 -19 -15 -14 -29 -14
-31 0 -14 8 11 15 16 15 11 0 -11 39 25 51 47 14 26 8 22 -24 -15z"/>
<path d="M3249 3993 c-13 -16 -12 -17 4 -4 16 13 21 21 13 21 -2 0 -10 -8 -17
-17z"/>
<path d="M4564 3968 l-19 -23 23 19 c12 11 22 21 22 23 0 8 -8 2 -26 -19z"/>
<path d="M3089 3953 c-13 -16 -12 -17 4 -4 16 13 21 21 13 21 -2 0 -10 -8 -17
-17z"/>
<path d="M5017 3878 c-65 -65 -106 -115 -132 -163 -21 -38 -55 -89 -77 -112
-21 -24 -38 -48 -38 -55 0 -7 8 1 19 17 10 17 31 41 46 55 15 14 41 52 57 85
20 40 64 94 131 163 56 56 98 102 95 102 -4 0 -49 -42 -101 -92z"/>
<path d="M595 3950 c-4 -6 -11 -7 -17 -4 -7 4 -8 2 -4 -5 6 -9 11 -9 22 0 14
11 18 19 10 19 -3 0 -8 -5 -11 -10z"/>
<path d="M3431 3921 c-1 -35 -48 -89 -146 -170 -35 -28 -33 -27 20 7 56 37
184 169 151 156 -10 -4 -16 2 -19 18 -3 17 -5 14 -6 -11z"/>
<path d="M4514 3928 l-19 -23 23 19 c21 18 27 26 19 26 -2 0 -12 -10 -23 -22z"/>
<path d="M565 3910 c-4 -6 -10 -8 -15 -5 -5 3 -11 1 -14 -4 -8 -13 22 -7 36 7
7 7 9 12 6 12 -4 0 -10 -5 -13 -10z"/>
<path d="M3032 3887 c-35 -39 -35 -47 -3 -37 52 15 60 23 40 42 -16 15 -18 15
-37 -5z"/>
<path d="M2600 3881 c-14 -4 -48 -20 -77 -35 -29 -14 -64 -26 -77 -26 -79 0
-192 -78 -217 -150 -8 -22 -18 -29 -50 -34 -27 -4 -58 -22 -102 -59 -80 -68
-116 -138 -129 -250 -9 -73 -13 -86 -43 -117 -47 -49 -55 -77 -55 -189 0 -91
-2 -99 -25 -119 -15 -13 -25 -33 -25 -49 0 -49 -38 -110 -85 -138 -45 -26 -96
-89 -110 -135 -4 -14 -16 -36 -26 -49 -11 -13 -19 -34 -19 -46 0 -12 -9 -34
-20 -47 -10 -14 -24 -47 -30 -73 -6 -26 -20 -59 -30 -73 -11 -13 -20 -40 -20
-59 0 -18 -7 -45 -16 -59 -13 -19 -16 -41 -12 -107 5 -72 3 -88 -18 -129 -31
-62 -33 -152 -4 -209 13 -25 25 -37 33 -33 7 4 9 4 5 -1 -4 -4 9 -27 29 -51
36 -44 69 -56 79 -29 5 11 10 12 24 3 32 -20 47 5 55 93 3 45 10 91 15 103 9
23 9 23 30 -46 11 -35 33 -54 51 -42 12 7 11 114 -2 194 -8 49 -7 66 2 69 39
13 70 61 104 166 20 61 47 137 60 170 13 33 26 72 29 87 4 15 16 32 27 39 18
9 20 8 16 -8 -10 -34 -19 -250 -12 -282 4 -17 16 -36 28 -43 22 -11 22 -11 3
10 -17 20 -18 35 -14 174 3 84 10 164 16 178 11 25 9 -69 -3 -208 -4 -35 -2
-51 5 -47 5 3 10 21 10 38 l0 32 14 -27 c8 -16 16 -45 18 -65 2 -31 9 -41 40
-58 l37 -21 -36 -24 c-73 -50 -145 -19 -162 70 l-9 45 -1 -42 c-1 -57 44 -195
76 -234 15 -17 42 -38 59 -45 23 -10 34 -22 39 -44 4 -16 4 -34 1 -38 -15 -24
-26 -215 -27 -475 l-1 -288 28 -57 c37 -72 79 -102 146 -102 60 0 97 18 164
82 60 56 56 59 69 -46 13 -95 96 -145 159 -95 57 45 72 110 45 191 -16 47 -17
63 -8 80 21 39 16 119 -11 166 -22 39 -73 82 -96 82 -5 0 5 -8 21 -18 39 -24
85 -109 84 -153 l-1 -34 -8 38 c-4 21 -17 48 -28 60 l-21 21 21 -42 c20 -41
20 -45 4 -86 -37 -97 -116 -188 -136 -156 -5 9 5 23 34 44 53 41 70 77 70 148
1 49 -4 63 -38 113 -33 47 -37 58 -25 67 11 8 10 9 -4 4 -21 -7 -21 -19 4 147
l12 77 36 0 c30 0 43 -8 86 -54 29 -30 80 -96 116 -146 103 -147 101 -144 88
-176 -13 -34 -3 -277 12 -306 5 -10 16 -18 25 -18 13 0 13 3 0 23 -7 12 -17
47 -20 77 l-7 55 38 -37 c32 -31 47 -38 95 -44 31 -4 65 -3 75 2 12 5 -5 10
-54 14 -61 5 -79 11 -110 37 -34 27 -38 36 -41 81 l-3 51 33 -31 c47 -44 93
-61 168 -61 65 -1 124 20 175 62 12 10 11 5 -5 -13 -14 -15 -45 -40 -70 -54
-65 -38 -127 -35 -245 14 -18 7 -18 6 -6 -9 7 -9 31 -22 52 -29 22 -6 39 -14
39 -18 0 -11 105 -11 135 0 95 36 160 139 152 238 -17 209 -155 525 -302 691
-52 59 -85 125 -85 170 0 23 3 41 6 41 4 0 27 -18 51 -41 81 -74 179 -105 250
-78 15 5 47 29 70 51 35 35 44 39 57 28 9 -7 22 -10 30 -7 8 3 20 -1 27 -10
18 -21 93 -12 122 15 12 10 34 22 49 26 52 12 78 65 78 158 0 26 5 50 10 53
18 11 11 91 -10 116 -11 14 -19 18 -20 11 0 -7 7 -20 15 -28 9 -9 15 -33 14
-57 l0 -42 -13 46 c-6 25 -21 58 -33 75 -11 16 -32 53 -47 82 -15 29 -33 55
-41 58 -7 3 -33 45 -56 92 -59 122 -140 234 -206 284 -30 24 -64 50 -75 58
-18 14 -18 17 -4 51 16 38 41 239 33 268 -2 10 2 29 9 42 7 13 13 50 14 82 0
75 -27 107 -92 107 -24 0 -48 4 -54 8 -7 4 -26 37 -43 74 -38 80 -113 153
-199 194 -46 22 -74 28 -142 30 -47 2 -96 0 -110 -5z m243 -43 c65 -31 150
-111 186 -177 l24 -44 -34 26 c-66 50 -139 77 -204 76 l-60 -2 60 -7 c72 -8
156 -45 205 -90 l35 -32 -43 33 c-146 109 -313 105 -497 -11 l-80 -51 -6 36
c-3 19 -16 46 -29 60 l-22 24 33 45 c35 50 114 109 175 132 63 23 187 14 257
-18z m-397 -47 c-10 -10 -33 -22 -52 -26 -37 -6 -144 -99 -144 -123 0 -7 15
-12 35 -12 19 0 35 -4 35 -10 0 -11 -24 -13 -57 -4 -36 10 -30 56 14 105 39
43 79 68 128 80 53 13 60 11 41 -10z m-79 -94 c-37 -55 -45 -62 -69 -59 -16 3
-28 7 -28 11 0 21 99 100 137 110 2 1 -16 -27 -40 -62z m512 -46 c33 -10 83
-35 111 -56 64 -47 65 -56 1 -11 -66 45 -133 60 -235 53 -108 -7 -172 -29
-252 -83 -36 -25 -68 -43 -71 -40 -10 9 6 37 19 34 7 -1 33 11 58 28 133 92
243 114 369 75z m-473 -27 c18 -43 12 -86 -11 -78 -11 4 -15 21 -15 56 0 59
-15 56 -24 -6 -4 -24 -13 -47 -21 -50 -19 -7 -19 -7 6 59 24 65 44 70 65 19z
m-182 -3 c3 -5 -18 -23 -46 -39 -29 -16 -64 -42 -77 -56 -14 -14 -36 -26 -50
-27 l-26 -1 25 -7 c15 -4 20 -10 13 -14 -14 -9 -43 2 -43 16 0 18 113 117 145
126 41 12 53 13 59 2z m86 -39 c0 -10 -11 -33 -24 -51 -13 -17 -27 -51 -30
-74 -6 -38 -13 -48 -70 -89 -86 -62 -118 -116 -124 -213 -4 -66 -7 -74 -27
-79 -13 -3 -30 -9 -39 -12 -14 -5 -16 5 -17 67 -1 66 -2 70 -10 34 -4 -22 -8
-61 -8 -87 -1 -38 -6 -52 -28 -73 -15 -14 -30 -25 -33 -25 -3 0 -3 25 -2 55 3
43 0 56 -12 61 -27 10 -18 50 24 103 37 46 42 60 50 131 5 44 14 88 19 98 13
21 13 20 1 -52 -11 -71 0 -100 36 -93 28 5 33 -9 7 -18 -10 -3 -40 -26 -68
-52 -45 -41 -46 -43 -10 -17 105 74 104 72 99 133 -2 38 -1 48 4 31 7 -20 10
-10 14 43 5 60 10 73 39 104 56 59 117 93 166 93 35 0 43 -3 43 -18z m776 -17
c19 -47 17 -55 -6 -25 -18 23 -27 60 -14 60 3 0 12 -16 20 -35z m-408 3 c28
-28 1 -78 -44 -78 -17 0 -25 7 -30 25 -11 45 43 84 74 53z m532 -27 c5 -11 10
-45 10 -76 0 -74 -12 -95 -53 -95 l-32 0 3 59 c3 40 -1 69 -12 89 -9 17 -16
33 -16 37 0 3 20 5 45 5 34 0 47 -5 55 -19z m-670 -4 c0 -2 -17 -19 -37 -38
l-38 -34 34 38 c33 34 41 42 41 34z m-153 -37 c6 -14 14 -51 18 -82 7 -57 7
-58 -18 -58 -14 0 -31 -9 -38 -21 -21 -30 -64 -12 -73 31 -9 49 -7 109 5 131
10 20 11 20 32 2 16 -14 19 -14 9 -1 -10 13 -10 17 0 21 26 11 53 1 65 -23z
m39 -62 l3 -63 -9 62 c-5 35 -12 69 -16 75 -5 10 -4 10 6 1 8 -7 15 -39 16
-75z m611 -58 c3 -74 1 -90 -19 -125 -29 -50 -92 -94 -143 -101 l-40 -6 31 20
c81 52 131 160 121 261 -4 36 -3 49 3 36 18 -41 11 -133 -15 -198 l-25 -62 25
30 c36 44 48 98 42 190 -4 62 -3 75 6 60 6 -11 13 -58 14 -105z m-999 67 c2
-11 -2 -14 -17 -10 -22 5 -26 14 -14 27 10 10 28 1 31 -17z m1039 -39 c-2 -13
-4 -3 -4 22 0 25 2 35 4 23 2 -13 2 -33 0 -45z m-817 -20 c0 -7 -30 -35 -66
-62 -74 -56 -100 -99 -114 -184 l-9 -57 4 63 c5 90 36 146 114 205 68 51 71
53 71 35z m200 -32 c0 -23 -45 -69 -61 -64 -9 4 -5 9 13 16 16 7 30 22 34 37
7 28 14 33 14 11z m731 -137 c-12 -114 -27 -173 -42 -163 -5 3 -2 19 7 35 8
17 20 84 27 152 6 67 13 113 15 103 2 -11 -1 -68 -7 -127z m-914 107 c18 -20
19 -26 7 -47 -7 -13 -13 -33 -12 -44 0 -19 0 -20 5 0 9 34 35 65 54 65 11 0
19 -7 19 -15 0 -30 40 -94 89 -143 110 -110 303 -161 435 -116 26 9 64 33 83
52 l36 36 -7 -30 c-11 -43 -61 -90 -114 -105 -86 -25 -262 -14 -262 16 0 7
-21 20 -46 29 -110 37 -186 104 -215 188 -10 29 -18 43 -19 31 0 -22 -32 -48
-44 -36 -3 3 -6 2 -6 -4 0 -6 -20 -18 -44 -26 l-43 -15 7 35 c9 37 49 103 64
103 5 0 3 6 -3 13 -6 8 -8 17 -4 20 3 4 1 7 -5 7 -7 0 -12 -5 -12 -11 0 -6
-16 -29 -35 -50 -21 -24 -40 -60 -51 -96 -15 -54 -35 -83 -57 -83 -13 0 3 90
24 131 16 32 110 119 129 119 3 0 16 -11 27 -24z m888 -53 c-4 -43 -7 -95 -8
-115 -1 -38 -16 -43 -18 -5 -1 12 -5 3 -11 -21 -8 -35 -13 -42 -26 -37 -9 4
-24 9 -32 12 -9 2 -26 20 -39 39 l-25 35 27 55 c15 30 27 63 27 74 0 15 7 20
28 20 15 0 34 5 42 10 37 24 43 13 35 -67z m-643 50 c22 -20 23 -46 3 -63 -20
-17 -26 -10 -32 39 -6 45 0 50 29 24z m-71 -155 c116 -116 349 -162 459 -91
22 15 24 15 12 0 -20 -24 -99 -47 -162 -47 -104 0 -215 40 -296 106 -46 37
-104 118 -104 143 1 9 10 -2 21 -23 12 -21 43 -61 70 -88z m69 14 c60 -57 112
-82 197 -94 66 -10 89 -9 142 4 65 17 73 10 12 -11 -73 -24 -281 -2 -281 30 0
6 -4 7 -10 4 -22 -14 -126 64 -172 128 -30 42 -8 26 51 -36 27 -29 63 -60 79
-69 18 -11 3 9 -39 51 -38 38 -69 75 -69 82 0 8 12 -2 27 -21 15 -19 43 -50
63 -68z m70 -19 c0 -8 -38 17 -51 33 -9 11 -2 9 19 -6 17 -13 32 -25 32 -27z
m-217 -33 c28 -35 53 -58 59 -54 6 4 8 3 5 -3 -4 -6 5 -21 18 -33 26 -25 34
-46 13 -34 -7 4 -9 3 -5 -2 4 -4 18 -9 30 -10 12 -1 42 -11 67 -23 25 -11 34
-18 20 -14 -14 3 -31 6 -37 6 -7 0 -13 3 -13 7 0 4 -7 7 -15 7 -26 0 -4 -18
59 -48 33 -16 72 -29 86 -28 16 0 8 5 -23 13 -26 7 -51 17 -55 21 -4 5 1 5 10
2 10 -3 40 -9 68 -13 27 -4 48 -10 45 -13 -7 -13 129 7 173 24 23 10 53 31 67
47 l25 30 0 -70 c0 -39 3 -79 7 -89 6 -17 6 -17 -14 0 -11 9 -23 14 -28 10 -4
-5 -5 -3 -1 4 3 6 2 14 -4 18 -5 3 -10 -1 -10 -9 0 -14 -17 -16 -112 -16 -62
0 -153 7 -203 14 -131 20 -131 19 -137 -106 -3 -57 -4 -105 -2 -107 1 -2 32
-6 68 -8 64 -6 65 -6 43 -24 -18 -14 -20 -21 -11 -36 6 -10 20 -19 32 -21 16
-3 21 3 24 25 l4 28 12 -27 c6 -14 19 -31 29 -37 14 -8 7 -10 -34 -11 l-52 0
-6 -42 c-4 -24 -5 -63 -3 -88 l3 -45 75 -6 75 -5 -93 -2 c-79 -2 -95 -5 -110
-22 -9 -12 -17 -24 -18 -28 0 -4 -4 -15 -8 -25 -5 -9 -5 -29 -2 -43 6 -21 12
-25 39 -22 21 2 35 11 43 26 11 22 19 24 120 28 60 3 115 7 122 9 6 2 12 -1
12 -8 0 -7 3 -22 6 -33 5 -20 1 -22 -78 -28 -73 -5 -242 -10 -275 -7 -7 1 -17
10 -24 22 -9 17 -7 25 13 46 13 14 22 34 20 46 -5 30 -41 67 -66 67 -16 1 -6
15 47 63 42 39 67 69 66 82 l0 20 -9 -20 c-8 -18 -9 -18 -9 6 -1 28 -23 53
-58 63 -18 6 -32 -2 -67 -36 -80 -77 -113 -106 -166 -144 -51 -37 -52 -37 -86
-21 -31 15 -34 21 -35 59 -1 24 -3 62 -5 86 -2 23 -1 42 2 42 2 0 22 -9 44
-20 128 -66 264 38 289 219 8 65 -6 174 -30 234 -7 15 -9 30 -5 34 12 12 49
-92 50 -143 0 -29 5 -50 10 -47 7 5 4 83 -7 135 -4 23 -48 69 -58 62 -5 -3 -9
0 -9 7 0 7 -2 10 -5 7 -3 -3 3 -39 15 -79 24 -89 26 -204 4 -278 -29 -98 -124
-164 -211 -145 l-38 8 50 6 c122 15 185 100 185 252 0 105 -58 298 -89 298 -5
0 1 -19 14 -43 52 -92 74 -310 39 -380 -22 -43 -53 -76 -89 -94 -27 -15 -26
-12 12 26 57 57 76 112 71 198 -9 145 -78 283 -142 283 -14 0 -26 4 -26 10 0
12 65 24 87 16 10 -4 14 -4 10 0 -7 8 22 33 38 34 6 0 32 -27 58 -60z m252 12
c-3 -3 -11 0 -18 7 -9 10 -8 11 6 5 10 -3 15 -9 12 -12z m390 -12 c3 -5 1 -10
-4 -10 -6 0 -11 5 -11 10 0 6 2 10 4 10 3 0 8 -4 11 -10z m-55 -4 c0 -2 -7 -7
-16 -10 -8 -3 -12 -2 -9 4 6 10 25 14 25 6z m-705 -40 c18 -19 37 -53 43 -76
l10 -42 -35 41 c-47 56 -61 52 -18 -5 19 -25 35 -49 35 -54 0 -5 3 -17 6 -27
4 -10 -8 4 -26 31 -35 51 -109 112 -149 122 -24 7 -23 7 10 25 53 28 87 24
124 -15z m882 2 c-3 -7 -5 -2 -5 12 0 14 2 19 5 13 2 -7 2 -19 0 -25z m-314
15 c-13 -2 -33 -2 -45 0 -13 2 -3 4 22 4 25 0 35 -2 23 -4z m238 -67 c1 -17 1
-33 1 -36 0 -3 -3 -50 -6 -105 -4 -83 -3 -93 5 -60 6 22 12 88 13 147 l1 107
26 -17 c14 -9 41 -30 59 -45 l33 -28 -37 -38 c-42 -43 -44 -50 -13 -79 l24
-22 50 40 c28 22 54 40 58 40 4 0 -16 -18 -44 -41 -41 -33 -49 -44 -40 -55 12
-15 14 -14 76 28 41 28 63 35 63 21 0 -5 -23 -23 -50 -40 l-49 -33 28 -42 c15
-24 36 -58 47 -75 10 -18 22 -33 27 -33 11 0 11 -1 -37 84 -31 55 -36 70 -25
77 17 11 37 -14 75 -93 l27 -57 28 15 c37 19 36 20 59 -26 l20 -40 -22 0 c-13
-1 -41 -9 -63 -20 l-40 -19 60 1 c54 1 56 1 20 7 -39 6 -39 7 -12 14 43 12
101 -32 111 -85 4 -25 3 -26 -25 -16 -45 15 -125 5 -160 -21 -17 -13 -33 -21
-35 -18 -3 3 8 14 23 25 35 25 118 41 158 31 42 -12 41 -6 -5 26 -35 24 -46
27 -89 22 -62 -7 -122 -37 -153 -76 -33 -43 -66 -34 -75 22 -6 37 -7 39 -15
17 l-9 -24 -36 37 c-34 33 -36 38 -24 63 7 15 26 45 43 66 46 59 27 56 -26 -4
-38 -43 -46 -49 -46 -31 0 12 5 25 10 28 6 4 8 11 4 16 -3 5 -1 8 3 7 13 -4
83 59 83 74 0 7 -18 -6 -41 -27 l-40 -40 25 55 c34 73 33 98 -1 37 -33 -58
-41 -47 -18 23 9 28 15 56 13 62 -3 7 -13 -17 -23 -54 -10 -37 -15 -73 -12
-81 3 -8 0 -23 -7 -33 -11 -15 -14 11 -13 162 0 98 -3 190 -7 204 -7 24 -6 24
8 6 9 -11 17 -34 17 -50z m-1180 -13 c1 -35 -1 -66 -4 -70 -4 -3 -7 27 -7 67
0 88 7 90 11 3z m1144 -186 c1 -133 5 -251 10 -262 6 -16 6 -18 -6 -7 -30 28
-68 9 -79 -39 l-8 -34 -1 29 c-1 18 8 39 21 54 22 22 23 33 27 240 3 119 8
201 12 182 5 -29 7 -23 8 29 0 35 4 61 8 57 4 -4 8 -116 8 -249z m-892 219
c40 -16 118 -99 146 -154 36 -70 22 -188 -24 -205 -13 -6 -13 -3 1 18 27 41
21 112 -14 181 -17 32 -31 55 -31 49 -1 -5 10 -32 24 -59 31 -61 32 -106 3
-162 -20 -41 -49 -65 -32 -26 4 9 9 37 10 62 l3 45 -10 -39 c-19 -79 -79 -147
-72 -82 l4 31 -16 -35 c-9 -19 -47 -67 -85 -106 l-70 -71 -29 52 c-32 56 -88
106 -145 130 -51 21 -45 11 17 -28 82 -53 162 -156 139 -179 -7 -7 -17 2 -30
28 -18 35 -76 97 -126 135 -18 13 -18 12 -9 -6 6 -11 21 -29 32 -39 31 -28 79
-107 86 -141 6 -29 5 -28 -15 8 -24 44 -38 51 -15 7 8 -16 15 -33 15 -37 0
-12 -52 67 -54 83 -1 8 -5 13 -8 12 -4 -2 -17 7 -30 19 -23 22 -70 44 -91 42
-7 0 8 -9 32 -20 52 -23 51 -31 -4 -19 -22 5 -57 10 -77 10 -30 0 -38 4 -37
18 1 29 63 106 104 129 22 12 47 37 57 57 10 20 23 36 28 36 5 0 30 -18 55
-40 65 -56 71 -49 8 9 -29 26 -53 53 -53 59 0 26 22 19 91 -28 40 -27 75 -48
77 -45 5 4 -73 84 -103 105 -15 11 -14 7 5 -16 l25 -30 -30 31 c-29 29 -65 36
-65 13 0 -6 -3 -8 -6 -5 -12 11 26 57 46 57 11 0 20 5 20 10 0 6 7 10 16 10 9
0 12 -5 8 -12 -4 -7 -4 -10 1 -6 10 10 47 -11 40 -22 -7 -11 30 -32 39 -23 3
4 -4 18 -16 32 l-23 26 26 -23 25 -22 24 25 c21 22 22 28 10 36 -37 24 -53 30
-66 25 -11 -4 -11 1 3 27 9 17 16 36 15 40 -3 11 58 36 91 37 15 0 42 -6 60
-14z m434 -52 c21 -7 30 -13 20 -14 -25 0 -102 38 -124 62 -14 17 -9 15 24 -7
23 -15 59 -33 80 -41z m86 -61 c-7 -2 -19 -2 -25 0 -7 3 -2 5 12 5 14 0 19 -2
13 -5z m187 -3 c-14 -4 -56 -8 -95 -7 l-70 1 75 6 c111 9 119 9 90 0z m460
-23 c0 -2 -20 -18 -45 -36 -25 -18 -45 -30 -45 -27 0 6 79 66 87 66 1 0 3 -1
3 -3z m79 -110 c45 -69 49 -82 26 -91 -10 -4 -27 16 -56 65 -35 58 -40 72 -28
80 8 5 15 9 15 9 1 0 20 -28 43 -63z m-729 43 c0 -6 5 -8 11 -4 8 4 8 0 0 -15
-7 -11 -14 -21 -17 -21 -3 0 -2 6 2 13 5 8 2 8 -9 -2 -15 -12 -17 -11 -17 9 0
16 -4 20 -16 16 -9 -3 -29 -6 -45 -6 -38 0 -59 -41 -59 -115 0 -30 -4 -55 -10
-55 -11 0 -14 147 -4 173 7 18 164 25 164 7z m297 -16 c-3 -3 -12 -4 -19 -1
-8 3 -5 6 6 6 11 1 17 -2 13 -5z m-351 -28 c-3 -12 -6 -31 -6 -43 0 -20 -5
-23 -35 -23 -32 0 -35 2 -35 29 0 49 9 60 47 59 30 -1 34 -4 29 -22z m312 18
c42 -6 52 -10 52 -25 0 -14 -7 -19 -30 -19 -22 0 -30 -5 -30 -17 0 -10 -3 -28
-6 -40 -6 -21 -3 -23 29 -23 33 0 36 3 40 33 2 17 2 -4 0 -48 -3 -44 -8 -84
-12 -88 -4 -4 -66 -6 -137 -5 l-129 3 -3 118 -3 117 88 0 c48 0 112 -3 141 -6z
m-251 -141 c-2 -21 -4 -4 -4 37 0 41 2 58 4 38 2 -21 2 -55 0 -75z m-40 55
c-3 -8 -6 -5 -6 6 -1 11 2 17 5 13 3 -3 4 -12 1 -19z m-17 -54 c0 -2 -18 -4
-40 -4 -22 0 -40 3 -40 8 0 4 18 6 40 4 22 -2 40 -6 40 -8z m0 -79 c0 -8 -4
-15 -10 -15 -5 0 -10 7 -10 15 0 8 5 15 10 15 6 0 10 -7 10 -15z m-145 -45
c-3 -5 3 -10 14 -10 28 0 27 -24 -1 -42 -28 -18 -49 -13 -41 9 5 12 3 14 -8 8
-8 -5 -3 4 10 18 25 27 37 35 26 17z m751 -118 c15 -8 23 -24 26 -55 3 -25 13
-60 22 -78 13 -27 1 -18 -64 46 -88 87 -140 159 -140 194 0 20 9 15 68 -37 37
-33 77 -64 88 -70z m-1116 42 c5 -38 12 -79 16 -92 6 -21 4 -23 -22 -20 -27 3
-29 6 -28 48 1 54 14 144 20 138 2 -3 8 -36 14 -74z m1339 66 c-79 -14 -146
-63 -164 -121 -5 -16 -9 -18 -15 -8 -5 7 -3 24 6 40 26 52 116 99 184 97 32 0
31 -1 -11 -8z m-1704 -12 c44 -8 66 -20 92 -46 40 -39 73 -104 72 -142 0 -17
-6 -7 -18 28 -19 56 -67 114 -115 139 -20 10 -10 -3 31 -44 75 -74 91 -121 66
-200 -19 -61 -39 -71 -30 -16 12 69 -46 130 -130 138 l-48 4 44 -9 c60 -13
111 -62 111 -108 0 -18 5 -53 11 -77 8 -33 8 -48 -2 -66 -15 -27 -16 -31 -18
-58 0 -10 -10 -29 -22 -42 l-20 -24 3 37 c2 20 1 35 -3 32 -4 -2 -10 3 -13 12
-3 8 -2 13 2 10 7 -4 8 27 3 57 0 4 -19 25 -41 47 -32 32 -36 40 -21 40 30 0
63 -15 94 -43 15 -15 27 -22 27 -16 0 14 -46 59 -61 59 -6 0 -8 7 -4 18 4 13
3 14 -5 6 -8 -8 -24 -9 -52 -2 -43 9 -131 -2 -169 -22 -33 -18 -17 -21 26 -5
75 27 96 21 148 -41 26 -31 47 -60 47 -64 0 -19 -21 -19 -57 -1 -83 43 -184
51 -212 17 -10 -12 -5 -13 27 -9 22 3 48 0 58 -6 17 -9 15 -10 -11 -11 -17 0
-44 -4 -62 -9 -29 -8 -32 -7 -31 12 1 12 9 31 18 42 9 11 17 37 17 58 1 21 9
47 18 57 10 11 21 40 26 65 5 26 18 59 29 75 11 15 20 38 20 49 0 29 43 71 73
71 13 0 50 -5 82 -12z m1070 -19 c4 -12 1 -27 -8 -37 -9 -9 -19 -29 -22 -44
-7 -28 -8 -28 -91 -28 l-84 0 0 59 0 60 33 4 c17 2 62 5 99 5 59 2 67 0 73
-19z m313 -100 c28 -36 70 -83 94 -105 41 -38 53 -74 24 -74 -15 0 -177 214
-184 244 -6 26 -1 21 66 -65z m411 71 c19 -5 45 -20 59 -32 44 -42 50 -64 42
-178 -5 -76 -7 -88 -8 -45 -3 110 -52 162 -160 172 -71 7 -114 -12 -145 -64
-18 -31 -22 -33 -27 -17 -15 41 24 115 74 141 64 33 109 39 165 23z m-1107
-42 c-28 -28 -40 -16 -17 18 12 19 20 23 28 15 8 -8 5 -17 -11 -33z m-351
-180 c18 -15 28 -28 22 -28 -27 0 -45 15 -64 54 -17 35 -19 51 -12 116 l7 75
7 -94 c6 -92 7 -96 40 -123z m860 179 c-8 -8 -11 -7 -11 4 0 20 13 34 18 19 3
-7 -1 -17 -7 -23z m45 -23 c14 -98 6 -184 -17 -184 -6 0 -8 8 -5 18 4 10 2 43
-4 73 -8 39 -7 68 1 102 6 26 13 46 15 45 2 -2 6 -26 10 -54z m-146 32 c0 -2
-7 -9 -15 -16 -12 -10 -15 -10 -15 4 0 9 7 16 15 16 8 0 15 -2 15 -4z m-522
-67 c-24 -16 -43 -34 -43 -40 0 -7 -16 -20 -35 -30 -79 -40 -113 -19 -36 22
26 15 51 32 55 38 4 6 22 22 41 36 26 19 37 22 47 13 11 -9 5 -17 -29 -39z
m117 31 c-10 -11 -22 -20 -28 -20 -5 0 1 9 14 20 31 25 37 25 14 0z m470 -24
c7 -46 2 -85 -7 -56 -20 61 -25 100 -12 100 7 0 15 -18 19 -44z m-988 2 c-3
-8 -6 -5 -6 6 -1 11 2 17 5 13 3 -3 4 -12 1 -19z m420 -34 c-21 -20 -41 -33
-45 -30 -7 7 58 65 73 65 6 0 -7 -16 -28 -35z m1137 27 c22 -1 96 -72 96 -92
0 -9 -7 -6 -18 8 -43 53 -117 76 -177 53 -19 -7 -24 -7 -19 1 9 15 64 37 83
34 9 -2 24 -4 35 -4z m-726 -8 c-27 -2 -69 -2 -95 0 -27 2 -5 3 47 3 52 0 74
-1 48 -3z m301 -37 c-9 -8 -10 -7 -5 7 3 10 7 24 7 30 1 7 3 4 6 -7 3 -10 -1
-23 -8 -30z m107 -56 c33 -41 63 -84 68 -95 4 -11 4 -16 0 -12 -4 3 -20 -5
-36 -18 -16 -14 -36 -25 -44 -25 -38 0 -105 24 -133 48 l-31 27 25 53 c14 28
33 52 41 52 8 0 20 14 26 31 6 17 14 27 18 22 3 -4 33 -42 66 -83z m-1055 -1
c-9 -24 -9 -24 -25 13 -23 54 -20 66 9 37 21 -21 24 -30 16 -50z m329 67 c0
-2 -7 -7 -16 -10 -8 -3 -12 -2 -9 4 6 10 25 14 25 6z m1031 -16 c25 0 76 -58
95 -107 20 -51 8 -94 -32 -112 -44 -20 -46 -12 -5 27 37 35 40 41 32 69 -12
41 -25 65 -49 87 -20 18 -21 17 -53 -18 -41 -47 -86 -79 -99 -71 -7 4 10 30
42 63 31 32 47 57 40 60 -6 2 -12 9 -12 15 0 8 4 7 12 -1 7 -7 20 -12 29 -12z
m-1098 -49 c-5 -34 -2 -41 21 -56 24 -16 28 -16 51 -1 14 9 25 14 25 12 0 -2
3 -11 6 -20 5 -13 -2 -16 -37 -16 -53 0 -118 35 -100 53 18 18 13 29 -8 17
-11 -5 -37 -10 -58 -9 -29 0 -34 2 -18 8 69 28 120 49 122 50 0 1 -1 -17 -4
-38z m577 19 c0 -13 -7 -20 -20 -20 -12 0 -20 7 -20 16 0 10 6 14 15 10 8 -3
15 -1 15 4 0 6 2 10 5 10 3 0 5 -9 5 -20z m460 15 c0 -2 -22 -17 -48 -32 -27
-16 -47 -33 -45 -39 5 -14 -24 -26 -32 -14 -4 6 2 10 12 11 11 0 13 3 5 6 -16
6 66 73 91 73 9 0 17 -2 17 -5z m-622 -32 c-32 -2 -86 -2 -120 0 -35 2 -9 3
57 3 66 0 94 -1 63 -3z m708 -68 c-19 -16 -48 -42 -65 -56 -19 -16 -34 -23
-37 -17 -4 6 19 33 50 60 31 27 56 57 56 66 1 14 3 14 16 -3 14 -19 13 -22
-20 -50z m-480 -57 c76 -52 156 -58 208 -17 21 17 28 18 53 7 15 -7 29 -13 31
-14 10 -6 -22 -45 -52 -63 -43 -27 -79 -26 -141 3 -79 37 -195 151 -195 190 0
6 13 -9 29 -34 15 -25 46 -57 67 -72z m-836 32 c0 -10 -8 -28 -18 -40 -18 -22
-19 -22 -50 -6 -25 13 -32 23 -32 46 0 26 3 29 38 32 42 4 62 -7 62 -32z m105
30 c9 -15 -46 -90 -66 -90 -11 0 -19 -4 -19 -10 0 -5 5 -10 12 -10 6 0 -1 -13
-17 -30 -16 -16 -32 -30 -37 -30 -14 0 -9 57 6 69 8 7 18 26 21 42 6 25 9 27
26 18 11 -6 25 -9 32 -6 6 2 -1 10 -17 18 -48 23 -44 39 8 39 24 0 48 -4 51
-10z m40 -10 c10 -11 16 -20 13 -20 -3 0 -13 9 -23 20 -10 11 -16 20 -13 20 3
0 13 -9 23 -20z m1007 -22 c-7 -7 -12 -8 -12 -2 0 14 12 26 19 19 2 -3 -1 -11
-7 -17z m218 7 c0 -15 -55 -55 -75 -55 -9 1 63 70 72 70 1 0 3 -7 3 -15z
m-1203 -12 l21 -5 -18 -43 c-10 -24 -40 -76 -65 -115 -99 -149 -214 -161 -269
-28 -22 51 -21 53 22 53 20 1 46 5 56 10 18 8 19 5 12 -46 -5 -46 -4 -51 6
-33 7 12 36 42 64 67 l51 46 24 -22 23 -22 -21 25 -22 25 32 53 c23 37 36 50
47 46 8 -4 25 -9 37 -11z m556 -8 c10 -24 -54 -35 -238 -42 -192 -6 -296 6
-274 34 11 12 36 13 148 9 75 -3 174 -2 221 3 129 12 137 12 143 -4z m-1326
-21 c-3 -3 -12 -4 -19 -1 -8 3 -5 6 6 6 11 1 17 -2 13 -5z m40 -10 c-3 -3 -12
-4 -19 -1 -8 3 -5 6 6 6 11 1 17 -2 13 -5z m1313 -19 c0 -17 -53 -58 -101 -78
-88 -36 -224 -61 -339 -61 -116 0 -190 8 -190 23 0 4 6 15 13 24 11 16 19 16
116 2 176 -27 410 9 460 69 8 10 -3 7 -30 -8 -76 -43 -279 -64 -420 -46 -52 7
-95 14 -97 15 -5 4 31 75 38 75 4 0 42 -9 85 -20 94 -24 276 -27 375 -5 73 15
76 17 72 28 -1 5 2 6 8 2 5 -3 10 -12 10 -20z m-793 -77 c-3 -7 -5 -2 -5 12 0
14 2 19 5 13 2 -7 2 -19 0 -25z m-522 12 c14 -6 6 -8 -30 -7 -27 1 -63 -1 -80
-6 l-30 -7 25 15 c28 16 84 18 115 5z m1335 -74 c0 -2 -21 -18 -47 -36 -27
-19 -79 -63 -117 -100 -64 -60 -77 -65 -37 -15 16 20 16 20 -7 1 -12 -11 -49
-64 -82 -119 -41 -68 -60 -93 -60 -77 0 33 -43 85 -96 116 -59 35 -201 84
-239 83 -23 0 -16 -5 30 -18 109 -32 219 -83 252 -118 31 -33 50 -83 38 -103
-11 -19 -25 -10 -25 15 0 34 -79 113 -144 143 -66 31 -153 49 -169 33 -8 -8
-1 -11 31 -11 82 0 204 -63 242 -125 23 -37 25 -74 9 -177 -14 -91 -17 -98
-64 -125 -54 -30 -126 -36 -219 -18 -44 8 -81 13 -83 11 -2 -1 5 -10 14 -18
47 -41 210 -61 285 -36 l45 16 -9 -57 c-10 -66 -16 -86 -24 -78 -3 3 -18 1
-33 -5 -14 -5 -64 -19 -111 -29 l-85 -19 62 5 c34 2 84 13 112 24 27 10 52 16
55 13 9 -9 7 -69 -4 -97 -14 -37 -98 -124 -142 -146 -48 -24 -104 -24 -145 1
-58 35 -121 199 -82 212 8 3 9 10 3 23 -10 21 0 574 11 658 6 43 11 49 49 68
22 12 59 39 81 60 l41 39 69 -15 c161 -34 357 -8 490 63 l70 38 17 -39 c10
-22 18 -40 18 -41z m-1271 50 c15 -8 34 -23 42 -33 13 -17 13 -17 -6 -2 -11 9
-33 24 -50 32 -16 9 -26 16 -22 17 4 0 20 -6 36 -14z m-13 -26 c56 -27 64 -35
70 -66 5 -28 2 -38 -12 -49 -28 -21 -34 -18 -34 18 0 17 -4 37 -8 43 -15 23
-75 45 -139 51 -58 5 -64 8 -48 20 32 23 102 16 171 -17z m-70 -26 c67 -23 74
-30 74 -81 0 -40 -2 -43 -20 -33 -30 16 -130 23 -177 12 l-42 -10 32 64 c36
73 46 76 133 48z m1493 -179 c47 -69 117 -207 145 -283 14 -40 26 -75 26 -77
0 -3 -12 0 -26 5 -54 21 -168 -11 -272 -76 -59 -37 -45 -6 21 45 59 45 166 84
213 79 18 -2 30 0 28 4 -3 4 -29 9 -57 9 l-52 2 40 7 c31 5 36 8 22 14 -31 14
-147 -21 -207 -62 -30 -21 -54 -44 -52 -51 1 -7 -2 -10 -7 -7 -12 8 -41 -32
-41 -56 0 -25 -16 -30 -31 -11 -10 12 -10 14 -1 9 17 -10 15 -2 -8 44 -25 50
-35 52 -15 4 13 -31 13 -35 1 -24 -23 18 -49 96 -42 124 17 68 164 184 274
217 30 9 41 17 37 27 -4 10 0 12 12 8 14 -6 15 -4 6 5 -9 9 -23 9 -60 0 -60
-16 -195 -85 -219 -114 -19 -21 -18 -21 16 1 50 32 141 78 170 86 14 4 -6 -9
-45 -28 -78 -39 -173 -127 -203 -189 l-19 -38 -25 33 c-47 62 -50 74 -33 115
35 84 110 144 242 194 67 26 84 45 31 34 -56 -12 -191 -88 -234 -132 -23 -24
-50 -63 -60 -88 -19 -46 -28 -53 -39 -35 -12 19 53 105 125 163 39 33 111 78
163 102 50 24 82 44 71 45 -12 0 -51 -15 -87 -33 -77 -39 -76 -24 4 45 l52 45
55 -61 c30 -34 67 -79 81 -101z m-1531 68 c-10 -2 -28 -2 -40 0 -13 2 -5 4 17
4 22 1 32 -1 23 -4z m171 -35 c-9 -16 -14 -19 -17 -9 -2 7 2 17 9 22 8 5 10 9
6 9 -5 0 -5 5 -1 12 14 22 16 -9 3 -34z m-264 18 c-16 -7 -32 -11 -35 -9 -8 7
24 23 45 22 15 0 13 -3 -10 -13z m158 7 c-7 -2 -19 -2 -25 0 -7 3 -2 5 12 5
14 0 19 -2 13 -5z m-93 -27 c0 -58 -33 -104 -42 -58 -7 37 4 72 23 72 11 0 19
-6 19 -14z m83 8 c14 -5 14 -10 1 -46 -8 -22 -14 -60 -14 -84 0 -44 -12 -58
-24 -28 -13 33 -1 164 14 164 5 0 15 -3 23 -6z m-147 -39 c-4 -14 -11 -25 -16
-25 -15 0 -12 48 3 53 18 6 20 1 13 -28z m47 -87 c5 -37 3 -43 -12 -33 -13 8
-15 65 -2 65 5 0 11 -15 14 -32z m1554 26 c-3 -3 -12 -4 -19 -1 -8 3 -5 6 6 6
11 1 17 -2 13 -5z m211 -367 c10 -37 11 -51 2 -62 -20 -24 -94 -55 -181 -75
-83 -20 -83 -20 -24 -15 70 6 149 30 187 57 27 18 27 18 39 -3 18 -34 6 -115
-22 -146 -57 -61 -176 -90 -260 -62 -45 15 -99 56 -99 75 0 8 -4 12 -10 9 -6
-3 -10 4 -10 17 0 22 2 21 26 -10 37 -46 73 -62 146 -62 77 0 119 11 171 46
56 37 40 39 -34 4 -50 -23 -78 -30 -126 -30 -83 0 -107 11 -137 63 -37 63 -35
70 22 62 83 -11 277 44 290 83 2 6 -21 -2 -50 -18 -90 -48 -262 -67 -300 -33
-29 26 -22 50 20 64 20 7 47 19 59 27 63 40 138 62 208 59 l69 -2 14 -48z
m-768 -33 c0 -26 -63 -44 -147 -43 l-78 2 70 6 c59 6 85 14 153 50 1 0 2 -6 2
-15z m-293 -20 c-3 -3 -12 -4 -19 -1 -8 3 -5 6 6 6 11 1 17 -2 13 -5z m50 -10
c-3 -3 -12 -4 -19 -1 -8 3 -5 6 6 6 11 1 17 -2 13 -5z m324 -106 c15 -46 4
-120 -21 -150 l-20 -23 15 37 c18 44 19 58 5 58 -5 0 -10 -8 -10 -19 0 -33
-21 -79 -38 -83 -31 -8 -42 1 -31 28 5 14 9 46 9 72 0 56 14 86 23 50 11 -40
8 -88 -8 -121 l-16 -32 20 23 c29 34 36 97 16 157 -11 30 -13 51 -7 53 5 1 8
13 5 25 -8 37 45 -31 58 -75z m83 -202 c28 -87 -5 -163 -76 -181 -22 -6 -33
-1 -58 23 -42 43 -40 75 8 99 21 11 50 39 67 66 17 25 33 46 36 46 4 1 14 -23
23 -53z"/>
<path d="M2633 3741 c-55 -19 -119 -59 -150 -93 -10 -12 7 -3 37 20 79 59 122
74 230 82 l95 7 -80 1 c-54 1 -97 -5 -132 -17z"/>
<path d="M1913 3065 c0 -27 2 -38 4 -22 2 15 2 37 0 50 -2 12 -4 0 -4 -28z"/>
<path d="M2288 3428 c2 -35 9 -70 14 -78 6 -10 7 9 4 54 -3 38 -9 73 -14 78
-5 5 -6 -20 -4 -54z"/>
<path d="M3143 3260 c0 -30 2 -43 4 -27 2 15 2 39 0 55 -2 15 -4 2 -4 -28z"/>
<path d="M3419 2676 c-2 -3 -29 -7 -58 -11 -64 -7 -142 -38 -168 -67 -14 -16
-4 -13 38 11 44 25 74 33 135 39 44 4 78 11 77 17 -2 11 -17 18 -24 11z"/>
<path d="M3195 2540 c-27 -30 -12 -34 15 -5 13 14 19 25 13 25 -5 0 -18 -9
-28 -20z"/>
<path d="M1996 3014 c-23 -22 -20 -30 19 -54 30 -18 38 -20 51 -9 14 12 13 16
-12 36 -35 27 -20 31 15 4 l25 -19 -58 -62 c-31 -34 -55 -64 -53 -67 5 -4 120
112 125 127 3 7 -78 60 -92 60 -2 0 -12 -7 -20 -16z"/>
<path d="M2152 2743 c-5 -10 -6 -27 -2 -38 6 -16 8 -12 12 18 5 41 3 45 -10
20z"/>
<path d="M1906 2652 c-3 -6 1 -13 10 -16 23 -9 28 -2 10 13 -8 7 -17 8 -20 3z"/>
<path d="M1746 2614 c27 -14 65 -40 84 -57 31 -28 31 -27 -5 11 -42 46 -83 72
-111 72 -9 0 5 -12 32 -26z"/>
<path d="M1720 2468 c19 -5 52 -23 73 -39 40 -32 51 -26 15 9 -27 24 -71 42
-101 41 -15 -1 -11 -4 13 -11z"/>
<path d="M1658 2351 c13 -11 32 -30 43 -43 11 -13 17 -16 13 -8 -12 24 -37 51
-59 61 -17 9 -16 7 3 -10z"/>
<path d="M3412 2465 c-32 -7 -65 -24 -83 -41 -44 -42 -35 -52 11 -10 35 32 46
36 92 36 36 0 63 -7 93 -25 23 -13 45 -22 48 -19 3 3 13 -8 22 -26 9 -18 19
-30 21 -27 11 11 -39 89 -69 107 -37 23 -60 24 -135 5z m126 -22 c15 -16 21
-23 13 -16 -9 6 -30 19 -46 27 -19 10 -24 16 -13 16 10 0 30 -12 46 -27z"/>
<path d="M2350 2124 c0 -16 71 -44 110 -43 l45 1 -41 8 c-22 5 -57 15 -77 24
-21 8 -37 13 -37 10z"/>
<path d="M2827 2000 c-69 -54 -218 -99 -329 -100 -62 0 -73 -10 -33 -28 39
-18 125 -14 198 8 77 24 212 118 195 136 -3 2 -17 -5 -31 -16z"/>
<path d="M2320 1916 c0 -3 21 -20 48 -37 26 -18 39 -24 30 -13 -17 20 -78 59
-78 50z"/>
<path d="M2176 1902 c-3 -6 19 -13 50 -17 31 -4 74 -13 96 -21 47 -16 67 -18
53 -5 -27 24 -189 59 -199 43z"/>
<path d="M2100 1864 c0 -4 11 -19 25 -36 28 -33 31 -31 14 6 -11 22 -39 44
-39 30z"/>
<path d="M2295 1730 c11 -5 27 -9 35 -9 13 -1 13 0 0 9 -8 5 -24 9 -35 9 l-20
0 20 -9z"/>
<path d="M2145 1645 c48 -29 130 -58 148 -52 6 2 -1 8 -18 12 -16 4 -59 21
-94 36 -78 35 -88 37 -36 4z"/>
<path d="M2095 1561 c39 -45 115 -70 255 -84 22 -3 15 -4 -20 -5 -30 -1 -91 5
-135 13 -50 9 -83 11 -87 5 -5 -6 -6 -8 -3 -6 4 2 27 -3 52 -10 49 -15 226
-17 278 -4 28 7 28 8 5 9 -20 1 -22 3 -10 11 10 7 -13 10 -76 10 -94 0 -180
19 -224 49 -46 32 -56 35 -35 12z"/>
<path d="M2139 1266 c22 -12 61 -11 61 1 0 3 -9 3 -20 0 -11 -3 -20 -1 -20 4
0 5 -10 9 -22 9 l-23 -1 24 -13z"/>
<path d="M2100 1219 c0 -4 17 -12 38 -16 53 -11 249 -10 261 2 7 7 -22 9 -87
7 -53 -2 -123 1 -154 6 -32 5 -58 5 -58 1z"/>
<path d="M2385 1138 c-41 -16 -66 -19 -135 -16 -85 5 -85 5 -40 -9 40 -12 96
-13 168 -1 12 3 33 14 45 26 25 26 26 26 -38 0z"/>
<path d="M2070 1121 c0 -25 81 -109 121 -125 59 -24 144 -25 166 -3 16 16 15
16 -13 8 -36 -10 -121 2 -162 23 -31 16 -92 80 -92 96 0 6 -4 10 -10 10 -5 0
-10 -4 -10 -9z"/>
<path d="M2105 1120 c9 -14 103 -40 144 -39 30 0 25 3 -26 14 -34 7 -70 18
-82 24 -25 14 -44 14 -36 1z"/>
<path d="M1550 1930 c0 -6 7 -10 15 -10 8 0 15 2 15 4 0 2 -7 6 -15 10 -8 3
-15 1 -15 -4z"/>
<path d="M1590 1916 c0 -2 7 -7 16 -10 8 -3 12 -2 9 4 -6 10 -25 14 -25 6z"/>
<path d="M2853 1904 l-28 -25 33 22 c17 13 32 24 32 26 0 8 -11 1 -37 -23z"/>
<path d="M2975 1850 c3 -5 8 -10 11 -10 2 0 4 5 4 10 0 6 -5 10 -11 10 -5 0
-7 -4 -4 -10z"/>
<path d="M3044 1630 c-22 -5 -58 -15 -78 -24 -41 -17 -170 -115 -162 -123 3
-3 23 9 44 26 22 17 42 28 45 25 3 -3 31 9 62 27 32 18 85 43 119 55 62 23 49
29 -30 14z m-89 -55 c-32 -20 -60 -33 -62 -31 -6 5 97 66 111 66 6 0 -16 -16
-49 -35z"/>
<path d="M3230 1245 c-13 -14 -51 -39 -84 -55 -64 -32 -47 -42 19 -11 42 20
95 65 95 81 0 15 -4 13 -30 -15z"/>
<path d="M3100 3880 c0 -5 5 -10 10 -10 17 0 11 -22 -12 -49 -13 -14 -2 -8 25
13 49 40 57 49 33 40 -8 -3 -24 -1 -35 6 -14 7 -21 7 -21 0z"/>
<path d="M3473 3878 c-19 -25 -24 -38 -14 -38 11 0 35 39 28 46 -2 3 -9 -1
-14 -8z"/>
<path d="M535 3870 c-4 -6 -11 -7 -17 -4 -7 4 -8 2 -4 -5 6 -9 11 -9 22 0 14
11 18 19 10 19 -3 0 -8 -5 -11 -10z"/>
<path d="M5044 3811 c-57 -55 -73 -77 -83 -115 -13 -55 -59 -108 -136 -162
-30 -20 -55 -39 -55 -42 0 -2 12 4 28 14 15 10 93 58 175 107 l147 88 0 40 0
39 -55 -44 c-73 -60 -95 -72 -95 -51 0 29 21 58 88 128 37 37 64 67 62 67 -3
0 -37 -31 -76 -69z"/>
<path d="M479 3843 c-7 -10 -9 -15 -5 -11 5 4 15 3 22 -3 8 -7 14 -7 19 1 4 6
1 9 -7 8 -7 -2 -12 3 -10 10 3 17 -3 15 -19 -5z"/>
<path d="M3445 3820 c-3 -5 -2 -10 4 -10 5 0 13 5 16 10 3 6 2 10 -4 10 -5 0
-13 -4 -16 -10z"/>
<path d="M446 3802 c-3 -6 0 -15 8 -21 10 -9 17 -7 27 6 7 10 9 15 5 11 -5 -4
-15 -3 -22 3 -7 6 -14 6 -18 1z"/>
<path d="M830 3760 c0 -5 5 -10 10 -10 6 0 10 5 10 10 0 6 -4 10 -10 10 -5 0
-10 -4 -10 -10z"/>
<path d="M3540 3760 c-9 -6 -10 -10 -3 -10 6 0 15 5 18 10 8 12 4 12 -15 0z"/>
<path d="M3714 3728 l-19 -23 23 19 c12 11 22 21 22 23 0 8 -8 2 -26 -19z"/>
<path d="M4319 3733 c-13 -16 -12 -17 4 -4 16 13 21 21 13 21 -2 0 -10 -8 -17
-17z"/>
<path d="M3599 3710 c-14 -14 -41 -38 -60 -53 -19 -15 -28 -25 -20 -21 10 5
11 1 6 -17 l-8 -24 23 20 c25 22 94 115 89 118 -2 2 -16 -9 -30 -23z"/>
<path d="M410 3690 c-11 -22 -17 -40 -13 -40 5 0 16 18 25 40 21 52 14 52 -12
0z"/>
<path d="M3450 3679 c0 -5 5 -7 10 -4 6 3 10 8 10 11 0 2 -4 4 -10 4 -5 0 -10
-5 -10 -11z"/>
<path d="M4119 3623 c-14 -16 -38 -49 -53 -75 -19 -34 -47 -62 -99 -97 -40
-27 -81 -59 -92 -72 -18 -22 -17 -21 10 2 17 14 58 45 93 68 44 30 74 60 99
99 20 31 45 67 56 80 11 12 18 22 16 22 -3 0 -17 -12 -30 -27z"/>
<path d="M3479 3613 c-13 -16 -12 -17 4 -4 16 13 21 21 13 21 -2 0 -10 -8 -17
-17z"/>
<path d="M393 3570 c0 -25 2 -35 4 -22 2 12 2 32 0 45 -2 12 -4 2 -4 -23z"/>
<path d="M3434 3579 c-19 -22 -19 -22 4 -8 12 8 22 17 22 21 0 12 -6 9 -26
-13z"/>
<path d="M3542 3577 c-6 -7 -7 -19 -3 -26 6 -9 10 -6 14 10 8 28 3 34 -11 16z"/>
<path d="M1835 3541 c-3 -5 -1 -12 5 -16 5 -3 10 1 10 9 0 18 -6 21 -15 7z"/>
<path d="M4754 3511 c-5 -10 -46 -47 -92 -81 -110 -82 -189 -156 -209 -194 -9
-17 -22 -55 -29 -83 -10 -43 -10 -53 1 -53 8 0 13 16 13 46 2 72 38 122 159
219 58 47 118 93 134 102 15 9 30 26 33 37 7 27 1 31 -10 7z"/>
<path d="M5024 3443 c-49 -42 -129 -109 -179 -148 -49 -40 -97 -81 -106 -91
-9 -11 -41 -75 -73 -144 -31 -69 -63 -136 -69 -150 -11 -23 -206 -165 -214
-156 -3 2 22 42 55 87 32 46 76 116 97 154 21 39 55 95 75 125 20 30 49 78 65
105 16 28 76 99 134 159 l106 109 -60 -40 c-65 -44 -180 -160 -219 -221 -25
-40 -67 -80 -114 -108 -34 -19 -72 -73 -72 -100 0 -12 -18 -40 -40 -64 -22
-24 -45 -58 -52 -77 -7 -20 -17 -32 -25 -29 -7 3 -13 0 -13 -6 0 -6 -16 -28
-35 -49 -33 -36 -80 -117 -73 -124 2 -2 16 21 32 51 27 51 100 123 113 111 3
-3 0 -20 -6 -38 -12 -35 -8 -49 17 -49 10 0 3 -9 -18 -25 -33 -24 -59 -59 -60
-79 0 -5 10 6 23 25 13 20 76 71 152 121 l130 88 31 72 c17 40 51 114 76 163
39 78 55 97 109 140 35 27 118 94 184 149 66 55 122 101 124 103 2 2 2 5 -1 8
-2 3 -45 -30 -94 -72z m-514 -383 c0 -19 -36 -47 -47 -36 -6 6 29 55 40 56 4
0 7 -9 7 -20z"/>
<path d="M4205 3500 c-3 -6 1 -7 9 -4 18 7 21 14 7 14 -6 0 -13 -4 -16 -10z"/>
<path d="M4065 3458 l-40 -43 43 40 c39 36 47 45 39 45 -2 0 -21 -19 -42 -42z"/>
<path d="M3399 3443 c-13 -16 -12 -17 4 -4 16 13 21 21 13 21 -2 0 -10 -8 -17
-17z"/>
<path d="M4122 3372 c-43 -45 -59 -68 -51 -73 10 -6 10 -12 -1 -26 -8 -10 -2
-7 13 6 16 15 27 35 27 50 0 18 12 37 42 63 24 20 41 38 38 41 -3 2 -33 -25
-68 -61z"/>
<path d="M3359 3403 c-13 -16 -12 -17 4 -4 16 13 21 21 13 21 -2 0 -10 -8 -17
-17z"/>
<path d="M3994 3404 c-18 -14 -18 -15 4 -4 12 6 22 13 22 15 0 8 -5 6 -26 -11z"/>
<path d="M433 3365 c0 -27 2 -38 4 -22 2 15 2 37 0 50 -2 12 -4 0 -4 -28z"/>
<path d="M770 3394 c0 -8 5 -12 10 -9 6 4 8 11 5 16 -9 14 -15 11 -15 -7z"/>
<path d="M5035 3359 c-160 -109 -256 -200 -274 -260 -7 -24 -24 -62 -37 -85
-34 -58 -32 -72 13 -76 48 -4 69 -38 48 -77 -28 -51 -127 -142 -141 -129 -2 3
0 18 6 34 10 25 6 23 -27 -16 -62 -73 -81 -88 -152 -115 -89 -34 -111 -50
-111 -83 0 -48 -19 -97 -47 -119 -21 -17 -24 -23 -11 -23 19 0 53 41 91 110
27 50 78 90 114 90 13 0 22 4 19 9 -6 9 72 64 140 99 43 22 78 56 118 117 31
47 32 71 6 105 -26 33 -26 94 1 136 21 35 179 187 186 180 3 -2 -33 -48 -79
-101 -102 -118 -108 -131 -80 -178 35 -56 26 -115 -30 -187 -12 -15 -17 -33
-14 -46 5 -19 -7 -33 -69 -83 -41 -34 -77 -61 -79 -61 -3 0 1 18 9 40 13 36 6
56 -10 30 -3 -6 -23 -19 -43 -30 -20 -10 -31 -19 -24 -20 7 0 24 7 37 16 33
21 31 14 -7 -41 -26 -36 -38 -45 -62 -45 -25 0 -44 -15 -111 -86 -44 -47 -87
-86 -95 -88 -8 -2 -34 -11 -57 -21 l-42 -18 19 -25 c27 -33 25 -69 -5 -117
-13 -22 -25 -53 -25 -68 0 -15 -7 -44 -15 -65 -9 -20 -13 -47 -10 -60 3 -14 0
-24 -9 -28 -8 -3 -27 -24 -42 -47 -16 -23 -48 -63 -71 -89 -24 -26 -52 -67
-62 -90 -10 -24 -33 -60 -50 -82 -17 -21 -31 -40 -31 -41 0 -2 33 30 73 70 43
43 96 84 132 103 64 32 79 51 115 142 12 30 35 76 52 103 16 26 40 66 52 90
14 28 28 42 41 42 30 0 30 -37 2 -87 -15 -27 -27 -67 -31 -106 -3 -35 -11 -72
-17 -84 -22 -41 -93 -109 -145 -139 -30 -17 -61 -40 -69 -52 -18 -26 -20 -94
-3 -99 10 -4 9 -11 -2 -34 -8 -16 -16 -32 -18 -36 -2 -5 0 -8 5 -8 4 0 28 34
53 76 26 45 60 87 82 103 27 19 39 36 44 61 7 42 49 106 121 182 67 71 70 93
6 35 l-23 -20 0 28 c0 18 11 40 29 60 16 16 59 88 95 159 53 101 66 135 61
157 -14 61 48 125 156 161 50 17 73 32 113 75 28 30 94 84 146 119 142 96 131
84 128 149 l-3 56 -74 -51 c-92 -63 -123 -61 -82 6 14 24 37 38 89 58 69 27
70 28 61 55 -8 24 -14 27 -45 25 -20 -2 -32 1 -29 6 9 15 -5 12 -22 -5 -8 -8
-19 -13 -24 -10 -5 4 -9 0 -9 -9 0 -8 -6 -16 -12 -19 -16 -5 -38 54 -26 70 5
6 5 14 -1 17 -14 9 10 65 31 72 10 3 18 12 18 20 0 8 9 14 20 14 22 0 25 7 11
29 -11 18 5 59 33 86 34 32 53 59 60 83 11 33 -10 28 -79 -19z m-96 -374 c0
-16 -39 -59 -46 -51 -4 4 -2 16 5 26 15 24 15 33 2 25 -14 -9 -13 18 2 33 9 9
14 7 24 -6 8 -9 13 -21 13 -27z m-520 -577 c-6 -23 -12 -45 -15 -50 -6 -9 -71
-38 -85 -38 -21 0 -5 27 32 53 22 15 45 38 51 52 18 39 27 29 17 -17z m-94
-184 c-14 -32 -25 -67 -25 -76 0 -9 -5 -20 -11 -23 -22 -14 15 118 43 152 20
24 18 8 -7 -53z m-103 -136 c-6 -6 -7 0 -4 19 5 21 7 23 10 9 2 -10 0 -22 -6
-28z"/>
<path d="M3899 3343 c-13 -16 -12 -17 4 -4 16 13 21 21 13 21 -2 0 -10 -8 -17
-17z"/>
<path d="M3285 3306 c-35 -46 -24 -60 15 -20 20 19 27 33 21 43 -6 10 -15 4
-36 -23z"/>
<path d="M670 3320 c0 -5 7 -10 15 -10 8 0 15 5 15 10 0 6 -7 10 -15 10 -8 0
-15 -4 -15 -10z"/>
<path d="M411 3258 c-8 -35 -8 -64 -2 -86 11 -38 56 -118 71 -127 6 -4 -3 15
-20 42 -42 66 -53 111 -40 169 6 25 9 49 6 51 -2 3 -9 -19 -15 -49z"/>
<path d="M4562 3268 c-24 -26 -44 -92 -21 -70 7 6 21 12 30 12 9 0 23 7 30 17
13 15 12 15 -8 5 -48 -26 -61 2 -17 37 15 12 22 21 17 21 -5 0 -19 -10 -31
-22z"/>
<path d="M4617 3270 c-3 -11 -3 -20 -1 -20 2 0 8 9 14 20 6 11 7 20 2 20 -6 0
-12 -9 -15 -20z"/>
<path d="M3995 3262 c-12 -9 -27 -26 -35 -37 -8 -11 3 -4 23 14 33 32 42 41
35 41 -2 0 -12 -8 -23 -18z"/>
<path d="M3448 3243 c-18 -21 -31 -43 -25 -43 2 0 13 14 25 30 25 33 24 41 0
13z"/>
<path d="M3821 3244 c0 -11 3 -14 6 -6 3 7 2 16 -1 19 -3 4 -6 -2 -5 -13z"/>
<path d="M262 3225 c0 -16 2 -22 5 -12 2 9 2 23 0 30 -3 6 -5 -1 -5 -18z"/>
<path d="M4509 3223 c-13 -16 -12 -17 4 -4 9 7 17 15 17 17 0 8 -8 3 -21 -13z"/>
<path d="M3977 3192 c-10 -11 -14 -26 -10 -40 4 -16 -1 -30 -17 -47 -12 -13
-20 -29 -18 -36 4 -13 108 116 108 134 0 6 -6 4 -12 -5 -7 -9 -24 -19 -38 -23
-25 -8 -25 -8 -6 14 11 11 17 21 14 21 -3 0 -12 -8 -21 -18z"/>
<path d="M3762 3133 c-26 -38 -34 -53 -29 -53 2 0 16 18 31 40 29 45 28 56 -2
13z"/>
<path d="M83 3105 c0 -22 2 -30 4 -17 2 12 2 30 0 40 -3 9 -5 -1 -4 -23z"/>
<path d="M271 3116 c-1 -24 29 -137 40 -150 4 -4 -1 23 -11 60 -10 38 -20 78
-23 89 -4 19 -5 19 -6 1z"/>
<path d="M3485 3100 c-14 -16 -20 -17 -27 -8 -6 10 -8 10 -8 -1 0 -8 -12 -30
-27 -50 -20 -28 -13 -24 30 19 32 30 57 56 57 57 0 7 -8 1 -25 -17z"/>
<path d="M1655 3090 c-4 -6 -3 -16 3 -22 6 -6 12 -6 17 2 4 6 3 16 -3 22 -6 6
-12 6 -17 -2z"/>
<path d="M4369 3063 c-40 -34 -59 -80 -58 -135 2 -32 3 -35 6 -13 9 80 15 95
54 134 47 47 46 54 -2 14z"/>
<path d="M4420 3070 c-6 -11 -8 -20 -6 -20 3 0 10 9 16 20 6 11 8 20 6 20 -3
0 -10 -9 -16 -20z"/>
<path d="M90 3044 c0 -10 5 -26 10 -34 8 -11 9 -7 4 15 -8 37 -14 45 -14 19z"/>
<path d="M3702 3037 c-6 -7 -15 -31 -20 -54 -5 -22 -28 -67 -51 -99 -22 -31
-41 -61 -41 -66 0 -20 91 126 110 174 20 54 21 68 2 45z"/>
<path d="M3770 3040 c0 -5 4 -10 9 -10 6 0 13 5 16 10 3 6 -1 10 -9 10 -9 0
-16 -4 -16 -10z"/>
<path d="M71 3024 c0 -11 3 -14 6 -6 3 7 2 16 -1 19 -3 4 -6 -2 -5 -13z"/>
<path d="M525 2990 c21 -22 41 -40 44 -40 3 0 -13 18 -34 40 -21 22 -41 40
-44 40 -3 0 13 -18 34 -40z"/>
<path d="M110 2983 c0 -15 52 -135 57 -130 2 2 -10 35 -26 73 -17 38 -30 64
-31 57z"/>
<path d="M201 2824 c0 -11 3 -14 6 -6 3 7 2 16 -1 19 -3 4 -6 -2 -5 -13z"/>
<path d="M1450 2830 c0 -5 5 -10 10 -10 6 0 10 5 10 10 0 6 -4 10 -10 10 -5 0
-10 -4 -10 -10z"/>
<path d="M166 2813 c-6 -14 -5 -15 5 -6 7 7 10 15 7 18 -3 3 -9 -2 -12 -12z"/>
<path d="M181 2784 c0 -11 3 -14 6 -6 3 7 2 16 -1 19 -3 4 -6 -2 -5 -13z"/>
<path d="M4515 2732 c-27 -21 -72 -47 -99 -58 -32 -12 -55 -29 -65 -48 -9 -16
-31 -48 -48 -72 -36 -49 -98 -167 -137 -264 -44 -107 -23 -76 38 58 32 70 83
164 113 210 50 74 62 87 117 113 33 16 79 45 101 64 53 46 42 44 -20 -3z"/>
<path d="M221 2744 c0 -11 3 -14 6 -6 3 7 2 16 -1 19 -3 4 -6 -2 -5 -13z"/>
<path d="M91 2734 c0 -11 3 -14 6 -6 3 7 2 16 -1 19 -3 4 -6 -2 -5 -13z"/>
<path d="M211 2654 c0 -11 3 -14 6 -6 3 7 2 16 -1 19 -3 4 -6 -2 -5 -13z"/>
<path d="M4176 2600 c-14 -34 -26 -67 -26 -73 0 -7 14 19 30 57 16 38 28 71
26 73 -2 2 -15 -24 -30 -57z"/>
<path d="M5076 2560 c-28 -39 -52 -58 -115 -89 -55 -28 -92 -55 -124 -92 -46
-52 -156 -249 -139 -249 5 0 34 27 65 59 51 53 57 64 57 102 0 76 40 118 170
180 50 24 85 60 124 127 18 30 -5 7 -38 -38z"/>
<path d="M221 2584 c0 -11 3 -14 6 -6 3 7 2 16 -1 19 -3 4 -6 -2 -5 -13z"/>
<path d="M231 2544 c0 -11 3 -14 6 -6 3 7 2 16 -1 19 -3 4 -6 -2 -5 -13z"/>
<path d="M4142 2480 c0 -19 2 -27 5 -17 2 9 2 25 0 35 -3 9 -5 1 -5 -18z"/>
<path d="M5075 2440 c-30 -49 -52 -71 -119 -114 -51 -34 -99 -76 -129 -114
-26 -32 -78 -83 -115 -112 -103 -82 -180 -159 -224 -225 l-40 -60 43 46 c24
25 85 73 134 107 53 36 120 94 162 140 47 52 117 111 202 172 l131 92 0 64 c0
35 -2 64 -4 64 -3 0 -21 -27 -41 -60z"/>
<path d="M4060 2450 c0 -5 5 -10 10 -10 6 0 10 5 10 10 0 6 -4 10 -10 10 -5 0
-10 -4 -10 -10z"/>
<path d="M4064 2363 c-25 -33 -46 -73 -40 -73 2 0 15 17 27 38 13 20 27 43 32
50 15 23 1 12 -19 -15z"/>
<path d="M3846 2363 c-6 -14 -5 -15 5 -6 7 7 10 15 7 18 -3 3 -9 -2 -12 -12z"/>
<path d="M332 2340 c0 -14 2 -19 5 -12 2 6 2 18 0 25 -3 6 -5 1 -5 -13z"/>
<path d="M321 2294 c0 -11 3 -14 6 -6 3 7 2 16 -1 19 -3 4 -6 -2 -5 -13z"/>
<path d="M1080 2295 c0 -3 20 -10 44 -16 56 -14 123 -70 135 -112 7 -25 9 -27
10 -9 1 34 -72 108 -126 126 -49 17 -63 19 -63 11z"/>
<path d="M312 2245 c0 -16 2 -22 5 -12 2 9 2 23 0 30 -3 6 -5 -1 -5 -18z"/>
<path d="M1892 2240 c0 -14 2 -19 5 -12 2 6 2 18 0 25 -3 6 -5 1 -5 -13z"/>
<path d="M3808 2229 c-24 -13 -23 -56 1 -69 42 -22 77 25 45 61 -20 22 -22 22
-46 8z"/>
<path d="M271 2194 c0 -11 3 -14 6 -6 3 7 2 16 -1 19 -3 4 -6 -2 -5 -13z"/>
<path d="M302 2185 c0 -16 2 -22 5 -12 2 9 2 23 0 30 -3 6 -5 -1 -5 -18z"/>
<path d="M126 2147 c3 -10 9 -15 12 -12 3 3 0 11 -7 18 -10 9 -11 8 -5 -6z"/>
<path d="M230 2154 c0 -23 48 -80 98 -118 41 -31 60 -55 88 -112 l36 -73 -35
-78 c-48 -105 -52 -129 -26 -177 18 -33 20 -49 14 -111 -4 -43 -3 -75 2 -78 6
-4 8 3 6 16 -3 13 0 46 5 74 7 42 6 56 -9 84 -27 51 -23 99 17 190 l36 82 -40
81 c-34 67 -50 88 -96 121 -30 21 -64 55 -75 75 -11 19 -21 30 -21 24z"/>
<path d="M310 2141 c0 -6 4 -13 10 -16 6 -3 7 1 4 9 -7 18 -14 21 -14 7z"/>
<path d="M1261 2109 c-1 -15 8 -34 20 -45 28 -25 59 -87 59 -117 0 -26 -22
-52 -33 -40 -4 3 -7 1 -7 -5 0 -7 4 -12 9 -12 15 0 41 -66 41 -105 0 -43 -12
-68 -54 -114 -30 -33 -30 -34 -4 -18 l26 16 -5 -32 c-8 -56 -7 -61 23 -82 16
-11 53 -45 83 -75 l53 -55 -42 52 c-23 29 -57 62 -76 75 -39 27 -41 39 -14
108 24 61 26 158 5 201 -12 23 -13 34 -4 50 17 33 4 84 -34 137 -19 26 -37 56
-40 67 -4 16 -5 15 -6 -6z"/>
<path d="M4095 2110 c-3 -5 -18 -11 -33 -11 -17 -1 -21 -3 -9 -6 9 -2 17 -8
17 -12 0 -13 -45 -65 -154 -176 -110 -112 -179 -198 -169 -209 4 -3 21 16 39
42 21 32 46 54 74 67 34 15 46 29 65 71 13 28 42 69 65 90 36 34 126 154 115
154 -2 0 -7 -4 -10 -10z"/>
<path d="M2018 2103 c7 -3 16 -2 19 1 4 3 -2 6 -13 5 -11 0 -14 -3 -6 -6z"/>
<path d="M3922 2078 c-17 -17 -15 -45 5 -53 21 -8 55 29 46 50 -6 18 -35 19
-51 3z"/>
<path d="M4919 2032 c-113 -55 -129 -68 -176 -142 -19 -30 -41 -60 -50 -67 -8
-6 -15 -27 -16 -46 -1 -19 -5 -33 -8 -31 -4 2 -25 -16 -48 -41 -36 -39 -41
-51 -41 -91 0 -47 23 -99 47 -109 9 -3 11 -1 6 8 -13 21 -2 128 17 160 11 17
17 34 14 39 -3 4 -1 8 4 8 4 0 18 22 31 49 12 27 50 78 84 113 61 62 65 64
130 74 58 9 70 8 78 -5 8 -13 9 -13 6 -1 -2 8 16 36 40 63 76 82 28 90 -118
19z"/>
<path d="M270 2026 c0 -2 8 -10 18 -17 15 -13 16 -12 3 4 -13 16 -21 21 -21
13z"/>
<path d="M5074 2003 c-16 -15 -31 -26 -34 -24 -2 1 -6 -3 -8 -11 -3 -10 -2
-10 6 1 8 11 10 11 15 0 4 -10 6 -10 6 -1 1 6 12 12 25 12 22 0 36 16 36 41 0
16 -16 10 -46 -18z"/>
<path d="M3470 1902 c-18 -14 -21 -25 -16 -45 9 -38 53 -48 78 -17 23 28 23
35 -2 60 -25 25 -32 25 -60 2z"/>
<path d="M411 1864 c0 -11 3 -14 6 -6 3 7 2 16 -1 19 -3 4 -6 -2 -5 -13z"/>
<path d="M4574 1855 c-3 -8 -43 -35 -89 -59 -45 -25 -93 -55 -106 -67 l-24
-21 30 18 c17 10 63 36 104 59 41 23 81 51 89 63 8 12 11 22 8 22 -4 0 -9 -7
-12 -15z"/>
<path d="M3244 1805 c-10 -25 4 -45 30 -45 27 0 42 26 25 46 -15 19 -48 18
-55 -1z"/>
<path d="M4604 1738 l-29 -33 33 29 c17 17 32 31 32 33 0 8 -8 1 -36 -29z"/>
<path d="M341 1684 c0 -11 3 -14 6 -6 3 7 2 16 -1 19 -3 4 -6 -2 -5 -13z"/>
<path d="M3695 1685 c-17 -7 -49 -28 -71 -46 -63 -52 -225 -199 -218 -199 3 0
53 42 111 93 148 130 159 139 195 146 18 4 28 10 23 13 -6 3 -24 0 -40 -7z"/>
<path d="M4415 1616 c-68 -32 -105 -62 -159 -128 -34 -42 -57 -60 -84 -68 -69
-18 -116 -86 -155 -221 -9 -31 -38 -89 -65 -130 -27 -41 -61 -96 -77 -124 -37
-66 -97 -128 -170 -177 -87 -59 -103 -75 -142 -151 -27 -51 -51 -79 -99 -117
-35 -27 -68 -60 -75 -72 -8 -17 -2 -13 24 12 19 19 57 54 84 77 30 25 62 65
79 98 28 57 105 137 111 118 2 -6 -5 -26 -16 -44 -12 -19 -21 -42 -21 -52 0
-36 -31 -77 -78 -103 -60 -35 -122 -83 -122 -95 0 -5 19 5 42 21 23 17 73 40
111 52 82 25 101 40 169 140 29 42 81 116 114 165 93 134 124 201 124 269 0
64 47 218 82 267 12 16 44 40 72 52 36 16 70 44 114 94 49 55 79 78 135 105
40 19 68 35 62 35 -5 0 -32 -11 -60 -23z m-551 -802 c-15 -19 -54 -49 -85 -65
-32 -16 -63 -38 -69 -50 -7 -11 -14 -18 -17 -15 -10 10 27 45 112 107 43 33
81 59 83 59 1 0 -9 -16 -24 -36z"/>
<path d="M342 1610 c0 -14 2 -19 5 -12 2 6 2 18 0 25 -3 6 -5 1 -5 -13z"/>
<path d="M1800 1619 c0 -5 5 -7 10 -4 6 3 10 8 10 11 0 2 -4 4 -10 4 -5 0 -10
-5 -10 -11z"/>
<path d="M3848 1593 c7 -3 16 -2 19 1 4 3 -2 6 -13 5 -11 0 -14 -3 -6 -6z"/>
<path d="M3755 1566 c-52 -24 -103 -74 -131 -129 -9 -17 -29 -47 -45 -64 -15
-18 -31 -50 -35 -70 -10 -58 -61 -151 -92 -169 -15 -10 -52 -33 -82 -53 -30
-20 -77 -48 -105 -63 -38 -21 -45 -27 -27 -28 12 0 25 -7 28 -15 5 -11 16 -4
46 30 22 25 49 50 60 56 12 6 -7 -21 -41 -61 -34 -40 -60 -75 -57 -78 10 -9
74 57 113 116 20 29 50 60 67 69 17 9 56 33 86 53 30 21 78 49 105 63 28 14
61 37 74 51 16 17 35 26 56 26 41 0 71 23 97 73 11 23 39 67 60 98 36 50 38
58 27 82 -16 35 -38 34 -111 -5 -41 -22 -84 -58 -132 -111 -39 -43 -93 -94
-119 -113 -45 -33 -48 -34 -42 -12 4 13 20 39 36 58 16 19 40 56 54 82 29 54
74 92 142 118 26 11 41 19 33 19 -8 1 -38 -10 -65 -23z m162 -23 c5 -13 -83
-121 -123 -152 -42 -33 -53 -12 -24 49 25 54 49 80 95 104 32 17 47 16 52 -1z"/>
<path d="M1890 1570 c0 -5 5 -10 10 -10 6 0 10 5 10 10 0 6 -4 10 -10 10 -5 0
-10 -4 -10 -10z"/>
<path d="M4496 1545 c-16 -9 -46 -31 -67 -50 -21 -19 -57 -44 -80 -55 -73 -38
-189 -163 -189 -204 0 -6 18 17 39 50 21 34 49 68 62 77 20 15 25 15 50 0 27
-16 29 -16 54 7 36 34 42 18 7 -21 -16 -19 -38 -55 -49 -80 -17 -38 -31 -51
-84 -81 -89 -49 -120 -91 -218 -300 -32 -67 -54 -99 -103 -145 -97 -91 -158
-155 -158 -164 0 -13 242 164 345 252 56 49 75 59 100 57 26 -3 30 -8 33 -35
3 -26 -3 -36 -28 -54 -21 -16 -34 -38 -42 -66 -7 -31 -21 -52 -50 -74 -21 -17
-50 -54 -65 -83 -14 -28 -37 -61 -52 -74 -16 -14 -20 -22 -11 -21 8 1 34 1 57
0 39 -1 41 -3 39 -29 -1 -15 -6 -34 -10 -42 -5 -8 94 86 220 211 126 124 265
260 309 303 44 43 68 70 53 61 -15 -9 -35 -15 -45 -13 -10 1 -24 -1 -32 -6
-11 -7 -12 -6 -6 5 8 12 6 12 -8 0 -14 -11 -18 -11 -23 2 -3 9 -3 21 0 26 4 6
-3 20 -14 31 l-21 21 -19 -21 c-28 -32 -35 -62 -18 -74 16 -12 19 -76 3 -76
-5 0 -5 -4 2 -8 9 -6 7 -17 -9 -42 -21 -33 -23 -39 -27 -57 -1 -5 -5 -1 -10 6
-8 12 -11 9 -16 -12 -4 -15 -24 -40 -44 -57 -20 -17 -45 -38 -56 -48 -12 -10
-26 -17 -32 -15 -6 2 -23 -7 -37 -21 -14 -15 -30 -26 -36 -26 -5 0 -10 -6 -10
-14 0 -15 -84 -96 -100 -96 -5 0 -10 20 -10 45 0 62 25 88 93 94 4 1 7 8 7 17
0 8 5 12 10 9 6 -4 10 7 10 24 0 17 5 31 11 31 5 0 17 17 25 37 29 67 31 92
15 183 -7 42 -6 61 5 83 8 15 18 27 22 28 40 4 60 13 79 36 12 15 20 29 18 32
-3 2 4 10 14 18 27 18 90 123 97 162 4 17 10 31 15 31 5 0 8 3 7 8 -4 11 25
47 42 50 24 5 56 45 57 72 l2 25 -17 -27 c-9 -15 -31 -35 -49 -45 -18 -10 -31
-23 -29 -30 3 -7 0 -12 -6 -10 -6 1 -20 -20 -30 -48 -22 -56 -110 -191 -142
-217 -11 -9 -36 -19 -54 -23 -18 -3 -30 -10 -27 -15 3 -6 0 -7 -8 -5 -7 3 -44
-15 -82 -40 -75 -49 -102 -58 -68 -22 12 12 35 37 52 55 20 22 37 32 47 28 9
-3 43 8 76 26 69 37 124 107 180 229 27 58 43 80 71 97 33 19 37 26 37 61 0
73 -17 86 -74 56z m33 -107 c-2 -2 -17 -14 -33 -28 -16 -14 -26 -18 -21 -10
16 29 28 40 43 40 8 0 13 -1 11 -2z m1 -412 c0 -11 -51 -59 -56 -53 -10 10 25
57 41 57 8 0 15 -2 15 -4z"/>
<path d="M1494 1420 c24 -36 20 -90 -9 -132 -27 -40 -33 -86 -13 -106 19 -19
33 -14 15 6 -24 26 -21 55 8 98 31 46 33 102 4 135 l-21 24 16 -25z"/>
<path d="M115 1375 c7 -37 46 -147 51 -142 2 2 -10 41 -26 88 -17 46 -28 71
-25 54z"/>
<path d="M1483 1365 c0 -22 2 -30 4 -17 2 12 2 30 0 40 -3 9 -5 -1 -4 -23z"/>
<path d="M465 1340 c27 -27 51 -50 54 -50 3 0 -17 23 -44 50 -27 28 -51 50
-54 50 -3 0 17 -22 44 -50z"/>
<path d="M435 1340 c10 -11 20 -20 23 -20 3 0 -3 9 -13 20 -10 11 -20 20 -23
20 -3 0 3 -9 13 -20z"/>
<path d="M4879 1287 c6 -8 7 -18 3 -22 -4 -5 -1 -5 6 -1 10 6 10 11 1 22 -6 8
-14 14 -16 14 -3 0 0 -6 6 -13z"/>
<path d="M515 1250 c10 -11 20 -20 23 -20 3 0 -3 9 -13 20 -10 11 -20 20 -23
20 -3 0 3 -9 13 -20z"/>
<path d="M4789 1243 c-13 -16 -12 -17 4 -4 9 7 17 15 17 17 0 8 -8 3 -21 -13z"/>
<path d="M4842 1236 c-27 -29 -43 -62 -34 -71 4 -3 7 -12 7 -18 1 -7 7 -11 15
-9 9 2 5 -7 -10 -24 -21 -23 -17 -21 26 10 53 37 71 45 58 24 -4 -6 -3 -8 4
-4 9 6 9 21 -3 76 -2 8 -4 18 -4 21 -2 18 -41 15 -59 -5z"/>
<path d="M3875 1209 c-4 -6 -5 -13 -2 -16 7 -7 27 6 27 18 0 12 -17 12 -25 -2z"/>
<path d="M3418 1184 c-38 -20 -36 -28 2 -9 17 9 30 18 30 20 0 7 -1 6 -32 -11z"/>
<path d="M1560 1138 c56 -33 92 -85 105 -150 3 -16 10 -28 16 -28 8 0 8 4 2
13 -6 6 -13 28 -17 47 -8 45 -57 105 -107 130 -60 31 -59 24 1 -12z"/>
<path d="M4829 1093 c-13 -16 -12 -17 4 -4 16 13 21 21 13 21 -2 0 -10 -8 -17
-17z"/>
<path d="M3691 1025 c-50 -53 -83 -100 -109 -153 -34 -71 -41 -79 -95 -108
-32 -17 -77 -48 -100 -71 -23 -22 -57 -50 -74 -62 -48 -33 -105 -107 -105
-137 0 -16 -14 -40 -38 -65 -20 -21 -34 -39 -30 -39 10 0 80 78 80 89 0 5 24
27 54 49 30 23 87 75 128 117 40 42 98 96 129 121 49 37 59 51 69 93 9 38 28
69 85 135 41 48 77 91 80 96 15 25 -8 4 -74 -65z"/>
<path d="M4764 1068 l-19 -23 23 19 c21 18 27 26 19 26 -2 0 -12 -10 -23 -22z"/>
<path d="M3535 1062 c-68 -42 -109 -123 -70 -138 18 -7 99 49 129 89 16 21 18
32 10 45 -16 24 -34 25 -69 4z m14 -74 c-60 -49 -103 -50 -58 -2 13 15 38 35
54 45 28 18 30 18 34 2 2 -10 -11 -28 -30 -45z"/>
<path d="M4172 1043 c-24 -24 -24 -25 -2 -8 42 33 44 35 37 35 -4 0 -19 -12
-35 -27z"/>
<path d="M4779 1053 c-13 -16 -12 -17 4 -4 16 13 21 21 13 21 -2 0 -10 -8 -17
-17z"/>
<path d="M4709 1023 l-24 -28 28 24 c15 14 27 26 27 28 0 8 -8 1 -31 -24z"/>
<path d="M370 996 c0 -2 8 -10 18 -17 15 -13 16 -12 3 4 -13 16 -21 21 -21 13z"/>
<path d="M4645 928 l-70 -73 73 70 c67 64 77 75 69 75 -1 0 -34 -33 -72 -72z"/>
<path d="M3328 943 c-22 -24 -24 -32 -15 -51 8 -18 8 -29 -2 -44 -8 -13 -8
-18 -1 -13 6 4 16 18 21 32 10 27 28 103 25 103 -1 0 -14 -12 -28 -27z"/>
<path d="M1720 948 c14 -6 40 -18 59 -27 49 -21 94 -70 133 -143 26 -49 43
-68 85 -93 28 -16 61 -41 73 -55 16 -19 19 -20 11 -5 -13 28 -38 49 -89 74
-35 18 -48 33 -67 74 -42 95 -116 160 -205 181 l-25 6 25 -12z"/>
<path d="M2890 940 c0 -4 15 -15 33 -24 26 -15 38 -16 67 -7 34 11 34 11 4 6
-19 -2 -46 3 -68 14 -20 11 -36 16 -36 11z"/>
<path d="M5041 916 c-6 -8 -10 -18 -9 -24 2 -6 -34 -46 -79 -90 -46 -45 -83
-78 -83 -75 0 3 -9 -2 -20 -12 -11 -10 -20 -23 -20 -29 0 -6 4 -5 9 2 4 8 10
12 12 10 6 -5 190 154 184 160 -3 3 3 14 12 24 18 21 26 48 13 48 -4 0 -13 -6
-19 -14z"/>
<path d="M4995 910 c-3 -5 -3 -10 1 -10 5 0 -7 -16 -26 -35 -33 -34 -58 -47
-44 -22 4 6 4 9 0 5 -4 -3 -7 -9 -6 -13 1 -4 -11 -20 -26 -36 -15 -16 -24 -29
-20 -29 5 0 2 -8 -5 -17 -11 -16 -11 -16 1 -5 8 7 15 18 15 25 0 7 5 12 11 12
18 0 111 84 117 105 6 22 -8 37 -18 20z"/>
<path d="M346 865 c25 -19 40 -19 24 0 -7 8 -20 15 -28 15 -13 0 -12 -3 4 -15z"/>
<path d="M4500 783 l-55 -58 58 55 c31 30 57 56 57 57 0 8 -10 -1 -60 -54z"/>
<path d="M405 810 c10 -11 20 -20 23 -20 3 0 -3 9 -13 20 -10 11 -20 20 -23
20 -3 0 3 -9 13 -20z"/>
<path d="M3282 798 c-24 -15 -31 -25 -26 -37 4 -9 8 -34 9 -56 2 -32 -3 -46
-31 -79 -51 -59 -41 -58 23 2 l57 54 0 69 c1 38 1 69 1 69 0 0 -15 -10 -33
-22z"/>
<path d="M480 765 c19 -19 36 -35 39 -35 3 0 -10 16 -29 35 -19 19 -36 35 -39
35 -3 0 10 -16 29 -35z"/>
<path d="M240 776 c0 -2 8 -10 18 -17 15 -13 16 -12 3 4 -13 16 -21 21 -21 13z"/>
<path d="M2649 753 c-13 -16 -12 -17 4 -4 16 13 21 21 13 21 -2 0 -10 -8 -17
-17z"/>
<path d="M4799 734 c-18 -19 -29 -35 -24 -34 24 5 27 -1 9 -21 -10 -11 -19
-31 -20 -45 l-1 -25 28 27 c17 16 25 32 21 38 -10 13 -9 27 1 44 5 6 5 12 1
12 -4 0 1 9 11 20 31 34 11 22 -26 -16z m5 -63 c3 -4 -3 -16 -13 -26 -20 -17
-24 -4 -8 23 10 14 14 15 21 3z"/>
<path d="M4045 699 c-38 -39 -32 -45 8 -10 18 15 42 51 34 51 -1 0 -21 -19
-42 -41z"/>
<path d="M4909 713 c-13 -16 -12 -17 4 -4 16 13 21 21 13 21 -2 0 -10 -8 -17
-17z"/>
<path d="M1272 713 c-18 -7 -42 -57 -42 -87 0 -39 46 -86 85 -86 80 0 113 85
59 149 -25 30 -64 39 -102 24z m88 -23 c24 -24 25 -38 3 -62 -25 -27 -79 -24
-99 7 -15 23 -15 27 0 50 20 31 67 34 96 5z"/>
<path d="M4368 645 c-21 -19 -32 -35 -25 -34 6 0 25 16 40 35 36 43 32 43 -15
-1z"/>
<path d="M4721 666 c-7 -8 -8 -17 -3 -20 6 -3 15 1 21 8 7 8 8 17 3 20 -6 3
-15 -1 -21 -8z"/>
<path d="M4809 623 l-24 -28 28 24 c15 14 27 26 27 28 0 8 -8 1 -31 -24z"/>
<path d="M4190 625 c-8 -9 -8 -15 -2 -15 12 0 26 19 19 26 -2 2 -10 -2 -17
-11z"/>
<path d="M4685 620 c-4 -6 -10 -8 -14 -5 -5 2 -17 -5 -27 -18 -16 -18 -16 -19
-1 -8 9 7 17 10 17 6 0 -4 6 -2 13 4 8 6 17 8 20 4 10 -9 -155 -163 -168 -156
-5 4 -7 3 -3 -2 9 -9 -52 -81 -65 -77 -5 1 -5 -2 -2 -8 4 -7 -1 -22 -11 -34
-11 -12 8 6 41 40 33 34 85 84 115 110 30 27 54 52 52 57 -1 5 2 6 7 3 5 -3
14 1 21 9 7 8 9 15 5 15 -5 0 0 9 10 20 22 25 43 27 24 3 -13 -17 -13 -17 7 0
23 19 27 44 8 44 -7 0 -11 -4 -8 -9 3 -4 0 -8 -5 -8 -6 0 -14 0 -18 0 -5 0 -7
5 -5 10 3 13 -5 13 -13 0z"/>
<path d="M4499 593 c-13 -16 -12 -17 4 -4 16 13 21 21 13 21 -2 0 -10 -8 -17
-17z"/>
<path d="M4460 528 c-41 -39 -66 -64 -55 -55 12 9 41 25 66 36 49 22 100 71
73 71 -8 0 -12 5 -9 10 12 19 0 9 -75 -62z"/>
<path d="M3830 565 c-25 -13 -41 -24 -37 -25 11 0 87 39 87 45 0 7 0 7 -50
-20z"/>
<path d="M4192 483 c-59 -58 -74 -76 -35 -39 40 37 76 65 81 62 11 -7 65 48
68 69 1 8 0 15 -3 15 -2 0 -53 -48 -111 -107z m108 84 c0 -2 -15 -16 -32 -33
l-33 -29 29 33 c28 30 36 37 36 29z"/>
<path d="M4739 563 c-13 -16 -12 -17 4 -4 16 13 21 21 13 21 -2 0 -10 -8 -17
-17z"/>
<path d="M4444 548 l-19 -23 23 19 c12 11 22 21 22 23 0 8 -8 2 -26 -19z"/>
<path d="M2861 493 c-43 -43 -65 -76 -87 -128 -15 -38 -47 -99 -70 -135 -46
-72 -77 -130 -70 -130 2 0 19 26 37 58 18 31 44 75 59 97 14 22 39 72 55 110
22 53 43 84 88 128 33 31 56 57 53 57 -4 0 -33 -26 -65 -57z"/>
<path d="M3171 508 c-11 -33 -102 -130 -152 -162 -15 -9 -40 -15 -58 -14 -25
2 -33 8 -40 33 -12 36 -7 105 9 134 6 12 8 21 6 21 -3 0 -17 -22 -31 -50 -31
-62 -34 -120 -5 -127 11 -3 20 -8 20 -11 0 -2 -56 -60 -124 -128 -115 -115
-226 -240 -165 -188 13 12 85 62 159 112 106 71 161 116 258 215 80 82 126
136 132 158 13 43 5 49 -9 7z"/>
<path d="M2572 514 c-27 -18 -29 -55 -4 -77 24 -22 45 -21 65 1 23 26 21 58
-5 76 -12 9 -25 16 -28 16 -3 0 -16 -7 -28 -16z"/>
<path d="M4679 513 c-13 -16 -12 -17 4 -4 16 13 21 21 13 21 -2 0 -10 -8 -17
-17z"/>
<path d="M2252 484 c44 -51 62 -103 55 -157 -5 -37 -2 -45 33 -85 45 -50 56
-92 41 -146 -11 -42 1 -81 27 -91 13 -5 12 -2 -2 14 -15 16 -17 30 -11 84 8
71 3 86 -50 152 -27 33 -31 46 -27 78 6 52 -20 116 -65 158 l-37 34 36 -41z"/>
<path d="M3835 495 c-61 -38 -105 -50 -116 -34 -5 8 -7 22 -5 32 2 9 3 17 2
17 -12 0 -121 -42 -156 -60 -45 -23 -129 -84 -180 -130 -15 -14 -32 -24 -37
-23 -24 8 -184 -60 -225 -96 -24 -20 -96 -72 -161 -115 -65 -43 -116 -80 -113
-83 3 -3 22 8 43 24 21 16 83 60 138 96 55 37 114 78 131 90 35 26 182 83 190
74 14 -14 -98 -163 -180 -239 l-51 -48 70 1 70 0 115 132 c117 134 200 201
222 179 12 -12 -65 -100 -204 -234 -55 -53 -74 -78 -62 -78 18 0 230 207 267
260 25 36 22 75 -10 99 l-26 21 23 25 c13 14 31 25 40 25 9 0 25 9 36 21 17
18 19 19 30 4 15 -20 114 -23 114 -3 0 5 5 6 10 3 6 -3 10 -1 10 5 0 6 5 8 10
5 6 -4 18 -1 26 6 8 6 37 12 64 13 34 1 50 5 50 14 0 7 -4 10 -10 7 -5 -3 -10
-1 -10 4 0 20 -74 11 -115 -14z m-345 -338 c0 -2 -17 -19 -37 -38 l-38 -34 34
38 c33 34 41 42 41 34z"/>
<path d="M4545 510 c-4 -6 -11 -7 -17 -4 -7 4 -8 2 -4 -5 6 -9 11 -9 22 0 14
11 18 19 10 19 -3 0 -8 -5 -11 -10z"/>
<path d="M4330 443 l-65 -68 68 65 c37 35 67 66 67 67 0 8 -10 -2 -70 -64z"/>
<path d="M4475 500 c-3 -6 1 -7 9 -4 18 7 21 14 7 14 -6 0 -13 -4 -16 -10z"/>
<path d="M4420 393 c-47 -48 -73 -77 -57 -63 25 22 33 19 28 -12 0 -4 7 -4 16
-1 12 5 13 8 4 11 -9 3 -8 9 5 23 17 19 17 20 -2 13 -16 -6 -16 -4 5 19 14 15
34 27 45 28 12 0 15 3 8 6 -10 4 -6 13 14 34 15 16 26 29 23 29 -2 0 -43 -39
-89 -87z"/>
<path d="M4614 458 l-19 -23 23 19 c12 11 22 21 22 23 0 8 -8 2 -26 -19z"/>
<path d="M4400 415 c-12 -13 -28 -23 -34 -22 -6 1 -10 -4 -8 -10 1 -7 -4 -13
-12 -13 -7 0 -16 -9 -19 -20 -3 -11 -11 -20 -17 -20 -9 0 -9 5 1 18 12 15 11
15 -8 -1 -12 -11 -21 -27 -20 -38 1 -10 2 -19 2 -19 0 0 34 34 75 75 41 41 72
75 69 75 -3 0 -16 -11 -29 -25z"/>
<path d="M4299 383 c-18 -21 -36 -38 -40 -38 -5 0 -14 -6 -21 -14 -11 -12 -10
-12 2 -5 8 5 17 9 20 9 9 0 90 71 90 78 0 17 -21 4 -51 -30z"/>
<path d="M4829 403 c-12 -16 -12 -17 2 -6 9 7 20 9 24 5 5 -4 5 -1 1 6 -9 16
-11 15 -27 -5z"/>
<path d="M4490 343 l-65 -68 68 65 c37 35 67 66 67 67 0 8 -10 -2 -70 -64z"/>
<path d="M4929 353 l-34 -38 38 34 c20 19 37 36 37 38 0 8 -8 0 -41 -34z"/>
<path d="M4046 371 c-4 -5 -2 -12 3 -15 5 -4 12 -2 15 3 4 5 2 12 -3 15 -5 4
-12 2 -15 -3z"/>
<path d="M4809 353 l-24 -28 28 24 c15 14 27 26 27 28 0 8 -8 1 -31 -24z"/>
<path d="M4219 343 l-24 -28 28 24 c15 14 27 26 27 28 0 8 -8 1 -31 -24z"/>
<path d="M4764 348 l-19 -23 23 19 c12 11 22 21 22 23 0 8 -8 2 -26 -19z"/>
<path d="M4999 333 c-13 -16 -12 -17 4 -4 9 7 17 15 17 17 0 8 -8 3 -21 -13z"/>
<path d="M4709 303 c-13 -16 -12 -17 4 -4 16 13 21 21 13 21 -2 0 -10 -8 -17
-17z"/>
<path d="M4734 288 l-29 -33 33 29 c17 17 32 31 32 33 0 8 -8 1 -36 -29z"/>
<path d="M4189 283 c-13 -16 -12 -17 4 -4 16 13 21 21 13 21 -2 0 -10 -8 -17
-17z"/>
<path d="M4929 273 l-24 -28 28 24 c15 14 27 26 27 28 0 8 -8 1 -31 -24z"/>
<path d="M4119 253 l-24 -28 28 24 c15 14 27 26 27 28 0 8 -8 1 -31 -24z"/>
<path d="M4800 235 c-24 -25 -42 -45 -39 -45 3 0 25 20 49 45 24 25 42 45 39
45 -3 0 -25 -20 -49 -45z"/>
<path d="M4249 253 c-13 -16 -12 -17 4 -4 16 13 21 21 13 21 -2 0 -10 -8 -17
-17z"/>
<path d="M4639 243 l-24 -28 28 24 c15 14 27 26 27 28 0 8 -8 1 -31 -24z"/>
<path d="M4674 238 l-19 -23 23 19 c12 11 22 21 22 23 0 8 -8 2 -26 -19z"/>
<path d="M4334 218 l-29 -33 33 29 c17 17 32 31 32 33 0 8 -8 1 -36 -29z"/>
<path d="M1663 218 c-15 -20 -23 -59 -10 -51 6 4 8 0 4 -10 -3 -9 -3 -16 1
-15 4 1 17 -2 30 -6 15 -5 31 -2 47 8 27 18 35 6 10 -14 -8 -7 -28 -10 -44 -8
-17 2 -28 1 -25 -4 7 -11 55 -10 73 1 21 13 24 71 4 93 -19 21 -76 24 -90 6z"/>
<path d="M4849 203 l-24 -28 28 24 c15 14 27 26 27 28 0 8 -8 1 -31 -24z"/>
<path d="M4099 203 c-13 -16 -12 -17 4 -4 9 7 17 15 17 17 0 8 -8 3 -21 -13z"/>
<path d="M4020 165 c-24 -25 -42 -45 -39 -45 3 0 25 20 49 45 24 25 42 45 39
45 -3 0 -25 -20 -49 -45z"/>
<path d="M4619 193 c-13 -16 -12 -17 4 -4 16 13 21 21 13 21 -2 0 -10 -8 -17
-17z"/>
<path d="M4561 176 c-17 -19 -20 -26 -9 -32 7 -4 10 -3 5 1 -4 5 3 19 15 32
12 13 19 23 16 23 -2 0 -15 -11 -27 -24z"/>
<path d="M3182 155 c-8 -17 -33 -36 -74 -54 -35 -16 -79 -46 -98 -66 -34 -37
-33 -36 22 8 31 25 70 48 87 52 29 6 81 55 81 76 0 16 -6 10 -18 -16z"/>
<path d="M4679 123 l-34 -38 38 34 c20 19 37 36 37 38 0 8 -8 0 -41 -34z"/>
<path d="M4745 108 l-50 -53 53 50 c28 27 52 51 52 52 0 8 -9 -1 -55 -49z"/>
<path d="M4019 133 c-13 -16 -12 -17 4 -4 16 13 21 21 13 21 -2 0 -10 -8 -17
-17z"/>
<path d="M4654 28 l-19 -23 23 19 c12 11 22 21 22 23 0 8 -8 2 -26 -19z"/>
</g>
</svg>