<?xml version="1.0" standalone="no"?>
<!DOCTYPE svg PUBLIC "-//W3C//DTD SVG 20010904//EN"
 "http://www.w3.org/TR/2001/REC-SVG-20010904/DTD/svg10.dtd">
<svg version="1.0" xmlns="http://www.w3.org/2000/svg"
 width="512.000000pt" height="512.000000pt" viewBox="0 0 512.000000 512.000000"
 preserveAspectRatio="xMidYMid meet">
<metadata>
Created by potrace 1.16, written by Peter Selinger 2001-2019
</metadata>
<g transform="translate(0.000000,512.000000) scale(0.100000,-0.100000)"
fill="#000000" stroke="none">
<path d="M4354 4176 c-111 -83 -111 -83 -185 -89 -124 -9 -319 -93 -689 -296
-237 -130 -441 -233 -447 -227 -2 2 12 36 31 77 19 41 37 95 40 122 5 42 4 47
-14 47 -22 0 -123 -59 -261 -151 -69 -46 -94 -70 -128 -123 -24 -36 -40 -70
-36 -77 4 -6 10 -7 14 -2 3 5 29 24 56 43 l50 33 -30 -32 c-16 -18 -71 -64
-121 -102 -57 -43 -94 -78 -98 -93 -4 -15 -24 -35 -53 -52 -27 -15 -95 -58
-151 -96 -57 -37 -114 -68 -125 -68 -77 -2 -358 -30 -387 -39 -72 -23 -78 -14
-22 35 28 25 52 52 52 60 0 19 -52 18 -118 -1 -29 -9 -57 -13 -63 -9 -16 9
-127 -68 -553 -386 -106 -79 -125 -109 -87 -130 17 -9 36 -1 123 53 57 35 144
91 193 124 50 33 109 70 132 81 l41 22 7 -68 c10 -99 34 -252 46 -289 8 -26 6
-39 -12 -74 -19 -38 -20 -50 -12 -96 9 -49 8 -56 -16 -89 -14 -20 -53 -84 -86
-144 -33 -60 -100 -161 -150 -226 -100 -131 -366 -569 -450 -740 -65 -131
-109 -254 -92 -254 22 0 181 40 280 71 141 44 304 111 443 183 167 87 161 87
229 24 l57 -52 -93 -89 c-109 -103 -100 -104 21 -3 128 107 122 103 118 81 -5
-30 44 -37 156 -20 54 8 147 31 205 51 121 41 394 157 580 246 69 33 140 61
156 63 17 1 56 5 87 9 32 5 70 5 85 1 26 -6 26 -7 -45 -73 -83 -77 -132 -155
-158 -248 -23 -88 -15 -94 71 -49 102 53 232 157 398 318 l48 47 162 -10 c89
-5 181 -10 205 -10 l43 0 -21 -27 c-12 -16 -89 -99 -171 -185 -82 -87 -149
-162 -149 -168 0 -5 6 -10 13 -10 6 0 1 -9 -12 -19 -31 -24 -14 -33 32 -17 39
13 108 71 272 226 55 53 127 116 160 140 82 61 142 117 253 240 104 115 140
176 122 210 -6 11 -14 20 -18 20 -4 0 -38 -20 -77 -44 l-69 -44 -34 96 c-19
54 -33 113 -33 132 1 19 1 50 2 68 1 50 -27 124 -72 187 -74 106 -76 203 -5
295 24 30 66 90 95 134 115 171 129 244 72 384 -21 52 -31 92 -28 110 2 15 34
90 69 167 75 162 102 239 122 350 24 131 28 206 17 289 l-11 79 75 78 c72 73
84 92 67 102 -4 3 -57 -32 -118 -77z m71 13 c-22 -22 -53 -50 -70 -61 -16 -11
-1 8 35 41 74 70 93 81 35 20z m-317 -149 c-48 -16 -104 -38 -126 -49 -22 -11
-42 -18 -44 -15 -7 6 -216 -110 -243 -135 -11 -11 -128 -91 -260 -179 -138
-92 -308 -215 -400 -291 -332 -274 -357 -293 -374 -285 -9 4 -54 8 -101 9 -47
1 -98 7 -113 13 -48 20 -65 14 -158 -53 -69 -49 -99 -65 -125 -65 -19 0 -34 2
-34 5 0 11 346 233 426 274 79 40 82 41 185 41 102 0 105 1 154 34 98 67 320
253 317 265 -1 7 2 9 9 6 6 -4 25 6 42 22 45 42 430 252 599 327 173 76 251
103 308 104 14 1 -14 -12 -62 -28z m209 -175 c-2 -69 -10 -124 -19 -146 -9
-21 -63 -84 -121 -140 -58 -57 -126 -133 -152 -167 -43 -59 -148 -180 -285
-327 -31 -33 -87 -94 -125 -135 -39 -41 -108 -116 -155 -165 -101 -107 -258
-279 -430 -470 -69 -76 -182 -201 -252 -278 -71 -76 -128 -144 -128 -152 0
-15 43 -29 122 -40 97 -14 99 -13 296 203 182 199 312 353 312 370 0 5 -18 37
-40 71 -22 34 -40 65 -40 69 0 5 16 24 36 43 l35 34 70 -72 c45 -48 69 -81 69
-96 0 -33 -34 -81 -197 -274 -77 -92 -186 -223 -242 -289 -83 -102 -107 -124
-143 -137 -24 -8 -124 -42 -223 -75 -276 -92 -382 -132 -355 -132 14 0 109 30
210 66 102 36 230 79 285 96 124 37 150 52 206 125 108 139 384 456 405 465
32 15 78 -6 111 -49 33 -43 32 -47 -99 -209 -152 -190 -166 -212 -139 -228 20
-13 278 -49 303 -43 39 10 278 286 278 322 0 19 -14 39 -52 73 -29 26 -70 63
-92 83 -21 20 -36 40 -33 46 4 6 48 48 98 94 l92 83 -7 -41 c-10 -57 9 -119
56 -181 41 -56 79 -147 77 -191 0 -16 -12 6 -30 58 -22 64 -38 94 -68 122 -30
29 -42 52 -57 105 -10 37 -20 62 -22 56 -9 -29 31 -125 69 -167 28 -30 48 -68
69 -127 26 -74 28 -88 18 -129 -9 -37 -8 -56 5 -92 14 -43 14 -47 -3 -59 -9
-7 -62 -64 -116 -126 -85 -99 -102 -113 -123 -109 -15 3 -36 -2 -51 -13 -20
-14 -34 -16 -75 -9 -98 16 -118 12 -139 -24 -11 -17 -19 -34 -18 -38 0 -3 -15
-6 -35 -7 -39 -3 -39 -1 9 54 l18 21 -57 -5 c-37 -3 -74 -14 -100 -29 -41 -24
-47 -25 -163 -18 -76 5 -121 12 -122 19 0 6 -2 16 -2 21 -3 24 -19 35 -52 35
-40 0 -42 6 -12 37 29 31 66 29 119 -7 39 -26 52 -30 120 -30 64 0 87 5 140
30 l64 29 120 -14 c66 -8 141 -15 166 -15 l47 0 106 127 c108 129 118 150 95
198 -6 14 -7 9 -3 -21 5 -43 -4 -57 -186 -266 l-25 -29 -130 12 c-193 19 -213
18 -272 -13 -76 -41 -163 -40 -224 2 -35 24 -55 30 -97 30 -29 0 -51 -4 -48
-8 3 -5 -8 -22 -24 -37 -17 -16 -30 -32 -30 -37 0 -4 21 -8 48 -9 35 0 42 -3
27 -9 -11 -5 -38 -9 -60 -9 -23 -1 -46 -6 -52 -12 -6 -6 -16 -10 -23 -7 -6 2
12 30 40 62 28 32 49 60 48 62 -14 13 -386 -108 -673 -220 -22 -8 -114 -42
-204 -76 -163 -60 -164 -60 -339 -75 -97 -8 -182 -15 -190 -15 -25 0 50 90
223 269 108 112 177 191 189 219 11 23 24 42 30 42 13 0 166 -129 166 -140 0
-4 -56 -58 -125 -120 -69 -61 -125 -116 -125 -121 0 -14 222 1 247 17 45 28
395 345 389 352 -3 2 -95 -75 -206 -172 l-201 -176 -92 0 -92 1 45 41 c192
177 300 281 300 290 0 5 -26 -13 -58 -41 -32 -28 -62 -51 -65 -51 -4 0 -31 21
-60 48 -29 26 -68 59 -87 73 l-34 26 35 41 c18 23 37 42 40 42 4 0 41 -32 83
-71 58 -54 79 -68 91 -61 27 14 545 556 545 569 0 6 -46 -36 -102 -95 -57 -59
-181 -187 -277 -284 l-175 -177 -45 42 c-25 23 -61 54 -79 67 l-32 26 107 100
c124 114 326 298 363 328 14 12 1 -5 -28 -36 -28 -31 -52 -64 -52 -73 0 -22
47 -37 102 -32 43 4 54 11 151 103 58 54 120 117 138 140 19 23 61 56 94 74
43 23 94 69 180 159 286 302 336 349 449 430 111 79 116 84 131 134 9 29 21
85 28 126 12 73 12 74 74 129 52 45 66 52 78 42 17 -14 75 -100 75 -111 0 -4
-27 -42 -60 -83 -33 -42 -58 -76 -56 -76 3 0 46 51 97 113 51 61 79 100 63 85
l-30 -28 -43 60 -42 61 115 121 c64 67 116 127 116 134 0 17 -50 51 -101 69
l-43 15 -85 -57 c-113 -76 -124 -79 -31 -8 88 67 130 90 139 78 3 -5 27 -17
52 -26 26 -10 55 -27 64 -37 10 -11 21 -20 26 -20 4 0 31 33 60 73 29 39 62
82 73 95 l21 23 8 -38 c5 -21 7 -87 4 -148z m-227 -4 c5 -11 10 -23 10 -27 0
-12 -173 -184 -186 -184 -8 0 -18 9 -24 19 -8 16 -3 28 29 68 38 49 139 143
153 143 4 0 12 -9 18 -19z m-380 -81 c-4 -8 -18 -24 -31 -35 l-22 -20 12 22
c6 12 16 25 21 28 6 3 10 16 10 28 0 17 2 19 9 8 6 -8 6 -22 1 -31z m-45 -16
c-40 -59 -30 -84 30 -84 42 0 36 -17 -21 -60 -30 -23 -53 -44 -50 -47 3 -3 32
16 65 42 68 53 81 54 154 8 40 -25 40 -26 20 -42 -12 -9 -43 -35 -71 -58 l-49
-42 -23 24 c-39 42 -98 63 -195 70 l-91 6 -64 -36 c-36 -20 -72 -43 -80 -50
-8 -8 -39 -61 -69 -119 l-54 -106 -196 -164 c-394 -332 -448 -382 -527 -495
-44 -64 -121 -153 -199 -231 -69 -69 -123 -128 -120 -132 3 -3 -3 -11 -12 -19
-17 -13 -17 -13 -3 6 8 11 0 7 -18 -9 -36 -33 -44 -60 -9 -30 l22 19 -19 -22
c-10 -13 -22 -20 -26 -18 -9 6 -95 -103 -87 -111 3 -3 24 11 47 32 l41 38 42
-16 41 -15 126 115 c69 63 170 151 224 195 l99 80 -63 32 -64 32 -118 -115
c-167 -163 -188 -170 -32 -11 72 74 141 152 153 173 41 73 95 128 297 305 246
216 413 351 434 350 10 0 7 -5 -10 -17 -13 -9 -65 -48 -114 -86 l-90 -70 57
-11 c69 -14 130 -54 176 -117 l35 -46 63 58 c35 32 82 79 104 104 l40 45 -17
33 c-21 42 -61 86 -96 104 -15 8 -55 15 -90 16 -42 1 -50 3 -26 5 24 3 42 11
48 23 5 10 29 33 52 51 l43 32 -45 -42 c-35 -34 -41 -44 -30 -52 8 -5 22 -9
30 -9 32 0 88 -50 116 -104 16 -31 31 -56 34 -56 3 0 46 34 95 76 94 79 110
104 122 191 4 30 1 50 -11 68 -20 30 -105 75 -143 75 -47 0 -170 -77 -257
-161 l-82 -78 47 99 c47 98 48 99 119 140 l72 42 66 -11 c37 -6 81 -13 98 -15
68 -9 124 -56 124 -104 0 -43 -41 -202 -52 -202 -6 0 -29 -15 -52 -34 -23 -18
-70 -55 -107 -82 -36 -27 -146 -134 -246 -239 -288 -304 -287 -303 -438 -365
-71 -29 -149 -55 -172 -58 -30 -3 -47 -11 -58 -28 -8 -13 -23 -24 -31 -24 -19
0 -150 -113 -362 -309 l-145 -134 -31 12 c-17 7 -47 17 -66 21 -81 18 -200 56
-197 62 1 4 88 96 192 205 262 273 261 280 -3 18 -122 -121 -221 -224 -219
-229 2 -5 -15 -26 -38 -47 -39 -36 -45 -38 -143 -48 -125 -13 -156 -25 -206
-82 -75 -83 -156 -170 -156 -165 0 19 174 211 327 361 178 175 183 181 183
221 0 32 9 53 41 98 55 77 44 81 -14 4 -38 -49 -47 -69 -47 -101 0 -39 -6 -46
-140 -178 -77 -75 -140 -132 -140 -125 0 22 98 214 142 279 23 34 79 103 124
153 145 161 160 211 66 230 -29 6 -46 24 -23 24 5 0 11 7 15 15 4 13 1 12 -20
-1 -36 -24 -27 -48 18 -52 48 -4 59 -18 44 -60 -10 -31 -165 -216 -174 -207
-2 2 8 23 22 47 l26 44 -21 40 c-18 35 -19 44 -8 91 9 41 10 65 1 105 -6 29
-15 83 -18 121 -4 37 -11 67 -16 67 -6 0 -8 -14 -4 -33 5 -26 2 -38 -14 -52
-20 -18 -20 -18 -20 18 0 19 3 43 6 51 9 24 162 136 178 130 8 -3 42 4 76 15
35 12 73 21 84 20 12 0 4 -6 -19 -13 -40 -13 -201 -101 -210 -115 -9 -15 22
-173 36 -182 8 -5 36 -9 63 -9 55 0 80 16 253 162 74 63 102 80 139 87 42 8
81 31 191 112 l41 31 48 -16 c28 -9 80 -16 125 -16 43 0 80 -4 83 -9 9 -14
-34 -37 -112 -60 -85 -26 -101 -38 -377 -290 -221 -201 -361 -348 -371 -387
-13 -53 12 -66 72 -38 51 24 298 237 586 506 143 133 267 248 277 254 9 7 13
15 10 18 -7 7 -123 -95 -414 -363 -126 -117 -275 -248 -330 -292 -55 -44 -73
-56 -40 -27 32 29 109 99 170 156 554 515 977 870 1283 1076 167 112 268 174
289 176 1 0 -9 -16 -22 -36z m-615 12 c0 -3 -54 -42 -120 -87 -68 -47 -127
-95 -138 -113 -11 -17 -34 -40 -53 -51 l-34 -19 19 29 c33 53 58 74 170 146
61 40 120 78 131 85 23 15 25 16 25 10z m744 -92 c48 -17 106 -53 106 -65 0
-5 -24 4 -53 20 -28 17 -84 37 -122 46 -38 9 -72 19 -75 22 -9 9 103 -9 144
-23z m466 -145 c-17 -46 -62 -147 -100 -223 l-69 -139 16 -36 c62 -142 68
-196 7 -65 -20 44 -38 74 -41 67 -2 -6 19 -57 46 -112 28 -55 51 -112 51 -125
0 -50 -144 -286 -205 -336 -17 -14 -18 -14 -5 10 7 14 39 66 70 115 31 50 71
116 89 148 l33 58 -47 92 c-26 50 -51 101 -54 114 -5 19 -15 10 -83 -75 -42
-53 -102 -128 -133 -166 l-57 -70 28 -20 c86 -63 94 -74 94 -138 0 -59 0 -60
-67 -133 -37 -41 -71 -71 -75 -68 -14 8 -108 213 -108 234 0 17 106 166 157
220 21 23 23 30 12 46 -10 17 -2 31 69 116 45 53 88 111 98 129 9 18 15 31 12
28 -2 -3 -54 -59 -114 -125 -60 -66 -126 -140 -146 -165 -41 -52 -73 -110 -59
-110 23 0 16 -31 -15 -76 -25 -35 -34 -56 -31 -74 7 -36 77 -201 97 -230 l18
-26 -69 -76 -69 -76 -39 39 c-21 22 -53 42 -70 45 -17 4 -31 9 -31 13 0 3 14
26 30 51 16 25 30 54 30 66 0 27 -37 75 -100 133 l-51 46 172 190 c346 382
440 477 513 514 37 19 68 32 71 30 2 -3 -18 -43 -45 -89 -27 -47 -50 -89 -50
-95 0 -5 23 28 50 75 27 47 55 94 61 105 7 11 10 21 8 23 -2 2 4 8 14 13 9 6
15 14 12 20 -4 5 -1 9 5 9 6 0 8 5 5 10 -3 6 -2 10 4 10 9 0 27 40 22 49 -2 2
1 7 6 10 4 3 19 30 32 58 14 29 26 51 28 49 2 -2 -10 -41 -27 -87z m-1105 26
c-104 -93 -154 -113 -331 -131 -62 -7 -76 -13 -161 -71 -97 -66 -118 -76 -88
-43 19 21 268 198 291 207 31 12 11 -14 -31 -41 -25 -15 -44 -30 -41 -33 2 -2
21 7 43 21 22 15 70 31 115 40 43 8 114 33 160 55 46 21 85 39 88 40 3 0 -17
-20 -45 -44z m1005 -46 c-37 -32 -70 -53 -70 -45 0 7 91 76 99 76 3 -1 -10
-14 -29 -31z m-597 -16 c-7 -2 -21 -2 -30 0 -10 3 -4 5 12 5 17 0 24 -2 18 -5z
m89 -40 c35 -34 35 -41 -2 -83 -30 -34 -26 -18 5 26 15 20 14 23 -14 53 -36
38 -28 41 11 4z m-168 -84 l25 -12 -21 -42 -21 -43 -35 24 c-19 13 -40 24 -45
24 -6 0 2 14 18 30 32 33 42 35 79 19z m68 -96 c-36 -46 -72 -79 -72 -67 0 8
90 104 98 104 2 0 -10 -17 -26 -37z m-207 -108 c30 -29 31 -42 5 -50 -11 -3
-28 -18 -40 -32 l-20 -25 -31 26 c-17 14 -38 26 -47 26 -11 0 -4 12 23 40 45
47 75 51 110 15z m-1721 -117 c-61 -62 -130 -109 -171 -115 -35 -6 -37 -5 -24
11 13 16 142 110 201 147 39 25 36 1 -6 -43z m556 -1 c0 -2 -21 -19 -47 -39
-46 -35 -52 -37 -158 -44 l-109 -7 -85 -59 c-46 -32 -88 -58 -93 -58 -4 0 -8
14 -8 30 0 25 8 36 48 61 103 65 145 80 289 99 160 21 163 21 163 17z m-217
-14 c-7 -2 -21 -2 -30 0 -10 3 -4 5 12 5 17 0 24 -2 18 -5z m68 -123 c-51 -47
-56 -49 -96 -43 -41 5 -47 2 -124 -56 -45 -34 -81 -64 -81 -68 0 -7 42 21 112
74 56 43 72 49 102 37 12 -5 -4 -22 -59 -65 -68 -54 -79 -59 -124 -59 -46 0
-50 2 -60 31 -6 18 -11 39 -11 48 0 9 40 43 94 78 99 66 93 64 261 71 l40 1
-54 -49z m1769 4 c0 -8 -3 -13 -8 -11 -4 3 -20 -17 -36 -44 -29 -46 -56 -71
-52 -46 1 7 18 34 39 61 20 27 37 53 37 58 0 5 5 6 10 3 6 -3 10 -13 10 -21z
m-2315 -3 c-32 -29 -424 -281 -437 -281 -37 0 -24 21 44 72 161 120 283 202
312 209 45 10 92 11 81 0z m115 -163 c0 -10 -2 -18 -4 -18 -2 0 -11 -3 -20 -6
-12 -5 -16 0 -16 18 0 31 20 53 32 35 4 -6 8 -20 8 -29z m8 -134 c-34 -35 -53
22 -20 59 16 19 16 20 0 14 -12 -4 -18 -1 -18 7 0 8 6 16 13 19 7 2 18 -13 26
-40 13 -39 13 -45 -1 -59z m652 83 c0 -2 -10 -12 -22 -23 l-23 -19 19 23 c18
21 26 27 26 19z m-80 -67 c-36 -30 -143 -100 -125 -81 13 13 149 110 155 110
3 0 -11 -13 -30 -29z m-70 7 c0 -2 -15 -16 -32 -33 l-33 -29 29 33 c28 30 36
37 36 29z m-510 -67 c0 -5 -5 -10 -11 -10 -5 0 -7 5 -4 10 3 6 8 10 11 10 2 0
4 -4 4 -10z m424 -11 c-10 -12 -32 -30 -49 -41 -17 -12 -11 -4 15 20 49 45 64
54 34 21z m1156 -139 c-45 -50 -88 -93 -94 -97 -11 -6 33 44 119 135 81 85 64
59 -25 -38z m-1560 45 c0 -8 -4 -17 -10 -20 -6 -4 -10 5 -10 20 0 15 4 24 10
20 6 -3 10 -12 10 -20z m1740 -54 c0 -21 -170 -220 -344 -401 -146 -152 -202
-198 -84 -70 42 47 76 85 75 87 -1 1 -38 -7 -82 -17 -44 -11 -91 -19 -105 -19
-28 1 -21 3 133 38 86 19 90 21 143 78 29 32 100 115 156 185 57 70 104 128
106 128 1 0 2 -4 2 -9z m-290 -114 c0 -2 -12 -14 -27 -28 l-28 -24 24 28 c23
25 31 32 31 24z m830 -200 c0 -10 -22 -42 -48 -70 -26 -29 -76 -86 -112 -127
-88 -104 -96 -110 -144 -110 -49 0 -207 29 -220 41 -5 4 46 5 113 2 l122 -6
56 59 c74 78 133 157 133 177 0 18 -48 51 -134 94 l-54 26 50 53 50 53 94 -87
c52 -48 94 -95 94 -105z m-730 122 c-110 -96 -158 -133 -211 -159 -32 -17 -62
-30 -66 -30 -4 1 20 15 54 33 55 29 197 136 190 144 -2 1 -27 -6 -55 -17 -29
-11 -62 -20 -75 -20 -12 1 22 16 76 34 54 18 100 36 104 40 3 3 9 6 12 6 3 -1
-10 -15 -29 -31z m-189 -36 c-6 -10 -38 -47 -72 -83 l-61 -65 53 63 c30 35 60
72 68 83 17 24 25 25 12 2z m789 -114 c8 -14 -2 -33 -49 -96 -57 -76 -101
-123 -101 -109 0 4 24 35 54 71 30 35 63 76 72 91 18 26 18 27 -11 49 -15 13
-54 37 -86 53 -32 17 -55 33 -52 36 9 9 163 -75 173 -95z m-115 -113 c-48 -58
-90 -106 -95 -106 -18 0 -142 42 -137 46 3 3 32 -2 65 -11 33 -10 65 -16 70
-14 5 2 46 48 92 102 45 54 85 96 87 93 3 -3 -34 -52 -82 -110z m-1791 41 c37
-12 67 -27 66 -32 -1 -6 -17 -19 -35 -29 l-33 -19 -69 34 c-37 19 -70 35 -72
37 -9 5 35 31 55 32 11 0 51 -10 88 -23z m-66 -66 c89 -46 120 -67 110 -76 -8
-8 -208 95 -208 107 0 15 20 8 98 -31z m2294 -113 l16 -66 -77 -73 -76 -74 68
71 69 71 -22 74 c-12 41 -24 90 -26 109 l-4 35 19 -40 c10 -23 25 -71 33 -107z
m-2532 41 c-47 -44 -124 -109 -172 -146 -49 -36 -88 -68 -88 -70 0 -2 17 5 38
16 49 25 126 86 222 175 129 122 109 114 187 71 37 -21 70 -40 72 -42 3 -2 -9
-18 -26 -36 -88 -91 -295 -405 -324 -490 -15 -44 -12 -42 -262 -178 -89 -48
-161 -93 -159 -99 1 -6 -1 -9 -6 -6 -5 3 -31 -6 -58 -19 -60 -30 -109 -34 -99
-7 4 10 -6 5 -27 -14 -61 -57 -82 -74 -85 -70 -6 6 97 221 147 306 80 140 154
255 221 345 79 106 251 294 286 313 24 13 117 29 183 30 l35 1 -85 -80z m433
8 c-12 -12 -34 -49 -51 -82 -23 -46 -54 -83 -128 -151 -220 -201 -224 -203
-78 -39 45 50 104 124 132 165 29 41 71 89 95 106 47 35 61 36 30 1z m-171
-84 c-16 -21 -40 -47 -53 -58 -24 -19 -23 -19 1 10 68 82 109 119 52 48z
m2436 -25 c-57 -86 -232 -262 -331 -334 -51 -37 -155 -129 -232 -203 -185
-180 -181 -177 -200 -161 -14 11 -3 27 87 119 57 58 142 148 189 199 77 83 89
92 121 92 61 0 96 19 144 79 54 66 247 268 253 264 2 -1 -12 -26 -31 -55z
m-1519 -192 c-10 -10 -812 -307 -855 -316 -77 -17 -61 -4 33 28 48 16 234 84
413 150 179 66 339 124 355 130 32 11 61 15 54 8z m955 -12 c8 -3 12 -13 10
-22 -4 -11 1 -9 15 7 19 20 27 22 67 16 l46 -7 -23 -24 c-12 -13 -20 -27 -16
-30 3 -4 18 8 32 25 25 29 55 42 55 23 0 -5 -12 -20 -28 -35 l-27 -26 -142 6
c-78 3 -148 10 -155 14 -9 6 -7 14 12 33 20 22 32 26 81 26 32 0 64 -3 73 -6z
m266 -44 c-20 -13 -73 -13 -65 0 3 6 23 10 43 10 28 0 33 -3 22 -10z m-802 -7
c-10 -2 -26 -2 -35 0 -10 3 -2 5 17 5 19 0 27 -2 18 -5z m227 -3 c-3 -5 -21
-10 -38 -9 -27 0 -29 2 -12 9 28 12 57 12 50 0z m-117 -114 c-103 -100 -232
-201 -309 -245 -31 -17 -59 -31 -62 -31 -24 0 36 143 73 178 13 12 20 22 15
22 -19 0 53 63 98 86 26 13 47 22 47 20 0 -2 -32 -26 -71 -51 -38 -26 -68 -50
-65 -53 3 -3 47 23 98 56 51 34 109 67 128 73 19 6 39 16 45 20 5 5 27 9 50 9
l40 -1 -87 -83z m-1768 -105 c0 -23 -126 -94 -290 -164 -162 -68 -167 -65 -20
14 74 39 173 93 220 120 47 26 86 48 88 48 1 1 2 -8 2 -18z m295 -119 c-7 -7
-34 18 -47 42 -8 16 -3 14 21 -8 17 -16 29 -32 26 -34z"/>
<path d="M2777 3260 c-41 -27 -80 -57 -88 -66 -7 -9 21 8 63 37 41 30 84 59
94 66 11 6 16 12 12 12 -3 1 -40 -21 -81 -49z"/>
<path d="M4280 3938 c0 -8 -11 -36 -24 -63 -23 -45 -30 -89 -26 -175 l1 -35
20 37 c18 36 46 234 34 246 -3 3 -5 -1 -5 -10z"/>
<path d="M4192 3693 c-29 -43 -36 -61 -13 -33 25 29 44 60 37 60 -3 0 -13 -12
-24 -27z"/>
<path d="M3819 3263 l-24 -28 28 24 c25 23 32 31 24 31 -2 0 -14 -12 -28 -27z"/>
<path d="M3679 3112 c-57 -59 -181 -190 -275 -292 -94 -102 -341 -358 -548
-570 -334 -341 -408 -420 -393 -420 9 0 827 851 982 1020 88 96 202 219 254
273 52 53 93 97 90 97 -3 0 -52 -48 -110 -108z"/>
<path d="M2380 2094 c-61 -64 -109 -118 -106 -122 8 -7 54 37 158 151 44 48
76 87 70 87 -5 0 -60 -52 -122 -116z"/>
<path d="M3949 2103 c-13 -16 -12 -17 4 -4 16 13 21 21 13 21 -2 0 -10 -8 -17
-17z"/>
<path d="M3790 1870 c35 -31 50 -34 58 -12 2 7 -12 19 -32 27 -55 23 -64 17
-26 -15z"/>
<path d="M2929 3033 c-258 -218 -419 -380 -419 -425 0 -8 39 -33 88 -57 l87
-42 119 41 c66 23 130 47 142 53 12 7 83 71 158 144 l137 131 -14 29 c-8 15
-25 37 -37 48 l-23 20 13 -25 c15 -28 18 -24 -227 -239 -106 -94 -131 -111
-202 -138 l-81 -31 33 47 c17 25 119 134 224 241 210 213 207 207 123 230 -57
16 -74 12 -121 -27z"/>
<path d="M2050 2116 c0 -8 92 -58 97 -53 2 3 -15 17 -40 31 -42 25 -57 31 -57
22z"/>
<path d="M2474 3407 c-88 -62 -115 -97 -75 -97 22 0 202 102 222 126 10 13 10
17 -2 25 -29 18 -59 7 -145 -54z m122 34 c-9 -13 -197 -123 -202 -118 -5 4 56
50 146 110 25 18 65 23 56 8z"/>
</g>
</svg>