<!-- Generated by SVGMaker - https://svgmaker.io --><!-- Prompt: Can u make the astronaut show peace with his hand? --><!-- Quality: medium --><!-- Type: edit --><!-- Created: 2025-11-12T18:09:57.419Z --><svg version="1.1" xmlns="http://www.w3.org/2000/svg" style="display: block;" viewBox="0 0 2048 2048" width="1024" height="1024" preserveAspectRatio="none">
<path transform="translate(0,0)" fill="rgb(0,0,0)" d="M 351.581 426.204 C 359.181 409.786 368.438 392.925 376.026 376.993 C 392.952 341.449 439.35 383.26 453.524 376.526 C 454.351 371.763 450.432 333.944 447.372 330.639 C 440.682 334.168 433.706 338.161 426.085 339.384 C 400.085 343.557 394.492 308.421 404.456 291.033 C 408.742 279.532 432.9 265.65 437.179 256.631 C 462.797 202.631 483.952 159.646 533.287 122.223 C 579.633 87.0665 624.808 71.4198 684.015 66.8189 C 829.899 55.4825 968.633 164.215 976.961 313.825 C 981.07 377.77 959.507 440.714 917.051 488.707 C 918.065 490.919 919.015 493.161 919.899 495.428 C 926.258 512.193 916.548 528.229 909.602 543.441 C 923.936 553.215 933.025 558.659 944.522 571.644 C 994.546 628.141 1017.11 681.497 1038.65 752.279 C 1049.05 786.23 1057.83 820.657 1064.95 855.443 C 1068.9 874.575 1072.49 893.937 1076.99 912.944 C 1079.08 921.76 1076.31 918.388 1075.92 925.011 C 1077.63 924.89 1076.76 924.884 1078.52 925.042 C 1092.17 965.7 1106.82 1005.11 1116.33 1047.12 C 1119.3 1060.21 1124.36 1073.23 1124.04 1086.88 C 1123.9 1092.73 1119.04 1096.16 1115.03 1099.48 C 1145.96 1158.84 1145.89 1256.51 1099.17 1308.18 C 1080.67 1328.65 1044.98 1342.03 1022.43 1320.37 L 1022.33 1309.14 C 1029.21 1299.17 1037.55 1290.1 1044.85 1280.39 C 1063.59 1255.45 1072.42 1229.94 1072.14 1198.93 C 1067.88 1206.88 1066.85 1212.92 1064.53 1221.57 C 1059.3 1241.09 1051.06 1267.77 1026.83 1269.28 C 1012.26 1270.19 991.167 1264.13 988.3 1246.85 C 987.897 1234.44 990.456 1220.86 992.457 1208.63 C 996.22 1185.63 1000.28 1165.47 1000.33 1142.08 C 999.869 1142.09 999.407 1142.1 998.945 1142.11 L 996.995 1142.11 C 976.964 1142.16 976.544 1100.27 968.044 1094.27 C 967.232 1094.31 962.907 1094.51 962.614 1094.39 C 954.244 1091.03 942.717 1064.48 937.994 1056.21 C 936.666 1072.95 938.106 1094.54 938.806 1111.56 L 943.331 1208.45 C 944.341 1231.87 944.706 1255.99 945.548 1279.51 C 946.248 1299.05 946.083 1319.08 947.4 1338.73 C 947.852 1345.49 950.911 1351.91 951.577 1357.86 C 954.828 1386.9 959.306 1414.14 958.13 1443.58 C 957.618 1456.39 956.873 1476.97 951.688 1488.91 C 947.424 1498.72 941.974 1504.4 939.65 1516.27 C 935.684 1536.53 934.341 1556.81 930.043 1577.02 C 928.058 1586.35 923.43 1600.81 921.353 1610.58 C 923.02 1615.21 926.347 1616.45 926.229 1621.85 C 925.773 1642.58 922.433 1666.83 911.018 1685.27 C 965.786 1688.26 1006.09 1725.02 1039.47 1765.18 C 1043.97 1757.62 1061.1 1710.72 1065.02 1700.06 L 1115.1 1563.53 L 1152.5 1465.49 C 1155.87 1456.55 1167.74 1425.4 1169.5 1417.18 C 1168.05 1415.8 1166.62 1414.38 1165.23 1412.93 C 1164.4 1401.2 1182.23 1354.07 1189.72 1343.71 C 1204.46 1323.29 1207.77 1307.26 1216.63 1284.1 C 1253.97 1186.06 1289.67 1087.41 1325.36 988.767 C 1336.36 958.373 1334.99 926.02 1347.18 894.04 C 1341.7 870.17 1336.74 833.522 1356.25 814.613 C 1367.6 812.364 1369.87 811.897 1381.34 811.932 C 1371.64 794.076 1371.72 775.397 1395.58 771.241 C 1404.03 769.769 1413.22 769.981 1421.82 769.768 C 1421.88 752.75 1422.03 737.466 1424.88 720.589 C 1425.58 716.462 1423.05 707.067 1417.04 707.461 C 1406.74 717.246 1423.46 749.02 1408.42 753.615 C 1395.51 757.56 1378.67 736.451 1377.3 724.644 C 1372.8 697.832 1393.29 672.558 1420.29 669.198 C 1452.4 665.203 1463.32 691.336 1466.4 717.095 C 1466.72 720.43 1466.94 722.901 1466.97 726.242 L 1468.28 727.938 C 1471.08 728.142 1475.84 725.429 1478.26 723.878 C 1515.37 690.266 1457.61 652.714 1508.18 656.171 C 1518.12 662.385 1523.96 669.86 1526.25 681.786 C 1531.85 710.985 1523.46 748.272 1490.28 756.179 C 1484.95 757.425 1473.9 756.866 1468.34 756.596 L 1468.3 769.048 C 1475.27 769.398 1489.52 769.135 1495.78 771.932 C 1503.7 775.47 1503.74 784.182 1504.82 791.731 C 1504.03 796.761 1503.2 801.784 1502.34 806.801 C 1501 808.496 1500.91 808.679 1499.96 810.624 C 1503.53 814.389 1511.14 813.752 1516.4 813.739 C 1545.1 813.669 1541.95 857.859 1539.39 877.125 C 1538.05 887.184 1532.11 889.523 1525.18 895.91 C 1525.55 913.438 1532.58 929.417 1537.32 946.095 C 1539.92 954.827 1541.22 963.917 1544.07 972.58 C 1551.1 994.007 1558.82 1015.26 1566.32 1036.52 L 1606.7 1151.32 L 1645.92 1262.62 C 1655.38 1289.68 1665.54 1320.53 1676.59 1346.77 C 1678.2 1347 1684.05 1347.82 1684.77 1348.56 C 1696.99 1361.09 1710.21 1409.11 1714.5 1423.59 C 1712.7 1426.81 1710.48 1430.04 1708.45 1433.14 C 1720.8 1462.48 1732 1499.51 1742.32 1529.86 L 1795.05 1684.41 C 1810.95 1732.29 1825.93 1781.34 1848.42 1826.62 C 1857.29 1844.49 1876.69 1860.08 1871.68 1881.4 C 1867.72 1899.2 1846.64 1909.27 1829.58 1904.26 C 1813.93 1900 1799.55 1876.4 1802.6 1860.77 C 1804.64 1850.29 1800.47 1843.14 1796.68 1832.98 L 1695.95 1556.89 L 1668.2 1479.77 C 1665.07 1471.05 1662.09 1461.46 1659.1 1452.82 C 1657.38 1447.86 1647.96 1450.82 1644.4 1441.69 C 1638.22 1425.81 1631.48 1397.9 1624.48 1383.53 C 1616.96 1383.56 1604.15 1389.23 1598.3 1388.85 C 1569.87 1387.01 1540.76 1383.58 1512.55 1379.5 C 1503.49 1378.18 1495.37 1375.6 1486.28 1374.82 L 1486.76 1378.01 C 1484.59 1379.93 1476.85 1381.6 1473.6 1382.49 C 1470.56 1430.81 1473.62 1495.65 1473.86 1544.96 L 1474.21 1662.54 C 1474.31 1676.23 1474.16 1689.9 1474.13 1703.58 C 1474.11 1715.82 1484.08 1716.46 1484.6 1732.03 C 1485.27 1751.83 1471.62 1767.19 1451.34 1766.46 C 1427.47 1765.6 1420.24 1751 1421.1 1729.27 C 1423.27 1725.13 1426.47 1721.22 1429.3 1717.45 C 1429.99 1692.28 1429.09 1660.42 1429.07 1634.62 L 1429.84 1497.83 C 1429.87 1460.47 1429.04 1419.93 1430.14 1382.82 L 1421.19 1378.77 C 1420.77 1377.63 1420.38 1376.49 1420.02 1375.33 C 1416.69 1364.77 1413.25 1321.88 1418.68 1310.34 C 1420.18 1307.14 1426.53 1305.79 1429.92 1304.89 C 1429 1235.55 1430.18 1163.46 1430.51 1094 L 1430.58 1025 C 1430.17 966.365 1423.67 985.716 1471.08 982.189 C 1472.73 979.378 1468.95 979.086 1468.6 977.405 C 1464 955.281 1459.37 933.727 1451.92 912.344 C 1451.31 910.586 1451.43 901.301 1451.43 898.923 C 1440.77 897.865 1425.53 898.116 1414.41 898.068 C 1410.46 907.006 1408.57 923.448 1406.48 933.708 C 1403.35 948.751 1399.93 963.73 1396.22 978.639 C 1380.95 989.192 1378.19 1006.94 1372 1023.99 L 1347.79 1089.72 L 1284.94 1262.69 C 1272.14 1298.34 1257.17 1331.16 1251.07 1368.57 C 1248.27 1385.8 1238.31 1420.3 1225.28 1432.05 L 1213.84 1434.39 C 1208.59 1454.16 1192.95 1491.07 1185 1511.24 L 1139.48 1629.21 L 1095.06 1747.43 C 1091.01 1758.09 1082.68 1785.75 1076.48 1793.06 C 1072 1798.35 1066.27 1796.45 1060.39 1797.3 C 1058.11 1797.63 1057.38 1798.18 1056.51 1800.25 C 1051.38 1812.39 1057.08 1818.67 1044.48 1834.11 C 1025.97 1856.8 988.348 1865.87 960.748 1869.01 C 946.156 1870.67 931.762 1869.88 917.216 1868.15 C 879.942 1863.69 759.181 1838.79 731.841 1816.07 C 718.525 1805.01 718.314 1792.52 721.049 1776.63 C 723.43 1762.8 724.838 1749.15 726.685 1735.28 C 728.415 1722.28 730.799 1709.09 731.411 1696 C 732.033 1682.7 730.725 1669.06 730.433 1655.74 C 729.618 1618.54 727.936 1581.3 726.694 1544.11 C 725.199 1499.37 725.452 1455 721.022 1410.35 C 718.952 1388.74 716.462 1367.17 713.555 1345.66 C 710.887 1326.99 706.854 1304.61 705.455 1286.13 C 697.501 1277.41 690.534 1273.48 680.844 1266.93 C 677.102 1280.67 673.898 1299.42 670.67 1313.78 C 662.777 1349.6 654.044 1385.23 644.477 1420.64 C 638.543 1442.26 632.041 1463.72 624.981 1485.01 C 619.293 1501.8 612.208 1519.57 607.466 1536.52 C 598.122 1569.9 591.503 1604.44 583.132 1638.09 C 579.073 1654.41 571.67 1672.63 567.52 1688.84 C 562.599 1708.05 560.404 1736.63 561.2 1756.18 C 562.406 1770.04 563.657 1787.3 568.396 1800.42 C 579.6 1831.44 608.027 1877.17 582.772 1907.97 C 564.448 1930.32 527.139 1940.19 499.676 1943.64 C 465.045 1947.99 427.373 1945.37 394.764 1932.58 C 366.475 1921.93 328.921 1900.13 332.309 1864.37 C 332.251 1858.43 336.713 1845.83 336.393 1840.55 C 334.884 1815.7 341.413 1800.84 349.939 1778.17 C 357.303 1758.59 363.565 1734.85 367.59 1714.13 C 370.097 1701.22 370.421 1683.77 369.46 1670.47 C 368.216 1660.96 365.508 1651.07 364.585 1640.85 C 362.104 1613.39 367.272 1584.88 370.825 1557.63 C 373.741 1535.32 376.413 1512.97 378.839 1490.59 C 384.274 1442.71 386.91 1395.73 392.379 1348.31 C 401.579 1268.52 416.647 1189.51 437.458 1111.93 C 444.802 1084.73 450.981 1052.81 468.842 1031.19 C 437.438 1046.54 387.002 1069.8 353.365 1050.31 C 337.22 1040.55 331.419 1028.62 325.901 1011.31 C 322.195 999.693 322.425 958.136 338.807 957.872 C 363.698 957.471 355.143 987.261 376.419 1001.22 C 404.268 1000.18 439.967 979.936 460.768 962.168 C 453.09 931.24 451.527 884.946 450.947 852.682 C 450.82 845.573 457.783 831.794 455.022 827.912 C 453.165 829.314 435.729 859.11 433.17 863.967 C 425.642 878.255 366.593 950.665 351.046 925.443 C 348.319 924.647 342.74 930.925 341.047 933.079 C 305.336 978.501 234.947 968.461 194.005 935.999 C 174.614 919.99 153.895 888.661 148.844 863.442 C 141.402 823.3 127.191 784.971 133.754 743.657 C 141.799 693.014 161.126 727.098 175.8 726.311 L 175.813 724.824 C 166.67 719.929 116.339 652.783 151.075 653.979 L 152.264 654.029 C 151.971 649.383 129.537 614.436 126 605.013 C 112.817 569.893 92.4781 506.979 139.697 487.31 C 152.774 464.763 161.848 445.318 185.685 433.429 C 175.977 398.181 149.646 321.407 160.995 285.608 C 168.984 260.411 205.28 264.308 218.668 290.983 C 239.761 333.011 252.893 377.977 266.602 423.135 C 268.678 422.911 269.597 412.268 270.688 409.756 C 282.18 383.313 290.86 280.524 327.509 282.519 C 384.6 285.628 354.183 389.53 351.581 426.204 z M 777.768 180.938 C 717.427 178.516 653.624 193.094 608.392 234.146 C 542.966 293.525 537.924 395.458 600.291 458.862 C 640.516 499.757 689.904 519.1 747.495 520.911 C 785.052 521.882 838.171 511.085 869.991 489.808 C 870.024 489.769 870.057 489.731 870.09 489.692 C 875.292 484.225 890.445 475.501 895.026 469.179 C 914.45 442.372 932.216 402.777 938.411 370.657 C 945.251 335.196 944.673 288.764 924.345 257.913 C 901.346 223.007 849.665 200.282 810.691 186.961 C 806.034 185.369 784.37 182.301 777.768 180.938 z M 1487.13 1330.87 C 1496.85 1331.59 1506.97 1334.99 1516.54 1336.67 C 1542.62 1341.26 1574.31 1349.07 1600.22 1347.8 C 1604.56 1347.31 1608.29 1346.91 1612.65 1346.72 C 1577.19 1242.07 1537.58 1138.67 1502.61 1033.84 C 1499.87 1025.63 1486.75 991.775 1486.36 986.214 C 1485.15 986.23 1483.79 986.131 1482.69 986.418 C 1479.06 987.064 1475.69 987.176 1472.88 989.191 C 1471.75 1013.63 1472.78 1041.08 1473.33 1065.67 C 1475.13 1144.79 1472.92 1224.69 1475.11 1303.72 C 1481.02 1308.03 1485.4 1307.67 1486.06 1314.55 C 1486.58 1320.07 1486.49 1325.44 1487.13 1330.87 z M 393.975 563.989 C 409.957 546.211 422.034 541.557 444.197 535.331 C 443.254 529.062 439.143 526.941 442.922 518.062 C 449.456 502.711 457.483 495.891 472.977 492.151 C 457.966 479.825 440.417 455.24 457.733 437.911 C 459.89 435.752 464.88 431.596 465.85 429.209 C 461.269 426.208 410.952 416.44 403.678 416.109 C 383.239 422.331 381.585 438.791 369.151 454.592 C 359.027 467.458 349.455 478.497 337.114 489.331 C 334.801 491.528 332.234 496.314 328.772 499.849 C 361.336 515.056 377.877 554.884 375.595 589.27 C 379.285 586.741 388.67 570.306 393.975 563.989 z"></path>
<path transform="translate(0,0)" fill="rgb(254,254,254)" d="M 679.522 76.3999 C 691.635 74.9958 724.948 76.0524 736.45 77.3942 C 806.964 85.6702 871.352 121.472 915.59 177.002 C 956.034 227.737 974.425 292.58 966.641 356.994 C 960.799 405.045 941.343 458.098 901.347 487.763 C 830.038 540.653 733.128 552.17 652.364 514.952 C 521.665 454.723 498.82 292.908 617.543 206.413 C 652.973 181.154 704.958 167.969 748.307 166.178 C 817.712 163.311 877.853 181.055 929.285 228.838 C 904.083 189.553 859.098 163.275 813.843 154.052 C 684.204 127.632 557.114 177.011 526.597 315.415 C 526.438 312.748 526.208 310.085 525.907 307.43 C 522.31 277.248 506.153 247.22 472.543 244.323 C 465.987 243.758 460.3 244.915 453.842 245.93 C 467.855 215.726 481.276 189.759 503.327 164.073 C 549.225 110.608 610.252 82.4785 679.522 76.3999 z M 777.768 180.938 C 717.427 178.516 653.624 193.094 608.392 234.146 C 542.966 293.525 537.924 395.458 600.291 458.862 C 640.516 499.757 689.904 519.1 747.495 520.911 C 785.052 521.882 838.171 511.085 869.991 489.808 C 870.024 489.769 870.057 489.731 870.09 489.692 C 875.292 484.225 890.445 475.501 895.026 469.179 C 914.45 442.372 932.216 402.777 938.411 370.657 C 945.251 335.196 944.673 288.764 924.345 257.913 C 901.346 223.007 849.665 200.282 810.691 186.961 C 806.034 185.369 784.37 182.301 777.768 180.938 z"></path>
<path transform="translate(0,0)" fill="rgb(254,254,254)" d="M 857.107 222.974 C 860.304 223.193 864.414 222.906 867.71 222.772 C 889.686 236.657 900.158 249.137 907.484 275.085 C 926.287 323.766 920.383 373.975 900.745 421.388 C 897.782 428.541 886.099 454.587 875.343 450.756 C 874.878 450.591 872.383 448.624 872.068 448.379 C 870.707 448.069 869.778 447.562 868.474 447.002 L 868.383 445.361 L 871 444.117 C 873.066 439.532 875.182 432.505 876.989 427.509 C 879.192 421.116 883.064 414.846 884.958 408.372 C 904.416 341.836 901.613 283.768 843.807 238.378 C 848.016 232.961 852.524 228.071 857.107 222.974 z"></path>
<path transform="translate(0,0)" fill="rgb(0,0,0)" d="M 857.107 222.974 C 860.304 223.193 864.414 222.906 867.71 222.772 C 889.686 236.657 900.158 249.137 907.484 275.085 C 899.989 262.594 875.887 224.01 857.667 232.754 C 855.78 235.775 856.161 234.183 856.415 237.679 C 859.459 243.111 864.772 247.349 868.968 251.761 C 912.934 297.99 904.779 370.469 882.538 424.995 C 879.753 431.823 873.169 441.822 872.068 448.379 C 870.707 448.069 869.778 447.562 868.474 447.002 L 868.383 445.361 L 871 444.117 C 873.066 439.532 875.182 432.505 876.989 427.509 C 879.192 421.116 883.064 414.846 884.958 408.372 C 904.416 341.836 901.613 283.768 843.807 238.378 C 848.016 232.961 852.524 228.071 857.107 222.974 z"></path>
<path transform="translate(0,0)" fill="rgb(254,254,254)" d="M 630.835 234.124 L 633.152 236.723 C 605.396 255.446 583.689 294.021 577.44 326.851 C 570.308 362.58 577.791 399.677 598.216 429.847 C 619.967 461.328 644.102 475.837 676.919 493.001 L 675.906 495.168 C 668.547 492.15 660.758 488.986 653.765 485.182 C 555.211 431.568 537.25 304.505 630.835 234.124 z"></path>
<path transform="translate(0,0)" fill="rgb(211,211,215)" fill-opacity="0.980392" d="M 676.919 493.001 C 695.54 499.8 716.559 504.482 736.472 506.103 C 740.639 506.442 748.206 505.105 750.395 508.389 C 733.531 513.049 692.948 501.716 675.906 495.168 L 676.919 493.001 z"></path>
<path transform="translate(0,0)" fill="rgb(168,168,169)" fill-opacity="0.964706" d="M 630.835 234.124 C 643.61 224.782 647.182 223.04 661.873 216.376 L 663.003 218.007 C 649.415 224.223 645.144 227.497 633.152 236.723 L 630.835 234.124 z"></path>
<path transform="translate(0,0)" fill="rgb(0,0,0)" fill-opacity="0.0117647" d="M 610.058 235.363 C 616.222 237.496 612.829 234.111 617.209 235.828 L 615.723 237.044 L 614.257 239.608 L 612.294 239.845 C 610.47 237.848 610.557 238.022 610.058 235.363 z"></path>
<path transform="translate(0,0)" fill="rgb(128,126,140)" fill-opacity="0.819608" d="M 674.192 211.837 L 674.999 212.855 C 671.041 214.531 666.893 216.214 663.003 218.007 L 661.873 216.376 C 666.565 214.104 669.3 213.325 674.192 211.837 z"></path>
<path transform="translate(0,0)" fill="rgb(0,0,0)" d="M 777.768 180.938 C 833.686 179.961 926.265 218.419 944.843 276.477 C 966.524 344.228 940.277 458.112 870.09 489.692 C 875.292 484.225 890.445 475.501 895.026 469.179 C 914.45 442.372 932.216 402.777 938.411 370.657 C 945.251 335.196 944.673 288.764 924.345 257.913 C 901.346 223.007 849.665 200.282 810.691 186.961 C 806.034 185.369 784.37 182.301 777.768 180.938 z"></path>
<path transform="translate(0,0)" fill="rgb(254,254,254)" d="M 466.1 1057.45 C 469.874 1058.36 488.425 1066.32 493.907 1068.42 C 510.604 1074.78 527.658 1080.15 544.982 1084.51 C 646.565 1109.81 767.163 1113.56 869.561 1089.31 C 888.947 1084.72 907.068 1077.71 925.565 1070.45 C 934.163 1152.98 936.219 1254.74 935.911 1337.79 C 924.276 1332.64 916.894 1329.51 904.304 1328.19 C 866.035 1324.14 827.038 1338.21 808.227 1373.52 C 799.052 1390.74 796.068 1407.03 794.29 1426.39 C 775.768 1423.22 750.233 1418.79 731.833 1417.7 C 727.735 1375.05 722.347 1332.54 715.676 1290.22 C 771.119 1284.07 818.984 1247.81 851.585 1203.91 C 866.95 1183.22 871.866 1158.32 876.554 1133.58 C 861.243 1176.2 840.227 1198.17 805.501 1226.81 C 771.452 1252.74 690.735 1302.26 676.639 1229.99 C 660.147 1322.21 638.88 1419.39 606.51 1508.03 C 600.163 1522.09 586.338 1529.12 572.97 1533.96 C 491.714 1563.4 427.61 1486.42 460.993 1409.82 C 478.934 1368.65 521.651 1382.47 556.535 1381.91 C 571.307 1381.67 588.08 1376.69 602.474 1371.99 C 589.255 1372.22 568.706 1374.23 556.124 1372.48 C 499.841 1364.66 462.051 1346.8 440.076 1417.94 C 426.153 1414.21 410.179 1409.79 395.939 1408.34 C 401.498 1311.92 422.503 1204.77 447.838 1112.01 C 451.206 1099.68 459.989 1067.61 466.1 1057.45 z"></path>
<path transform="translate(0,0)" fill="rgb(0,0,0)" d="M 512.457 1130.45 C 574.904 1153.86 639.242 1198.43 652.4 1268.14 L 648.76 1267.64 C 634.419 1234.96 581.553 1183.97 553.566 1161.27 C 541.909 1151.81 525.057 1140.06 512.457 1130.45 z"></path>
<path transform="translate(0,0)" fill="rgb(0,0,0)" d="M 479.359 1473.72 C 485.655 1475.44 496.764 1482.42 504.643 1484.8 C 545.844 1497.25 565.063 1489.81 603.582 1478.43 C 601.276 1481.24 598.35 1483.4 595.516 1485.7 C 581.189 1496.49 563.692 1502.23 545.757 1502.03 C 521.755 1501.85 496.118 1490.85 479.359 1473.72 z"></path>
<path transform="translate(0,0)" fill="rgb(28,28,28)" d="M 648.76 1267.64 L 652.4 1268.14 L 652.974 1273.37 L 652.171 1274.31 C 649.915 1271.22 649.997 1271.09 648.76 1267.64 z"></path>
<path transform="translate(0,0)" fill="rgb(254,254,254)" d="M 394.947 583.133 C 405.308 569.807 417.632 555.505 435.527 553.184 C 444.552 552.013 454.397 557.953 462.349 561.748 C 513.96 586.376 545.426 635.33 557.439 689.83 C 559.138 686.742 558.859 680.898 559.081 676.945 C 558.009 645.113 549.011 617.819 530.347 591.74 C 550.066 601.639 571.85 613.132 592.782 619.99 C 682.251 649.298 799.093 656.962 874.012 590.274 C 883.675 581.672 893.394 570.982 901.475 560.933 C 907.341 571.61 913.372 587.073 917.495 598.771 C 949.186 688.67 953.417 795.547 944.138 889.833 C 941.884 912.731 939.767 936.375 933.737 958.616 C 930.952 968.891 926.339 977.2 916.722 982.138 C 904.136 988.6 885.122 993.376 871.156 996.23 C 772.671 1016.36 643.638 1017.16 546.338 995.239 C 564.366 976.8 574.262 966.679 588.178 944.562 C 672.178 953.271 755.93 958.104 840.232 949.653 C 856.261 948.046 882.038 946.816 895.032 936.712 C 907.935 926.679 909.125 899.368 910.538 884.271 C 913.525 852.377 919.46 693.858 902.021 673.031 C 895.813 665.617 884.166 662.941 874.959 662.48 C 858.42 661.652 841.378 663.918 824.874 665.075 C 801.424 666.718 777.618 667.828 754.111 668.015 C 726.153 668.46 698.189 667.964 670.265 666.527 C 649.885 665.606 628.493 663.764 608.387 664.46 C 577.893 666.734 578.308 688.722 577.859 712.154 C 577.383 736.986 579.318 763.478 576.809 787.582 C 569.751 855.396 519.576 909.319 468.51 949.378 C 463.977 916.387 461.16 890.181 462.211 857.049 C 519.048 847.062 534.06 753.451 529.248 706.565 C 525.916 717.725 524.97 729.565 522.104 740.908 C 513.565 774.699 498.725 803.364 477.375 830.719 C 475.853 823.41 469.488 811.865 469.232 806.743 C 467.107 764.138 454 724.906 414.979 698.978 C 412.892 697.617 410.757 696.333 408.577 695.128 C 434.386 722.18 446.069 757.54 446.152 795.225 C 446.236 833.502 415.07 875.041 389.36 901.684 C 379.862 911.526 370.467 916.475 357.386 920.186 C 361.081 909.76 367.09 894.855 369.937 884.674 C 377.412 857.945 377.891 817.63 373.506 790.108 C 390.659 812.733 396.355 822.443 399.135 850.726 C 413.288 805.171 394.34 794.357 373.72 759.148 C 355.553 727.479 351.23 689.726 361.766 654.77 C 368.729 631.727 382.528 608.517 406.883 601.4 C 452.113 610.976 487.033 670.753 495.659 712.572 C 496.239 699.044 495.755 688.601 493.568 675.182 C 487.482 637.842 440.585 566.264 394.947 583.133 z"></path>
<path transform="translate(0,0)" fill="rgb(28,28,28)" d="M 559.081 676.945 C 560.242 684.165 560.045 691.761 560.077 699.103 C 559.01 695.967 557.854 693.109 557.439 689.83 C 559.138 686.742 558.859 680.898 559.081 676.945 z"></path>
<path transform="translate(0,0)" fill="rgb(254,254,254)" d="M 734.089 1431.18 C 754.348 1436.14 775.095 1439.15 795.251 1444.56 C 798.953 1495.43 817.779 1529.41 872.302 1531.86 C 893.968 1532.83 908.546 1528.21 928.566 1520.88 C 927.089 1533.94 924.295 1552.2 921.781 1564.6 C 918.816 1579.23 915.658 1604.23 902.001 1611.54 C 871.504 1627.85 828.406 1630.22 795.704 1623.75 C 801.404 1627.09 805.771 1628.97 812 1631.29 C 845.785 1644.12 883.296 1642.9 916.176 1627.9 C 915.415 1677.74 897.755 1678.96 857.045 1692.12 C 836.273 1698.84 818.845 1713.09 805.304 1730.24 C 843.68 1711.64 879.932 1691 926.14 1696.98 C 963.874 1701.87 1010.67 1741.87 1033.02 1771.91 C 1002.74 1806.99 906.184 1806.91 901.467 1811.16 L 904.221 1812.25 C 941.136 1819.22 976.865 1816.79 1012.96 1805.29 C 1021.74 1802.49 1030.67 1796.75 1040.34 1793.74 C 1046.39 1797.25 1046.28 1811.85 1044.35 1817.1 C 1033.11 1847.67 974.023 1862.41 945.845 1861.69 C 890.247 1860.29 832.39 1842.9 778.909 1828.45 C 763.522 1824.29 737.757 1814.27 730.074 1799.17 C 725.88 1789.72 729.957 1781.38 733.18 1772.38 C 762.128 1793.2 803.149 1803.7 838.495 1804.08 C 815.259 1797.43 751.784 1770.18 736.016 1752.64 C 735.589 1730.45 740.86 1717.55 741.61 1697.39 C 742.076 1684.88 740.763 1663.38 740.281 1650.4 L 735.915 1551.88 C 760.63 1559.23 774.95 1562.35 800.435 1561.85 C 779.83 1556.16 753.278 1541.64 736.14 1528.45 C 735.861 1495.7 732.585 1464.51 734.089 1431.18 z"></path>
<path transform="translate(0,0)" fill="rgb(254,254,254)" d="M 395.42 1424.1 C 408.906 1427.89 423.687 1430.78 437.477 1433.58 C 435.027 1456.04 435.688 1479.77 444.762 1500.84 C 454.957 1524.73 474.339 1543.51 498.538 1552.95 C 532.198 1566.17 560.857 1559.95 592.808 1546.14 C 586.824 1582.06 573.885 1645.84 558.231 1679.22 C 551.122 1694.38 496.589 1709.34 479.052 1713.5 L 480.907 1716.05 C 509.601 1716.19 527.262 1712.5 554.295 1703.56 C 551.332 1729.86 549.947 1772.13 557.053 1797.74 C 560.303 1809.45 569.871 1827.9 574.12 1841.9 L 574.614 1843.56 C 572.961 1847.08 570.839 1851.15 567.66 1853.5 C 510.927 1895.43 391.268 1886.54 346.246 1832.3 C 344.992 1807.17 358.006 1787.24 365.033 1762.32 C 373.72 1731.51 378.104 1716.05 378.111 1684.17 C 391.901 1696.81 410.75 1702.58 428.072 1708.69 C 386.965 1678.3 369.573 1664.84 374.628 1610.94 C 385.331 1618.97 397.102 1625.45 409.6 1630.21 C 437.285 1640.96 477.028 1646.37 504.956 1633.94 C 462.223 1634.94 404.147 1620.07 376.754 1585.05 C 381.46 1551.03 385.633 1516.93 389.271 1482.78 C 391.379 1463.46 392.629 1443.13 395.42 1424.1 z"></path>
<path transform="translate(0,0)" fill="rgb(28,28,28)" d="M 480.907 1716.05 C 476.557 1716.13 475.708 1716.23 471.542 1715.3 C 473.488 1713.8 476.186 1713.92 479.052 1713.5 L 480.907 1716.05 z"></path>
<path transform="translate(0,0)" fill="rgb(0,0,0)" d="M 454.741 1749.43 C 498.697 1747.32 521.909 1765.63 548.01 1797.57 C 520.018 1778.21 502.392 1769.24 468.242 1765.26 C 433.029 1762.61 399.871 1776.35 369.391 1791.82 C 391.09 1767.67 422.241 1751.72 454.741 1749.43 z"></path>
<path transform="translate(0,0)" fill="rgb(254,254,254)" d="M 855.472 683.388 C 867.663 681.633 885.048 681.089 887.789 696.521 C 891.302 715.579 891.163 735.193 892.159 754.491 C 894.482 799.501 895.304 845.065 892.119 890.04 C 891.751 895.234 889.867 902.077 887.084 906.446 C 869.086 918.119 738.871 920.871 712.628 919.933 C 699.493 919.463 663.895 917.385 649.547 916.219 C 601.752 913.084 606.646 915.467 606.127 866.515 L 605.922 796.488 C 605.747 767.849 604.406 739.179 605.083 710.529 C 605.478 693.771 612.415 691.572 627.562 691.363 C 703.751 690.313 779.542 691.797 855.472 683.388 z"></path>
<path transform="translate(0,0)" fill="rgb(0,0,0)" d="M 800.587 716.429 C 813.391 715.875 838.032 713.542 848.035 722.931 C 862.134 735.345 861.767 781.458 849.288 793.617 C 838.685 803.948 799.475 802.926 784.127 803.438 C 770.524 804.245 746.203 806.361 734.593 798.46 C 719.673 788.306 720.119 737.013 731.703 725.741 C 742.307 715.421 784.306 717.285 800.587 716.429 z"></path>
<path transform="translate(0,0)" fill="rgb(254,254,254)" d="M 814.055 763.58 C 829.858 762.361 849.49 762.263 835.065 783.822 C 829.877 791.577 776.702 790.108 766.247 790.62 C 753.138 791.365 744.516 792.292 743.031 775.409 C 742.732 772.019 742.949 771.729 745.064 769.352 C 754.856 765.123 800.406 764.31 814.055 763.58 z"></path>
<path transform="translate(0,0)" fill="rgb(254,254,254)" d="M 783.159 730.432 C 784.096 730.356 785.034 730.301 785.973 730.267 C 794.515 729.918 829.442 727.571 836.193 734.383 C 838.739 736.952 838.004 745.664 837.884 749.632 C 824.166 749.915 810.453 750.422 796.751 751.154 C 780.218 751.936 760.324 753.122 744.04 752.641 C 742.925 733.857 747.325 732.251 766.536 731.158 C 771.962 730.849 777.701 730.658 783.159 730.432 z"></path>
<path transform="translate(0,0)" fill="rgb(0,0,0)" d="M 672.861 722.149 C 677.147 721.911 686.952 720.876 689.225 726.458 C 694.631 740.646 693.578 757.735 694.158 772.893 C 694.62 784.962 695.801 796.819 684.5 803.541 C 657.711 807.553 664.324 770.257 663.649 753.439 C 663.199 742.226 662.449 728.478 672.861 722.149 z"></path>
<path transform="translate(0,0)" fill="rgb(0,0,0)" d="M 745.576 833.688 C 754.294 831.027 763.769 833.273 770.365 839.564 C 776.96 845.856 779.651 855.214 777.404 864.048 C 775.157 872.881 768.322 879.817 759.522 882.192 C 746.22 885.783 732.497 878.042 728.69 864.8 C 724.883 851.559 732.399 837.711 745.576 833.688 z"></path>
<path transform="translate(0,0)" fill="rgb(0,0,0)" d="M 670.537 836.497 C 683.522 832.231 697.497 839.352 701.678 852.364 C 705.859 865.376 698.646 879.304 685.607 883.399 C 672.688 887.456 658.917 880.325 654.775 867.433 C 650.633 854.542 657.673 840.724 670.537 836.497 z"></path>
<path transform="translate(0,0)" fill="rgb(0,0,0)" d="M 820.151 831.885 C 828.946 830.353 837.881 833.708 843.494 840.651 C 849.106 847.594 850.515 857.033 847.174 865.312 C 843.833 873.591 836.268 879.409 827.408 880.512 C 814.163 882.161 802.021 872.941 800.05 859.74 C 798.08 846.538 807.001 834.176 820.151 831.885 z"></path>
<path transform="translate(0,0)" fill="rgb(254,254,254)" d="M 332.588 706.554 C 332.573 721.702 334.217 736.233 334.449 750.855 C 335 785.499 325.306 830.748 307.087 860.723 C 336.433 834.121 343.271 815.652 353.139 778.454 C 363.212 822.636 365.594 876.409 340.753 916.488 C 330.279 933.385 313.569 949.126 293.409 952.895 C 228.038 965.117 169.527 920.642 156.74 856.924 C 156.226 854.332 155.746 851.732 155.302 849.127 C 185.265 865.692 207.785 863.461 239.847 856.375 C 235.824 854.052 226.756 854.719 220.914 854.141 C 200.732 853.295 171.489 846.933 158.214 830.832 C 136.243 804.182 138.542 757.447 147.558 726.86 L 149.125 727.459 C 161.524 732.266 173.112 739.912 185.254 744.217 C 243.146 764.744 294.85 755.435 332.588 706.554 z"></path>
<path transform="translate(0,0)" fill="rgb(28,28,28)" d="M 220.914 854.141 C 227.841 854.021 237.284 853.578 243.929 854.377 L 244.327 855.164 C 243.105 855.501 241.003 856.157 239.847 856.375 C 235.824 854.052 226.756 854.719 220.914 854.141 z"></path>
<path transform="translate(0,0)" fill="rgb(254,254,254)" d="M 931.793 576.515 C 932.251 576.754 932.71 576.992 933.168 577.231 C 995.642 634.381 1024.99 729.115 1043.59 807.381 C 1053.8 850.342 1059.98 877.378 1065.71 912.399 C 1029.21 909.465 998.692 927.679 980.726 959.099 C 999.765 948.838 1021.05 936.797 1042.2 931.853 C 1049.66 930.109 1060.2 928.583 1066.91 933.194 C 1078.97 941.488 1098.88 1014.89 1102.15 1031.99 C 1082.71 1028.55 1074.83 1028.15 1055.76 1031.24 C 1031.42 1035.82 1009.14 1046.97 989.114 1061.28 C 980.174 1067.67 971.561 1075.28 961.949 1080.54 C 944.205 1050.97 950.826 998.076 952.988 963.888 C 955.016 931.821 1000.48 883.356 1025.85 864.99 C 998.032 870.634 982.848 882.192 964.479 902.931 C 967.519 884.731 968.15 856.357 968.104 837.728 C 967.972 783.606 964.464 725.96 954.767 672.572 C 949.115 641.451 939.161 607.824 931.793 576.515 z"></path>
<path transform="translate(0,0)" fill="rgb(254,254,254)" d="M 145.503 497.092 C 169.567 500.143 187.03 536.262 203.007 552.648 C 206.494 556.225 216.005 567.499 217.622 571.806 C 217.568 583.03 209.933 583.501 201.073 585.899 C 180.768 591.395 155.931 546 145.212 547.221 C 141.823 550.832 144.061 562.123 145.961 565.768 C 156.628 586.233 184.886 620.838 210.792 603.124 C 217.511 598.53 242.657 585.486 250.448 588.791 C 258.02 605.234 253.003 645.573 254.384 664.447 C 258.13 652.999 261.191 641.338 263.55 629.526 C 273.843 578.791 269.301 586.402 314.336 562.919 C 286.05 554.607 248.828 547.985 250.005 511.679 C 250.712 497.65 279.264 498.277 289.097 499.768 C 336.899 507.019 371.355 538.483 364.729 588.838 C 358.774 623.273 342.045 643.181 311.852 661.254 C 304.174 665.85 294.321 668.379 288.491 674.944 C 287.876 679.84 286.882 681.572 291.578 683.679 C 303.726 683.472 327.559 667.964 338.177 660.874 C 334.562 670.468 329.969 679.665 324.47 688.319 C 278.276 759.483 165.886 744.214 149.409 661.981 C 177.239 680.074 198.487 700.991 233.631 703.253 C 230.805 702.26 228.018 701.155 225.279 699.942 C 180.876 680.373 146.361 634.913 130.705 589.842 C 120.043 559.151 103.863 512.042 145.503 497.092 z"></path>
<path transform="translate(0,0)" fill="rgb(254,254,254)" d="M 524.298 383.777 C 525.622 385.234 529.342 406.392 530.634 410.721 C 536.591 430.676 548.535 449.707 560.815 466.07 C 596.48 513.215 649.536 544.117 708.139 551.878 C 757.768 558.82 822.778 550.832 867.674 527.68 C 878.716 521.986 901.231 505.214 911.796 497.295 C 911.217 505.545 910.777 513.402 906.959 520.862 C 834.82 661.807 635.658 635.048 521.945 564.941 C 513.164 559.528 504.503 552.316 495.651 547.344 C 482.431 539.919 468.043 533.492 454.16 527.449 L 453.539 525.105 C 455.292 517.365 461.087 510.365 467.443 505.758 C 481.761 513.311 508.107 531.09 522.475 540.172 C 570.517 567.976 623.855 585.4 679.046 591.317 C 739.943 597.948 807.828 590.828 857.052 551.361 C 757.537 600.776 623.197 578.923 531.172 521.678 C 519.907 514.671 508.471 508.154 498.129 499.794 C 480.413 485.474 460.742 472.728 461.206 447.665 C 466.585 448.749 472.384 449.652 477.824 450.589 C 486.009 458.391 494.229 469.171 502.463 477.513 C 525.046 500.391 551.829 514.655 581.199 526.648 C 573.467 520.63 563.021 515.241 555.187 509.235 C 527.675 488.145 508.597 473.87 494.326 442.06 C 509.89 426.947 518.494 404.193 524.298 383.777 z"></path>
<path transform="translate(0,0)" fill="rgb(254,254,254)" d="M 1080.25 1048.4 C 1107.68 1046.37 1112.05 1060.95 1115.96 1083.79 C 1107.22 1097.65 1096.43 1099.02 1080.87 1103.59 C 1091.1 1104.1 1097.58 1104.15 1107.21 1108.07 C 1119.74 1122.18 1124.02 1150.21 1126.68 1170.68 C 1133.28 1222.38 1117.89 1311.82 1055.13 1322.03 C 1049.17 1323 1029.41 1321.65 1033.68 1312.31 C 1039.39 1299.79 1052.08 1288.08 1059.44 1275.85 C 1070.27 1257.83 1077.92 1242.68 1081.1 1221.8 C 1084.58 1197.32 1082.62 1177.17 1058.55 1164.83 C 1063.42 1181.37 1062.64 1192.84 1058.74 1209.45 C 1057.39 1215.21 1054.18 1224.15 1053.11 1228.97 C 1046.57 1258.47 1020.19 1276.56 998.65 1247.78 C 996.894 1245.44 997.002 1238.11 997.362 1235.43 C 1001.09 1207.61 1009.2 1180.41 1009.62 1152.16 C 1010.04 1135.25 1008.27 1130.47 1024.3 1123.47 C 987.294 1125.12 995.66 1136.16 979.193 1095.85 C 1003.93 1069.47 1044.13 1051.96 1080.25 1048.4 z"></path>
<path transform="translate(0,0)" fill="rgb(254,254,254)" d="M 180.996 278.082 C 185.094 277.756 189.722 277.579 193.678 278.786 C 199.849 280.669 204.061 285.659 207.588 290.807 C 224.596 315.629 247.574 386.142 256.18 416.329 C 258.163 423.284 257.966 436.199 261.715 441.789 C 262.507 442.969 265.137 443.231 266.564 443.187 C 269.464 443.096 270.545 442.526 271.977 440.065 C 276.661 432.017 277.635 418.937 279.893 409.786 C 284.872 389.608 304.84 307.875 315.708 296.813 C 319.175 293.284 325.199 291.644 330.036 291.68 C 335.364 291.72 339.745 294.039 343.208 298.027 C 356.029 312.791 352.504 341.941 350.79 360.243 C 349.326 392.243 336.329 459.858 322.646 489.176 C 292.144 479.576 279.92 478.429 250.138 488.05 C 245.358 477.235 241.165 463.477 233.362 454.306 C 224.319 443.676 211.556 435.085 197.496 433.731 C 187.267 410.69 159.135 317.09 168.593 290.445 C 171.099 283.385 174.574 281.031 180.996 278.082 z"></path>
<path transform="translate(0,0)" fill="rgb(254,254,254)" d="M 885.804 1346.36 C 902.573 1345.31 921.96 1346.95 935.348 1358.66 C 946.568 1368.48 948.372 1405.61 949.546 1421 C 950.822 1437.76 949.883 1479.78 937.556 1492.6 C 922.135 1508.63 896.894 1511.61 875.916 1511.9 C 837.492 1508.06 818.028 1491.55 812.107 1452.89 C 803.801 1398.67 828.852 1353.52 885.804 1346.36 z"></path>
<path transform="translate(0,0)" fill="rgb(254,254,254)" d="M 1518 979.31 C 1522.92 977.82 1531.23 975.535 1535.68 973.541 L 1619.57 1210.61 C 1635.57 1255.69 1652.38 1308.79 1670.42 1352.53 C 1655.43 1358.34 1642.17 1363.35 1626.94 1368.34 C 1599.31 1280.41 1566.41 1192.83 1535.56 1105.85 C 1521.88 1067.25 1508.93 1022.65 1494.54 985.02 L 1511.03 980.227 C 1537.76 1051.91 1563.92 1123.8 1589.53 1195.89 C 1597.22 1217.96 1609.68 1248.42 1615.81 1269.34 L 1617.56 1268.18 C 1609.01 1238.78 1597.63 1206.91 1587.59 1177.82 C 1573.45 1135.91 1558.89 1094.14 1543.91 1052.52 C 1535.65 1029.2 1525.01 1002.67 1518 979.31 z"></path>
<path transform="translate(0,0)" fill="rgb(89,91,91)" d="M 1617.56 1268.18 C 1620.21 1274.82 1624.07 1285.74 1626.15 1292.62 L 1624.9 1293 C 1623.64 1288.17 1617.94 1274.83 1615.81 1269.34 L 1617.56 1268.18 z"></path>
<path transform="translate(0,0)" fill="rgb(211,211,215)" d="M 1626.15 1292.62 C 1627.43 1295.63 1627.65 1295.55 1627.46 1298.75 C 1625.48 1297.07 1625.77 1296.03 1624.9 1293 L 1626.15 1292.62 z"></path>
<path transform="translate(0,0)" fill="rgb(254,254,254)" d="M 1339.53 975.07 L 1350.57 978.902 C 1343.52 995.075 1332.69 1028.96 1326.76 1046.52 C 1313.97 1083.52 1301.41 1120.6 1289.1 1157.76 L 1272.55 1206.5 C 1269.45 1215.93 1267.4 1216.89 1266.14 1228.21 C 1268.26 1225.47 1278.47 1196.44 1280.43 1191.25 C 1307.14 1121.15 1332.42 1050.51 1356.24 979.371 L 1378.2 984.802 C 1374.31 998.302 1366.54 1017.06 1361.31 1030.77 C 1351.61 1055.79 1342.29 1080.96 1333.34 1106.25 C 1313 1160.58 1293.24 1215.12 1274.06 1269.86 C 1264.94 1295.47 1251.96 1326.39 1245.16 1352.45 C 1231.53 1347.44 1217.82 1342.64 1204.04 1338.04 C 1212.73 1323.24 1229.98 1271.37 1237.06 1252.57 L 1298.91 1085.37 C 1311.88 1049.58 1324.84 1010.03 1339.53 975.07 z"></path>
<path transform="translate(0,0)" fill="rgb(254,254,254)" d="M 1681.79 1446.82 C 1691.09 1444.36 1695.25 1442.39 1703.15 1437.4 C 1706.48 1445.26 1709.05 1455.01 1711.92 1463.21 C 1718.46 1481.92 1724.3 1500.8 1730.92 1519.49 L 1782.66 1670.08 C 1796.26 1710.58 1808.67 1750.98 1824.61 1790.77 C 1830.88 1806.42 1838.23 1821.82 1844.78 1837.4 C 1834.44 1842.64 1822.97 1847.06 1811.92 1852.64 C 1807.36 1842.62 1803.16 1829.45 1799.18 1818.93 C 1788.01 1789.78 1777.2 1760.49 1766.77 1731.07 C 1733.2 1638.45 1700.62 1543.23 1666.13 1451.19 L 1677.63 1448.39 C 1697.35 1499.01 1715.75 1554.15 1733.71 1605.57 C 1757.19 1673.02 1781.3 1740.25 1806.03 1807.24 L 1807.3 1806.59 C 1801.67 1781.31 1788.43 1751.5 1780.79 1726.27 C 1769.46 1688.84 1755.44 1652.15 1742.49 1615.28 C 1722.79 1558.94 1702.55 1502.78 1681.79 1446.82 z"></path>
<path transform="translate(0,0)" fill="rgb(168,168,169)" d="M 1807.3 1806.59 C 1808.81 1810.07 1810.77 1814.18 1810.07 1817.84 C 1807.65 1814.98 1807.02 1810.95 1806.03 1807.24 L 1807.3 1806.59 z"></path>
<path transform="translate(0,0)" fill="rgb(254,254,254)" d="M 576.546 852.766 C 579.177 855.419 577.847 870.767 577.882 874.779 C 578.257 917.521 573.39 932.968 542.026 962.955 C 503.191 1000.72 453.508 1032.48 400.835 1046.55 C 366.974 1055.59 339.991 1040.1 333.236 1004.86 C 332.078 995.856 330.358 968.922 340.928 965.602 C 353.735 969.977 350.786 996.417 371.002 1009.16 L 372.09 1009.83 C 382.584 1010.35 394.522 1009.07 404.278 1004.97 C 471.689 976.584 545.287 919.657 576.546 852.766 z"></path>
<path transform="translate(0,0)" fill="rgb(254,254,254)" d="M 456.48 263.184 C 503.31 258.096 507.195 304.733 506.873 338.996 C 506.695 358.035 503.966 397.712 489.409 411.336 C 470.766 428.784 427.874 406.838 405.859 406.123 C 381.216 405.066 370.672 441.768 356.27 457.415 C 350.855 463.299 347.246 467.76 341.199 473.42 L 347.654 453.101 C 351.249 443.676 385.948 367.246 399.092 371.435 C 421.224 378.489 440.986 385.739 465.045 389.348 C 464.71 377.32 463.235 364.242 461.812 352.239 C 460.687 342.743 460.318 321.269 450.936 316.863 C 440.603 316.101 423.223 335.823 417.389 330.025 C 390.35 303.152 431.921 270.889 456.48 263.184 z"></path>
<path transform="translate(0,0)" fill="rgb(254,254,254)" d="M 1370.76 822.367 C 1383.65 821.675 1397.52 821.88 1410.49 822.004 C 1444.51 822.328 1478.58 821.104 1512.55 822.853 C 1533.21 823.918 1531.66 839.854 1532.66 855.798 C 1534.01 877.369 1530.77 882.888 1509.75 883.143 C 1490.53 884.959 1371.24 889.525 1358.35 884.198 C 1356.06 883.252 1354.5 880.431 1353.53 878.245 C 1346.9 863.269 1352.17 839.965 1357.81 825.331 C 1362.73 823.886 1365.7 823.252 1370.76 822.367 z"></path>
<path transform="translate(0,0)" fill="rgb(0,0,0)" d="M 1374.69 846.472 C 1378.11 844.694 1382.22 844.928 1385.41 847.082 C 1388.6 849.236 1390.35 852.964 1389.98 856.794 C 1389.6 860.625 1387.16 863.942 1383.61 865.438 C 1378.43 867.624 1372.44 865.33 1370.05 860.238 C 1367.65 855.147 1369.7 849.072 1374.69 846.472 z"></path>
<path transform="translate(0,0)" fill="rgb(254,254,254)" d="M 1176.9 1423.45 C 1184.81 1427.98 1196.06 1432.05 1204.96 1436.4 C 1201.82 1447.68 1193.49 1467.65 1189.01 1479.31 L 1156.05 1564.54 L 1110.78 1683.28 C 1098.62 1715.76 1085.73 1752.18 1071.99 1783.71 L 1069.58 1787.67 C 1060.37 1792.01 1053.26 1776.76 1049.13 1770.19 C 1069.04 1717.89 1087.3 1663.3 1106.65 1610.44 C 1129.43 1548.2 1154.78 1485.56 1176.9 1423.45 z"></path>
<path transform="translate(0,0)" fill="rgb(254,254,254)" d="M 1464.77 1388.54 C 1465.57 1399.19 1465.08 1417.54 1465.22 1428.95 C 1465.7 1457.24 1465.94 1485.54 1465.96 1513.83 L 1466.92 1713.3 C 1455.91 1713.51 1447 1713.31 1436.04 1712.84 C 1435.18 1627.89 1436.62 1542.68 1436.07 1457.71 C 1435.92 1434.73 1435.85 1410.97 1436.89 1388.04 C 1445.86 1389.5 1455.73 1389.11 1464.77 1388.54 z"></path>
<path transform="translate(0,0)" fill="rgb(254,254,254)" d="M 343.565 1855.5 C 390.294 1894.85 471.991 1902.88 530.583 1889.45 C 550.18 1884.96 566.164 1875.67 581.304 1862.63 C 584.547 1876.9 585.901 1886.48 578.59 1900.05 C 537.591 1953.01 388.667 1947.2 348.017 1891.86 C 339.614 1880.42 341.24 1868.35 343.565 1855.5 z"></path>
<path transform="translate(0,0)" fill="rgb(254,254,254)" d="M 1438.19 990.949 L 1464.9 992.112 L 1467.2 1260.61 C 1467.23 1266.23 1468.48 1293.94 1466.68 1296.69 L 1436.32 1296.96 C 1435.93 1196.2 1437.23 1091.92 1438.19 990.949 z"></path>
<path transform="translate(0,0)" fill="rgb(254,254,254)" d="M 925.974 1003.24 C 928.02 1006.51 926.479 1044.2 926.234 1050.72 C 892.791 1061.04 847.292 1073.03 813.002 1076.51 C 811.246 1061.95 812.156 1041.18 811.542 1025.47 C 859.76 1019.97 879.951 1016.41 925.974 1003.24 z"></path>
<path transform="translate(0,0)" fill="rgb(254,254,254)" d="M 788.732 1027.48 L 792.495 1027.31 C 794.966 1030.15 795.516 1071.05 795.98 1078.88 C 769.37 1079.84 743.911 1081.95 717.068 1081.99 C 713.4 1082.15 712.802 1082.29 709.12 1081.33 C 706.548 1076.35 707.91 1039.14 707.851 1030.13 C 736.894 1030.06 759.677 1029.19 788.732 1027.48 z"></path>
<path transform="translate(0,0)" fill="rgb(254,254,254)" d="M 181.175 446.937 C 220.604 446.947 234.39 490.029 234.665 521.638 C 234.8 537.315 242.449 546.334 254.312 555.626 C 245.793 558.933 239.305 562.628 230.671 557.765 C 207.957 536.715 189.236 487.455 154.459 479.148 C 162.171 467.348 169.762 455.384 181.175 446.937 z"></path>
<path transform="translate(0,0)" fill="rgb(254,254,254)" d="M 608.141 1025.53 C 632.415 1027.46 665.873 1030.06 689.969 1029.96 C 690.034 1045.82 690.373 1063.14 689.757 1079.03 C 689.674 1081.15 689.744 1080.59 687.913 1081.94 C 659.854 1080.74 631.881 1078.02 604.116 1073.8 C 606.045 1060.95 607.067 1039.13 608.141 1025.53 z"></path>
<path transform="translate(0,0)" fill="rgb(254,254,254)" d="M 524.31 1009.77 C 549.163 1017.52 567.94 1019.41 593.166 1023.73 C 591.043 1036.69 590.205 1057.9 589.689 1071.33 C 579.019 1069.75 568.38 1067.96 557.777 1065.99 C 531.621 1060.36 505.876 1052.97 480.716 1043.87 C 495.521 1032.85 510.057 1021.48 524.31 1009.77 z"></path>
<path transform="translate(0,0)" fill="rgb(254,254,254)" d="M 1420.95 676.14 C 1466.46 674.441 1458.32 739.032 1459.17 769.887 L 1428.7 770.314 C 1432.18 757.553 1433.63 725.494 1431.76 712.119 C 1429.11 701.108 1416.99 693.945 1408.88 704.036 C 1399.97 715.113 1406.01 729.163 1408.16 741.211 C 1408.56 743.416 1407.69 743.917 1406.42 745.312 C 1381.54 748.114 1369.62 689.937 1420.95 676.14 z"></path>
<path transform="translate(0,0)" fill="rgb(254,254,254)" d="M 1683.92 1364.01 C 1689.45 1367.02 1702.65 1412.46 1704.82 1421.19 C 1690.6 1426.06 1666.67 1435.15 1652.84 1436.53 C 1648.04 1427.72 1637.29 1395.52 1632.01 1382.63 C 1647.54 1378.98 1668.53 1370.05 1683.92 1364.01 z"></path>
<path transform="translate(0,0)" fill="rgb(254,254,254)" d="M 1195.01 1351.51 C 1211.28 1358.37 1227.75 1362.6 1244.5 1370.09 C 1238.4 1390.11 1233.15 1406.33 1222.26 1424.32 C 1209.49 1421.55 1186.78 1412.13 1173.73 1407.03 C 1177.95 1393.31 1187.53 1362.57 1195.01 1351.51 z"></path>
<path transform="translate(0,0)" fill="rgb(254,254,254)" d="M 1489.47 1339.92 C 1498.46 1340.12 1531.36 1347.89 1542.55 1349.87 C 1565.52 1353.94 1582.93 1355.08 1605.88 1357.09 C 1605.9 1361.87 1607.27 1376.88 1605.72 1379.88 C 1574.33 1381.02 1519.13 1373.65 1488.16 1366.64 C 1487.57 1357.4 1486.04 1348.39 1489.47 1339.92 z"></path>
<path transform="translate(0,0)" fill="rgb(254,254,254)" d="M 1426.44 1314.03 L 1477.55 1313.92 C 1476.65 1330.62 1479.95 1351.15 1478.57 1370.75 C 1472.57 1370.79 1428.51 1372.22 1427.37 1368.74 C 1423.14 1355.79 1423.97 1327.7 1426.44 1314.03 z"></path>
<path transform="translate(0,0)" fill="rgb(254,254,254)" d="M 1510.66 907.267 L 1513.91 906.984 C 1518.37 910.836 1527.61 949.477 1529.93 958.198 C 1515.09 962.28 1500.18 966.078 1485.2 969.59 C 1481.81 970.027 1480.84 970.374 1477.51 969.405 C 1472.23 962.364 1466.38 924.417 1464.53 914.347 C 1477.75 914.07 1497.3 909.8 1510.66 907.267 z"></path>
<path transform="translate(0,0)" fill="rgb(254,254,254)" d="M 1352.9 905.5 C 1370.45 909.91 1384.66 911.527 1402.42 914.037 L 1390.23 970.106 C 1382.12 969.882 1351.48 959.831 1341.73 956.825 C 1344.49 937.736 1347.47 923.958 1352.9 905.5 z"></path>
<path transform="translate(0,0)" fill="rgb(254,254,254)" d="M 1405.86 778.388 C 1419.2 777.551 1483.16 776.413 1493.29 780.651 C 1497.33 785.125 1496.05 795.839 1495.92 802.088 L 1472.75 802.09 C 1449.3 802.163 1425.85 802.066 1402.41 802.783 C 1398.88 802.892 1385.5 804.369 1384.86 800.648 C 1381.34 780.389 1389.62 779.901 1405.86 778.388 z"></path>
<path transform="translate(0,0)" fill="rgb(254,254,254)" d="M 1496.13 661.818 C 1509.75 662.524 1518.63 673.271 1519.68 686.475 C 1521.73 712.387 1515.39 745.394 1484.24 748.776 C 1479.03 748.869 1469.53 749.118 1466.59 743.604 C 1467.07 736.944 1486.18 730.189 1490.54 724.388 C 1499.58 711.611 1500.5 692.785 1496.86 677.918 C 1495.25 671.338 1491.29 666.122 1496.13 661.818 z"></path>
<path transform="translate(0,0)" fill="rgb(254,254,254)" d="M 1852.94 1847.94 C 1859.45 1851.84 1866.52 1870.29 1864.43 1878.3 C 1859.84 1895.9 1844.62 1900.93 1827.86 1897.35 C 1814.93 1889.91 1812.53 1878.5 1811.42 1864.78 C 1821.29 1863.17 1842.01 1852.56 1852.94 1847.94 z"></path>
<path transform="translate(0,0)" fill="rgb(254,254,254)" d="M 1471.69 1726.46 C 1473.43 1725.94 1473.05 1726.16 1475.03 1726.39 C 1477.82 1732.03 1476.27 1741.55 1473.32 1747.02 C 1470.38 1752.48 1465.3 1756.46 1459.3 1758.02 C 1452.81 1759.73 1443.25 1757.71 1437.26 1754.45 C 1426.64 1743.62 1427.08 1740.13 1430.96 1726.33 C 1447.95 1727.93 1454.63 1728.24 1471.69 1726.46 z"></path>
<path transform="translate(0,0)" fill="rgb(0,0,0)" d="M 1637.15 235.126 C 1650.74 193.344 1674.43 177.906 1711.78 156.574 C 1730.94 145.631 1748.58 132.771 1769.97 126.151 C 1781.29 122.691 1793.16 121.4 1804.95 122.347 C 1845.31 125.404 1887.83 157.647 1913.05 187.484 C 1923.21 199.499 1933.31 212.373 1941.55 225.763 C 1963.97 262.164 1987.54 320.342 1983.64 363.382 C 1981.33 388.838 1970.16 410.146 1950.52 426.367 C 1925.7 446.874 1846.86 488.494 1815.86 493.41 C 1799.33 496.033 1783.93 493.493 1767.51 491.998 C 1756.52 499.029 1743.26 504.115 1731.6 510.095 C 1679.71 536.639 1630.63 566.713 1580.11 595.778 C 1553.04 611.358 1521.04 631.581 1489.26 635.25 C 1476.69 636.702 1464.72 632.18 1453.17 627.777 C 1441.98 635.4 1419.8 646.51 1407.16 653.426 C 1377.01 669.92 1346.12 691.177 1312.98 700.417 C 1290.68 706.634 1279.78 702.731 1260.97 691.557 C 1257.5 689.198 1252.21 685.22 1248.22 684.641 L 1249.08 684.817 L 1248.79 687.371 C 1250.74 689.051 1252.47 690.544 1254.33 692.348 C 1267.88 708.086 1250.48 720.852 1236.28 726.08 C 1218.33 732.692 1201.95 729.53 1185.14 722.025 C 1163.13 743.035 1133.84 768.36 1101.44 745.574 C 1086.9 735.295 1084.92 723.013 1081.57 708.036 C 1071.54 663.186 1111.65 639.99 1141.9 616.799 C 1147.09 612.826 1154.91 603.737 1160.36 598.611 C 1173.82 586.003 1188.03 574.22 1202.91 563.327 C 1209.84 558.265 1239.62 537.595 1243.19 532.822 C 1238.63 529.146 1237.62 528.131 1236.55 521.861 C 1231.97 494.905 1257.05 476.736 1279.7 473.066 C 1287 475.979 1297.91 481.028 1301.37 488.283 C 1313.27 479.325 1325.36 470.611 1337.61 462.145 C 1366.3 442.715 1365.53 444.771 1385.98 416.998 C 1394.06 406.031 1430.44 380.582 1442.99 371.241 C 1491.68 335.014 1543.33 301.506 1592.35 265.562 C 1606.57 255.185 1623.34 246.002 1637.15 235.126 z M 1786.15 130.234 C 1779.21 131.492 1766.33 135.117 1760.22 138.387 C 1733.52 152.69 1676.94 182.891 1660.33 206.02 C 1637.99 237.126 1642.79 293.553 1649.2 329.031 C 1659.4 385.534 1685.47 433.164 1733.46 466.029 C 1756.64 481.901 1786.05 492.83 1814.5 486.879 C 1819.13 485.876 1823.71 484.643 1828.22 483.185 C 1860.51 471.513 1929.65 438.049 1953.9 414.233 C 1959.75 408.486 1964.09 401.536 1967.57 394.154 C 1983.24 360.953 1975.27 320.064 1963.13 287.001 C 1941.25 227.407 1899.02 167.198 1839.9 139.911 C 1821.79 131.552 1805.86 129.114 1786.15 130.234 z M 1729.72 477.542 L 1727.75 478.953 C 1726.64 477.929 1726.54 477.597 1725.08 477.157 L 1724.69 478.338 L 1724.44 479.799 C 1718.38 480.128 1687.33 457.313 1681.76 451.91 C 1671.37 439.462 1656.6 427.515 1648.19 413.43 C 1643.52 405.624 1629.25 385.141 1628.6 376.966 L 1626.63 376.239 C 1612.48 384.339 1596.58 395.396 1583.08 404.729 C 1530.32 441.208 1475.55 474.305 1422.42 510.223 C 1418.5 512.871 1414.35 515.384 1410.86 518.55 C 1420.06 553.083 1461.22 617.535 1503.78 602.109 C 1565.94 579.583 1622.19 534.776 1681.82 505.951 C 1696.82 498.697 1718.24 482.029 1734.48 482.034 L 1734.36 480.753 L 1729.72 477.542 z M 1420.73 609.514 L 1419.11 609.614 L 1413.16 612.22 C 1396.49 606.753 1383.4 589.16 1373.92 574.924 C 1369.42 568.175 1366.53 561.384 1361.01 555.169 C 1327.92 574.37 1294.69 596.137 1261.76 615.786 C 1251.62 621.833 1261.48 643.115 1266.66 650.318 C 1293.53 692.342 1338.31 657.878 1368.03 640.307 C 1382.68 631.646 1399.34 621.238 1414.77 614.597 C 1418.25 613.012 1418.31 612.875 1421.33 610.426 L 1420.73 609.514 z M 1240.26 683.812 C 1234.9 680.017 1221.5 663.236 1216.49 656.871 C 1207.71 662.527 1193.95 670.375 1186.34 676.147 C 1198.74 685.85 1195.98 685.883 1211.1 692.281 C 1225.56 692.109 1226.62 689.391 1240.26 683.812 z M 1158.22 697.987 L 1149.65 689.063 C 1143.4 696.993 1117.95 713.039 1117.51 716.412 C 1119.99 718.496 1121.6 718.2 1124.88 718.377 C 1140.7 715.998 1145.97 707.567 1158.22 697.987 z"></path>
<path transform="translate(0,0)" fill="rgb(254,254,254)" d="M 1786.15 130.234 C 1805.86 129.114 1821.79 131.552 1839.9 139.911 C 1899.02 167.198 1941.25 227.407 1963.13 287.001 C 1975.27 320.064 1983.24 360.953 1967.57 394.154 C 1964.09 401.536 1959.75 408.486 1953.9 414.233 C 1929.65 438.049 1860.51 471.513 1828.22 483.185 C 1823.71 484.643 1819.13 485.876 1814.5 486.879 C 1786.05 492.83 1756.64 481.901 1733.46 466.029 C 1685.47 433.164 1659.4 385.534 1649.2 329.031 C 1642.79 293.553 1637.99 237.126 1660.33 206.02 C 1676.94 182.891 1733.52 152.69 1760.22 138.387 C 1766.33 135.117 1779.21 131.492 1786.15 130.234 z M 1919.93 416.722 C 1982.37 386.478 1954.02 301.459 1931.23 253.831 C 1907.99 205.248 1856.21 149.165 1798.51 149.314 C 1763.78 154.486 1757.44 198.717 1762.28 226.974 C 1773.13 290.37 1806.11 356.865 1858.99 395.158 C 1875.87 407.402 1897.98 421.649 1919.93 416.722 z M 1812.75 464.511 C 1831.6 458.779 1859.86 445.891 1876.96 435.545 C 1839.95 427.341 1788.58 378.315 1769.62 345.324 C 1757.85 324.846 1745.72 301.372 1737.44 279.108 C 1736.87 277.591 1737.07 278.16 1735.68 276.651 C 1717.61 297.173 1696.6 309.496 1674.76 325.319 C 1670.94 328.08 1679.39 350.298 1680.85 354.324 C 1699.8 406.567 1747.94 470.814 1810.2 464.779 C 1811.05 464.695 1811.9 464.606 1812.75 464.511 z"></path>
<path transform="translate(0,0)" fill="rgb(0,0,0)" d="M 1798.51 149.314 C 1856.21 149.165 1907.99 205.248 1931.23 253.831 C 1954.02 301.459 1982.37 386.478 1919.93 416.722 C 1897.98 421.649 1875.87 407.402 1858.99 395.158 C 1806.11 356.865 1773.13 290.37 1762.28 226.974 C 1757.44 198.717 1763.78 154.486 1798.51 149.314 z M 1892.86 404.134 C 1894.85 408.805 1898.03 409.345 1902.5 409.658 C 1939.3 412.243 1949.93 378.032 1950.92 349.579 C 1950.74 349.083 1950.65 348.55 1950.39 348.093 C 1946.05 340.483 1939.21 302.066 1934.16 288.495 C 1930.19 277.559 1925.22 267.012 1919.32 256.985 C 1915.25 250.101 1911.01 244.857 1907.66 237.489 L 1906.26 236.58 C 1896.26 213.711 1878.8 202.463 1870.93 187.701 C 1850.95 173.309 1823.36 153.881 1797.61 157.616 C 1766.34 162.15 1765.44 209.722 1770.66 233.457 C 1783.15 290.213 1810.81 349.877 1858.7 385.161 C 1860.67 386.591 1862.49 387.455 1864.63 388.4 C 1861.06 378.088 1855.46 378.465 1850.74 371.507 C 1843.9 361.43 1823.21 320.309 1849.59 321.146 C 1853.02 326.04 1855.89 333.372 1858.17 339.039 C 1863.75 352.929 1872.7 362.233 1883.73 372.074 C 1893.69 380.958 1910.17 388.348 1901.04 403.932 C 1897.64 405.956 1899.4 405.506 1895.62 405.574 L 1893.65 404.023 L 1892.86 404.134 z"></path>
<path transform="translate(0,0)" fill="rgb(0,0,0)" d="M 1827.61 184.823 C 1840.43 184.792 1858.55 200.27 1866.23 210.036 C 1874.01 219.922 1878.77 228.782 1881.31 241.084 C 1880.23 245.006 1878.67 248.089 1877 251.764 L 1868.97 257.482 C 1868.77 255.162 1869.28 255.634 1867.31 254.216 C 1860.53 249.314 1817.94 202.079 1816.73 196.974 C 1816.31 195.203 1816.32 194.4 1817.13 192.815 C 1819.1 188.926 1823.68 186.272 1827.61 184.823 z"></path>
<path transform="translate(0,0)" fill="rgb(254,254,254)" d="M 1822.14 193.881 C 1845.55 192.531 1860.3 210.22 1870.94 229.394 C 1874.82 236.381 1874.31 242.112 1871.66 249.376 L 1870.8 249.5 C 1862.62 243.46 1854.06 230.078 1846.44 222.612 C 1838.96 215.285 1831 208.355 1824.01 200.645 C 1821.87 198.28 1822.3 196.852 1822.14 193.881 z"></path>
<path transform="translate(0,0)" fill="rgb(254,254,254)" d="M 1892.86 404.134 C 1880.16 393.889 1866.05 386.095 1857.89 371.441 C 1853.32 363.228 1835.43 337.78 1841.78 328.787 C 1849 329.027 1863.04 362.701 1870.04 370.077 C 1876.66 377.061 1895.51 389.111 1897.4 395.6 C 1896.44 399.805 1895.04 400.518 1893.65 404.023 L 1892.86 404.134 z"></path>
<path transform="translate(0,0)" fill="rgb(254,254,254)" d="M 1870.93 187.701 C 1887.56 196.045 1902.98 217.943 1913 233.449 C 1918.15 242.025 1927.62 257.736 1931.09 266.478 C 1939.56 287.858 1953.33 327.025 1950.92 349.579 C 1950.74 349.083 1950.65 348.55 1950.39 348.093 C 1946.05 340.483 1939.21 302.066 1934.16 288.495 C 1930.19 277.559 1925.22 267.012 1919.32 256.985 C 1915.25 250.101 1911.01 244.857 1907.66 237.489 L 1906.26 236.58 C 1896.26 213.711 1878.8 202.463 1870.93 187.701 z"></path>
<path transform="translate(0,0)" fill="rgb(0,0,0)" d="M 1742.59 157.783 C 1742.96 161.12 1737.6 174.925 1736.66 180.665 C 1721.02 276.852 1796.53 414.105 1894.6 432.438 C 1874.61 446.584 1841.68 462.654 1818.74 470.186 C 1786.61 476.604 1766.36 468.823 1739.88 449.773 C 1708.03 426.67 1685.94 391.132 1673.22 354.322 C 1671.41 349.788 1663.71 327.185 1667.44 323.48 C 1687.59 303.466 1714.55 290.988 1732.65 267.681 C 1730.79 259.412 1729.17 251.091 1727.78 242.729 C 1723.27 214.265 1725.25 181.834 1742.59 157.783 z M 1812.75 464.511 C 1831.6 458.779 1859.86 445.891 1876.96 435.545 C 1839.95 427.341 1788.58 378.315 1769.62 345.324 C 1757.85 324.846 1745.72 301.372 1737.44 279.108 C 1736.87 277.591 1737.07 278.16 1735.68 276.651 C 1717.61 297.173 1696.6 309.496 1674.76 325.319 C 1670.94 328.08 1679.39 350.298 1680.85 354.324 C 1699.8 406.567 1747.94 470.814 1810.2 464.779 C 1811.05 464.695 1811.9 464.606 1812.75 464.511 z"></path>
<path transform="translate(0,0)" fill="rgb(254,254,254)" d="M 1756.5 490.196 C 1711.59 512.193 1667.63 536.088 1624.75 561.816 C 1593.43 580.179 1560.55 600.831 1527.95 616.382 C 1514.16 622.575 1493.66 629.441 1478.51 627.627 C 1458.45 625.224 1431.02 605.181 1418.42 590.562 C 1388.26 555.562 1350.76 472.19 1384.99 430.213 C 1399.75 412.114 1435 386.555 1454.51 372.437 C 1496.07 342.41 1537.93 312.804 1580.09 283.624 C 1593.35 274.272 1617.75 258.835 1629.15 249.594 L 1630.01 248.884 C 1627.81 328.235 1639.29 399.488 1701.37 455.729 C 1710.15 463.683 1720.23 470.437 1729.72 477.542 L 1727.75 478.953 C 1726.64 477.929 1726.54 477.597 1725.08 477.157 L 1724.69 478.338 C 1721.74 477.405 1715.3 473.807 1712.53 471.955 C 1681.06 450.848 1656.28 423.649 1639.18 389.743 C 1634.93 381.306 1630.33 374.974 1628.2 365.459 C 1623.68 369.016 1618.5 372.338 1613.75 375.627 C 1553.72 417.164 1492.13 456.226 1430.97 496.046 C 1421.68 502.099 1411.55 508.328 1403.01 515.347 C 1407.93 544.182 1431.96 581.97 1455.58 599.305 C 1468.34 608.707 1484.34 612.581 1499.98 610.056 C 1528.93 605.46 1576.52 573.843 1602.99 558.867 C 1632.3 542.285 1661.93 523.466 1692.06 507.775 C 1707.28 499.846 1725.77 487.662 1742.77 485.196 L 1744.24 484.988 C 1748.21 486.795 1752.46 488.5 1756.5 490.196 z"></path>
<path transform="translate(0,0)" fill="rgb(254,254,254)" d="M 1356.86 459.608 C 1355.6 468.918 1356.9 477.664 1358.08 486.929 C 1362.45 522.192 1375.54 555.122 1396.94 583.506 C 1403.94 592.785 1414.41 600.467 1420.73 609.514 L 1419.11 609.614 C 1398.37 610.719 1372.08 566.42 1364.36 549.947 C 1367.8 548.685 1368.42 548.636 1371.13 546.017 L 1370.75 544.932 C 1366.66 544.471 1357.72 547.677 1354.36 549.921 C 1320.85 572.287 1285.68 591.97 1251.52 613.326 C 1247.49 634.035 1258.3 658.213 1274.96 670.177 C 1308.49 694.246 1356.36 654.909 1385.47 638.846 C 1396.52 632.746 1420.86 620.779 1426.76 612.645 C 1433.5 617.436 1438.21 620.493 1445.34 624.634 C 1433.32 631.903 1414.54 642.056 1401.82 648.198 C 1359.49 668.652 1296.85 724.314 1254.87 676.288 C 1227.12 644.533 1221.8 602.208 1222.01 562.299 C 1231.84 554.848 1241.28 544.835 1251.09 537.931 C 1286.68 512.88 1320.94 484.082 1356.86 459.608 z"></path>
<path transform="translate(0,0)" fill="rgb(254,254,254)" d="M 1209.88 569.946 C 1210.47 574.525 1209.93 589.124 1210.48 595.883 C 1211.96 614.014 1216.46 626.762 1221.82 643.915 C 1215.95 646.887 1207.82 652.844 1201.94 656.594 C 1192.79 662.422 1185.06 666.5 1175.49 671.404 C 1190.29 701.418 1213.77 708.103 1242.32 690.7 C 1246.92 695.095 1252.62 698.206 1252.08 704.96 C 1250.14 709.192 1247.26 710.81 1243.53 713.719 C 1225.43 724.711 1205.51 725.555 1187.45 713.541 C 1158.93 694.562 1147.92 658.823 1152.43 625.997 C 1153.98 614.723 1161.76 607.071 1170.11 600.252 C 1182.96 589.606 1196.03 579.213 1209.88 569.946 z"></path>
<path transform="translate(0,0)" fill="rgb(254,254,254)" d="M 1133.77 633.938 C 1136.5 659.205 1134.88 655.764 1144.39 681.584 C 1134.08 694.497 1114.64 706.014 1100.09 713.341 C 1127.88 738.683 1137.08 723.619 1163.92 705.445 C 1168.68 709.912 1178.17 716.403 1174.08 722.837 C 1173.36 723.502 1172.63 724.155 1171.9 724.796 C 1128.38 763.117 1086.64 750.023 1088.82 687.94 C 1089.57 666.791 1117.79 646.341 1133.77 633.938 z"></path>
<path transform="translate(0,0)" fill="rgb(254,254,254)" d="M 1272.59 481.953 C 1279.96 480.249 1286.96 486.363 1292.36 490.55 C 1282.85 500.009 1266.85 510.492 1255.56 518.324 C 1252.79 520.857 1250.18 523.349 1247.17 525.606 C 1243.18 521.443 1242.85 513.165 1244.68 507.859 C 1249.26 494.649 1260.87 487.976 1272.59 481.953 z"></path>
<path transform="translate(0,0)" fill="rgb(254,254,254)" d="M 1225.01 650.966 C 1227.58 653.667 1239.95 673.268 1240.83 676.932 L 1238.62 678.839 C 1236.46 677.027 1224.34 660.492 1221.36 656.833 C 1221.61 653.689 1222.36 653.931 1225.01 650.966 z"></path>
<path transform="translate(0,0)" fill="rgb(254,254,254)" d="M 1142 629.599 L 1143.4 630.838 C 1145.1 637.591 1145.59 645.746 1145.77 652.697 C 1140.92 645.429 1139.51 638.073 1142 629.599 z"></path>
<path transform="translate(0,0)" fill="rgb(211,211,215)" fill-opacity="0.0352941" d="M 1420.73 609.514 L 1421.33 610.426 C 1418.31 612.875 1418.25 613.012 1414.77 614.597 L 1413.16 612.22 L 1419.11 609.614 L 1420.73 609.514 z"></path>
<path transform="translate(0,0)" fill="rgb(0,0,0)" d="M 1332.19 340.392 C 1362.23 334.692 1373.21 381.953 1367.36 403.712 C 1366.41 407.254 1362.06 414.13 1360.46 418.98 L 1360.1 420.109 C 1352.85 424.626 1342.76 428.964 1334.78 433.306 C 1324.39 438.964 1312.4 447.909 1301.48 451.631 C 1296.27 453.408 1283.83 450.784 1277.74 449.712 C 1257.55 462.015 1213.52 492.397 1193.16 499.136 C 1181.86 493.88 1179.33 492.974 1171.36 483.415 C 1186.89 510.7 1177.95 513.207 1154.77 527.922 C 1145.19 533.354 1139.74 536.978 1128.43 535.056 C 1114.29 532.039 1105.29 514.653 1109.38 501.267 C 1112.43 491.262 1122.58 485.496 1130.68 479.725 C 1141.06 472.324 1152.37 466.138 1163.84 460.383 C 1164.34 456.155 1165.65 450.462 1166.5 446.161 C 1190.6 421.616 1233.35 403.772 1262.04 384.253 C 1279.49 372.378 1311.21 342.132 1332.19 340.392 z"></path>
<path transform="translate(0,0)" fill="rgb(254,254,254)" d="M 1333.39 346.908 C 1335.45 347.183 1338.52 347.59 1340.49 348.109 C 1362.28 353.856 1369.15 404.047 1348.71 414.385 C 1348.19 414.226 1347.68 414.068 1347.16 413.909 C 1346.31 402.424 1341.52 354.432 1328.5 352.713 L 1326.79 354.3 C 1326.37 356.213 1335.02 384.232 1336.22 389.09 C 1334.33 390.075 1332.46 391.119 1330.63 392.221 C 1323.27 396.701 1286.63 418.41 1285.29 423.889 C 1288.05 425.309 1287.65 424.67 1291.59 423.696 C 1305.36 417.361 1321.87 406.455 1336.81 399.202 C 1337.2 406.43 1337.65 413.654 1338.16 420.874 C 1332.41 424.421 1326.74 428.075 1321.14 431.834 C 1312.53 437.493 1298.73 447.635 1288.36 444.296 C 1266.02 437.106 1270.87 399.836 1274.65 383.522 C 1292.31 367.699 1313.4 358.397 1333.39 346.908 z"></path>
<path transform="translate(0,0)" fill="rgb(254,254,254)" d="M 1256.74 396.861 C 1257.88 398.939 1259.39 414.751 1260.12 419.206 C 1241.11 432.221 1198.52 455.614 1186.81 471.746 C 1205.73 465.454 1241.06 439.046 1262.37 427.927 C 1264.02 433.992 1266.63 439.178 1269.22 444.902 C 1266.35 447.229 1263.6 449.163 1260.58 451.308 C 1240.85 463.818 1220.87 477.941 1200.22 488.785 C 1197.63 490.144 1194 492.305 1191.07 491.064 C 1185.74 488.808 1180.8 482.008 1178.38 476.905 C 1174.74 469.247 1171.6 457.23 1174.93 448.96 C 1178.65 439.746 1244.05 402.975 1256.74 396.861 z"></path>
<path transform="translate(0,0)" fill="rgb(254,254,254)" d="M 1160.35 470.811 L 1161.6 471.421 C 1163.89 475.214 1164.91 482.825 1165.84 487.479 C 1156.51 493.032 1132.46 508.805 1126.56 516.849 C 1141.04 511.762 1154.16 501.953 1166.87 493.258 C 1169.86 501.355 1174.63 504.743 1167.84 510.798 C 1160.84 515.655 1139.35 533.304 1130.89 528.629 C 1106.73 515.277 1113.26 497.538 1134.49 485.644 C 1142.81 480.987 1149.86 475.018 1160.35 470.811 z"></path>
<path transform="translate(0,0)" fill="rgb(0,0,0)" d="M 1397.88 1322.31 C 1413.31 1320.81 1406.9 1336.58 1408.06 1346.88 C 1408.79 1353.32 1408.64 1361.76 1405.52 1367.47 C 1396.49 1374.22 1282.16 1383.26 1265.96 1384.19 C 1249.98 1378.74 1258.08 1357.59 1260.54 1344.55 C 1271.25 1340.62 1296.56 1338.4 1308.79 1336.34 C 1337.92 1331.43 1368.98 1328.06 1397.88 1322.31 z"></path>
<path transform="translate(0,0)" fill="rgb(254,254,254)" d="M 1397.31 1330.2 L 1398.52 1330.14 C 1401.1 1333.12 1400.28 1355.7 1400.72 1361.93 C 1383.11 1365.69 1361.05 1367.67 1343.2 1369.39 L 1268.85 1376.2 C 1265.96 1375.64 1267.07 1376.4 1265.21 1374.34 C 1265.16 1368.45 1268.23 1355.72 1269.51 1349.51 C 1274.83 1349.11 1281.18 1348.04 1286.53 1347.24 C 1323.07 1341.74 1361.34 1338.54 1397.31 1330.2 z"></path>
<path transform="translate(0,0)" fill="rgb(0,0,0)" fill-opacity="0.0117647" d="M 1466.4 717.095 C 1469.37 713.147 1467.55 714.385 1471.61 712.654 C 1477.31 715.206 1475.19 720.464 1478.26 723.878 C 1475.84 725.429 1471.08 728.142 1468.28 727.938 L 1466.97 726.242 C 1466.94 722.901 1466.72 720.43 1466.4 717.095 z"></path>
<path transform="translate(0,0)" fill="rgb(211,211,215)" fill-opacity="0.0196078" d="M 1254.33 692.348 C 1252.47 690.544 1250.74 689.051 1248.79 687.371 L 1249.08 684.817 L 1248.22 684.641 C 1252.21 685.22 1257.5 689.198 1260.97 691.557 C 1254.23 695.402 1259.44 689.771 1254.33 692.348 z"></path>
<path transform="translate(0,0)" fill="rgb(28,28,28)" fill-opacity="0.0117647" d="M 1071.96 677.795 L 1073.84 677.534 L 1072.54 677.809 C 1074.91 679.446 1074.33 679.135 1076.23 681.496 C 1073.58 681.66 1074.54 681.834 1072.06 680.908 L 1071.96 677.795 z"></path>
</svg>