<?xml version="1.0" encoding="UTF-8" standalone="no"?>
<!DOCTYPE svg PUBLIC "-//W3C//DTD SVG 1.1//EN" "http://www.w3.org/Graphics/SVG/1.1/DTD/svg11.dtd">
<svg xmlns="http://www.w3.org/2000/svg" xmlns:xlink="http://www.w3.org/1999/xlink" version="1.1" width="1024" height="1024" viewBox="0 0 2048 2048">
<desc>Created with SVGMaker Editor 2.0.2</desc>
<defs>
</defs>
<path transform="translate(0,0)" style="fill: rgb(1,1,1)" stroke-linecap="round" d="M1655.3872 971.6209L1655.6706 1061.8226C1655.7171 1073.6726 1656.5668 1091.3811 1656.0547 1102.4221L1593.8253 1102.3003 1594.0133 1167.0602C1558.3012 1164.958 1505.1662 1166.649 1467.9352 1166.6997L1467.9756 1231.6299C1427.4913 1228.9368 1380.9602 1233.2052 1340.8797 1230.9014 1340.5233 1252.2421 1340.4478 1273.5923 1340.6534 1294.932 1302.0643 1294.9853 1252.8438 1296.3689 1214.95 1294.9909 1214.7174 1315.7114 1214.1638 1337.5025 1214.733 1358.1415L1086.2942 1358.4755C1086.1306 1379.7559 1086.1741 1401.0459 1086.4235 1422.3255L963.4046 1422.6193 963.4501 1488.6394C921.3868 1487.0193 874.7329 1490.308 834.5486 1488.1143 834.3896 1509.7247 834.4607 1531.3346 834.7918 1552.9441L709.062 1553.313 708.7548 1617.9438 582.8346 1618.063 582.8335 1680.6433C542.4222 1680.06 495.1312 1679.6199 454.8631 1680.6764L454.7047 1618.3665C434.3247 1618.4152 413.0353 1618.7757 392.7247 1618.5042 393.7945 1539.4319 392.7305 1458.4037 392.5701 1379.2237L391.733 949.1607 391.1405 632.0707C391.0346 576.3367 392.1785 515.2423 390.4036 459.9915 411.1351 460.7521 431.7038 460.032 452.3645 460.3588 452.6838 438.9211 452.703 417.479 452.4223 396.0404 494.3999 394.7156 538.0139 396.7538 580.0113 395.291 580.9126 416.9924 580.0438 438.6901 580.7547 460.2278 622.2022 458.8361 665.557 461.2547 706.6034 459.2877 706.6117 468.9347 705.8742 517.6353 707.5564 524.0201L832.3662 523.723C833.5675 540.1598 832.7771 571.5594 832.9301 588.9041L961.8805 588.8581C961.7216 610.5165 961.7828 632.1755 962.0539 653.833 1001.9419 652.7043 1044.7435 653.4279 1084.8375 653.3918 1084.7684 674.388 1084.8703 695.3848 1085.1462 716.3804L1213.6565 716.2752C1213.1317 731.6593 1212.7153 765.1282 1214.0843 779.8716 1225.0214 778.8559 1244.4425 779.413 1256.1595 779.3777 1283.9514 779.2399 1311.7446 779.3201 1339.5363 779.6203 1339.3744 800.7567 1339.6146 821.8943 1340.2567 843.0221L1467.2706 842.7038C1468.0334 862.5814 1467.4053 887.2597 1467.6301 907.6924L1593.523 907.4122C1593.3115 928.7297 1593.387 950.0486 1593.7465 971.364 1614.0726 971.3994 1635.1183 971.1564 1655.3872 971.6209ZM893.4703 846.796C893.509 867.148 893.0435 890.607 893.6918 910.7169 856.1918 910.8001 804.1745 912.3279 767.7412 910.6852 767.8093 930.7391 768.4261 955.325 767.6938 975.1705 726.5338 975.2467 682.4853 976.1344 641.5536 975.3132 641.5804 1015.7592 640.2744 1065.2019 642.01 1105.0088 683.9508 1105.3491 725.8908 1105.2494 767.8399 1104.7297 768.1511 1126.4092 768.2323 1148.0891 768.0735 1169.7695 778.701 1168.4493 800.3921 1168.9981 811.9622 1168.9961 839.2525 1169.1042 866.5524 1169.0024 893.8419 1168.6805 894.5003 1188.9193 894.0449 1212.3503 894.1137 1232.8102L963.7639 1232.7879 963.2475 971.4959 963.0242 890.8221C962.9705 878.3581 962.3227 858.4573 963.25 846.4915L893.4703 846.796Z"/>
<path transform="translate(0,0)" style="fill: rgb(78,78,78)" stroke-linecap="round" d="M832.1052 1488.1395C831.9462 1509.7499 832.0173 1531.3599 832.3484 1552.9693L706.6186 1553.3382 706.3114 1617.969 580.3912 1618.0883 580.3901 1680.6685C539.9788 1680.0853 492.6878 1679.6451 452.4197 1680.7016L452.2613 1618.3917C431.8813 1618.4404 410.5919 1618.8009 390.2813 1618.5295 391.3511 1539.4571 390.2871 1458.4289 390.1267 1379.2489L389.2896 949.1859 388.6971 632.0959C388.5912 576.3619 389.7351 515.2675 387.9602 460.0167 408.6917 460.7773 429.2604 460.0572 449.9211 460.384 450.2404 438.9463 450.2596 417.5042 449.9789 396.0656 491.9565 394.7409 535.5705 396.779 577.5679 395.3162 578.4692 417.0176 577.6004 438.7153 578.3113 460.253 619.7588 458.8613 663.1136 461.2799 704.16 459.3129 704.1683 468.9599 703.4308 517.6605 705.113 524.0453 662.8337 524.5287 620.5639 524.699 578.2835 524.5553L578.0619 460.5625C537.2527 461.066 490.1795 459.4675 450.2231 461.4424L452.4207 1618.0514C495.06 1617.6504 537.7002 1617.6294 580.331 1617.9984L580.2383 1553.4283 707.0383 1553.1774 706.9149 1488.2474C748.3052 1488.3188 790.8736 1487.3879 832.1052 1488.1395Z"/>
<path transform="translate(0,0)" style="fill: rgb(60,60,60)" stroke-linecap="round" d="M1655.3964 971.6094L1655.6797 1061.8112C1655.7263 1073.6612 1656.5759 1091.3696 1656.0639 1102.4106L1593.8344 1102.2889 1594.0225 1167.0488C1558.3104 1164.9466 1505.1754 1166.6376 1467.9443 1166.6883L1467.9847 1231.6185C1427.5004 1228.9254 1380.9694 1233.1938 1340.8889 1230.8899 1340.5324 1252.2307 1340.457 1273.5809 1340.6625 1294.9206 1302.0735 1294.9739 1252.8529 1296.3574 1214.9592 1294.9794 1214.7265 1315.7 1214.1729 1337.4911 1214.7422 1358.1301L1086.3033 1358.4641C1086.1398 1379.7445 1086.1832 1401.0345 1086.4326 1422.3141L963.4138 1422.6078 963.4592 1488.628C921.396 1487.0079 874.742 1490.2966 834.5577 1488.1029 834.9266 1466.4521 834.6336 1443.8326 834.6424 1422.1125L963.5121 1421.7076C964.1444 1401.8764 963.5894 1378.2073 963.5712 1358.1273 1003.9397 1357.2506 1045.6416 1358.1314 1086.3017 1357.6141L1086.2277 1294.434C1129.1883 1294.1524 1172.1504 1294.1508 1215.1112 1294.4491L1215.0118 1231.1091 1341.0148 1230.8497 1340.8826 1165.9897C1380.1945 1165.865 1429.1412 1164.582 1467.9726 1166.2882L1467.9001 1101.3182C1509.564 1101.189 1552.6341 1100.5872 1594.1829 1101.4882 1593.8385 1058.1387 1594.34 1014.6676 1593.7557 971.3526 1614.0818 971.3879 1635.1274 971.145 1655.3964 971.6094Z"/>
<path transform="translate(0,0)" style="fill: rgb(60,59,59)" stroke-linecap="round" d="M1593.5143 907.3935C1593.3028 928.711 1593.3783 950.03 1593.7378 971.3454L1467.6101 971.765 1467.5149 907.9409 1386.5283 908.3128C1372.3583 908.3607 1354.3795 907.9549 1340.3638 908.6665 1340.5114 886.8672 1340.4419 865.0682 1340.1585 843.2707 1298.9894 843.2839 1254.9575 842.8716 1213.9714 843.9734 1214.1598 822.601 1214.1942 801.2269 1214.0756 779.853 1225.0127 778.8372 1244.4338 779.3943 1256.1508 779.3591 1283.9426 779.2213 1311.7359 779.3015 1339.5276 779.6017 1339.3657 800.738 1339.6059 821.8757 1340.248 843.0035L1467.2619 842.6852C1468.0246 862.5628 1467.3965 887.2411 1467.6213 907.6737L1593.5143 907.3935Z"/>
<path transform="translate(0,0)" style="fill: rgb(60,60,60)" stroke-linecap="round" d="M961.8601 588.8651C961.7012 610.5235 961.7624 632.1825 962.0335 653.84 919.0544 654.3537 876.0745 654.5074 833.104 654.3L832.9097 588.9111 961.8601 588.8651Z"/>
<path transform="translate(0,0)" style="fill: rgb(60,60,60)" stroke-linecap="round" d="M1218.5304 716.26C1218.0056 731.644 1217.5892 765.1129 1218.9582 779.8564L1090.1047 780.3732 1090.0201 716.3651 1218.5304 716.26Z"/>
<path transform="translate(0,0)" style="fill: rgb(60,60,60)" stroke-linecap="round" d="M832.3427 523.7364C833.544 540.1732 832.7536 571.5728 832.9066 588.9176L707.5667 589.1928C707.5907 570.2586 708.4875 542.2488 707.5329 524.0336L832.3427 523.7364Z"/>
<path transform="translate(0,0)" style="fill: rgb(60,60,60)" stroke-linecap="round" d="M1084.82 653.3923C1084.7509 674.3885 1084.8528 695.3854 1085.1287 716.381 1045.0358 716.4912 1002.1444 715.8426 962.2564 716.9574 962.3822 698.9771 963.0898 671.3747 962.0364 653.8336 1001.9244 652.7048 1044.726 653.4285 1084.82 653.3923Z"/>
<path transform="translate(0,0)" style="fill: rgb(1,1,1)" stroke-linecap="round" d="M1024.334 779.7547L1025.2872 1297.2637C1012.3957 1296.4782 993.0266 1297.005 979.8366 1297.0201L894.2368 1297.2727 894.1143 1232.8227 963.7645 1232.8004 963.2481 971.5084 963.0248 890.8346C962.9711 878.3706 962.3233 858.4698 963.2506 846.504L893.4709 846.8085C893.5096 867.1605 893.0441 890.6195 893.6923 910.7294 856.1924 910.8126 804.1751 912.3404 767.7418 910.6977 767.8099 930.7516 768.4266 955.3375 767.6944 975.183 726.5343 975.2592 682.4859 976.1469 641.5542 975.3257 641.581 1015.7717 640.275 1065.2144 642.0106 1105.0213L518.8112 1105.5553 518.6524 974.6102 641.6126 974.4795C642.4155 954.9749 641.6882 930.0532 641.6103 910.1273L768.0702 909.818C767.7197 888.5056 767.5192 867.1899 767.4687 845.8749L893.4089 845.7517 893.2542 780.1087 1024.334 779.7547Z"/>
<path transform="translate(0,0)" style="fill: rgb(1,1,1)" stroke-linecap="round" d="M893.8489 1168.693C894.5074 1188.9318 894.0519 1212.3627 894.1208 1232.8227 853.0539 1234.5307 809.6109 1233.0533 768.222 1233.7219 768.1633 1213.3219 767.5993 1190.1829 768.651 1170.0209L642.2511 1170.291 642.017 1105.0212C683.9578 1105.3615 725.8978 1105.2618 767.847 1104.7421 768.1582 1126.4216 768.2393 1148.1016 768.0805 1169.7819 778.7081 1168.4617 800.3992 1169.0105 811.9692 1169.0085 839.2595 1169.1167 866.5594 1169.0148 893.8489 1168.693Z"/>
</svg>