<?xml version="1.0" encoding="UTF-8" standalone="no"?>
<!DOCTYPE svg PUBLIC "-//W3C//DTD SVG 1.1//EN" "http://www.w3.org/Graphics/SVG/1.1/DTD/svg11.dtd">
<svg xmlns="http://www.w3.org/2000/svg" xmlns:xlink="http://www.w3.org/1999/xlink" version="1.1" width="1024" height="1024" viewBox="0 0 2048 2048">
<desc>Created with SVGMaker Editor 2.0.2</desc>
<defs>
</defs>
<path transform="translate(0,0)" style="fill: rgb(254,254,254)" stroke-linecap="round" d="M1653.4851 966.8564L1654.6254 1057.0481C1654.7845 1068.8967 1655.8023 1086.5956 1655.3952 1097.6406L1593.1697 1098.11 1593.973 1162.8628C1558.2438 1161.1001 1505.1293 1163.2957 1467.9018 1163.7001L1468.559 1228.6246C1428.0524 1226.3163 1381.5657 1231.0264 1341.4666 1229.1035 1341.3129 1250.4459 1341.4403 1271.7951 1341.8486 1293.1311 1303.2632 1293.551 1254.0599 1295.402 1216.1561 1294.3841 1216.1204 1315.1052 1215.7738 1336.8998 1216.5391 1357.5317L1088.1139 1359.0858C1088.1525 1380.366 1088.3982 1401.6539 1088.8498 1422.9294L965.8438 1424.3918 966.5164 1490.4061C924.4413 1489.1857 877.8224 1492.9173 837.6206 1491.1056 837.6669 1512.7157 837.9433 1534.3232 838.4796 1555.9278L712.7637 1557.4911 713.0705 1622.1195 587.1617 1623.435 587.7551 1686.0101C547.3416 1685.8109 500.0503 1685.82 459.7955 1687.259L459.0452 1624.9557C438.6674 1625.198 417.3831 1625.7607 397.0716 1625.6823 397.3901 1546.6063 395.5565 1465.5947 394.6438 1386.4228L389.7211 956.403 386.1163 639.3446C385.4809 583.6162 386.0443 522.5159 383.7446 467.2865 404.4816 467.8501 425.0418 466.9347 445.7039 467.0651 445.8195 445.6261 445.6351 424.1856 445.1507 402.7515 487.1123 401.028 530.7421 402.6517 572.7221 400.79 573.8295 422.481 573.1669 444.1852 574.0824 465.7144 615.5133 463.929 658.8874 465.9356 699.9118 463.5788 700.0118 473.225 699.737 521.9286 701.4797 528.2969L826.2765 526.8141C827.6338 543.2381 827.1418 574.6426 827.4596 591.9845L956.3989 590.7135C956.4458 612.3716 956.7128 634.0282 957.1896 655.6814 997.0636 654.1738 1039.8685 654.4908 1079.959 654.0737 1080.0893 675.0688 1080.3907 696.063 1080.866 717.0542L1209.3648 715.7282C1208.9862 731.116 1208.8878 764.5861 1210.3967 779.3153 1221.3233 778.1957 1240.7481 778.5683 1252.4638 778.4217 1280.2521 778.0199 1308.0438 777.836 1335.8361 777.8722 1335.875 799.0084 1336.316 820.142 1337.1588 841.262L1464.1592 839.7371C1465.1108 859.6058 1464.7171 884.288 1465.1361 904.7169L1591.016 903.2407C1591.007 924.5584 1591.2851 945.8749 1591.847 967.1851 1612.1719 967.0274 1633.2134 966.5845 1653.4851 966.8564ZM890.4448 849.2802C890.6768 869.6301 890.4343 893.0916 891.2735 913.1936 853.7774 913.6331 801.7789 915.655 765.333 914.3585 765.5916 934.4101 766.4419 958.9882 765.8982 978.839 724.7422 979.3062 680.7058 980.6123 639.7697 980.18 640.1808 1020.6225 639.3445 1070.0735 641.4582 1109.8606 683.3988 1109.8025 725.3343 1109.3043 767.2751 1108.3862 767.7923 1130.0609 768.0794 1151.7383 768.1266 1173.4184 778.7407 1171.9973 800.4353 1172.34 812.0043 1172.2281 839.2934 1172.077 866.5901 1171.7158 893.8743 1171.1347 894.725 1191.3656 894.4921 1214.799 894.7554 1235.2566L964.3997 1234.5726 961.4009 973.3069 960.4113 892.6418C960.2392 880.1794 959.4024 860.2863 960.2159 848.3127L890.4448 849.2802Z"/>
<path transform="translate(0,0)" style="fill: rgb(10,10,10)" stroke-linecap="round" d="M827.7847 1485.5591C827.4766 1507.1681 827.3986 1528.7782 827.5805 1550.3897L701.8499 1549.891 701.0967 1614.5189 575.1773 1613.7693 574.7444 1676.3487C534.3377 1675.4866 487.0504 1674.7202 446.7755 1675.4988L447.047 1613.1886C426.667 1613.0967 405.3754 1613.3103 385.0669 1612.8987 386.6823 1533.8348 386.1774 1452.8003 386.5633 1373.6202L388.6936 943.5571 390.2891 626.4672C390.5678 570.7332 392.1332 509.6475 390.7395 454.3851 411.4655 455.2888 432.0389 454.7106 452.6971 455.1799 453.1642 433.7447 453.3315 412.303 453.1986 390.8628 495.1849 389.8277 538.7843 392.1668 580.7912 390.9938 581.5427 412.7011 580.5242 434.3925 581.0865 455.9349 622.5431 454.8291 665.8806 457.5469 706.94 455.8631 706.8818 465.5101 705.8083 514.2049 707.4463 520.6013 665.1643 520.7929 622.8939 520.6715 580.615 520.2361L580.8349 456.2426C540.0228 456.4646 492.9613 454.5412 452.9918 456.2404L447.2087 1612.8494C489.8503 1612.7426 532.49 1613.0158 575.1178 1613.679L575.4706 1549.1091 702.2707 1549.7331 702.5953 1484.8031C743.9846 1485.1601 786.5588 1484.5229 827.7847 1485.5591Z"/>
<path transform="translate(0,0)" style="fill: rgb(1,1,1)" stroke-linecap="round" d="M1654.592 977.2167L1654.253 1067.4193C1654.2178 1079.2694 1654.9452 1096.9835 1654.357 1108.0208L1592.1292 1107.4697 1591.8704 1172.23C1556.1733 1169.8815 1503.0273 1171.2058 1465.7964 1170.9996L1465.3888 1235.9292C1424.9236 1232.9568 1378.3637 1236.9041 1338.2996 1234.3237 1337.7959 1255.6618 1337.5732 1277.0112 1337.6315 1298.352 1299.0426 1298.1391 1249.8131 1299.1829 1211.9294 1297.5435 1211.5538 1318.2621 1210.8498 1340.0492 1211.2766 1360.6918L1082.8372 1360.1396C1082.5268 1381.4186 1082.4233 1402.7086 1082.5259 1423.9897L959.5066 1423.4346 959.0965 1489.4542C917.045 1487.5439 870.369 1490.5106 830.2004 1488.0397 830.7186 1466.3917 830.5817 1443.7705 830.7403 1422.0507L959.6111 1422.5351C960.3803 1402.7084 959.9886 1379.0359 960.109 1358.956 1000.483 1358.3578 1042.1782 1359.5263 1082.8414 1359.2896L1083.2033 1296.1098C1126.1653 1296.1246 1169.1269 1296.4195 1212.085 1297.0143L1212.4227 1233.6744 1338.4258 1234.2844 1338.7411 1169.4243C1378.0534 1169.5709 1427.0083 1168.6256 1465.8274 1170.5998L1466.2033 1105.63C1507.8675 1105.7884 1550.9411 1105.4837 1592.4832 1106.6714 1592.438 1063.3201 1593.2393 1019.8531 1592.9539 976.5345 1613.2795 976.7102 1634.3265 976.6124 1654.592 977.2167Z"/>
<path transform="translate(0,0)" style="fill: rgb(1,1,1)" stroke-linecap="round" d="M1593.1845 912.5932C1592.8259 933.9089 1592.7544 955.2281 1592.9668 976.5457L1466.8379 976.0951 1467.183 912.2712 1386.1949 912.0843C1372.0248 912.0344 1354.049 911.5045 1340.0286 912.1194 1340.3266 890.3214 1340.4076 868.5222 1340.2746 846.723 1299.1059 846.4522 1255.0774 845.736 1214.0842 846.5551 1214.4201 825.1842 1214.602 803.8106 1214.6308 782.4362 1225.5748 781.4959 1244.9918 782.187 1256.7089 782.2326 1284.5013 782.2866 1312.2937 782.5585 1340.0829 783.0505 1339.7752 804.1855 1339.8695 825.3245 1340.3659 846.4565L1467.3803 847.0146C1468.0059 866.8972 1467.2075 891.5708 1467.2913 912.0047L1593.1845 912.5932Z"/>
<path transform="translate(0,0)" style="fill: rgb(14,14,14)" stroke-linecap="round" d="M963.7654 589.667C963.4571 611.324 963.3688 632.9831 963.4905 654.6423 920.5084 654.8594 877.528 654.7165 834.5595 654.2127L834.8164 588.8233 963.7654 589.667Z"/>
<path transform="translate(0,0)" style="fill: rgb(1,1,1)" stroke-linecap="round" d="M1219.5388 718.8533C1218.9079 734.2335 1218.2606 767.6991 1219.5278 782.4518L1090.6725 782.0796 1091.0295 718.0718 1219.5388 718.8533Z"/>
<path transform="translate(0,0)" style="fill: rgb(14,14,14)" stroke-linecap="round" d="M834.7066 523.6346C835.7945 540.0794 834.7875 571.4732 834.8207 588.8188L709.4806 588.2291C709.6352 569.2954 710.7253 541.2921 709.8963 523.0705L834.7066 523.6346Z"/>
<path transform="translate(0,0)" style="fill: rgb(14,14,14)" stroke-linecap="round" d="M1086.2713 655.0527C1086.0573 676.0481 1086.0143 697.0455 1086.1454 718.0426 1046.0522 717.8762 1003.1658 716.9317 963.2706 717.7713 963.5205 699.7921 964.4185 672.1949 963.4863 654.6468 1003.3815 653.7932 1046.1775 654.8122 1086.2713 655.0527Z"/>
<path transform="translate(0,0)" style="fill: rgb(1,1,1)" stroke-linecap="round" d="M1024.8846 780.9689L1022.267 1298.4777C1009.3811 1297.6033 990.0086 1297.9964 976.8187 1297.9205L891.2182 1297.5824 891.5405 1233.1325 961.1899 1233.5907 962.4764 972.2986 962.8098 891.6243C962.8421 879.1601 962.3316 859.2551 963.3414 847.2958L893.5605 847.1189C893.4588 867.4709 892.8315 890.9264 893.3409 911.0404 855.8409 910.8649 803.8137 912.0338 767.3923 910.1396 767.322 930.1938 767.7691 954.7837 766.8999 974.6238 725.7399 974.416 681.6859 974.9998 640.7604 973.8961 640.5081 1014.3419 638.8609 1063.7749 640.3219 1103.5932L517.1204 1103.2771 517.8651 972.3326 640.8246 973.0504C641.7621 953.5516 641.2067 928.6252 641.2663 908.699L767.7267 909.2623C767.5233 887.9478 767.4698 866.631 767.5664 845.3159L893.5058 846.0616 893.804 780.4185 1024.8846 780.9689Z"/>
<path transform="translate(0,0)" style="fill: rgb(1,1,1)" stroke-linecap="round" d="M891.7057 1168.9999C892.2245 1189.243 891.6073 1212.6705 891.535 1233.1306 850.4569 1234.5553 807.0247 1232.7781 765.6317 1233.1611 765.7137 1212.761 765.3094 1189.6184 766.5002 1169.4639L640.1001 1168.8619 640.3164 1103.5913C682.2543 1104.221 724.1944 1104.4107 766.1466 1104.1805 766.3082 1125.8618 766.2398 1147.542 765.9314 1169.221 776.5679 1167.9742 798.255 1168.6726 809.8249 1168.7505 837.1141 1169.0469 864.4143 1169.1334 891.7057 1168.9999Z"/>
</svg>