<?xml version="1.0" encoding="UTF-8" standalone="no"?>
<!DOCTYPE svg PUBLIC "-//W3C//DTD SVG 1.1//EN" "http://www.w3.org/Graphics/SVG/1.1/DTD/svg11.dtd">
<svg xmlns="http://www.w3.org/2000/svg" xmlns:xlink="http://www.w3.org/1999/xlink" version="1.1" width="1024" height="1024" viewBox="0 0 2048 2048">
<desc>Created with SVGMaker Editor 2.0.2</desc>
<defs>
</defs>
<path transform="translate(0,0)" style="fill: rgb(126,126,126)" stroke-linecap="round" d="M1654.1137 969.8958L1654.4692 1060.0975C1654.5252 1071.9474 1655.389 1089.6552 1654.8858 1100.6967L1592.6562 1100.6247 1592.896 1165.3845C1557.1822 1163.3109 1504.0485 1165.0444 1466.8174 1165.1249L1466.9097 1230.0551C1426.4233 1227.3944 1379.8955 1231.7001 1339.8131 1229.4283 1339.4737 1250.7694 1339.4154 1272.1197 1339.638 1293.4592 1301.0489 1293.5434 1251.8294 1294.9663 1213.9345 1293.6186 1213.7185 1314.3394 1213.1823 1336.131 1213.768 1356.7695L1085.3293 1357.2063C1085.1827 1378.4869 1085.2432 1399.7769 1085.5097 1421.0563L962.4908 1421.4485 962.5891 1487.4687C920.5245 1485.8822 873.8731 1489.2082 833.687 1487.0467 833.5453 1508.6572 833.6337 1530.2672 833.982 1551.8764L708.2524 1552.3459 707.9969 1616.977 582.0766 1617.197 582.1255 1679.7773C541.7137 1679.2264 494.4223 1678.8241 454.155 1679.9128L453.9467 1617.6029C433.5667 1617.668 412.2776 1618.0455 391.9668 1617.7903 392.9733 1538.717 391.8445 1457.6895 391.6207 1378.5095L390.4396 948.4465 389.5934 631.3565C389.4429 575.6225 390.538 514.5271 388.7188 459.2776 409.451 460.0216 430.0191 459.2851 450.6801 459.5953 450.9822 438.1574 450.9843 416.7152 450.6864 395.2768 492.6631 393.9185 536.2788 395.9217 578.2751 394.4253 579.1937 416.126 578.3423 437.8245 579.0704 459.3617 620.5169 457.9368 663.8736 460.3207 704.9185 458.3209 704.9346 467.9679 704.236 516.6691 705.9233 523.0526L830.7331 522.6557C831.9475 539.0915 831.1823 570.4918 831.3491 587.8365L960.2997 587.6873C960.1581 609.3458 960.2366 631.0048 960.5251 652.6622 1000.4123 651.5015 1043.2144 652.1909 1083.3085 652.1226 1083.2562 673.1189 1083.3749 694.1158 1083.6676 715.1111L1212.178 714.9032C1211.6655 730.2877 1211.2759 763.757 1212.6567 778.4993 1223.593 777.4748 1243.0146 778.0164 1254.7316 777.9717 1282.5233 777.8117 1310.3167 777.8696 1338.1087 778.1476 1337.9637 799.2842 1338.2208 820.4216 1338.8798 841.549L1465.8936 841.1291C1466.6723 861.0061 1466.0639 885.6849 1466.3051 906.1174L1592.198 905.7365C1592.0036 927.0542 1592.0961 948.3731 1592.4727 969.6882 1612.7989 969.7073 1633.8443 969.4475 1654.1137 969.8958ZM892.0957 845.6803C892.1507 866.0323 891.704 889.4917 892.3683 909.6011 854.8684 909.7143 802.8522 911.2838 766.4176 909.6701 766.5017 929.724 767.1381 954.3095 766.4217 974.1556 725.2617 974.2647 681.2139 975.1876 640.2814 974.3992 640.3406 1014.8453 639.0741 1064.2891 640.8416 1104.0946 682.7828 1104.4014 724.7227 1104.2681 766.6715 1103.7149 767.0001 1125.3941 767.0986 1147.074 766.9571 1168.7546 777.5836 1167.4259 799.2752 1167.9573 810.8453 1167.9461 838.1357 1168.0324 865.4356 1167.9087 892.7248 1167.565 893.3995 1187.8033 892.9627 1211.2347 893.048 1231.6946L962.6983 1231.6165 961.9728 970.3246 961.685 889.6508C961.6213 877.1868 960.9576 857.2865 961.8753 845.3199L892.0957 845.6803Z"/>
<path transform="translate(0,0)" style="fill: rgb(1,1,1)" stroke-linecap="round" d="M833.6886 1487.0489C833.5469 1508.6594 833.6353 1530.2694 833.9836 1551.8786L708.254 1552.3481 707.9985 1616.9792 582.0782 1617.1992 582.1271 1679.7795C541.7153 1679.2286 494.4239 1678.8263 454.1566 1679.915L453.9483 1617.6051C433.5683 1617.6702 412.2792 1618.0477 391.9684 1617.7925 392.9749 1538.7192 391.8461 1457.6917 391.6223 1378.5117L390.4412 948.4487 389.595 631.3587C389.4445 575.6247 390.5396 514.5293 388.7204 459.2798 409.4526 460.0238 430.0207 459.2873 450.6817 459.5975 450.9838 438.1596 450.9859 416.7174 450.688 395.279 492.6647 393.9207 536.2804 395.9239 578.2767 394.4275 579.1953 416.1282 578.3439 437.8267 579.072 459.3639 620.5185 457.939 663.8752 460.3229 704.9201 458.3231 704.9362 467.9701 704.2376 516.6713 705.9249 523.0548 663.646 523.572 621.3762 523.7761 579.0956 523.6663L578.8228 459.6735C538.014 460.2097 490.9394 458.6488 450.9846 460.6557L454.1074 1617.2647C496.7465 1616.8296 539.3867 1616.7745 582.0179 1617.1094L581.8736 1552.5393 708.6736 1552.1869 708.4982 1487.2569C749.8886 1487.2952 792.4564 1486.3302 833.6886 1487.0489Z"/>
<path transform="translate(0,0)" style="fill: rgb(1,1,1)" stroke-linecap="round" d="M1654.1139 969.8939L1654.4694 1060.0956C1654.5254 1071.9455 1655.3893 1089.6533 1654.8861 1100.6947L1592.6564 1100.6227 1592.8963 1165.3826C1557.1824 1163.309 1504.0487 1165.0425 1466.8177 1165.123L1466.91 1230.0532C1426.4235 1227.3925 1379.8958 1231.6981 1339.8133 1229.4264 1339.474 1250.7674 1339.4156 1272.1177 1339.6382 1293.4573 1301.0492 1293.5415 1251.8297 1294.9644 1213.9347 1293.6167 1213.7187 1314.3374 1213.1825 1336.129 1213.7682 1356.7676L1085.3295 1357.2044C1085.1829 1378.4849 1085.2434 1399.7749 1085.5099 1421.0544L962.491 1421.4465 962.5893 1487.4667C920.5247 1485.8803 873.8733 1489.2063 833.6872 1487.0448 834.0388 1465.3937 833.7277 1442.7743 833.719 1421.0542L962.5886 1420.5462C963.2051 1400.7144 962.6312 1377.0458 962.5969 1356.9658 1002.9648 1356.0568 1044.6674 1356.9042 1085.3272 1356.3544L1085.2026 1293.1743C1128.1631 1292.8583 1171.1253 1292.8223 1214.0863 1293.0863L1213.9363 1229.7462 1339.9392 1229.386 1339.7551 1164.526C1379.067 1164.3699 1428.0128 1163.0477 1466.8456 1164.7229L1466.7212 1099.7528C1508.385 1099.5903 1551.4546 1098.954 1593.0043 1099.8218 1592.6252 1056.4725 1593.0918 1013.0009 1592.4729 969.6863 1612.7991 969.7054 1633.8445 969.4456 1654.1139 969.8939Z"/>
<path transform="translate(0,0)" style="fill: rgb(10,10,10)" stroke-linecap="round" d="M1592.1958 905.7349C1592.0013 927.0526 1592.0939 948.3715 1592.4704 969.6866L1466.3429 970.2072 1466.1966 906.3831 1385.2102 906.8198C1371.0402 906.879 1353.061 906.4876 1339.0459 907.2104 1339.176 885.4109 1339.0892 863.612 1338.7883 841.8146 1297.6191 841.8608 1253.5868 841.4837 1212.6016 842.6184 1212.7729 821.2457 1212.7902 799.8715 1212.6545 778.4977 1223.5908 777.4732 1243.0124 778.0148 1254.7293 777.9701 1282.5211 777.8101 1310.3145 777.8681 1338.1064 778.146 1337.9615 799.2826 1338.2186 820.42 1338.8776 841.5474L1465.8914 841.1275C1466.6701 861.0045 1466.0617 885.6833 1466.3029 906.1158L1592.1958 905.7349Z"/>
<path transform="translate(0,0)" style="fill: rgb(29,29,29)" stroke-linecap="round" d="M960.2979 587.6895C960.1564 609.348 960.2349 631.007 960.5234 652.6644 917.5445 653.2124 874.5647 653.4004 831.5939 653.2275L831.3474 587.8387 960.2979 587.6895Z"/>
<path transform="translate(0,0)" style="fill: rgb(29,29,29)" stroke-linecap="round" d="M1214.6202 714.8969C1214.1077 730.2814 1213.7181 763.7507 1215.0989 778.493L1086.2456 779.113 1086.1098 715.1049 1214.6202 714.8969Z"/>
<path transform="translate(0,0)" style="fill: rgb(29,29,29)" stroke-linecap="round" d="M830.7315 522.6587C831.9458 539.0946 831.1806 570.4949 831.3474 587.8395L706.0075 588.215C706.0164 569.2808 706.8908 541.2702 705.9216 523.0557L830.7315 522.6587Z"/>
<path transform="translate(0,0)" style="fill: rgb(29,29,29)" stroke-linecap="round" d="M1083.3066 652.1239C1083.2543 673.1202 1083.373 694.117 1083.6657 715.1124 1043.5728 715.2546 1000.6808 714.6404 960.7936 715.7871 960.9051 697.8067 961.5906 670.2037 960.5232 652.6634 1000.4104 651.5027 1043.2125 652.1922 1083.3066 652.1239Z"/>
<path transform="translate(0,0)" style="fill: rgb(15,15,15)" stroke-linecap="round" d="M1022.9064 778.523L1024.2736 1296.0321C1011.3815 1295.2569 992.0128 1295.7992 978.8227 1295.8248L893.223 1296.1459 893.049 1231.6959 962.6993 1231.6179 961.9738 970.3259 961.686 889.6521C961.6223 877.1882 960.9586 857.2878 961.8763 845.3213L892.0967 845.6817C892.1517 866.0337 891.705 889.4931 892.3693 909.6024 854.8694 909.7157 802.8532 911.2851 766.4186 909.6715 766.5027 929.7254 767.1391 954.3109 766.4227 974.1569 725.2627 974.2661 681.2149 975.189 640.2824 974.4005 640.3416 1014.8467 639.0751 1064.2904 640.8426 1104.0959L517.6434 1104.7286 517.3799 973.7833 640.3402 973.5544C641.1275 954.0491 640.3802 929.1279 640.2864 909.202L766.7462 908.7916C766.3787 887.4794 766.1611 866.1639 766.0936 844.8489L892.0339 844.6248 891.8266 778.9819 1022.9064 778.523Z"/>
<path transform="translate(0,0)" style="fill: rgb(11,11,11)" stroke-linecap="round" d="M892.7265 1167.5659C893.4012 1187.8042 892.9645 1211.2356 893.0497 1231.6955 851.9841 1233.4364 808.5399 1231.9937 767.1515 1232.6954 767.0764 1212.2955 766.4939 1189.1569 767.5295 1168.994L641.1296 1169.3652 640.8433 1104.0955C682.7845 1104.4023 724.7244 1104.2691 766.6732 1103.7158 767.0018 1125.3951 767.1003 1147.075 766.9588 1168.7555 777.5853 1167.4268 799.2769 1167.9582 810.847 1167.947 838.1374 1168.0333 865.4373 1167.9096 892.7265 1167.5659Z"/>
</svg>